<?xml version="1.0" standalone="no"?>
<!DOCTYPE svg PUBLIC "-//W3C//DTD SVG 1.1//EN" "http://www.w3.org/Graphics/SVG/1.1/DTD/svg11.dtd" >
<svg xmlns="http://www.w3.org/2000/svg">
<metadata></metadata>
<defs>
<font id="adrippingmarkerRegular" horiz-adv-x="569" >
<font-face units-per-em="2048" ascent="1638" descent="-410" />
<missing-glyph horiz-adv-x="395" />
<glyph horiz-adv-x="0" />
<glyph horiz-adv-x="2048" />
<glyph unicode="&#xd;" horiz-adv-x="290" />
<glyph horiz-adv-x="0" />
<glyph unicode=" "  horiz-adv-x="395" />
<glyph unicode="&#x09;" horiz-adv-x="395" />
<glyph unicode="&#xa0;" horiz-adv-x="395" />
<glyph unicode="!" horiz-adv-x="206" d="M2 201q0 4 4 16t4 14l33 33t35 33q4 4 20.5 12t22.5 13h10h2q4 -4 14.5 -12.5t10.5 -12.5v-215q0 -4 -5.5 -12.5t-9.5 -12.5q-2 -4 -8 -13l-13 -19.5t-13.5 -20.5t-6.5 -14q-2 -4 -2 -19.5v-34t1 -36t1 -21.5t-5 -16.5t-9 -16.5q0 4 -5 12.5t-5 12.5q-2 2 -5 20.5 t-7 24.5q0 -10 -1.5 -29.5t-2.5 -41t-3 -40t-2 -24.5q0 -2 -5 -10.5t-5 -10.5q-2 8 -4 30t-3 46.5t-3 47t-4 32.5q0 8 -5 22.5t-5 18.5q-2 4 -10.5 14.5t-10.5 10.5v219zM6 647v178q0 6 1 30t3 49.5t3 49t1 29.5q0 2 1 18.5t1 38t1 44t1 36.5q0 6 -1 25.5t-1 42t-1 43 t-1 29.5q0 4 -4 16t-4 16q2 6 4 15l4 16q8 12 13 25q4 8 12 19t12 11q0 4 9.5 12.5t9.5 12.5q4 4 17 11t19 11q2 2 11 7q4 2 8 2t12 3t17 3q2 -2 4 -2t3 -1t3 -1q4 -2 8 -2q2 0 7 -7.5t1 -11.5q0 -12 1 -40.5t1 -61.5t1 -61.5t1 -41.5q0 -20 -1 -54t-1 -66.5t-1 -57.5 l-1 -24q0 -6 -1 -32t-3 -53.5t-3 -52t-1 -28.5v-338l-10 -19q-2 -4 -9.5 -12t-15.5 -17.5t-14 -16.5t-6 -9q-4 -10 -9.5 -40t-1.5 -38h-14q4 8 -1 22.5t-9 18.5q0 2 -8 4t-17.5 3t-18.5 3.5t-11 4.5q-2 0 -5.5 5t-7.5 5q0 6 -4 22.5t-4 22.5v184z" />
<glyph unicode="&#x22;" horiz-adv-x="475" d="M80 733q-4 0 -14.5 4t-14.5 8q-14 0 -14 9q0 14 -2 48t-3 70.5t-3 68.5t-2 44t-2 37t-3.5 49.5t-3.5 45t-4 24.5q0 8 -4 34.5t-4 30.5v33v29q2 2 4 6q4 8 4 12q4 6 13.5 19.5t9.5 17.5q4 0 12 9t12 9q2 2 14.5 10.5t16.5 10.5q2 2 14 10q6 4 11 6h20h25q2 -2 4 -6t4 -6 t2 -4l1 -8t3 -18.5t3 -20.5t1 -17q2 -10 4 -27.5t4 -34.5t3.5 -31.5t1.5 -16.5v-166v-166q-2 -4 -5.5 -17.5t-7.5 -19.5q0 -4 -4 -20.5t-4 -20.5l-10 10l-45 -43q0 -16 -2 -53t-3 -78t-3.5 -76.5t-2.5 -50.5q-2 -8 -4 -25.5t-3 -34.5t-3 -32.5t-4 -17.5q0 -4 -5 -16.5 t-7 -14.5v387zM338 954q0 2 -5 5.5t-5 7.5h-15q-6 2 -10 4l-12 4l-8 10q0 14 -2 46t-3.5 67t-3.5 65.5t-2 42.5q-4 6 -7 33t-7 37q0 4 -5 16.5t-5 14.5v24v23q2 4 4 10q2 4 4 7t2 7q2 2 12.5 11.5t20.5 20.5t20.5 19.5t16.5 12.5q4 2 10 4q4 2 7 4t5 2h8q4 0 8.5 1t8.5 1 q2 -2 4 -2h6h8q2 0 10.5 -8t10.5 -10q0 -2 4 -15q2 -6 6 -10q4 -8 9 -28.5t5 -26.5q0 -8 2 -23.5t3 -32t3.5 -30t2.5 -17.5v-75v-91q0 -12 -2.5 -39.5t-3.5 -59.5t-3 -59.5t-2 -37.5q0 -4 -5 -24.5t-9 -30.5q0 -6 -5 -22.5t-5 -23.5v234l-45 -47q0 -8 -2 -28.5t-3.5 -43 t-3.5 -43t-2 -26.5t-4 -22.5t-4 -23.5l-12 13v153z" />
<glyph unicode="#" horiz-adv-x="1187" d="M774 -215v197q0 8 2 46t5 82t5 80.5t2 47.5v38q-10 0 -34.5 3.5t-34.5 3.5q-14 -2 -27 -4q-10 -2 -21.5 -5.5t-17.5 -5.5q-10 0 -30.5 -5t-24.5 -5q-2 0 -10 -4q-4 -2 -10 -4q0 -4 -5.5 -17.5t-5.5 -19.5q-2 -4 -5 -23.5t-7 -42t-7 -42t-5 -21.5q0 -8 -9.5 -25.5 t-11.5 -21.5q-2 0 -9 -8.5t-16.5 -17.5t-17.5 -17l-12 -12q-6 -2 -10 -5q-12 -4 -15 -4q-4 -4 -16 -8t-14 -4h-6h-5q-4 2 -14 10.5t-10 10.5v16v18q0 6 3 29t7 49.5t8 49t6 28.5v12v19q-6 0 -22.5 -4t-22.5 -4q-4 -2 -15 -5.5t-24.5 -7.5t-25.5 -7t-15 -3h-36h-41l-9 10v8 v13q0 4 5 20q2 8 4 15l15 15l23.5 23.5t23.5 22.5t15 14q6 2 15 4q6 2 12 4.5t10 2.5q6 2 21.5 8t33 12t34 10t22.5 6l8 19q0 2 2 14.5t3 27.5t3 29.5t2 20.5v27q-4 0 -15 1t-23.5 2t-22.5 2t-12 1q-4 0 -20.5 -3t-38 -7.5t-42 -8.5t-32.5 -6q-4 0 -26 -4t-30 -4l-16 -4 t-17 -4q-8 -2 -18 -4v-398l-18 -55l-13 31v397l-18 15q-4 -2 -6 -5q-4 -4 -4 -10q-4 -4 -9.5 -30.5t-5.5 -34.5q0 -6 -5 -23.5t-5 -21.5q-2 -6 -4 -11q-4 -8 -8 -8q0 6 -1 18.5t-2 25.5t-3 25.5t-2 18.5q0 4 -2.5 10.5t-4.5 12.5q-2 8 -4 14h-92q-2 2 -4 6q-4 8 -4 13v4v6 q0 2 4 15t4 22q2 0 8 10l4 8q8 8 29 29.5t27 25.5q4 2 21.5 11.5t21.5 9.5q14 4 52 12t81 16.5t81 15.5t54 11q4 2 22.5 5t39 7.5t39 7.5t22.5 5q2 0 18 4q6 2 15 6v313q0 4 2 8q4 10 8 11l68 67q4 4 21 12.5t22 12.5q6 -2 10 -6l10 -11q4 0 8 -4q2 -2 2 -4q4 -4 9.5 -16 t5.5 -14q4 -14 7 -48t3 -45q0 -14 -1 -50t-2 -75.5t-2 -76.5t-1 -54h37q6 0 22 2.5t34.5 4.5t34 5t19.5 5q0 4 1 19.5t2 33.5t2 34.5t1 22.5q0 10 -1 27.5l-2 35t-2 32t-1 16.5t-5 24.5t-5 30.5v21v18q4 8 12 23.5t12 23.5l21.5 21.5t26.5 23.5q6 4 14 9q4 4 9 7t7 3 q4 4 16.5 10t16.5 6q4 -2 10 -6q4 -4 7.5 -6t5.5 -4l8 -8q4 -4 8 -21.5t8 -26.5q0 -4 1 -19t3 -33.5t3 -35t1 -22.5q0 -14 2 -48t3.5 -73t3.5 -72.5t2 -48.5h131q4 0 8 -3t8 -7v-8v-17q-4 -2 -12 -19t-13 -19q-8 -12 -28.5 -33t-26.5 -23q-8 -8 -32.5 -21.5t-34.5 -15.5v-90 h288q4 0 12.5 -7t12.5 -13v-17v-18q-2 -6 -6 -10t-6 -7.5t-4 -3.5q0 -4 -9.5 -17t-11.5 -17l-4 -4q-4 -4 -6 -5q-6 -8 -24.5 -20t-20.5 -16q-4 0 -17.5 -5.5t-17.5 -5.5q-10 0 -35.5 -2t-55.5 -3t-56.5 -2t-38.5 -1q0 -6 -2 -23.5t-3.5 -38t-3.5 -38t-2 -23.5q-2 -18 -4 -56 t-4 -87t-4 -101.5t-4 -101.5t-4 -87t-4 -56q0 -4 -9.5 -21.5t-11.5 -21.5t-10 -11.5t-17.5 -16.5t-17.5 -17t-10 -11q0 -2 -18.5 -10t-24.5 -10h-4h-8q-4 2 -11 4q-12 4 -14 4v203zM623 526q-6 -2 -11 -12q-2 -6 -4 -10q0 -2 -1 -12.5t-2 -22.5t-3 -25.5t-4 -19.5v-12l10 4 q14 2 38 7t48.5 9t45 9t24.5 8q8 0 16 4q4 2 8 6v92h-45q-6 -2 -21 -4t-32.5 -4t-34 -4t-22.5 -4z" />
<glyph unicode="$" horiz-adv-x="968" d="M612 8q-4 -6 -7 -31.5t-5 -35.5q0 -4 -5 -21.5t-5 -21.5l-6 -2h-4q-2 0 -5 2q-4 6 -6 14q-4 16 -4 20q0 6 -4 32t-4 32h-12h-10q-14 0 -34 -1t-38 -3q-23 -2 -45 -4v-164q-6 0 -21.5 3t-17.5 3q-4 4 -10.5 11t-6.5 12v143q0 4 -11 11t-15 11q-4 2 -17.5 9.5t-29 14.5 t-29.5 14t-16 7q-8 6 -17 15q-6 6 -13 11t-11 9q-10 10 -33 25.5t-23 19.5q-4 2 -12 9.5t-17 16.5t-16.5 17.5t-9.5 12.5q-4 2 -10 9t-14.5 16t-14.5 17.5t-6 12.5q-4 4 -21.5 30.5t-25.5 34.5q-2 2 -2 5q0 2 -1 3t-1 3q-2 4 -4 10v10v15q2 8 10 22t10 19q2 2 10.5 11 t17.5 18t16 16.5t12 9.5q4 4 20 12t23 12h10h2q4 0 12 -5t12 -5l5 -4q6 -6 6 -10q0 -2 9 -14.5t20.5 -28t21.5 -28.5t12 -15q4 -6 19.5 -21.5t34 -33t36 -34t25.5 -22.5l18 -10q4 4 7.5 20.5t7.5 20.5q0 6 2 40t5 78t7 89t8 69v9v6q-4 0 -11 5t-11 5q-6 2 -33 5t-37 7h-10 h-13q0 -4 -4 -7t-4 -5q0 -10 -2 -29.5t-3 -43t-3 -44t-2 -28.5q-4 -2 -7 -20.5t-7 -24.5q0 8 -2 29.5t-3 45t-3.5 44t-2.5 28.5q0 6 -4 31.5t-8 31.5h-8h-10q-4 0 -12.5 -4t-12.5 -4v8q0 4 -4 7.5t-8 3.5q0 4 -14.5 9t-18.5 5q-6 2 -10 4t-7 4t-5 2q-6 6 -19 13q-8 4 -14 8 q-4 8 -11.5 23.5t-11.5 23.5v43v45q2 4 5 20.5t6.5 38t6.5 42t5 32.5q2 2 5 15.5t7 29.5t7 31.5t5 21.5q0 10 5.5 31t11.5 42.5t10 37.5t4 20q4 12 12.5 38t12.5 34q2 6 9 19.5t14 26.5t13.5 24.5t8.5 15.5q2 2 11 13.5t21.5 23.5t23.5 24.5t17 18.5q4 0 21.5 9t26.5 11 q6 0 23.5 5.5t21.5 5.5q8 -4 16 -6q16 -4 25 -5q12 -4 24 -12q4 -4 16.5 -11t25.5 -15.5t24.5 -16.5t15.5 -12v86q0 4 12.5 10t16.5 6q6 0 16 -6t10 -10v-150l115 -110q6 -4 19.5 -8t17.5 -9l8 -8q4 -8 12.5 -23.5t12.5 -23.5v-2v-6q0 -4 -5.5 -16.5t-9.5 -14.5q0 -4 -2 -8 l-4 -8l-4 -8q-4 -4 -11 -12.5t-16.5 -17.5t-17.5 -16.5t-10 -9.5q-2 -4 -20.5 -13t-24.5 -9h-19h-12l-65 55h-7h-8q0 -4 -5 -16.5t-5 -16.5t-3 -20.5t-7 -38t-7.5 -42t-3.5 -32.5q0 -10 -5 -38.5t-5 -41.5v-2v-6q10 -2 35 -8t52.5 -13.5t53 -14.5t35.5 -11q10 -2 35 -10 t33 -10q2 -2 17.5 -9.5t33 -16.5t34.5 -17.5t26 -12.5q4 0 16 -10t16 -14q6 -4 19.5 -17.5l28 -28t24.5 -26.5t14 -14q4 0 12.5 -18.5t12.5 -24.5q4 -8 7 -20.5t3 -16.5v-23q0 -10 1 -20t1 -17q0 -6 -1 -16t-1 -20v-25q-2 -8 -4 -14q-4 -14 -6 -17q-4 -6 -12.5 -22.5 t-12.5 -22.5q-2 -8 -10 -21.5t-10 -13.5q-6 -6 -21.5 -21t-32 -31.5t-29.5 -31t-15 -16.5q-4 0 -29 -16.5t-39 -24.5q-2 -2 -13.5 -9t-25.5 -15.5t-26.5 -14.5t-14.5 -6l-10 -10q0 -6 -1 -24.5t-3 -38t-3 -38t-1 -24.5q-4 -14 -8.5 -36t-7.5 -43.5t-5 -36.5t-2 -17l-14 -8 v241h-19zM434 209q2 -4 4 -6q4 -4 8 -4q0 -4 9.5 -7.5t9.5 -7.5q6 0 24.5 -5t20.5 -5h23.5t37 -1t37 -1h23.5v344h-29v-55q0 4 -6 12t-6 12q-2 0 -4 8.5t-3 17.5t-3 18.5t-5 11.5q0 2 -7 5t-11 7q-4 0 -17.5 4t-19.5 4q-8 4 -22.5 7t-18.5 3h-14h-10q0 -4 -2 -18t-3 -29.5 t-2.5 -30t-1.5 -18.5q-2 -12 -4 -33.5l-4 -43t-3 -38t-1 -20.5v-64v-67zM676 498q0 -12 -1 -42t-3 -64t-3 -64.5t-1 -42.5q-2 -4 -4 -16.5t-4.5 -27t-3.5 -26.5t-1 -16v-19q2 0 14.5 2t16.5 2q4 4 24.5 12.5t30.5 12.5q6 2 15.5 5t9.5 7q4 2 13 11.5t18.5 18.5t16.5 16t7 9 v9q0 4 1 8t1 8q0 2 -1 14.5t-1 16.5q-2 4 -4 12q-2 4 -3 10t-3 11q0 4 -5 11t-9 11q0 4 -9.5 16.5t-9.5 16.5q-4 4 -17 16.5t-20 14.5q-4 4 -18 17t-23 17q-12 5 -24 13zM233 829q0 -4 5.5 -7t5.5 -5q4 0 12 -5t12 -5q2 -4 20.5 -6t24.5 -2q8 -4 33 -10.5t33 -6.5h18h13 q2 16 9 54t15 81.5t14.5 80t6.5 53.5v26v29q-4 6 -18.5 19.5t-30 28.5t-31 29.5t-21.5 20.5q-4 6 -20.5 19.5t-20.5 17.5h-6h-8q-2 -10 -6 -29.5t-9 -41t-10.5 -40t-5.5 -24.5q-2 -6 -5 -21.5t-7 -31t-7 -29.5t-5 -20q0 -4 -2 -14.5t-3 -21t-3.5 -18.5t-2.5 -10v-55v-56z " />
<glyph unicode="%" horiz-adv-x="1232" d="M874 -338q2 6 6.5 35t8.5 60.5t7 60t3 35.5q0 8 -1 32.5t-2 53t-2 54t-1 36.5h-19q0 -6 -1 -23.5t-3 -37t-3 -37t-1 -23.5q-4 -4 -7 -21.5t-5 -23.5q0 -4 -5 -12.5t-5 -12.5q-4 4 -7 16.5t-8 16.5q0 10 -2 34.5t-3 50.5t-3 50.5t-2 34.5q-6 0 -31.5 13.5t-31.5 19.5 q-8 0 -20.5 14t-16.5 16q0 4 -9.5 21.5t-9.5 26.5q-4 4 -8 21t-4 22v26v29q0 2 4 29.5t8 37.5q0 4 4.5 21.5t4.5 21.5q2 4 4 9.5t4 9.5q2 6 2 12q2 6 9 19.5t13.5 28t12.5 27.5t10 17t12 16.5t12 16.5l56 55q6 4 12 11q4 4 9 7t9 5q4 0 12.5 4t12.5 4q4 2 9 4t10 6q6 4 12 6 h47h43q6 0 23.5 -6t21.5 -10q4 -2 28.5 -14.5t36.5 -16.5q6 -4 19.5 -12t17.5 -12l10.5 -10.5t8.5 -10.5q6 -12 19.5 -36.5t17.5 -28.5v-55v-56q-4 -4 -12.5 -29.5t-12.5 -39.5q-4 -4 -11 -18.5t-11 -22.5q0 -4 -10.5 -16.5t-14.5 -16.5q-2 -8 -14.5 -25.5t-16.5 -21.5 q-4 -2 -12 -10.5t-12 -10.5q-4 -4 -11.5 -11t-16.5 -14.5t-17.5 -12.5t-10.5 -5q-4 -2 -14 -8t-23.5 -14t-24.5 -15.5t-13 -9.5l-11 -8q0 -12 -1 -39t-3 -56.5t-3 -56t-1 -36.5q-2 -6 -5 -26t-7 -44.5t-7 -48t-5 -37.5q-4 -8 -7.5 -28.5t-5.5 -26.5q0 -4 -5 -17.5t-5 -17.5 q0 -2 -5 -10.5t-9 -10.5q0 2 -5.5 14.5t-5.5 16.5v25v20zM236 -51q0 6 -3.5 22.5t-3.5 20.5v9t2 11l5 17q0 2 2 13t5 25.5t6 28t5 19.5q4 8 11 28.5t14.5 42t13.5 40t8 24.5t11.5 28.5t20.5 48t21.5 51t14.5 38.5q2 6 8 21.5t13 30.5t13.5 28.5t8.5 19.5q8 18 28.5 60 t43 88.5t43 86.5t26.5 52q6 10 24.5 43t40 70.5t41 74.5t29.5 53q2 8 10.5 21.5t10.5 15.5l34 35q2 2 14.5 10.5t16.5 10.5q4 0 16.5 5t20.5 5h6h2q4 -4 12.5 -11.5t12.5 -11.5v-8v-16q-4 -12 -10 -23q-4 -10 -8.5 -18t-6.5 -15q-2 -6 -4 -10q-2 -2 -2 -6q0 -2 -2 -4 q-4 -6 -15.5 -27.5t-23.5 -45t-23.5 -45t-15.5 -27.5q-12 -23 -39.5 -76t-57.5 -112.5t-56.5 -112t-36.5 -70.5q-2 -8 -14.5 -37t-16.5 -43q-4 -10 -10 -28.5t-14.5 -36t-14.5 -31t-6 -15.5q-2 -6 -8 -24.5t-13.5 -40t-13.5 -40.5t-8 -28q-4 -10 -8 -26.5t-4 -18.5 q2 -4 4 -10q2 -10 8 -14v-11v-8q-4 -4 -7 -17t-5 -20q0 -2 -2 -4t-4 -6l-5 -8q-6 -10 -24.5 -30.5t-20.5 -24.5q-4 -8 -21.5 -20.5t-25.5 -16.5q-6 -4 -14 -6q-16 -4 -19 -4h-18h-12zM862 332q0 -10 2 -28.5t2 -22.5t7.5 -20.5t11.5 -20.5q6 -4 22.5 -14.5t22.5 -10.5h37h43 q4 0 11 5t11 5q0 4 4 12.5t4 12.5q4 10 10.5 30.5t6.5 24.5q0 2 -6.5 20.5t-10.5 24.5q0 4 -4 11.5t-4 11.5q-4 4 -17.5 16t-13.5 17q-12 8 -37.5 19t-33.5 11h-19h-26l-11 -8q-2 -8 -5 -23.5t-3 -23.5q-2 -12 -2 -21q-2 -8 -2 -16v-12zM25 729l3 11q3 10 6 24t7 28.5 t4 22.5q0 6 10.5 31.5t14.5 32.5q0 4 5 12t5 12q2 4 9 15.5t14.5 22.5t13.5 19.5t8 8.5q2 2 8 10t15.5 17.5l17.5 17.5t14 10q4 2 16.5 11t14.5 9q4 4 17.5 8.5t17.5 8.5h8h12q2 -2 14.5 -7t27 -10.5t28.5 -11.5t20 -8q2 0 4 -2q4 -4 7 -4q4 -2 10 -4q8 -6 28.5 -26.5 t26.5 -29.5q2 -4 4 -10l4 -8t2 -6q4 -2 9.5 -14.5t5.5 -16.5v-55v-55q-2 -10 -4 -19q-2 -8 -5.5 -15l-5.5 -11q0 -4 -5 -17.5t-5 -17.5q-2 -6 -14 -32t-17 -32q-4 -8 -12 -19.5t-12 -11.5q-4 -6 -13.5 -16t-19.5 -21.5t-20.5 -20.5t-14.5 -13q-2 0 -12 -6t-21.5 -13.5 t-20.5 -13.5l-9 -6q-2 -2 -4 -11.5t-3 -19.5t-2 -19t-1 -12q-4 -4 -7.5 -20t-7.5 -20q0 4 -5 11t-5 11q-2 4 -5 25.5t-7 29.5q0 -6 -1 -22.5t-2 -33.5t-3.5 -32.5t-2.5 -21.5q0 -8 -5 -20.5t-5 -16.5l-24 147l-4 4q-4 4 -9 5q-6 2 -14 6q-6 4 -11 5t-7 5q-4 0 -16.5 7 t-14.5 11q-4 2 -17.5 17.5t-17.5 19.5l-12 19q0 6 -4 19t-4 17v56v55zM190 760q2 -10 5.5 -26.5t3.5 -20.5q4 -2 21.5 -19.5t25.5 -19.5l8 -6q6 0 8 2l4 4q2 0 4 2t4 2t2 4q4 4 7.5 24.5t7.5 30.5v11v12q-4 6 -7 22.5t-8 20.5q0 2 -7 15t-15 22l-8 8q-4 4 -12.5 7t-12.5 3 h-4h-6q-2 0 -7 -3t-5 -7t-3 -29.5t-6 -34.5v-16v-8z" />
<glyph unicode="&#x26;" horiz-adv-x="937" d="M524 -287q2 6 5 30t5.5 50.5t3.5 49t1 26.5q0 8 -1 28.5t-2 43t-2.5 42t-1.5 25.5q-2 0 -12 3t-14 3t-7 -5t-5 -5q0 -4 -2.5 -7t-4.5 -7q-2 -6 -4 -10h-6h-8q0 4 -5 12t-5 12q-8 0 -29.5 2t-46.5 3t-48.5 3t-31.5 2q-4 0 -18.5 4.5t-22.5 8.5q-6 0 -28.5 9t-26.5 9 q-10 6 -30.5 19.5t-24.5 17.5q-4 2 -11.5 9t-15.5 16.5t-16.5 17.5t-12.5 12q-4 0 -7 7.5t-7 11.5q0 6 -5 19t-5 18v18v25q0 2 5 20t5 25q2 4 4 10q4 10 10 12q0 4 7.5 16.5t11.5 16.5q8 8 20 24.5t17 16.5q4 6 13 16t19.5 20.5l19.5 19.5l13 13q-4 4 -12 11.5t-12 11.5 q-4 2 -16.5 11t-27 19.5t-27.5 19.5t-16 13l-90 91q0 2 -4 10t-8 10q0 4 -4 21q-2 8 -4 14v63v60q0 4 4 21.5t4 21.5q4 2 11.5 24.5t11.5 30.5q0 2 5 11.5t9 9.5q4 8 16.5 30.5t14.5 24.5q8 12 23.5 37.5t19.5 34.5q8 6 25.5 26.5t21.5 28.5l86 86q4 0 19.5 13t25.5 20 q4 4 17.5 13t17.5 9q10 6 42.5 22.5t43.5 22.5q4 0 16 5t21 5q4 2 24 7q8 2 19 2q2 0 22.5 3t32.5 3q4 0 13 -1t20 -3q10 -2 22 -2q2 0 18.5 -2t26.5 -7q4 0 16.5 -5t14.5 -5q4 -2 12 -7t13 -5q4 -2 12 -8t17 -13.5t16.5 -13.5t9.5 -8q4 -2 16 -20.5t15 -24.5q4 -4 12 -21.5 t12 -25.5l4 -13q2 -4 4 -9t2 -9t2 -10t4 -15q2 -8 7 -18v-57v-56q-4 -12 -7 -22q-2 -10 -4 -19.5t-2 -13.5t-5 -17.5t-5 -17.5q-4 -6 -16.5 -31.5t-16.5 -31.5q-4 -4 -11 -14.5t-14 -21.5t-13.5 -20.5t-8.5 -11.5q-4 -6 -22.5 -25.5t-42 -43l-45 -45l-31.5 -31.5 q-4 0 -13.5 -8.5t-21.5 -17.5t-22.5 -18t-12.5 -12l-10 -8q4 -4 17.5 -11t17.5 -11q8 -6 34.5 -21.5t59.5 -33t61.5 -34t40.5 -22.5q6 -4 24.5 -12t21.5 -12h6h4q6 6 16 18t22.5 24.5t23.5 22.5t18 14q2 4 20.5 11.5t24.5 11.5h10h12q4 -4 12.5 -11t12.5 -12v-8v-16 q-4 -6 -12.5 -31.5t-12.5 -32.5q-2 -2 -5 -8l-7 -14t-7 -15.5t-3 -9.5v-8v-12l10 -10q4 -4 20.5 -15.5t35 -25t34.5 -24.5t21 -15q6 -2 22 -14.5t23 -16.5q10 -10 32.5 -26.5t22.5 -18.5l23.5 -23.5l37 -37l37 -37l23.5 -23.5q2 -4 15 -19.5t22 -25.5q2 -4 10 -17.5t8 -17.5 q4 -8 12 -21.5t15.5 -27.5t12.5 -24.5t5 -12.5v-45v-55q0 -4 -4 -12.5t-4 -12.5q-8 -8 -34 -32.5t-38 -32.5q0 -2 -9 -5t-11 -8h-19h-24q-4 0 -7.5 5.5t-5.5 7.5q0 2 -2 11t-3 18.5t-3 17.5l-2 8q0 4 -4 17.5t-4 17.5q-4 2 -8 10t-8 10q-4 6 -10.5 16.5t-12.5 20.5t-11 18.5 t-5 10.5q-6 6 -16.5 17.5t-21.5 23.5t-20.5 23.5t-13.5 15.5q0 2 -12.5 13t-27.5 25.5t-30.5 28t-23.5 19.5q-12 6 -32.5 24.5t-22.5 20.5q-10 6 -30 18.5t-41.5 26.5t-40 26.5t-24.5 18.5h-18h-19q-6 -4 -14 -10q-16 -12 -16 -15q-6 -4 -24.5 -13t-40 -19.5t-42 -19.5 t-28.5 -13q-2 -23 -6.5 -79t-9.5 -119.5t-10 -121t-5 -80.5q0 -6 -5 -31.5t-5 -31.5q-4 2 -9.5 14.5t-5.5 16.5v55v55zM248 291q4 -4 12 -17.5t12 -17.5q2 0 11.5 -6t20.5 -14.5t21.5 -15.5t14.5 -9q4 0 24.5 -9t30.5 -9q4 -4 25.5 -8.5t30.5 -4.5h45h53q2 0 24.5 4t30.5 9 q2 0 14.5 4t16.5 4l-10 10q-2 4 -14.5 14.5t-16.5 10.5q-14 8 -50 28.5t-77 43t-77 43t-50 26.5q-4 0 -7 3t-5 3l-11 -6q-4 0 -16 -7.5t-20 -11.5q-4 -8 -16.5 -20t-16.5 -16v-13v-18zM162 809q0 -2 4 -14.5t4 -16.5q4 -4 11 -16t12 -17l16 -16t16 -14q8 -8 29.5 -25.5 t26.5 -21.5q4 -4 18 -12.5t30.5 -19.5t32 -20.5t21.5 -11.5q0 -4 3 -5t7 -5t10 -6q4 2 11 6q12 8 14 10q4 0 16.5 8.5t25.5 18.5t26.5 20.5t17.5 16.5q8 8 32.5 28.5t33.5 26.5q6 4 19 16.5t17 14.5q0 4 9.5 17t9.5 17q4 6 14 23.5t10 22.5v73v68q0 4 -3 17.5t-7 17.5 q0 2 -5 11t-9 9q-4 8 -11.5 21.5t-7.5 15.5q-8 4 -25.5 21.5l-21.5 21.5q-2 4 -20.5 11t-24.5 12h-12h-6l-29 -66v43q0 -6 -3 -21.5t-6 -33t-6 -33.5t-3 -23q0 -6 -2 -34.5t-3 -60.5t-2 -60.5t-1 -34.5q-4 -6 -7.5 -31.5t-5.5 -32.5q0 6 -5 32t-5 32q-2 20 -4 66.5t-3 97.5 t-3 96t-4 64h-13h-18q-4 0 -17.5 -5.5t-17.5 -5.5q-2 -2 -14 -11t-17 -9q-6 -4 -17 -15.5t-23.5 -23.5t-23.5 -23.5t-15 -17.5q-2 -8 -14.5 -23.5t-16.5 -23.5q-6 -6 -19.5 -31.5t-17.5 -32.5q0 -8 -4 -23.5t-4 -23.5v-26v-29z" />
<glyph unicode="'" horiz-adv-x="243" d="M80 778q-4 0 -14.5 4t-12.5 4q0 4 -5 7.5t-5 5.5q-4 4 -9 17t-5 18q0 14 -3 54t-7.5 86t-7.5 88t-5 60q0 2 -1 13.5t-3 25t-3 23.5t-1 12v33v22q0 2 4 15q2 6 4 10q8 10 32.5 34.5t35.5 32.5q4 0 12 4.5t12 4.5h19h22l4 -4q4 -4 11 -5q0 -4 5 -11t5 -11q2 -6 5 -24.5 t3 -20.5q2 -4 4 -18.5t3 -31t3 -33.5t2 -28q0 -12 2 -35.5t3 -48t3.5 -44t2.5 -25.5q0 -4 3 -24.5t3 -31.5q0 -8 -4 -28q-2 -8 -2 -19q0 -2 -3.5 -14t-7.5 -16q-2 -6 -17 -24.5t-22 -20.5v-201l-16 -12q0 8 -1 27.5t-3 41t-4 40t-4 24.5q0 4 -3 18t-5 14q0 -12 -2.5 -45.5 t-3.5 -72.5t-3 -73t-2 -48q-4 -6 -9 -24.5t-9 -20.5v276v0z" />
<glyph unicode="(" horiz-adv-x="462" d="M125 199q-2 -10 -8 -33t-12.5 -48.5t-11.5 -49t-7 -33.5q0 -6 -7 -23.5t-11 -13.5h-15l43 260l-22 51l-19 -119l-14 -12q2 4 0 16.5t-2 16.5t1 19.5t2 33t1 31.5v18q-2 14 -2 45v33q0 6 -4 32t-8 54.5t-9.5 54t-5.5 31.5q0 4 -2 21.5t-2 25.5q2 6 1 32t-3 34q2 8 3 22.5 t2 27.5t1 24.5v13.5l2 14q2 13 5.5 31t6.5 36.5t5 28.5q2 12 4 30t5 35t5 30.5t2 15.5l25 98q2 4 5 14.5t7 20.5t7 18.5t3 10.5t5 14.5t11.5 25.5t12.5 26.5t10 19.5q0 2 4 12t10.5 21.5t10.5 21.5t4 15q4 10 17.5 32.5t15.5 30.5q6 6 16 24.5t16 24.5q2 4 6.5 12.5 t6.5 12.5q4 2 15 11t11 13q6 4 19.5 15.5t19.5 15.5q8 0 20.5 7t18.5 9q6 0 12 2q4 0 9.5 1.5t9.5 1.5l6 -3l4 -2q2 -2 6 -4t8 -6t9 -10v-2q-2 -4 -2 -8q0 -2 -2 -2q0 -6 -8.5 -22.5t-8.5 -20.5q-2 -4 -12 -22.5t-20.5 -38t-19.5 -38t-11 -22.5q-2 -8 -17.5 -40t-21.5 -48 q0 -4 -8.5 -23.5t-10.5 -29.5q-2 -6 -5 -16.5t-7 -20.5q-6 -12 -10 -25q0 -2 -3 -21.5t-7.5 -45t-8.5 -51t-6 -42.5q-4 -16 -8 -41.5l-8 -51t-7 -45.5l-3 -19q2 -14 2 -27v-39q0 -6 2 -27.5t0 -27.5q4 -10 3 -28.5t3 -22.5q0 -4 3 -17.5t3 -17.5q0 -6 5 -29.5t5 -28.5 q2 -4 6 -13t7.5 -20.5t6.5 -21.5t5 -12q2 -8 11 -30.5t11 -29.5q4 -8 9.5 -22t9.5 -19q2 -4 6 -11t8 -15q6 -8 10 -19q8 -10 25.5 -34.5t36 -51t36 -50t25.5 -31.5q2 0 8.5 -7.5t13.5 -16.5t13 -18.5t10 -11.5t14.5 -16t14.5 -19q0 -4 4 -16q2 -6 4 -10q-2 -4 -6 -10 q-8 -12 -10 -17q-4 -4 -9.5 -13t-9.5 -9q-10 -10 -33.5 -26.5t-29.5 -18.5q-4 0 -18.5 -8.5t-22.5 -4.5h-15h-10q-10 10 -34.5 35t-34.5 33q-4 2 -12.5 10t-15.5 16.5t-12 15.5t-5 9q-6 8 -22.5 30.5t-35 46t-34 45.5t-21.5 30z" />
<glyph unicode=")" horiz-adv-x="409" d="M55 66q0 2 5.5 14t5.5 16q2 6 10 23.5t17 39t17.5 39t10.5 23.5q2 4 8 15.5t11 23.5t9.5 22.5t4.5 12.5q4 4 7 17.5t5 19.5q4 14 12 44t12 34q0 2 2.5 11t3.5 19.5t3 19.5t2 13q0 8 2 28.5t3 42t2 40t1 24.5v41v45q0 6 -1 23.5t-2 37t-3 37t-2 23.5q0 4 -5.5 31.5 t-5.5 38.5q-4 8 -7 28.5t-7 26.5q-2 6 -5 19.5t-6 27.5t-6 24.5t-5 14.5q0 6 -4.5 20.5t-9.5 30t-11 30.5t-8 21q0 6 -9.5 27t-13.5 29q-4 6 -16 31.5t-16 31.5q-4 8 -16.5 30.5t-14.5 25.5q-4 8 -17.5 25.5t-17.5 21.5q-4 6 -15.5 16t-22.5 22.5t-22.5 23.5t-15.5 18v18v20 q0 4 4 12.5t4 12.5q4 4 13.5 14.5t19.5 20.5t20.5 19t14.5 14q4 0 12 5t13 5h18h23q4 0 12 -5t12 -5q4 -4 16.5 -17.5t26.5 -28t26.5 -27.5t16.5 -20q4 0 12.5 -11t12.5 -19q6 -6 18 -29t12 -27q4 -6 14.5 -22.5t10.5 -22.5q2 -6 9 -21.5t13.5 -32.5t12.5 -33.5t10 -22.5 q4 -8 11 -33t12 -33q0 -6 3 -18.5t6 -25.5t6 -25.5t3 -18.5q2 -6 5 -22.5t7 -34t7.5 -32.5t5.5 -21q2 -14 7 -44t5 -34v-135v-132q0 -2 -2 -12t-4 -22.5t-4 -25.5t-2 -19q0 -4 -5.5 -27t-5.5 -29q-4 -10 -12 -42.5t-12 -43.5q0 -4 -4 -17t-4 -18q-4 -6 -11.5 -26.5 t-11.5 -28.5q-6 -14 -19.5 -41.5t-13.5 -34.5q-2 -2 -7 -12t-11 -21.5t-11.5 -20.5t-7.5 -11q0 -4 -5 -18.5t-5 -18.5q-2 -6 -10 -24.5t-10 -18.5q-2 -4 -11.5 -13.5l-19.5 -19.5t-20.5 -20t-14.5 -15q-4 0 -12 -4t-12 -4h-21h-24q-4 6 -7 10q-4 8 -4 11v16v19z" />
<glyph unicode="*" horiz-adv-x="935" d="M293 901q-2 -6 -6 -19.5t-8.5 -27.5t-7.5 -26.5t-3 -14.5q0 -4 -2 -23.5t-3 -43t-2 -43t-1 -23.5t-5 -12.5t-7 -12.5q-4 -6 -17.5 -23.5t-17.5 -21.5q-2 -4 -20.5 -16t-24.5 -14q-6 -4 -12 -7q-12 -4 -19 -4q-2 -2 -6 -4t-10 -2l-8 6q-4 0 -11.5 9.5t-11.5 9.5v49v53 q2 8 8 38t14.5 65.5t15.5 66.5t9 41v10h-24q-4 0 -27 -5t-29 -5q-4 0 -16 -5t-14 -9q0 -10 -5.5 -43t-5.5 -43q-4 -4 -9 -17.5t-5 -17.5t-2 -13.5t-3 -19.5t-3 -19t-2 -12q0 -4 -7.5 -8t-11.5 -4v187q-2 0 -21.5 5t-27.5 5q0 4 -4 7t-4 7v12v19q2 4 4 10q4 12 4 14 q4 4 13.5 16.5t9.5 14.5q4 4 16 17.5t17 17.5q4 2 17 10t19 10q0 4 9 9q4 2 10 2q8 4 20.5 9t16.5 5q10 0 42.5 5t43.5 5q2 4 5 18.5t5 31t2 30.5t-2 21q0 4 -3 20t-7 35.5t-7.5 35t-5.5 19.5v55v56q4 4 11.5 21.5t11.5 25.5q4 2 21.5 19.5t23.5 19.5q4 4 21.5 14t25.5 10 h14h19l10 -10q4 -4 7 -8t5 -6q2 -6 4 -10q0 -2 1.5 -3.5t1.5 -3.5t2 -4q0 -4 5 -21.5t5 -21.5q2 -4 4 -21.5t3 -35.5t3 -34.5t4 -18.5q0 -4 7 -24.5t16 -31.5q2 -4 8 -18t12 -30.5t12.5 -32t10.5 -21.5q2 -2 5 -10t7 -10q2 -4 4 -7l4 -4q20 0 69.5 -1t104 -3t102.5 -5t66 -5 q2 0 12.5 -1t22.5 -2t25.5 -3t19.5 -4q6 0 26.5 -4t28.5 -4q4 -2 11.5 -4.5t15.5 -4.5t18 -4q4 0 13.5 -10t9.5 -14v-19v-22q0 -4 -9 -16.5t-14 -16.5q-2 -4 -10 -14.5t-17 -20.5t-17.5 -20.5t-10.5 -12.5q-4 -20 -8 -39q-4 -16 -8 -32.5t-8 -26.5q0 -8 -4.5 -29.5 t-4.5 -25.5q-4 -10 -7 -28.5t-5 -18.5q0 2 -6 -4l-4 -5v199l-8 4q-4 2 -8.5 4t-8.5 2q-2 0 -18.5 4.5t-26.5 8.5q-8 0 -29.5 4t-25.5 4t-23.5 2t-44 3t-48 3t-36.5 2h-32v-10l55 -86q0 -4 9 -16.5t9 -16.5q2 -4 11.5 -15.5t18.5 -23.5t16.5 -23.5t9.5 -15.5q6 -6 19 -24.5 t17 -20.5q6 -10 20.5 -28.5l29 -37t25.5 -31.5t14 -13q4 -6 15 -17.5t23.5 -24t23.5 -22.5t15 -16v-23v-18q-8 -12 -12 -25q-8 -10 -32.5 -34.5l-32.5 -32.5q-4 0 -16.5 -4.5t-16.5 -4.5h-29h-18q-6 2 -13 7q-12 8 -18 14l-4 4q-6 6 -10 6q-2 2 -8.5 12.5t-15.5 20.5 t-17.5 20.5t-14.5 16.5q-4 8 -20.5 28.5t-20.5 26.5q-10 10 -25.5 30.5t-30.5 41t-28.5 37t-15.5 20.5q-4 6 -13.5 21.5t-19.5 31t-19 29.5t-14 20q-6 8 -21 32t-30.5 50.5t-30 50t-18.5 33.5z" />
<glyph unicode="+" horiz-adv-x="778" d="M233 311q0 4 -4 14.5t-8 10.5h-18h-25q-4 -2 -25.5 -9.5t-45 -15.5t-45 -14t-25.5 -8h-14h-11q-2 4 -11 11t-9 11v15v10q2 6 10 23.5t10 21.5q4 8 26.5 28.5t29.5 26.5q4 0 20 9.5t23 13.5q4 2 17 7t27.5 9t28 9t19.5 8v4v6q-2 6 -6 33.5t-8.5 59.5t-7.5 59.5t-3 33.5v25 v22q0 4 5 16.5t5 16.5q4 4 12.5 16.5t12.5 14.5q2 4 10 12t10 12q4 0 17.5 9.5t17.5 13.5q2 2 4 2q4 0 7 2q4 2 10 4h24h23l8 -8q0 -6 2 -22.5t3 -34t3 -33t2 -21.5q4 -8 7.5 -37.5t7.5 -40.5q0 -10 5 -36.5t5 -32.5q0 -8 4 -28.5t8 -27.5q10 2 36 3.5t55.5 1.5t56 -1 t36.5 -4q2 0 14.5 -1t28 -2t30 -3t20.5 -4q4 0 19 -4t24 -4q4 -2 9 -4t9 -4l12 -4q10 -4 27.5 -12.5t17.5 -12.5q4 0 7.5 -7t3.5 -11t-3 -17.5t-8 -19.5q0 -2 -4 -10l-4 -9q-4 -4 -14 -15t-22.5 -23.5t-21.5 -23.5t-9 -15t-2 -17.5t-3 -29t-3.5 -28.5t-2.5 -18 q-4 -14 -7 -41.5t-7 -31.5q0 -6 -3 -24.5t-7 -20.5v196q0 4 -11.5 7.5t-19.5 7.5h-8h-6q0 -4 -5 -16.5t-5 -20.5q0 -4 -4.5 -25.5t-4.5 -30.5q-4 -4 -9 -16t-9 -16v135q-2 2 -6 4t-6 4t-7 4q-4 0 -20 4t-20 4h-22.5t-33 -1t-33 -1h-22.5v-6q0 -10 5 -35.5t5 -31.5 q0 -4 3 -17.5t7.5 -30t7.5 -32t3 -23.5q0 -4 5 -21.5t5 -21.5v-2v-10q0 -4 -5 -16.5t-5 -16.5l-5.5 -11t-3.5 -11q-8 -4 -23 -21.5t-24 -21.5l-9 -4.5t-9 -6.5q-6 -4 -12 -10h-27h-29q-4 0 -7 4t-7 4q0 4 -5 17.5t-5 19.5q-2 4 -5 20.5t-8 20.5q-2 12 -8 44t-13 68 t-13.5 66.5t-8.5 42.5z" />
<glyph unicode="," horiz-adv-x="362" d="M125 23q-2 0 -11.5 -1.5t-18.5 -3.5t-17 -3l-8 -1h-17h-8q-6 2 -10 4q-12 4 -12 5l-9 10v33v22q0 4 11.5 29.5t19.5 40.5q4 4 12.5 16t12.5 14q6 12 28.5 33t26.5 23q6 8 31.5 21.5t31.5 13.5h29h27q4 0 17 -3.5t20 -7.5l4 -4q6 -6 6 -10q0 -2 2 -11.5t3 -20.5t2 -21.5 t1 -12.5q2 -6 7 -30.5t11.5 -52t11.5 -52t7 -30.5q0 -2 5 -32t5 -44q0 -10 2 -25.5t4 -30.5q2 -18 6 -34v-68v-63q-8 -12 -12 -25q-6 -4 -18.5 -15.5t-24.5 -23.5l-23.5 -23.5t-13.5 -15.5l-12 -4q-12 -4 -18 -4h-7h-4q-6 2 -15 10t-9 10q-2 16 -4 31q-2 12 -4.5 25.5 t-4.5 23.5q0 4 -1 16.5t-3 27t-3 26.5t-1 16q0 14 -5 44t-5 36q-2 6 -5 22.5t-7 34t-7.5 33t-5.5 21.5q-2 4 -5 16t-7 15h-6h-2z" />
<glyph unicode="-" d="M244 248h-29q-6 0 -17.5 -1t-23.5 -2t-23.5 -3t-15.5 -2q-2 0 -14 -5.5t-17 -5.5q-8 -8 -14 -10t-10 -4q-2 0 -14.5 -5t-16.5 -5h-8h-6q-4 0 -11.5 5t-11.5 5q0 4 -4 12.5t-4 12.5v8v12q2 8 10.5 23.5t10.5 19.5t11 13.5t19.5 19.5t20.5 20.5t14 14.5q4 2 10 4q4 2 7.5 4 t7.5 2q2 4 14 7t16 7q4 0 26 5.5t30 5.5q6 0 32.5 4t36.5 4q10 4 40 8t38 4t25.5 2t35 3t32 3t18.5 2h37h36q4 0 14.5 -9t10.5 -13v-6v-2q-4 -8 -12 -26t-13 -22q-2 -2 -10 -11t-18 -19.5t-20.5 -20.5t-16.5 -12q-6 -4 -10 -6q-2 -2 -6 -2q-2 0 -5 -2q-8 -4 -28.5 -12.5 t-26.5 -12.5l-24 -110l-11 -13v121q-2 0 -14 1t-16 1t-7.5 -4t-7.5 -8q0 -2 -3 -15.5t-7 -29t-7 -28.5t-5 -15q0 -4 -5 -16.5t-10 -14.5v119h-30z" />
<glyph unicode="." horiz-adv-x="210" d="M61 -2q-4 0 -21 9t-26 9q0 4 -4 9l-4 4v18v25q0 4 4 18t4 19q4 4 11.5 16t11.5 14q6 4 22.5 21.5t22.5 25.5q4 0 17.5 9.5t17.5 9.5q2 4 14 7t16 7h9h6q4 -4 11 -12t7 -12q4 -2 8.5 -14.5t4.5 -16.5v-14v-11q-2 -6 -10.5 -22.5t-10.5 -22.5q-2 -2 -9 -10t-15.5 -17.5 t-14.5 -17.5t-8 -10q-2 -6 -4 -10q-4 -12 -4 -13q0 -2 -2 -12t-3 -22.5t-3.5 -23.5t-2.5 -15q-2 -6 -5 -22.5t-5 -35t-3 -34t-1 -19.5q0 -6 -5 -24.5t-5 -20.5h-2h-10l-9 8v203v0z" />
<glyph unicode="/" horiz-adv-x="786" d="M14 74q2 6 4 14q4 16 5 21q8 10 15 30.5t7 24.5l567 1106q0 2 12.5 15t18.5 22q4 0 17.5 7t17.5 11q2 0 4 2t3 2t3 2q4 2 10 6h19h16q2 0 7 -5t5 -7v-25v-18q-2 -4 -8 -19.5t-15 -35t-17.5 -38t-14.5 -30.5q-14 -27 -45 -88t-64.5 -129t-63.5 -126t-40 -79 q-6 -14 -35.5 -69.5t-62.5 -119t-62.5 -118.5t-35.5 -70q-4 -4 -10.5 -17t-14.5 -27.5t-14 -27t-6 -14.5q-4 -8 -12.5 -30.5t-12.5 -24.5q0 -2 -2 -12t-3 -21.5t-3 -20.5t-2 -11q0 -4 -9.5 -21.5t-11.5 -23.5q-4 -4 -12 -17.5t-12 -17.5l-12.5 -12.5t-16.5 -17.5 t-16.5 -16.5t-10.5 -9.5q-4 -2 -20.5 -11t-20.5 -9h-18h-18l-9 8v31v37z" />
<glyph unicode="0" horiz-adv-x="702" d="M338 -362q0 6 2 36.5t3 66.5t3 66.5t2 36.5v99v57l-10 10l-14 -10q0 -10 -5.5 -43t-5.5 -43q0 -6 -4 -19.5t-8 -17.5h-6h-2q0 8 -5 29.5t-5 30.5q-2 2 -4.5 13t-3.5 23.5t-3 22.5t-4 14q-4 4 -20.5 12.5t-20.5 12.5q-6 2 -19 10t-18 10q-6 4 -10 11q-8 12 -8 14 q-4 4 -16.5 18.5t-20.5 22.5q-4 6 -11 19.5t-7 17.5q-4 2 -9.5 12t-11.5 21.5t-10 20.5t-6 9q-2 6 -8 24.5t-13.5 40t-13.5 41t-8 29.5q-2 4 -5 27t-7 29q0 6 -1 21.5t-3.5 30.5t-3.5 29.5t-1 20.5v57v62q0 4 1 18.5t3.5 31.5t3.5 33.5t1 26.5q4 8 7 33t5 33q0 2 5 20.5 t5 24.5q2 4 6 15.5t8.5 23.5t7.5 23.5t3 15.5v8v16q-4 6 -6 15q-4 12 -5 16v6v2q0 4 5 21q2 8 6 14q2 6 10 19.5t10 17.5q4 2 15.5 13.5l23.5 23.5l23.5 23.5t17.5 15.5q4 4 20.5 17.5t20.5 17.5q2 0 12.5 5t22.5 10t21.5 9t13.5 6q4 0 20 4.5t21 4.5q4 0 14 3t12 3 q6 0 19 -4q6 -2 10 -2q6 0 22.5 -4.5t22.5 -4.5q4 -4 21.5 -11t25.5 -11q4 -4 16.5 -12.5t16.5 -12.5l15 -15t23.5 -22.5t24 -21.5t15.5 -15q0 -2 17 -27.5t26 -39.5q2 -4 4 -10q2 -10 8 -15q4 -6 11 -26.5t7 -28.5q2 -4 6.5 -14.5t8.5 -20.5t7 -18t3 -10q2 -10 7 -31t5 -25 v-110v-111q0 -4 -5 -28.5t-7 -39.5q0 -8 -5 -28.5t-5 -26.5q-4 -8 -7.5 -23.5t-7.5 -19.5q-2 -6 -6 -21.5t-9 -33t-10 -30.5t-5 -17q-2 -4 -7.5 -15.5t-10.5 -23.5t-10 -23.5t-7 -13.5q-6 -12 -12 -23q-10 -20 -19 -32q-4 -4 -14 -17.5t-10 -17.5q-2 -6 -20.5 -26.5 t-25.5 -28.5q0 -2 -9 -10.5t-9 -10.5q-4 -2 -12 -8t-17.5 -13.5t-16.5 -13.5t-9 -8l-23 -22q-2 -16 -4 -53.5t-3 -77t-3 -76.5t-4 -51q0 -2 -1 -12.5t-2 -25t-3 -28.5t-4 -23q0 -4 -2 -14t-3.5 -20.5t-2.5 -19.5t-1 -11q-4 -2 -7 -10.5t-5 -10.5q0 2 -5 14.5t-5 16.5v6v9z M190 569q0 -4 2.5 -15t4.5 -23.5t4 -23.5t2 -18q0 -8 10 -37.5t14 -39.5q0 -6 9.5 -26.5t9.5 -29.5q8 -10 19 -36.5t18 -32.5q0 -4 9 -16.5t9 -14.5q8 -8 29.5 -28.5t29.5 -26.5l19 -11h18h19l8 13q4 4 6 9t4 9q4 8 14.5 23.5t10.5 23.5q0 2 5 15.5t10 30t9 31.5t6 22 q4 2 7.5 20.5t7.5 24.5q0 10 5 30.5t5 24.5q0 6 2 21.5t3 31t3 29.5t4 20v39v47q-2 6 -4 19.5t-3 28t-3 25.5t-2 15t-4 17.5t-9 29t-11.5 31t-10.5 25.5q-2 2 -10 19.5t-10 19.5q0 4 -10.5 17t-14.5 18q-4 10 -16 25.5t-15 19.5q-4 4 -17 16t-17 14q-2 4 -14.5 12.5 t-16.5 12.5q-4 -4 -13.5 -11.5t-21.5 -15.5t-22.5 -16t-12.5 -12q-6 -4 -14 -11q-16 -12 -16 -14q-4 -2 -12.5 -10t-12.5 -10q-4 -10 -6 -19q-4 -20 -4 -24q-2 -14 -7.5 -44t-5.5 -34v-117v-113zM397 811q4 0 9.5 -1t9.5 -1l8 -10v-191q0 -2 -7 -19.5t-14 -19.5 q-4 -8 -24.5 -28.5t-30.5 -26.5q-4 -4 -12 -10t-12 -6h-23h-18q-4 0 -9.5 6t-5.5 10v184q0 2 5.5 10.5t9.5 10.5l10 20q4 8 8 15q8 6 20.5 19t16.5 18q4 2 20.5 10t20.5 8t9 1t9 1z" />
<glyph unicode="1" horiz-adv-x="387" d="M270 -18q-2 0 -12 3t-14 3q-4 4 -11.5 10t-11.5 10q-2 6 -3 21.5t-2 33t-2 32t-1 20.5q-2 10 -3 27.5l-2 35t-2 29.5l-1 12q2 10 1 47t-3 80t-3 83t-1 58v27v45.5v48v33.5q2 6 2 22.5v34t1 32.5t3 22q-4 0 -5 1t-3 1l-7 -2q-4 0 -19 -17.5t-17 -21.5q-6 -4 -16.5 -10.5 t-22 -14.5t-20.5 -13t-11 -5q-6 -6 -18.5 -15.5t-25.5 -16.5t-24.5 -13.5t-13.5 -6.5q-6 -2 -10 -2q-6 -2 -15 -2h-22l-8 11v20q-2 4 -2 8v9q0 4 -2 8q0 4 9 21.5t9 25.5q2 0 9 8t15.5 18.5t16.5 19.5t10 13q8 4 17 8q6 4 13 7.5t11 7.5q4 2 18.5 7t18.5 5t16.5 12.5 t10.5 16.5q6 2 18 15t24.5 28.5t25 29t18.5 17.5q2 4 12 21.5t14 25.5q4 6 16.5 28.5t16.5 26.5q0 6 9.5 21.5t9.5 19.5q4 0 5 4t5 4q8 4 22.5 18.5t18.5 14.5q2 4 14 12q6 4 10 7h19h6q2 0 6 2q4 -4 9 -7.5t5 -7.5v-26v-7.5t2 -9.5q0 -6 3 -12l-4 -11q-3 -10 -7 -21 t-7 -21.5t-3 -12.5q-2 -10 -4 -25.5t0 -23.5q-2 0 -3 -8t-2 -18.5t-2 -20.5t-1 -16q0 -14 -3 -44t-3 -34q-2 -6 -3.5 -24.5t-1.5 -38v-36t-2 -20.5q2 -12 2 -43t1.5 -64.5t1.5 -63.5t2 -42q0 -25 2 -78t5 -111.5t5 -108.5t4 -66q0 -14 2 -49t4 -73t5 -73t5 -49l-8 -25 q-4 8 -9 27.5t-5 26.5q-4 8 -8 30.5t-7.5 46t-6.5 45t-5 29.5l-37 -45q-2 -8 -3 -28.5t-1 -43v-43t-2 -26.5q2 -6 2 -21.5t-1 -31t-2 -29.5t-1 -19l-18 7z" />
<glyph unicode="2" horiz-adv-x="901" d="M391 45h-24q-2 0 -13.5 -1t-26 -3t-29.5 -5t-24 -5q-4 0 -15 -2t-23.5 -3t-22.5 -3.5t-12 -2.5q-16 -4 -45 -9t-59.5 -9t-55.5 -8t-29 -4q-4 -2 -17 -6t-28.5 -8.5t-29 -7.5t-17.5 -3h-26h-29q0 4 -4 12.5t-4 12.5v4v6q0 2 9 20.5t11 24.5q4 4 12.5 16.5t12.5 14.5 q0 4 16 17t25 18q2 0 10 5t17.5 11t17.5 10t10 4q2 2 10 9.5t19.5 16.5t22.5 17.5t18 12.5q0 4 5 7t5 7q6 8 20.5 23.5t27.5 31t24.5 27.5t13.5 14q6 6 22.5 26.5t22.5 28.5q4 6 13 20.5t19.5 29t19.5 27t13 16.5q8 10 25.5 32.5t35 47t32 46t18.5 27.5q6 10 24.5 38 t40 59.5t41 61.5t29.5 44q2 6 14.5 26.5t16.5 28.5q2 4 9 16.5t15.5 27t14.5 26.5t6 16q4 4 7 16.5t3 16.5t2 10q4 8 4 13q0 4 -3 12t-3 12q0 2 -3 14.5t-7 16.5q-2 4 -14.5 16.5l-16.5 16.5t-12 7t-12 3q-6 2 -26.5 7t-29.5 5q-2 0 -21.5 -2t-27.5 -2q0 -4 1 -13t3 -21.5 t2 -24t-2 -15.5q0 -14 -10 -24q0 4 -4 8t-4 8q-2 2 -4 13.5t-4 23.5t-3 22.5t-1 14.5q-4 0 -14.5 1t-14.5 1t-8 -1t-8 -1h-11q-10 -2 -18 -4q-20 -4 -25 -6q-8 0 -20 -4.5t-17 -4.5q-4 -4 -11 -8t-7 -8q-4 0 -8 -4l-4 -4q0 -4 4 -21.5t8 -25.5q0 -2 7 -19.5t11 -19.5 q2 -4 9.5 -14.5t14.5 -21.5t14 -21.5t7 -14.5q2 -4 7.5 -13t10.5 -19.5t10 -19.5t7 -11v-13v-10q0 -6 -10 -24.5t-14 -20.5q-2 -4 -9.5 -12t-16.5 -16.5t-18.5 -16.5t-11.5 -10q-4 0 -18 -9.5t-23 -9.5l-4 -4q-2 -2 -10 -2l-10 6q-2 0 -11.5 2.5t-9.5 6.5q-4 4 -12 23.5 t-12 23.5q-2 0 -10.5 12t-17.5 27.5t-17 29t-10 17.5q0 4 -9.5 21.5t-13.5 21.5q0 6 -4 19.5t-4 17.5v45v41q0 6 6 18t14 25.5t14.5 26t10.5 18.5q2 4 11 14t21.5 21.5t26 23.5t19.5 19q0 4 13 12t19 12q4 2 19.5 10.5t34 16.5t35 16t22.5 12l12 4q12 4 19 5q4 0 21.5 5 t25.5 7q10 0 30.5 5t24.5 5h80h74q2 0 14 -5t17 -5q6 0 16 -5t20.5 -11.5t19.5 -12.5t13 -8l10 -8q0 -4 3.5 -9.5t7.5 -9.5q4 -6 10 -12l10 -20q4 -8 6 -15v-49v-51q0 -4 -6 -21.5t-10 -25.5q0 -2 -9.5 -24.5t-11.5 -30.5q-4 -6 -17 -32t-17 -32t-12.5 -22.5t-19.5 -34 t-20.5 -32.5t-11.5 -22q-4 -6 -19.5 -28.5t-34 -49t-34.5 -51t-23 -36.5q-4 -8 -15 -25.5t-23.5 -35t-23.5 -33t-15 -17.5q-6 -10 -30 -40t-50.5 -64.5t-51 -67.5t-34.5 -49q-2 -4 -9.5 -12.5t-15.5 -17.5t-14 -16t-6 -10q-4 -8 -17.5 -25.5t-17.5 -21.5h24h23q6 0 27.5 3.5 t48 7.5t49 8t29.5 6q4 0 18 2t29.5 3t31 3t21.5 2l10 12q-4 6 -12 21.5t-16.5 33t-16.5 34t-10 22.5q0 4 -5 16.5t-5 16.5v22v19q0 14 10 24q0 4 3 9.5t7 9.5q4 6 10 12q4 4 12.5 14.5t12.5 10.5q4 2 16.5 10t14.5 10q10 10 24 10l10 7q0 -2 3 -3q2 0 2 -1t2 -1q2 -2 6 -2 t8 -2q10 -6 10 -8q2 -6 11.5 -22.5t18.5 -33t16 -32.5t10 -22l36 -56q2 -4 17.5 -19.5t33 -33.5t35 -34.5t25.5 -22.5q4 -2 10 -4l15 -5q0 -4 16 -7t22 -5q2 0 11.5 -2t18.5 -3t18 -3l8 -2q4 0 12 -5t12 -9q4 0 11.5 -9.5t11.5 -9.5v-4v-8q-4 -4 -7 -17.5t-5 -17.5 q0 -2 -8.5 -14.5t-10.5 -16.5l-24 -24q-8 -6 -25.5 -18.5t-22.5 -12.5q-2 -4 -14 -7t-16 -7h-25h-20q-4 2 -20.5 6t-35 8t-35 7t-20.5 3h-80h-74q-2 0 -8 -6l-4 -4v-70q0 -4 -5 -20t-5 -21q-4 0 -7 5.5t-7 5.5q0 2 -5.5 14t-5.5 16q0 6 -4 35t-4 35h-22q0 -16 -1 -58t-3 -88 t-5.5 -87t-5.5 -58q0 -10 -2 -24.5t-4 -28.5q-2 -16 -4 -33h-18v377h-21z" />
<glyph unicode="3" horiz-adv-x="925" d="M510 -4q-4 2 -6 4l-6 6q-4 0 -9.5 -2t-9.5 -4q-6 -2 -10 -4v-92l-14 -8q-4 2 -8.5 10t-4.5 10q0 4 -2 15.5t-3 23.5t-3 23.5t-2 17.5q-6 0 -22.5 5t-22.5 5q-4 0 -17.5 4t-17.5 4q-2 4 -10 7.5t-10 5.5q-4 0 -17.5 10t-17.5 14q-6 4 -23.5 16.5t-21.5 14.5 q-4 4 -16.5 17.5t-14.5 17.5q-4 6 -21.5 26.5t-25.5 28.5q-4 4 -6 9t-6 9q-4 6 -6 13q-6 8 -16.5 28.5t-20.5 42t-20.5 40t-12.5 24.5q0 2 -5 14.5t-5 16.5q-2 6 -5 22.5t-8 22.5q0 12 -4 32.5t-4 22.5v35v31q0 4 4 12t4 12q2 4 5.5 9t7.5 10q4 6 10 12q4 4 12 14t13 10 q2 2 14 10.5t16 10.5q4 4 15 8q6 2 10 2q2 0 6 2q8 4 12 4q0 -2 2 -2t2 -1t2 -1q2 -2 7 -2q4 0 14 -10q0 -2 5 -14.5t5 -16.5q0 -2 1 -10t3 -17.5t3 -17.5t1 -10q4 -6 8.5 -24.5t4.5 -20.5q0 -4 5 -17.5t5 -17.5q6 -8 16.5 -27.5t20.5 -41t19 -40t14 -22.5q0 -4 12 -21.5 t18 -21.5l15.5 -15.5l23.5 -23.5l23.5 -23.5t17.5 -15.5q0 -4 12.5 -12t18.5 -12q4 -2 12 -5.5t12 -3.5q4 -4 20.5 -8t20.5 -4h15h10q6 2 23.5 10t21.5 11q6 10 12 18q4 8 9.5 16.5t9.5 12.5t14 16t10 16q2 4 8.5 16.5t12.5 26t12 26.5t8 17q4 4 14.5 27t10.5 29 q2 8 10 32.5t10 32.5q4 10 7.5 26.5t3.5 18.5t1 11.5t2 19.5t2 20.5t1 14.5q0 6 -1 15t-3 20q-2 10 -2 20q0 4 -7.5 21.5t-11.5 23.5q-4 4 -11 12.5t-11 12.5t-21.5 11t-23.5 11q-4 0 -21.5 4t-21.5 4h-41h-37q0 -4 -1 -18t-3 -29.5t-5.5 -31t-5.5 -21.5l-10 -18 q-2 4 -5 21.5t-3 21.5q-4 10 -8 37.5t-4 37.5h-29v-100q-14 0 -14 14q-8 10 -15.5 43t-7.5 43h-14h-10q-2 0 -22.5 -4t-33.5 -4q-6 -4 -23.5 -7t-21.5 -5q-8 0 -32.5 -9t-32.5 -9q0 -2 -8.5 -6.5t-17.5 -8.5t-18.5 -7t-11.5 -3q-6 -4 -33.5 -4h-39.5q0 4 3 27.5t3 31.5 q4 4 6 11q2 6 6 14q8 6 28.5 26.5t26.5 28.5q2 0 12.5 6t21.5 13.5t20.5 13.5t11.5 6l22.5 22.5l36 36t38 39t28.5 29.5q8 10 16 21q12 18 25 34q6 4 16 16.5t20.5 27t19.5 26.5t13 16q-4 0 -16 -5t-16 -7q-23 -10 -78 -32.5t-117.5 -49t-118 -50.5t-78.5 -34h-55 q-2 6 -4 10q-4 8 -4 11v16v8q2 4 4 10q4 8 4 13q4 4 13.5 16t9.5 17l16 16t16 14q4 4 17.5 12.5t19.5 12.5q0 2 9 6q4 2 10 4q41 16 113.5 47t145.5 60.5t129 52t66 26.5q6 4 21.5 10.5t32 11.5t31 10t18.5 5h18h25l12 -12v-25v-18q-4 -2 -11 -20.5t-11 -24.5 q-4 -4 -12.5 -16.5t-12.5 -14.5l-42 -56t-63.5 -84t-63.5 -83t-42 -53h211q2 0 11.5 -2t19.5 -4t20 -5.5t15 -5.5q10 0 26.5 -4t18.5 -4q8 -4 25.5 -11t21.5 -11l55 -56q0 -4 10.5 -21.5t14.5 -23.5q0 -4 4 -26.5t4 -28.5v-35v-31q0 -4 -4 -29.5t-4 -39.5q-4 -4 -8.5 -20.5 t-8.5 -20.5q0 -10 -5 -25.5l-10 -31t-9 -28.5t-7 -15q-4 -6 -11 -23.5t-15 -37t-16.5 -37t-12.5 -23.5q-2 -4 -8 -14.5t-13 -22.5t-14.5 -24.5t-9.5 -18.5q0 -2 -10 -14.5t-14 -16.5q-4 -10 -16.5 -26.5t-14.5 -18.5l-20.5 -20.5l-30 -30t-28.5 -30.5t-19 -21 q-2 0 -8.5 -4.5t-14.5 -10.5t-15.5 -11t-9.5 -7q-2 0 -10 -9.5t-10 -13.5v-153q0 -4 -2 -15.5t-3 -23.5t-3 -23.5t-2 -13.5l-15 8q0 18 -2 37q-2 16 -4 30.5t-4 24.5q0 4 -2 19.5t-3 34t-2 35t-1 22.5z" />
<glyph unicode="4" horiz-adv-x="778" d="M559 346h-37q-10 0 -32.5 -1t-47 -3t-46 -5t-29.5 -5q0 -6 -2.5 -26.5t-3.5 -43t-3 -43t-2 -29.5q-4 -4 -7 -21t-7 -26q0 4 -5 18.5t-5 18.5v142l-8 10q-4 0 -7 2q-2 0 -2 1t-2 1t-2 2l-10 -6q0 -8 -5 -33t-9 -33q0 2 -6 -4l-5 -4q-2 0 -5 3t-7 5q0 8 -4 36t-4 38h-268 q-2 2 -4 6q-4 8 -4 10v21v24q0 4 4 11.5t4 11.5q14 14 53 51t82 79t81 80t52 54l7 10q7 9 16.5 20t18.5 22.5t13 15.5q2 2 11.5 14t20.5 25.5t21.5 28t14.5 20.5q0 4 9 16t9 14q6 12 19.5 34t17.5 22q0 4 4 23.5t4 23.5q4 6 12.5 22.5t12.5 20.5q2 2 9 10t16.5 17.5 l17.5 17.5t12 10t20.5 11.5t20.5 9.5h25h20q2 0 4 -2q6 -6 6 -7q0 -2 3 -6q4 -8 4 -12t-4 -8q-2 -2 -3 -4q0 -4 -5 -17.5t-5 -19.5t-8 -21.5t-17.5 -33t-17.5 -34t-12 -22.5q0 -2 -4 -9t-9 -16.5t-10.5 -17.5t-7.5 -12q-4 -4 -12 -17.5t-12 -17.5t-12.5 -16t-19.5 -26.5 t-20.5 -27t-11.5 -16.5q-8 -6 -25.5 -28.5t-21.5 -26.5q-8 -10 -28.5 -33.5t-43 -50.5t-43 -50.5t-26.5 -31.5h86h90q6 0 25.5 2t40 3t40 3t25.5 2v211q2 8 4 17l4 16t2 14q4 2 9.5 14.5t5.5 16.5t9 16.5t13 16.5t16.5 16t16.5 14q4 4 16.5 12.5t14.5 12.5q4 4 12 7t12 3 l12 2q2 0 5.5 -1t7.5 -1h6l4 -4l6 -6q4 -4 9 -12t5 -13l3 -8q2 -8 3 -18t3 -20.5t2 -16.5q0 -4 2 -17.5t3 -27.5t3 -27.5t4 -19.5q0 -4 1 -21.5t3 -37t3 -38t1 -24.5q0 -2 5 -20.5t5 -24.5v-350q0 -4 1 -18.5t3.5 -32t5.5 -36t5 -28.5q0 -2 2 -13.5t3 -24.5t3 -23.5t2 -12.5 v-18v-19q0 -4 -5 -16t-5 -16q-4 -4 -14.5 -15.5t-22.5 -23.5t-24.5 -23.5t-18.5 -15.5l-12 -4q-12 -4 -19 -4h-14h-10q-2 0 -10.5 9t-10.5 11q0 4 -5 17.5t-5 17.5q0 2 -1 16.5t-3 33t-5 34.5t-6 27q0 16 -3 61t-6 96t-6 98.5t-3 65.5h-41z" />
<glyph unicode="5" horiz-adv-x="868" d="M303 -27q-8 0 -32.5 5.5t-32.5 5.5q0 2 -14.5 5t-18.5 7q-8 4 -24.5 12t-16.5 12q-6 2 -22.5 17.5t-22.5 21.5q-4 4 -12.5 17.5t-12.5 19.5q-4 4 -11 21.5t-11 21.5q-2 4 -7.5 18.5t-9.5 31t-9 32t-7 21.5q0 2 -5 22.5t-5 32.5q-2 14 -7.5 42t-5.5 34v65v56q4 4 11.5 21 t11.5 24q6 8 26.5 28.5t28.5 26.5v10q-8 0 -32.5 4t-32.5 4q-2 4 -11.5 12.5t-9.5 12.5v22v25q0 2 4 15.5t9.5 27.5t10.5 26.5t7 16.5q2 8 9 28.5t15.5 42t14.5 40t6 24.5q4 6 7 23.5t3 21.5v66v63q-4 8 -16 25.5t-15 21.5q-4 6 -12 18.5t-12 12.5l-23 45q0 4 -4 17.5 t-4 17.5v31v24q0 6 9.5 22.5t11.5 22.5l65 66q4 2 21.5 10t23.5 10h11h14l18 -8l37 -37q0 -4 12.5 -28.5t18.5 -36.5q0 -2 5 -14.5t5 -16.5q4 -4 7 -23.5t7 -21.5q0 -4 5 -20q2 -8 6 -15l4 -4q4 -4 4 -8q8 0 23.5 -14.5t23.5 -18.5q6 -4 18.5 -11t12.5 -11q14 -6 35.5 -16.5 l43 -21t38 -18.5t18.5 -8q4 -2 17.5 -3t26.5 -1t25.5 1t16.5 3q4 0 10 -6l4 -4q4 -8 6 -14t4 -11v-18v-12q0 -6 -10 -24.5t-14 -20.5q-2 -4 -9.5 -12.5t-16.5 -16.5t-18 -16.5t-11 -10.5q-4 -4 -20.5 -14t-20.5 -10h-27h-29q-4 0 -13 3t-19.5 7t-20.5 8t-16 6t-23.5 10.5 t-37 16.5t-37 16t-23.5 13l-55 -166v-11q12 -4 42.5 -10t64.5 -14t63.5 -14.5t42.5 -6.5q8 -2 29.5 -7t44 -10t43 -10t26.5 -7q8 -2 37.5 -10.5t40.5 -10.5q6 -2 19.5 -7t28.5 -10t29.5 -10.5t20.5 -7.5q10 -2 30.5 -11t24.5 -9q6 -4 29 -17.5t27 -17.5q2 -2 14 -15.5 t16 -21.5q4 -2 14.5 -14.5t10.5 -16.5q2 -4 5 -19t7 -24v-18v-19q-4 -2 -7 -19t-5 -19q0 -8 -13.5 -34t-21.5 -38q0 -2 -9 -14.5t-11 -16.5q-4 -6 -21.5 -26.5t-21.5 -28.5q-4 -4 -17.5 -16.5t-19.5 -16.5q-2 -2 -10.5 -9t-18.5 -16.5t-20.5 -18.5t-16.5 -11 q-2 -4 -20.5 -16.5t-24.5 -14.5q-4 -6 -14 -13t-20.5 -14.5t-19.5 -12.5t-11 -7q-10 -6 -36 -18.5t-55.5 -25.5t-56 -25.5t-37.5 -18.5v-86h-12l-25 74h-8q-2 -10 -5 -38t-6 -59.5t-6 -61.5t-5 -42q-4 -2 -7.5 -16.5t-7.5 -14.5q0 -4 -2 -4t-4 -2q-4 -2 -6 -2v229zM182 539 q2 -4 4 -18.5t3 -30t3.5 -31t2.5 -21.5q0 -4 2 -14t3 -20.5t3 -19.5t2 -11q2 -4 7 -18.5t9 -30t9.5 -30.5t7.5 -22q4 -8 13 -25.5t9 -21.5q4 -2 25.5 -22.5t29.5 -32.5q4 0 12.5 -4t12.5 -4h55h56q2 0 14 4t16 4q8 6 25.5 15.5t35 17.5t32 15t18.5 7q6 4 16 11.5t20.5 14.5 l19.5 13t14 8q8 4 28.5 25.5t26.5 30.5q0 4 5 12t5 12v21v18q0 4 -18.5 21.5t-24.5 25.5q-4 4 -17.5 12.5t-19.5 12.5q-2 0 -10 4l-8 4q-6 2 -24.5 8t-40 13.5t-41 14.5t-27.5 11q-6 0 -17.5 3t-24 7t-23.5 7.5t-15 3.5q-6 0 -26.5 5t-29.5 5h-8q-2 0 -8 -6l-4 -4 q0 -6 -5 -23.5t-5 -21.5h-6h-9l-10 8q-2 8 -5 31.5t-7 23.5q0 4 -13.5 8t-19.5 8l-41 9q-6 4 -19.5 4h-17.5v-47z" />
<glyph unicode="6" horiz-adv-x="686" d="M393 55q-6 -4 -17 -12t-24.5 -15.5t-25 -13.5t-15.5 -8q-14 -4 -26 -8q-10 -4 -21.5 -6t-17.5 -4t-16.5 -6.5t-21.5 -8.5t-20.5 -7t-11.5 -3q-8 -2 -25.5 2t-23.5 4q-8 4 -28.5 12.5t-26.5 16.5q-4 2 -9 6q-4 4 -7 6t-3 6q-4 4 -12 17q-4 6 -6 10q-4 4 -10.5 20.5 t-6.5 20.5q-2 4 -3 12t-3 15q-2 8 -6 16l-1 11q-1 12 -3 27t-3 30.5t-1 25.5v35q0 8 4 31.5t8 50.5t8.5 51.5t6.5 34.5q0 8 6 31.5t6 33.5q4 14 12 43t17.5 60t16.5 56.5t7 33.5q2 8 12.5 41t23.5 78t29.5 95t32 94t25.5 76t14 40q0 4 4.5 20.5t8.5 36t9 37t9 23.5 q0 8 15.5 32.5t19.5 34.5q2 4 10 17.5t10 17.5q4 2 16.5 8t12.5 13h8l6 6q2 -4 7.5 -4t9.5 -2q6 -2 12 -3v-8v-6q0 -2 2 -4q2 -4 4 -6t2 -6v-6q0 -8 -3 -26.5t-3 -27.5q-2 -6 -5 -19t-7 -20q-2 -10 -13.5 -45.5t-27 -86t-32.5 -106.5t-32.5 -106.5t-28 -87.5t-14.5 -47 q-2 -4 -6 -14t-8 -22.5t-7 -23.5t-3 -13q6 2 16 12t21.5 20.5t20.5 19.5t13 11q10 8 31 25.5t27 21.5q12 2 24 6q10 4 20.5 6t16.5 7q8 2 20.5 6t25 7t21.5 5t11 2h12q14 0 21 6q4 -4 23.5 -6t25.5 -2q4 -4 19.5 -8t17.5 -8q6 -4 14 -9q8 -4 21 -12q0 -4 6 -10t6 -8 q6 -4 16.5 -26.5t10.5 -27.5q0 -2 8 -25.5t8 -37.5v-37q-2 -4 -5 -17.5t-6 -28.5t-5 -29.5t-2 -20.5q2 -4 -2.5 -18.5t-8.5 -18.5q0 -6 -7 -28.5t-11 -26.5q-4 -10 -14.5 -32t-22.5 -45.5t-22.5 -46t-14.5 -30.5q-4 -2 -19.5 -22.5t-23.5 -34.5q-2 0 -14.5 -19.5 t-16.5 -27.5q-6 0 -6 -4v-5q0 -6 2 -19t5 -27.5t6.5 -28t3.5 -17.5l-7 -18q-4 -4 -9 4t-9 4q-4 10 -16.5 33.5t-12.5 32.5l-18 -19q0 -4 2 -14t4 -22.5t5 -24t5 -13.5q0 -8 1 -26.5t-1 -26.5q0 4 -8 12.5t-8 12.5q-6 4 -18.5 30.5t-12.5 36.5zM147 246q2 -6 5.5 -14.5 t7.5 -16.5t6 -20q0 -4 8 -11.5t10 -7.5l17 -10q6 -2 25.5 -4t23.5 2q6 2 14 4q16 4 23 4q6 4 19 8t18 4q4 0 18 10.5t18 14.5q2 2 12.5 11t23 19.5t23.5 21.5l15 15q4 8 14.5 19.5t10.5 15.5q4 12 15 34t22.5 44.5t21.5 41t14 22.5q0 6 4.5 34.5t4.5 34.5q-2 4 -4 10 q-4 12 -5 19q0 2 -2 4q-4 4 -4 6q-2 4 -4 10q0 4 -7 12.5t-7 12.5q-4 0 -14.5 5t-16.5 7q-4 0 -22.5 3t-30.5 3h-39q-2 -2 -14 -6q-6 -2 -11 -2q-6 -4 -18 -8q-6 -2 -10 -2q-6 -4 -19.5 -12.5t-19.5 -12.5q-14 -4 -19 -20q-2 -2 -10 -11.5t-16 -18.5t-14 -17l-7 -8 q-6 -8 -19 -22.5t-18 -14.5q-4 -4 -21 -14.5t-22 -14.5v-4q0 -2 -1 -5t-1 -5q0 -4 -3 -11.5t-3 -11.5v-29.5t-4 -31.5v-37q0 -2 5 -20.5t7 -28.5z" />
<glyph unicode="7" horiz-adv-x="819" d="M244 -18q-2 8 -4 14q2 2 2 14.5v26.5t1 27.5t3 19.5q0 8 1 30.5t1 28.5q2 8 1 25.5t-1 21.5q4 6 8 26t7 41.5t7 40.5t9 30q2 8 6 28.5t6 26.5q2 10 8 32.5t13 47t13.5 45t8.5 29.5q-6 0 -25.5 -2.5t-41 -3.5t-41 -1h-27.5q-4 0 -9 2q-4 2 -6 2.5t-4 2.5q-4 -2 -10 4l-4 4 v14v10q2 6 2 18.5t4 14.5q4 6 13.5 19.5t20.5 28t21.5 26.5t14.5 16q0 2 10 7.5t14 5.5l166 24l4 4q6 6 6 4q0 2 5.5 12.5t11.5 21.5t12 20.5t8 9.5q4 6 11.5 18t14.5 24.5t12 23t7 14.5q4 4 14.5 19t21.5 31.5t21.5 32t14.5 19.5l-45 -6q-80 -27 -154 -49 q-63 -20 -129.5 -42t-109.5 -36q-4 -2 -25 -10l-18 -9q-2 0 -4 -10t0 -14q0 -2 -1 -32t1 -44v-65.5t1 -115t3 -140t3 -140t2 -115t1 -65.5q0 -4 -1 -24.5t-1 -30.5q0 -4 -4 -20.5t-9 -20.5q0 4 -1 19.5t-3 31.5t-4 32.5t-4 22.5q-2 10 -4 28.5t-4 36t-4 31t-2 15.5 q0 4 -1 34.5t-3 69.5t-5 78t-5 62q2 10 2 36.5t-1 56.5t-2.5 56.5t-1.5 38.5q0 6 1.5 29.5t1.5 50.5t1 49.5t1 26.5q-4 4 -5 8l-2 2q-2 0 -6 3t-8 3q2 -4 -1 -8t1 -8l-2 -7q-2 -8 -3 -16l-2 -16t-1 -10q-4 -4 -6 -18.5t-2 -16.5l-11 -6l-14 100l-121 -16q-4 2 -6 6 q-4 8 -4 10q-2 2 -2 8v10q0 6 -4 19q0 2 7 19.5t9 19.5q4 4 16.5 24.5t18.5 30.5q4 4 17.5 12.5t17.5 12.5q4 2 10 6q4 4 8 5t9 5q8 0 22 6t19 8q0 2 2 2q4 0 8 2h2q4 0 17.5 -5t17.5 -5l12 6q2 0 5 1t7 1h6q6 0 18.5 3.5t27 6.5t27.5 7t20 4q6 2 24.5 8t38.5 12t37.5 11.5 t23.5 9.5q12 2 53.5 16.5t88.5 30.5t88 30.5t51 16.5q10 4 30.5 11t40 13.5t36 12.5t20.5 6q6 2 14 2q16 0 23 2q4 0 16 4q6 2 10 2t13.5 -10t15.5 -14v-4q0 -2 1 -4.5t1 -4.5v-12q0 -4 2 -6q0 -4 -7 -19.5t-11 -25.5q0 -4 -7.5 -18.5t-9.5 -18.5q-4 -6 -22.5 -31.5 t-38.5 -54.5t-37.5 -53.5t-23.5 -32.5q-2 -6 -10.5 -20.5t-18.5 -31t-19.5 -30.5t-13.5 -18q-2 -2 -7 -10.5t-11 -18.5t-10.5 -19.5t-6.5 -11.5l19 -6q6 -2 21.5 -4t32.5 -3t31.5 -2t18.5 -3q8 2 25.5 -1t21.5 -3q6 0 16.5 -1t21.5 -4t21 -4l9 -1q4 -4 22.5 -10.5 t26.5 -10.5q4 2 17.5 -5t17.5 -7q2 0 8 -6l4 -4q0 -6 2 -13q0 -4 1 -6t1 -4t2 -4v-19q0 -6 2 -10q0 -12 -8 -24q-4 -6 -13 -16.5t-17.5 -23t-15.5 -21.5t-7 -11q-4 -4 -16.5 -10t-18.5 -8q-4 -2 -8 -3h-10q-4 0 -5.5 -1t-5.5 -1h-6q-2 0 -15 7.5t-18 9.5q-8 4 -26.5 9 t-20.5 9q-10 2 -35.5 6t-33.5 7q-4 -2 -13.5 -5.5t-11.5 -3.5q2 -16 8 -58t13.5 -88t13.5 -88l8 -56v-16.5t1 -28t2 -30t1 -20.5q-4 -4 -5 -16t-3 -16l-18 53l-76 370l-8 5q-4 2 -15 2q-4 2 -10 2h-18q-4 0 -13.5 -4.5t-11.5 -6.5q-4 -4 -10 -20t-12.5 -35.5t-11.5 -37 t-5 -23.5q-4 -4 -9 -28t-9 -30q2 -4 -1 -31.5t-5 -43.5q-4 -8 -6.5 -26.5t2.5 -23.5q-4 -10 -4.5 -34.5t1.5 -32.5q0 -2 1.5 -15.5t3.5 -29t3 -28.5t1 -15v-15q0 -16 -6 -16q-4 -8 -8.5 -27.5t-2.5 -23.5q-8 -4 -23.5 -23.5t-21.5 -23.5q-4 -4 -18.5 -15.5t-20.5 -13.5h-10 q-4 0 -7 -1t-5 -1q-4 -2 -13 -2h-6q-4 -2 -7 7t-7 9q-2 6 -4 15q-4 16 -4 20z" />
<glyph unicode="8" horiz-adv-x="837" d="M377 -68h-10q-4 0 -14.5 -3t-24 -7t-24.5 -8t-13 -6q-12 0 -32.5 -5t-22.5 -5h-56h-55q-4 0 -12.5 5t-12.5 5q0 4 -9 21.5t-13 23.5v10v14q4 8 7 30t5 26q0 4 9.5 24.5t15.5 30.5q0 4 5 11t5 12q2 6 9 17t14.5 23.5t13.5 21.5t8 11q4 10 19.5 36t34 54.5t34.5 54t23 36.5 q-4 4 -16.5 16t-20.5 14l-9.5 9.5t-16.5 15.5t-17 14t-13 8q-6 6 -16 14.5t-20.5 17.5t-18.5 15.5t-8 8.5q-10 6 -29.5 25.5t-41 42t-40 42t-24.5 25.5q-4 0 -11.5 11t-11.5 20q0 4 -4 16t-4 16v37v29q0 2 9 20.5t12 24.5q4 4 17 21.5t17 25.5q2 0 10.5 9t10.5 9 q8 6 23.5 19.5t19.5 17.5q8 2 32.5 14.5t34.5 16.5q4 0 17.5 4t17.5 4q6 4 23.5 8.5t21.5 8.5q10 0 40 4t38 4h62h57q8 0 32.5 -4t32.5 -4q6 -4 33 -12.5t37 -12.5q4 -4 20.5 -11t20.5 -11q6 -4 19.5 -12.5t17.5 -12.5q2 -4 13 -14.5t23.5 -22.5t23 -23.5t14.5 -15.5 q4 0 12 -13t12 -22q2 0 5 -9t7 -11q0 -2 3.5 -11.5t6.5 -20.5t6 -20.5t3 -13.5q4 -6 9 -24.5t5 -20.5v-73v-80q0 -4 -5 -19.5t-9 -27.5q0 -2 -5 -14.5t-5 -16.5t-5.5 -13.5t-10.5 -20.5t-9 -20.5t-6 -9.5v-10v-6l10 -8q2 -4 14.5 -11.5t16.5 -11.5q10 -6 29.5 -19.5 t40 -25.5t36 -22.5t19.5 -12.5t10 -4q8 -4 12 -4q0 -4 4.5 -11t4.5 -11v-15v-10q0 -6 -9.5 -22.5t-11.5 -22.5q-2 -2 -10 -9t-17.5 -16.5t-17.5 -18.5t-10 -11q-4 -4 -21.5 -11.5t-21.5 -7.5q-8 -4 -35 -2t-33 2q-2 -2 -14 -5t-26.5 -6l-29 -6t-20.5 -5q-4 -2 -17.5 -7.5 t-29.5 -9.5t-31.5 -9t-21.5 -7q-8 -4 -28.5 -11t-27.5 -12q0 -6 -2 -17t-3 -23.5t-3 -23.5t-2 -15q0 -6 -4 -27t-4 -29l-18 11v100h-19q0 -23 -2 -78t-3 -116.5t-3 -117t-2 -75.5q0 -4 -1 -18.5t-3 -30t-3 -30.5t-1 -22q-4 -4 -7.5 -16t-5.5 -14v297q0 10 -2 38.5t-3 61.5 t-3 61.5t-2 38.5h-14zM377 295q-4 0 -6 -2q-4 -4 -4 -8t-6.5 -12.5t-14.5 -19.5t-15 -20.5t-9 -11.5q-4 -8 -16.5 -29.5t-14.5 -25.5q-8 -14 -21.5 -40t-13.5 -28q0 -4 -1 -9t-1 -11v-15h49q4 0 25.5 5.5t29.5 5.5q2 2 19.5 8t38 13t41 13.5t30.5 10.5q8 2 22.5 8l29 12 t25.5 10.5t16 4.5l4 4q4 4 4 8q-4 2 -18.5 11t-30 20.5t-30.5 19.5t-22 12q-4 4 -16 12.5t-26.5 16.5t-26.5 15.5t-17 11.5q-10 10 -24 10zM145 782q2 -6 5 -10q0 -2 4 -6q2 -2 2 -4q2 -4 14 -16.5t26.5 -25.5t28 -27.5t19.5 -20.5q8 -2 32.5 -24.5t34.5 -31.5 q6 -4 24.5 -16t40 -27.5t41 -30t29.5 -20.5q4 -4 15.5 -13t24 -18.5t23.5 -16.5t15 -7q6 -6 16.5 -14.5t20.5 -15.5t19 -12l8 -5h6h4q4 4 9 16.5t5 14.5v18v16q0 4 -1 15.5t-3 24t-5 22.5t-5 14q0 8 -5 25.5t-5 21.5t-9.5 19.5t-11.5 23.5q-4 6 -12 19.5t-12 17.5 q-4 2 -20.5 19.5t-20.5 19.5q-4 4 -16.5 12.5t-16.5 12.5q-8 4 -25.5 11t-21.5 11q-2 0 -14.5 4t-16.5 4q0 -2 -5 -19.5t-9 -19.5q0 -4 -5 -12t-5 -12q0 6 -4.5 31.5t-4.5 31.5q-4 4 -7 8.5t-5 8.5q0 -8 -5 -25.5t-5 -21.5q-4 -4 -7 -14.5t-7 -10.5q-4 -4 -9 2l-4 4v66h-153 q-4 -2 -6 -6q-5 -9 -5 -11z" />
<glyph unicode="9" horiz-adv-x="698" d="M465 459q-4 -4 -14.5 -13.5t-22.5 -19.5t-23.5 -19.5t-15.5 -13.5t-21.5 -16t-21.5 -17q-8 -8 -20.5 -15t-16.5 -7q-10 -6 -43 -22.5t-43 -22.5l-10 -35q-2 -12 -4 -40t-3 -59.5t-3 -59t-4 -38.5q0 -4 -2 -18t-3 -31.5t-3.5 -35t-2.5 -25.5q-2 -18 -5 -51t-7 -41 q0 -4 -3 -16.5t-5 -16.5v129v125q0 6 1 31.5t3 53.5t3 53.5t1 31.5v18h-37v-96h-24v96q-2 4 -21.5 7.5t-27.5 7.5q-4 0 -19.5 7t-23.5 15q-4 2 -9.5 5t-9.5 7q-6 4 -12 7q-4 4 -12.5 16t-12.5 20q-2 0 -5 9.5t-7 9.5q0 6 -4 19.5t-4 17.5v73v70q0 10 9 43t11 43 q2 6 9.5 21.5t16.5 33t17 34t13 22.5q4 8 17 23.5t17 23.5q6 6 19.5 20.5t27 27.5t24.5 24.5t15 15.5q2 2 11.5 8t20.5 13.5t21.5 14.5l16.5 11q4 2 28.5 14.5t37.5 16.5q2 0 14 4t16 4q10 4 30.5 10t25.5 6h51h49q12 -2 22 -6t19.5 -6t13.5 -4q4 0 23.5 -4t23.5 -4h8h11 q4 0 23.5 14t21.5 18q4 4 12 7.5t12 3.5h9q4 0 7 1t7 1q2 0 5 -1t7 -1h6q14 0 15 -11v-24v-21q0 -4 -5.5 -24.5t-9.5 -30.5q0 -4 -4 -21.5t-10 -38t-11 -39t-5 -22.5q0 -6 -5.5 -22.5t-5.5 -22.5v-246v-239q0 -4 2 -18.5t3.5 -31t3.5 -33.5t2 -28q0 -6 4 -32.5t7 -56.5 t6 -56.5t3 -32.5v-29v-26q-2 -4 -4 -10q-4 -12 -4 -15q-4 -4 -13.5 -16t-9.5 -15l-24 -24q-2 0 -14.5 -9.5t-16.5 -13.5q-2 0 -14 -4q-6 -2 -11 -4h-18h-12l-4 4q-4 4 -11 4q0 2 -2 5.5t-4 7.5t-4 10q0 2 -3 22.5t-6 45t-7 49t-4 39.5q0 6 -2 20t-3 29.5t-3.5 29t-2.5 19.5 q-2 10 -4 30.5t-3 42t-3 39t-4 21.5q0 14 -2 49t-3 74t-3 74t-2 49zM113 559q0 -4 4 -21.5t4 -23.5q8 -12 12 -25q4 0 12.5 -9t12.5 -9q0 -4 9 -7t9 -5q8 0 20.5 -5t16.5 -5h10h8q8 0 25.5 5t22.5 5q6 2 23 10t22 10q4 4 16 17.5t27.5 30t31 31.5t21.5 24q4 0 12 13t12 19 q2 6 9.5 19.5t14.5 28t13 24.5t8 14v17v8q-4 4 -18 11t-14 12q-4 0 -7.5 10t-5.5 14v8q-4 4 -12 11.5t-12 11.5q-4 0 -16.5 4t-14.5 4q0 -6 -5 -31.5t-5 -31.5q-4 -10 -7 -33t-7 -23q0 -8 -9.5 -34.5t-9.5 -32.5v26v29q0 4 1 22.5t3 39t3 39t1 22.5v8h-30q-4 -6 -7.5 -31.5 t-7.5 -31.5q0 -2 -2 -5.5t-4 -7.5q-2 -6 -4 -10t-10 0l-8 4v88h-15q-6 0 -12 -2t-10 -4q-6 0 -23.5 -9t-21.5 -11q-4 -4 -26.5 -25t-29.5 -31q-4 -4 -6 -8q-2 -2 -2 -6q0 -2 -2 -4q-2 -8 -5 -21.5t-7 -15.5q0 -8 -4 -32.5t-4 -33.5v-26v-29z" />
<glyph unicode=":" horiz-adv-x="303" d="M145 -139q2 4 4.5 21.5t3.5 38t3 40t2 29.5q0 8 5 43t5 49q2 4 6 26.5t8 49t7.5 49t3.5 26.5v9l-11 6q-14 0 -14 -15q-4 -6 -6 -14l-4 -16q0 -4 -4 -12.5t-9 -12.5q4 6 -1 24.5t-7 20.5t-11 7.5t-18.5 10.5t-17.5 10t-8 7q-4 2 -14.5 10t-10.5 11v18v16q2 2 8.5 13.5 t12.5 26t13 27.5t11 19q0 4 10.5 16.5t14.5 20.5l10 8q6 8 23.5 21.5t21.5 13.5q0 2 12.5 5t18.5 8h16h9q4 -4 11 -11.5t7 -11.5q4 -4 8 -29.5t4 -40.5v-22v-19q0 -2 -3 -10t-6 -17t-7 -17.5t-4 -10.5q0 -4 -5 -21.5t-5 -23.5q-4 -12 -9.5 -42t-11.5 -61.5t-10 -59t-6 -38.5 q0 -8 -4 -44t-10.5 -76.5t-11.5 -76.5t-7 -44q0 -8 -5 -28.5t-5 -27.5q-2 0 -7.5 9.5t-5.5 11.5v35v45zM27 793l4 12q4 12 4 18q2 4 5 10.5t7 14.5t10 18q4 6 21.5 22.5t23.5 22.5q4 4 17.5 11.5t17.5 11.5q0 2 17 6q8 2 14 2q4 0 14.5 -2t10.5 -6v-41v-37q0 -4 -5.5 -16.5 t-5.5 -16.5q-4 -4 -12 -16t-12 -14q-6 -8 -23.5 -25.5t-21.5 -22.5q-4 -4 -20.5 -12t-20.5 -12h-15h-10q-2 4 -11 12t-9 12v19v29z" />
<glyph unicode=";" horiz-adv-x="274" d="M78 219q-4 0 -15.5 1t-25.5 2t-26.5 3t-16.5 2l-8 11v26v29q0 4 4 16.5t4 20.5q4 4 11 16t11 16q6 4 18.5 16.5t26 27t25.5 26.5t18 17q4 0 17.5 10t19.5 14q4 4 20.5 11.5t20.5 11.5h6h9q4 -8 20 -23.5t21 -23.5q4 -2 9 -10.5t5 -10.5v-477q0 -2 -5 -14.5t-9 -16.5 q0 -6 -9.5 -19.5t-13.5 -17.5q-4 -6 -21.5 -22.5t-21.5 -20.5q-2 -2 -20.5 -11t-24.5 -9h-10h-13q-4 2 -15 10t-11 10v379zM25 934v9t2 9l4 13q0 8 7 23.5t11 23.5q4 2 13.5 11t19.5 20.5t20.5 19.5t14.5 12q2 2 8 6q4 4 8 5t8 6q4 0 16.5 4t14.5 4h6h4q4 0 12.5 -4t12.5 -4 q2 -4 5 -8.5t3 -8.5q4 -2 8 -10t4 -10v-35v-31q0 -6 -9 -22.5t-11 -22.5l-55 -55q-4 -4 -21.5 -12.5t-26.5 -12.5h-24h-31l-4 4q-4 4 -4 11q-4 4 -7 11t-3 11q-2 4 -4 12q-2 4 -2 10.5v10.5z" />
<glyph unicode="&#x3c;" horiz-adv-x="876" d="M319 459q-4 0 -12 9t-12 9q-2 4 -10.5 9.5t-10.5 5.5v-156q0 -4 -5 -17.5t-5 -17.5q-4 4 -7 12.5t-7 12.5q0 4 -5 24.5t-5 30.5q0 4 -1 16.5t-3.5 26.5t-4.5 26.5t-4 16.5q0 4 -3 21.5t-5 25.5q-6 2 -24.5 8t-40 13.5t-42 13.5t-28.5 8q-4 0 -20.5 4t-20.5 8 q-6 0 -19.5 4.5t-17.5 4.5l-8 10v24v21q0 4 4 12t4 12q8 8 32.5 33t35.5 33q0 2 10 5t14 7q4 0 20.5 4t20.5 4q6 0 23.5 2.5t39 3.5t39 3t23.5 2l17 4q14 4 24 10q6 0 19.5 5t17.5 5q8 2 25.5 9.5t35 14.5t32 13t18.5 8q2 2 10 6.5t18.5 9.5t20.5 10t14 5q6 4 19.5 11 t25.5 14.5t22.5 13.5t12.5 8q4 2 14.5 11.5t20.5 20.5t19 19.5t12 12.5q0 2 2 11t3 18.5t3 17.5t4 8q0 8 7 25.5t11 21.5q6 4 22.5 21.5t22.5 21.5q4 2 21.5 11t25.5 9h15h18l10 -8q0 -8 1 -23.5t1 -23.5q0 -4 -1 -10t-1 -12v-17q0 -4 -3 -17t-7 -20q-2 -6 -4 -10 q-4 -8 -10 -8q-8 -14 -22.5 -41t-18.5 -31t-15.5 -15t-25.5 -25.5t-27.5 -28t-19.5 -17.5q-4 -4 -21.5 -16t-25.5 -16q-4 -4 -14.5 -11.5t-20.5 -14.5t-18.5 -13.5t-10.5 -8.5q-6 -4 -28.5 -14t-47 -23.5t-45 -24.5t-26.5 -13l-10 -11l90 -45q2 -2 13 -8t23.5 -13 t23.5 -13.5t15 -8.5q4 -4 17.5 -11t17.5 -11q2 -4 20.5 -16.5t24.5 -16.5q8 -10 29.5 -26.5t26.5 -20.5q8 -2 22 -20.5t19 -24.5q4 0 16 -16.5t20 -24.5q4 -8 13 -21l6 -12q6 -10 19.5 -35.5t17.5 -31.5q0 -4 4 -17.5t4 -17.5v-21v-24q0 -4 -9.5 -20.5t-11.5 -20.5 t-10 -12.5t-17 -17.5t-17.5 -16.5t-10.5 -9.5q-4 -4 -20.5 -12t-22.5 -12h-12h-10l-5 4q-6 6 -10 6q0 14 -10 25l-4 16q-2 8 -4 14q-2 2 -6 12.5t-10.5 23t-12.5 21.5t-8 13q0 4 -9.5 16.5t-9.5 14.5q-6 6 -21 21.5t-30.5 31.5t-30 30.5t-20.5 18.5l-10 7t-22.5 16.5 t-25 18.5t-18.5 13q-8 4 -28.5 16.5t-26.5 16.5l-10 -6v-381l-15 -45q0 2 -5 10.5t-5 10.5q-2 8 -5 41.5t-3 48.5q-2 18 -5 66t-7 103.5t-7.5 105t-3.5 69.5z" />
<glyph unicode="=" horiz-adv-x="831" d="M313 27q-10 0 -35.5 1t-54 3t-53.5 3t-33 1h-55q-4 0 -12.5 5t-12.5 5v27v28q0 4 5.5 12.5t5.5 12.5q6 10 28.5 30.5t26.5 24.5q4 2 21.5 10.5t23.5 10.5h90h86q6 0 26.5 -1t45 -3t48 -3t36.5 -1q14 -2 48 -5.5t70.5 -7.5t68.5 -7t44 -3q6 0 19.5 -5t17.5 -9l8 -11v-18 v-12q0 -4 -4 -12.5t-4 -12.5q-2 -4 -5 -9t-7 -9q-6 -6 -11 -13l-24 -24q-2 -2 -14.5 -10.5t-16.5 -10.5q-6 -6 -14 -8q-6 -2 -10 -2q-6 -2 -15 -4q-6 -2 -13 -2h-11q-8 0 -25.5 3t-21.5 3q-6 0 -23.5 2t-39 3t-39 3t-23.5 2h-41v-331q-4 2 -7.5 10t-7.5 10q0 4 -5 20.5 t-5 22.5q0 4 -3 19.5t-7 34t-7 34.5t-3 23q0 4 -3.5 22.5t-7.5 39t-8 38.5t-6 23q0 4 -2 9t-4 11q-2 8 -4 14q-2 2 -10.5 7.5t-10.5 5.5zM-18 367q0 8 9 23.5t11 23.5l9 9l16.5 16.5l17.5 17.5l12 12q4 0 12.5 4t12.5 4h22h33q4 0 20.5 -4t20.5 -4h590q4 -6 8 -10l7 -7t3 -6 l7 -6l-5 -4q-2 -2 -2 -4q0 -8 -9 -22.5t-9 -18.5q-8 -6 -28.5 -26.5t-26.5 -28.5q-8 -4 -25.5 -14.5t-21.5 -10.5t-18.5 -2t-30 -3l-31 -2t-21.5 -1h-538q-4 0 -12.5 3t-12.5 5q-2 4 -11 12.5t-9 12.5v12v19z" />
<glyph unicode="&#x3e;" horiz-adv-x="892" d="M117 49v37q0 4 5 19.5t5 25.5q4 8 7 21.5t7 13.5q2 6 9.5 22.5t16.5 33t17.5 32.5t12.5 22q0 2 7 14.5t11 16.5q8 10 20.5 26.5t16.5 18.5q4 6 19.5 22.5t34 35t34.5 34t22 19.5q0 4 16.5 17.5t24.5 17.5q6 2 20.5 12t32 20.5t31 20.5t17.5 14l10 8l6 7l-6 4 q-4 6 -19.5 16t-34 20.5t-34.5 19.5t-23 13q-4 4 -16 11.5t-14 11.5q-10 6 -29.5 21.5t-41 30.5t-40 28.5t-24.5 17.5q-4 4 -14.5 12.5t-20.5 17.5t-19.5 16t-11.5 9l-186 187v18v17q0 6 9 23.5t11 21.5q4 8 21.5 23.5t21.5 23.5q8 2 25.5 10t21.5 8h6q4 0 6.5 1t6.5 1 l12 -2q8 -6 29.5 -24.5t44 -40t43 -40t26.5 -24.5q4 -6 17.5 -18.5t28 -24.5t27.5 -23.5t19 -13.5q4 -4 25 -21.5t31 -25.5q4 -2 20.5 -14t20.5 -17q8 -6 21.5 -15t25.5 -18.5t21.5 -15.5t11.5 -6q4 -4 19 -13t33.5 -19.5t35 -20.5t22.5 -16q6 -4 32 -16.5t36 -14.5 q4 0 25.5 -10.5t29.5 -14.5q6 0 31.5 -9t32.5 -9q4 -4 23.5 -7t23.5 -5l8 -11v-18v-14q0 -8 -9.5 -25.5t-11.5 -22.5q-2 -4 -10 -11t-17 -15t-17.5 -16.5t-10.5 -12.5q-4 -2 -21.5 -10t-21.5 -10q-4 0 -17.5 -2t-28.5 -3t-29.5 -3.5t-16.5 -2.5q-4 0 -20.5 -5t-20.5 -9v-18 q0 -4 -5 -13.5t-9 -9.5h-4h-7q-2 4 -4 10q-4 8 -4 13q-4 0 -9 4t-9 4v-166l-19 -12q0 8 -5 25.5t-5 21.5t-1 18.5t-3 29.5t-3 30.5t-1 21.5l-12 10q-14 -6 -27 -14q-10 -6 -21.5 -11t-17.5 -9q-6 -2 -19.5 -10.5t-13.5 -10.5q-6 -6 -21.5 -20.5t-30.5 -29.5t-29.5 -30.5 t-20.5 -21.5q-2 0 -10.5 -14.5t-10.5 -18.5q-4 -4 -12 -26.5t-12 -28.5q0 -4 -3 -16.5t-7 -27t-7.5 -27.5t-5.5 -15q0 -8 -7 -25.5t-11 -22.5q-6 -4 -26.5 -25.5t-28.5 -29.5q-4 0 -12.5 -4t-12.5 -4h-20h-25l-10 8v41z" />
<glyph unicode="?" horiz-adv-x="757" d="M166 16q-6 0 -10 4q-2 2 -4 7v32v23q0 6 10 22.5t14 22.5q0 4 9.5 13.5t20.5 19.5t20.5 19t13.5 14l5 5t7 5t10 4h25h20l4 -4q6 -6 6 -10v-11v-8q0 -4 -5 -21.5t-5 -25.5q0 -2 -2 -6t-4 -10q-4 -8 -6 -15q0 -6 -1 -24.5t-3 -38t-3 -38t-1 -24.5l-11 -10q-4 8 -7 28.5 t-7 26.5q0 4 -5 12.5t-5 12.5v-258l-12 -8q0 6 -4.5 26.5t-4.5 28.5q0 10 -2 37t-3 56.5t-3 56t-2 36.5h-55zM152 272q0 10 -2.5 37t-3.5 56.5t-3 56.5t-2 37q0 4 -1 20.5t-3 36t-4 34.5t-4 19v35v21q4 4 11 20.5t12 26.5q4 4 12 16t12 17q2 4 14.5 16t16.5 14 q6 6 29.5 24.5t50 39t49 39t26.5 24.5q8 2 33 24.5t33 31.5q8 6 25.5 20t35 29.5t32 28t18.5 16.5l24.5 24.5t38 39t37.5 39t25 24.5v2v6q-4 8 -16.5 19.5t-16.5 11.5q-8 4 -33 19t-35 15q-4 0 -17.5 5.5t-29.5 11.5t-30.5 12t-20.5 8q-8 0 -28.5 4t-26.5 4h-13h-10 q-4 -10 -7 -38.5t-7 -40.5q0 -6 -5.5 -27t-5.5 -29q-2 8 -5 28.5t-3 27.5q-4 12 -8 40.5t-4 38.5h-10h-15q-4 0 -11 -10t-11 -14l-19 24h-88l-4 -8q4 -4 7.5 -21.5t5.5 -25.5q2 -6 8 -23.5t12 -38t10 -38t4 -19.5v-34v-37q-4 -6 -6 -11q-2 -2 -2 -6q0 -2 -2 -4 q-6 -4 -16 -14l-20.5 -20.5t-20.5 -19.5t-12 -11l-41 -25h-9h-6q0 4 -9 12.5t-13 12.5q0 4 -4 11t-4 11q0 2 -4.5 17.5t-10.5 35t-12 38t-8 28.5q-4 10 -7.5 23.5t-7.5 29.5t-6 37v31v37q0 4 4 16t4 16q4 10 13.5 26.5t9.5 21.5q6 4 17.5 15t23.5 23.5t23.5 22.5t15.5 14 l8 4q8 5 18.5 10t20.5 11t16 10q4 0 17.5 4t19.5 4q8 4 29.5 8.5t25.5 4.5h97h100l29 -4q10 -2 21.5 -4.5t15.5 -4.5q4 0 13 -1t19 -3t23 -4q6 -2 21.5 -7l31 -10t29.5 -10.5t18 -7.5q8 -2 33 -15t33 -22q6 -2 24.5 -14t20.5 -16q4 -4 14 -16.5t10 -16.5v-47v-39 q0 -8 -13 -33.5t-19 -38.5q-2 0 -9.5 -8t-16.5 -18.5t-18.5 -20.5t-11.5 -16l-67 -68q-6 -6 -28.5 -27.5t-49.5 -45t-48.5 -45l-27.5 -27.5q-4 -4 -12 -10.5t-16 -12.5q-8 -8 -19 -16v-135h-8q-4 6 -6 14q-2 6 -4 14.5t-2 14.5t-5.5 26.5t-5.5 28.5h-14q-18 -14 -37 -29 q-16 -12 -32.5 -24t-26.5 -21l-25 -24v-13v-24q0 -6 2 -39t3 -70t3 -70.5t2 -41.5v-31v-25q0 -4 -7 -20t-15 -21q-4 -6 -25.5 -26.5t-29.5 -28.5l-9 -4q-4 -2 -6 -5t-4 -5q-6 0 -19.5 -5t-17.5 -5l-18 10q-4 4 -9 12t-5 12z" />
<glyph unicode="@" horiz-adv-x="1191" d="M530 -918q2 0 5.5 -5t7.5 -5v-20h-13v30zM410 -782l-4 16t-5.5 15.5t-5.5 13.5q0 4 -2 21.5t-3 37t-3 37.5t-2 25q0 8 -2 23t-3 31.5t-2 29t-1 16.5q-4 10 -8 30.5t-4 24.5q-6 2 -15 4q-6 2 -11 4t-9 2l-8 1q-9 1 -18 3.5t-18.5 4.5t-11.5 4q-10 0 -25.5 4t-19.5 4 q-6 4 -20 10t-28.5 13.5t-26 13.5t-11.5 10q-4 2 -16 12.5t-25.5 24.5t-28 27.5t-20.5 23.5q-2 4 -10 16.5t-10 14.5q-4 8 -12.5 23.5t-12.5 23.5q0 2 -3 10t-7 18.5t-7 20.5t-5 14q0 8 -4.5 23.5t-4.5 24.5v110v111q0 2 1.5 10t3.5 18.5t3 20.5t1 14q2 8 6 28.5t10 42 t11 40t10 24.5q0 4 7 31t11 35q4 6 13 28.5t9 26.5q6 10 14.5 28.5t17.5 39t15.5 36t8.5 19.5q2 2 9 15.5t16.5 29.5t17.5 31.5t12 23.5q2 2 7 10.5t11.5 17.5t10.5 16.5t4 11.5q8 8 25.5 32.5t21.5 32.5q2 6 11 18.5t20.5 26t21.5 25.5l15 18q6 10 26.5 36t28.5 32 q2 6 14 18.5t26.5 26.5t28 26.5t19.5 18.5q8 6 32.5 26.5t32.5 28.5q4 2 18.5 11.5t31 20.5t31 19.5t20.5 12.5q8 8 32.5 20.5t32.5 16.5q2 0 30 7t38 11q10 6 24 8q8 2 19 4h63h60q4 0 21.5 -4t21.5 -8q2 0 20.5 -9t24.5 -9q4 -4 16.5 -14.5t14.5 -10.5q4 -2 17 -14.5 t17 -16.5q6 -6 19.5 -24.5t17.5 -20.5q2 -8 14.5 -33.5t16.5 -37.5l4 -13q4 -12 4 -18q2 -4 10 -25q4 -8 7 -18q0 -4 1 -18.5t3 -34t3 -39t1 -31.5v-6v-2q-2 -16 -4 -40t-3 -46.5t-1 -40v-19.5q-2 -4 -5.5 -17t-7.5 -30.5t-7 -35t-5 -27.5q-4 -6 -7 -23.5t-5 -21.5 t-7.5 -18.5t-10.5 -31t-10 -31.5t-7 -22q-2 -6 -10.5 -26.5t-10.5 -28.5q-4 -6 -17 -31.5t-17 -31.5q-6 -10 -18.5 -31t-12.5 -25l-21.5 -21.5t-31 -30.5t-29.5 -29.5t-18 -20.5q-8 -6 -33 -18.5t-33 -12.5h-33h-37l-18 10q-8 6 -20.5 19.5t-16.5 17.5q-2 0 -6 8.5t-9 18.5 t-10.5 20.5t-5.5 16.5q-4 8 -12 32.5t-12 32.5l-4 2l-6 -2l-8 -4q-9 -4 -18 -10t-18.5 -12t-11.5 -9q-6 -4 -19.5 -10t-26.5 -12t-24.5 -11t-15.5 -5q-10 -8 -36.5 -16.5t-32.5 -8.5h-50h-47q-4 0 -21.5 8t-23.5 17l-10 8q-4 4 -7 9t-7 9q-6 6 -11 12q-2 4 -5 27t-7 29v18 v17q2 4 4 15t3 23.5t3 22.5t2 14t5.5 21.5t5.5 25.5q2 6 6 16.5l8 21t7 18.5l3 8q2 8 14.5 35.5t16.5 36.5q2 4 9 14t15.5 20.5t14.5 18.5t6 10l16.5 16.5t25.5 26.5t27.5 26.5t20.5 16.5q2 4 14.5 12.5t16.5 12.5q12 8 24 12q6 0 19 4q6 2 12 6h55h56q4 0 16 -5t21 -5 q2 -2 5 -3t7 -3t6 -6q6 -4 24.5 -16.5t20.5 -16.5q8 -6 28.5 -24.5t42 -40t40 -41t24.5 -27.5q0 -4 -4 -16.5t-4 -16.5q-4 -4 -8 -11t-8 -11q0 -4 -9.5 -16.5t-11.5 -16.5q0 -2 -2 -5t-4 -8q-2 -6 -4 -10v-43v-45q0 -8 5 -28.5t5 -26.5q2 -8 10.5 -23.5t10.5 -23.5 q4 -2 12 -10.5t12 -10.5q4 10 16.5 35t14.5 33q2 2 7 15.5t10.5 29.5t10.5 31.5t7 21.5q2 2 5 20.5t7 24.5q0 8 4 29.5t4 26.5q4 14 10.5 43.5t6.5 33.5v88v86q0 4 -6.5 27t-10.5 29q0 8 -4 21.5t-4 15.5q-8 12 -19.5 36.5t-11.5 28.5q-4 2 -13 11.5t-20.5 20.5t-21.5 19.5 t-16 12.5q-2 4 -20.5 14t-24.5 10q-4 4 -24.5 7t-31.5 5h-12h-18q-4 -2 -27 -5t-29 -7q-4 0 -17 -4t-17 -4q-6 -4 -22.5 -12t-23.5 -13q-4 -4 -14 -11t-20.5 -14t-19.5 -13.5t-11 -8.5q-4 -4 -18.5 -17t-32 -31.5t-34.5 -36t-26 -25.5q-2 -2 -20.5 -22.5t-24.5 -33.5 q-2 -4 -10 -16t-18.5 -27.5t-20.5 -30t-16 -20.5q-6 -8 -18.5 -30.5t-12.5 -24.5q-6 -10 -14.5 -26.5t-17.5 -34t-15 -32t-8 -18.5t-8.5 -18t-13.5 -32.5t-14 -35t-9 -24.5q0 -8 -5.5 -21.5t-5.5 -15.5q-4 -10 -9 -30.5t-11 -41t-10 -38t-6 -19.5q0 -6 -1 -20.5t-3.5 -30 t-3.5 -30.5t-1 -22v-45v-43q0 -8 4.5 -37.5t4.5 -39.5q4 -6 8 -24.5t4 -20.5q2 -2 7 -11.5t10 -19.5t10.5 -20.5t7.5 -14.5q2 -6 10 -19.5t10 -13.5q4 -4 12.5 -13t17.5 -18.5t17 -16.5l8 -7q8 -8 42 -23.5t49 -23.5q6 -2 22 -5t23 -3q14 -2 26 -2q10 -2 21.5 -2h19.5h18.5 t24.5 2q14 0 31 2q10 2 18 4t16.5 2t12.5 2q4 4 16.5 7t16.5 3q8 4 32.5 16.5t32.5 20.5q4 2 9.5 5t9.5 7q6 4 12 6l156 156q4 4 17 12t18 13l10 6q4 2 10 4h8q4 0 6 1t4 1t4.5 -1t6.5 -1h6l6 -6q2 -2 6 -4v-25v-20q-4 -6 -6 -11q-2 -4 -4 -7t-2 -7t-9.5 -16.5t-9.5 -14.5 q-8 -8 -25.5 -30.5t-21.5 -24.5q-6 -6 -19.5 -20.5t-28.5 -30t-30.5 -28.5t-21.5 -19q-4 -8 -24.5 -23.5t-30.5 -23.5q-8 -6 -33 -23.5t-33 -22.5q-6 -2 -19.5 -8t-27.5 -12t-26.5 -12t-14.5 -9q-4 -4 -28.5 -12t-39.5 -12q-4 0 -15 -3t-23.5 -7t-23.5 -7.5t-17 -3.5 l-11 -24v-363l-20 56h-10zM440 369q0 -4 10.5 -12.5t14.5 -12.5q6 -2 14 -4q16 -4 17 -4h10h14q4 2 14.5 5t20.5 7t19.5 7t11.5 5q2 0 11 5.5t20.5 11.5t21.5 12t14 10q0 4 9.5 12.5t9.5 12.5q4 4 9 11t5 11v27v29l-88 88q-4 0 -11 5t-12 7q-8 0 -20 4q-8 2 -12 6h-19h-18 l-10 -10q-8 -12 -9 -12q-4 -4 -11 -21.5t-11 -21.5q0 -2 -5 -15.5t-9 -21.5q0 -4 -2.5 -10t-4.5 -13l-4 -16v-53v-49z" />
<glyph unicode="A" horiz-adv-x="702" d="M356 262q0 -6 -4 -22.5t-4 -22.5q-4 0 -7 -5t-5 -5q0 -8 -2 -29.5t-3 -46.5t-3 -48.5t-2 -31.5q-4 -8 -7.5 -32.5t-7.5 -32.5q0 -6 -6 -22.5t-6 -22.5v303q-6 0 -17.5 4t-22.5 8t-21.5 6t-12.5 0q-4 -8 -10 -16q-10 -18 -14 -29q-4 -8 -11.5 -29.5t-11.5 -25.5 q0 -2 -1 -10.5t-3 -17.5t-3 -17t-1 -11q0 -4 -5 -11t-5 -11q-6 -4 -16.5 -13.5t-20.5 -20.5t-20.5 -20.5t-12.5 -9.5l-41 -24h-8h-6q-4 0 -11.5 5t-11.5 9q-2 2 -4 6q-4 8 -4 13v12v10q0 6 4 24.5t4 20.5q4 8 12.5 29.5t16.5 45.5t15 44.5t12 26.5v20q-6 0 -27 3t-29 7 q0 4 -4 12.5t-4 12.5v2v10q0 2 4 19q2 8 4 14l78 78q2 0 10.5 2t17.5 5t17 6t10 5q0 4 10.5 24.5t14.5 31.5q2 12 11 40.5t20.5 61.5t19.5 60.5t12 39.5q2 2 5.5 12.5t6.5 22.5t6 23.5t5 15.5q2 8 6 23.5t8 30t7.5 25.5t3.5 13t1 38t2 78t1 78v40q4 4 9 21.5t7 21.5 q0 2 10.5 20.5t14.5 24.5q0 4 9 16t13 14q0 4 3 8.5t5 8.5q8 6 25.5 16t21.5 15q4 2 13 4q12 4 20 4h10h13l8 -8v-50v-53l-1 -11t-3 -24.5t-3 -26t-1 -14.5v-18v-25q0 -4 1 -33.5t2 -65.5t3 -66.5t2 -34.5q0 -6 5 -29t5 -27q4 -10 12.5 -38.5t12.5 -40.5q2 -10 10 -34 t17.5 -50.5t17.5 -50t10 -31.5q2 -6 10 -26.5t11 -29.5q4 -10 14 -25.5t10 -19.5q4 0 20.5 -9t20.5 -9q4 -4 9 -7t5 -5q-4 -12 -4 -45t4 -46l7 -13q6 -13 14 -31.5t18.5 -37t16.5 -28.5q2 -4 13 -38t24.5 -74t24.5 -74.5t13 -36.5q4 -14 13 -25q4 -8 10 -16v-25v-20 q-4 -4 -11 -21.5t-12 -26.5l-9 -9l-16 -16l-17.5 -17.5l-12.5 -12.5q-4 0 -12 -4t-12 -4h-27h-29q-2 0 -20.5 13.5t-24.5 17.5q0 4 -5 16t-5 16v37l-8 17q-4 6 -6 13t-6 11q-14 23 -35 78t-43 113q-25 68 -54 143h-90zM326 530q-4 -10 -14.5 -35.5t-10.5 -31.5 q0 -4 -1 -12.5t-1 -12.5h12q6 4 28.5 7.5t27.5 7.5v4v6q0 6 -9.5 31.5t-9.5 35.5q-4 0 -7 9.5t-5 9.5z" />
<glyph unicode="B" horiz-adv-x="1077" d="M582 -4l-21 -14q0 -8 -5 -33t-5 -33q0 -2 -5 -10t-9 -10h-5h-6q0 4 -1 15t-3 23.5t-3 22.5t-1 14q-6 10 -12 11q-2 2 -12.5 2h-21.5t-20.5 -1t-11.5 -1q-6 4 -32.5 7t-36.5 7q-4 0 -16.5 5t-14.5 5q-4 0 -17.5 6t-27.5 14.5t-27.5 15.5t-17.5 9h-2h-10q-4 -4 -26 -14 t-30 -10h-6h-2q-4 4 -14 12t-10 12v12v19q0 2 2 11t5 18.5t5 17.5l2 8v103v98q-12 4 -25 12q-4 0 -14 1t-23.5 3t-24.5 3t-14 1q-4 0 -12 10.5t-12 14.5v10v13q4 6 12 22t12 21q2 4 13.5 15t24 23.5t23.5 22.5t15 14v17q-12 63 -24 123q-10 51 -22.5 104t-20.5 88 q0 8 -4.5 23.5t-4.5 23.5q0 4 -5 16.5t-5 16.5q-2 4 -7 14.5t-11 20.5t-11.5 19t-7.5 14q0 4 -4 17t-4 17v31v33q0 4 9.5 21.5t11.5 25.5q4 2 20.5 19.5t22.5 19.5q8 8 20 16t17 8h22h33l4 -4q0 -2 4 -2q2 0 2 -2q0 -4 4 -12t4 -12q2 -4 7.5 -17.5t11.5 -29t11 -27.5t7 -12 q0 -4 16.5 -21.5t24.5 -25.5q6 -4 19.5 -12.5t29 -19.5t30.5 -20.5t21 -11.5q4 -4 16.5 -10t27 -13.5t27.5 -13.5t20 -10q10 -4 42.5 -16.5t43.5 -16.5q6 -4 36.5 -11t42.5 -11q6 -2 20.5 -5.5t28 -7.5t24.5 -7t13 -5q10 0 34 -5t50.5 -10t50 -9.5t31.5 -6.5q6 0 11 -4l4 -4 v-24v-23q0 -4 -5.5 -12t-9.5 -13q-4 -4 -13 -14t-19.5 -20.5t-19.5 -18.5t-13 -10q0 -2 -8.5 -6t-18.5 -9t-20.5 -10.5t-16.5 -5.5q-4 -2 -21.5 -9t-35.5 -15.5t-34.5 -14.5t-18.5 -8q-10 -4 -36 -16.5t-32 -16.5h21h24q4 0 16.5 1t27 3.5t26.5 3.5t16 1q10 2 35 4t51.5 4 t49 4t30.5 4h43h37q4 -2 18.5 -4t31 -4t31.5 -4t21 -4l13 -5q12 -4 18 -4q12 -8 25 -12q2 -4 14 -17.5t16 -17.5q2 -6 4 -10q0 -2 1.5 -3t1.5 -3t2 -4q4 -4 8 -21.5t8 -21.5v-19v-12q-4 -8 -8 -25.5t-8 -21.5q-2 -6 -14.5 -32.5t-16.5 -37.5q-4 -4 -12.5 -16t-12.5 -14 q-4 -6 -19.5 -21.5t-33.5 -33t-34.5 -34l-22.5 -22.5q-2 -4 -19.5 -17.5t-19.5 -17.5q-8 -2 -32 -14t-30 -17q-4 -4 -16 -10t-25.5 -12t-27 -13.5t-17.5 -9.5q-4 -4 -26.5 -12t-28.5 -12q-6 -2 -20.5 -6t-29.5 -9.5t-28.5 -10.5t-19.5 -5q-4 -12 -8.5 -45t-4.5 -45 q0 -10 -3 -52t-7 -91t-8 -91t-6 -55q0 -6 -2 -19.5t-3 -27.5t-3 -26.5t-2 -14.5q0 -4 -4.5 -16t-4.5 -15q0 6 -1 26t-1 40t-1 39.5t-1 26.5q0 12 1 33.5t1 43t1 38t1 20.5t1 28.5t3.5 52t3.5 53t1 32.5v28v27zM606 406q0 -8 -5 -23.5t-9 -24.5q0 -2 -5 -10t-5 -10 q-2 -6 -11 -2l-8 4v66h-12q-6 -4 -32.5 -7.5t-37.5 -5.5q-8 -2 -25.5 -5t-35 -7t-32.5 -7t-17 -5q-4 0 -11.5 -3.5t-7.5 -7.5v-110q6 -6 15 -12q16 -12 28 -19q6 -4 18.5 -12t12.5 -12q6 -2 24.5 -10.5t20.5 -10.5q4 0 9 -2t12 -4q8 -2 14 -4h57h66q12 2 22 4t19.5 4t13.5 2 q6 2 22.5 5t20.5 7q14 4 39 11.5t29 7.5q6 2 22.5 11t32.5 18.5t32.5 16.5t22.5 9q0 4 17.5 16.5t25.5 20.5q2 0 5 4t8 4q0 4 4 12.5t4 12.5v22v19q0 4 -11.5 18t-19.5 19q-4 0 -16.5 4t-16.5 4h-243q0 -10 -1.5 -35t-3.5 -52.5t-5 -53t-5 -33.5q0 -8 -5 -25.5t-5 -21.5 q0 4 -1 15t-3 23.5t-3 23.5t-1 17q-2 6 -4 24.5t-4.5 40t-3.5 41t-1 28.5h-10zM537 571q-8 0 -8.5 -11t8.5 -11q10 0 10 11t-10 11zM315 627l7.5 -7.5t7.5 -5.5h4h6q6 2 18.5 5.5t12.5 7.5q8 2 28.5 11t42 20.5t40 19.5t24.5 12q2 0 5 6t7 11l-203 63h-22v-33q2 -6 5 -22.5 t6 -33.5t6 -32.5t5 -21.5z" />
<glyph unicode="C" horiz-adv-x="909" d="M545 -78q-6 0 -33 9.5t-37 13.5q-8 4 -32.5 16t-32.5 16q-4 2 -18.5 11.5t-30 19.5t-31 20.5t-21.5 14.5q-4 2 -12 9t-17.5 14.5t-16.5 13.5t-9 8l-166 166l-12 16q-4 6 -9.5 13.5t-9.5 11.5q-4 6 -12 19.5t-12 17.5l-10 18q0 4 -4.5 18.5t-8.5 18.5q0 4 -4 25 q-2 8 -4 18v39v37q0 8 4 23.5t4 23.5q4 8 12.5 25.5t17.5 35t16 31.5t10 19q4 2 18 17t31.5 32.5t34 35t26.5 25.5q4 4 17.5 12.5t19.5 12.5q8 2 32.5 14t33.5 16q10 4 34.5 12.5t32.5 12.5q6 0 22.5 1t36 3t37 3t23.5 1q-2 8 -2 28.5t2 27.5q0 8 10 23t14 24q4 6 27 26.5 t29 28.5l41 20h14h10q2 -2 10.5 -5t10.5 -7l10 -8q2 -4 5 -9t5 -12q2 -8 4 -14q4 -6 11.5 -19.5t11.5 -17.5q6 -8 29.5 -30.5t50 -49t51.5 -51t35 -35.5q2 0 13 -9t24.5 -20.5t26 -21.5t16.5 -12q4 -4 15 -15.5t22.5 -23.5t21.5 -23.5t14 -15.5q2 -4 7.5 -12t5.5 -13 q-4 -6 -6 -12l-4.5 -9t-2.5 -9t-2 -7.5t-4 -7.5q-2 -6 -4 -10q-4 -4 -12 -11t-17.5 -16.5t-16.5 -17.5t-9 -10q-4 -2 -21.5 -10.5t-23.5 -10.5h-17h-18q-4 2 -14.5 10.5t-22.5 17.5t-23.5 17.5t-15.5 10.5q-12 10 -36.5 25.5t-28.5 19.5q-6 4 -33 16t-37 14q-8 4 -32.5 12.5 t-33.5 12.5h-18v-111h-18v121h-19q-2 -8 -10 -28.5t-10 -26.5l-11 -10q-4 4 -7 16t-7 14q0 8 -5 29t-5 27q-6 4 -31.5 8t-32.5 8h-65h-57q-6 -2 -15 -6l-20 -10q-6 -2 -23.5 -10.5t-21.5 -10.5l-11 -10q-2 -4 -7 -12t-5 -13v-57v-53q4 -8 10 -17q4 -6 7.5 -12t5.5 -10 q4 -8 12 -21.5t12 -15.5q2 -4 10.5 -13t17.5 -19.5t17 -19.5t11 -13q2 -6 13 -16.5t23.5 -23l23.5 -23.5t15 -17q4 -4 14.5 -12.5t22.5 -19.5t24.5 -20.5t18.5 -11.5q4 -4 20.5 -17.5t20.5 -19.5q6 -4 16.5 -10t21.5 -12t20.5 -11.5t11.5 -7.5q4 -4 30.5 -16t34.5 -16 q4 -2 9.5 -4.5t9.5 -4.5l12 -4h43h37q2 0 5 4t7 9l8 18q4 6 7.5 22.5t3.5 22.5q2 4 5 15.5t5 24.5t3 24.5t1 15.5q0 8 5 22.5t5 18.5q2 4 5 14t7 10q2 4 11.5 14.5t20.5 21t19.5 19.5t12.5 13q4 2 10 4q12 4 15 4q4 2 9 4t9 7q6 4 12 6q4 -4 14.5 -12.5t10.5 -12.5v-41v-37 q0 -4 -4 -29.5t-4 -39.5q-4 -4 -8.5 -20.5t-8.5 -20.5q0 -6 -9 -26.5t-11 -29.5q0 -6 -10.5 -24.5t-14.5 -20.5q0 -4 -7 -17t-11 -18q-8 -6 -20.5 -23t-16.5 -22l-19 -18q-4 -4 -21 -17.5t-26 -19.5q-4 -2 -9 -4t-9 -6l-12 -8q-2 -2 -10.5 -5t-17.5 -7.5t-17.5 -7.5 t-10.5 -3q-4 -4 -14 -7t-10 -7l-8 -19q-4 -4 -7.5 -8t-5.5 -4q0 2 -3 14.5t-7 16.5q0 6 -4 6h-2q-2 0 -8 -6q0 -14 -2 -51t-3 -80t-3.5 -80t-2.5 -51q0 -6 -4 -36t-4 -44q-4 -10 -8 -30.5t-4 -24.5q0 -2 -5 -10.5t-5 -10.5v432v0z" />
<glyph unicode="D" horiz-adv-x="980" d="M479 -238q2 4 4 22.5t3 40t3.5 42t4.5 29.5q0 2 2 17t3 32.5t3 32t2 18.5v29v26q-6 0 -21.5 -3t-33 -7t-34 -7t-22.5 -3q-12 -4 -36.5 -7.5t-28.5 -3.5q-10 -2 -33 -4t-49.5 -3t-50 -3t-33.5 -4h-43h-37q-2 4 -10.5 12.5t-10.5 12.5v2v10q2 4 5.5 16.5t3.5 16.5 q4 4 17 20.5t19 20.5q2 2 8.5 9t13.5 14t13 14l6 8q0 6 3 14q4 16 4 21q0 6 -3.5 23.5t-3.5 21.5t-3 24.5t-7 30.5q0 4 -4 16.5t-8 14.5q0 8 -9.5 30.5t-9.5 24.5q-6 12 -9 36.5t-7 29.5q0 2 -4 28.5t-10 64.5t-13.5 83t-14.5 84t-13 65.5t-8 30.5q-4 4 -9.5 20.5t-9.5 35 t-8 34.5t-4 18q-6 2 -26.5 25t-28.5 31q-2 0 -9.5 4t-15.5 9t-14 10t-6 7v25v31q2 4 4 10q4 12 4 14q4 2 13 11.5t19.5 20.5t20.5 19.5t14 12.5t12.5 7t12.5 3h10q4 0 9 1t10 1q2 0 12 -1t14 -1q2 0 11.5 -3t20.5 -6t21.5 -6t12.5 -3q2 -2 13 -5.5t23.5 -5.5t23.5 -4t16 -2 q12 0 58 -3t97 -6t97.5 -7t58.5 -4q2 0 13 -2t25.5 -3t28 -3.5t19.5 -2.5t32.5 -4t36.5 -4q8 -4 29 -8t27 -8q8 0 22.5 -4t18.5 -4t18 -5.5t19 -7.5q6 0 26.5 -9t28.5 -9q0 -4 10 -8t14 -8q2 -2 14.5 -10.5t16.5 -10.5q6 -4 16.5 -13t20.5 -19.5t18.5 -19.5t8.5 -13 q2 -4 11 -39t20.5 -76t19.5 -77t8 -38q-4 -55 -8 -100q-4 -39 -6 -73t-2 -38q0 -6 -3 -14t-8 -16l-8 -21q0 -4 -4 -17.5t-4 -19.5q-4 -4 -14.5 -20.5t-10.5 -20.5q-4 -6 -16 -24.5t-14 -20.5q-6 -4 -18.5 -15t-25 -23.5t-23.5 -24t-13 -17.5q-4 0 -19.5 -12t-27.5 -18 q-2 -4 -14.5 -12.5t-16.5 -12.5q-10 -4 -30.5 -16.5t-24.5 -14.5t-13.5 -7t-21.5 -10t-22.5 -10t-12.5 -8l-10 -8q0 -8 -4 -34.5t-4 -32.5q-4 -4 -7.5 -17.5t-5.5 -17.5l-10 10q-2 2 -5 12.5t-5 22.5t-3 21.5t-1 13.5h-10h-9q-8 0 -15 -5t-7 -10v-41q-2 -10 -7 -50t-9.5 -88 t-9.5 -94t-7 -69q-2 -8 -4 -20t-4 -25q-2 -14 -4 -30h-10q-2 12 -5 24q-2 10 -5 20.5t-5 18.5v29v26zM248 922q2 -2 5 -36t8 -84t11.5 -108.5t10.5 -108.5t7 -85t5 -37q0 -4 4 -16.5t4 -16.5q4 -10 7 -26.5t3 -20.5q2 -10 5.5 -38t5.5 -59.5t3 -60t1 -39.5h12h18q6 0 20.5 2 t30 3.5t31 3.5t21.5 2q4 0 24.5 4t30.5 8q6 0 22.5 4t20.5 4q8 2 23.5 7t32 10.5t28.5 10.5t16 7q4 0 15.5 6t25 14.5t26.5 14.5t19 10q8 4 21.5 11t13.5 11q10 6 25.5 24.5t19.5 18.5v19v12q-2 2 -2 16.5t2 30t2 27.5t-2 12q0 2 -4 25.5t-10 59.5t-12 76t-12.5 76 t-11.5 59.5t-5 25.5q-2 0 -10 6t-16.5 14t-16.5 14.5t-10 6.5q0 2 -2 -32t-4 -85t-5.5 -111.5t-5.5 -111.5t-4 -86l-2 -35q-2 2 -5 39t-6 92t-6 118.5t-6 119t-6 91.5t-6 36q-4 2 -16 5t-16 7q-10 0 -26.5 4t-20.5 4h-19h-12q-4 0 -7 -7t-7 -13q0 -2 -1.5 -34t-2.5 -79 t-2 -101.5t-2 -101.5t-2 -78.5t-1 -33.5l-8 -19l-18 8v451l-11 10q-4 4 -9 7t-9 7q-2 0 -14.5 4.5t-16.5 4.5q-6 0 -21.5 2t-32.5 3t-33.5 3t-22.5 2t-17.5 1t-25 1h-24.5h-15z" />
<glyph unicode="E" horiz-adv-x="972" d="M285 74q-4 -4 -9 -6q-4 -2 -7 -4.5t-7 -2.5q-6 -4 -14 -10q-16 -12 -19 -14q-12 -4 -24 -10l-17 -9q-4 0 -9 -2t-9 -2t-9 2t-9 2l-5 5l-4 4v16v18l1 9q1 8 3.5 17t3.5 18.5t1 11.5q4 14 8 38.5t4 28.5v156v164q0 2 -4 5t-8 7h-7h-2q-2 -2 -11 -4t-18.5 -3t-17.5 -3l-8 -2 h-29h-26q-4 2 -6 4q-4 4 -4 8l-5 4q-2 2 -2 10q0 6 2 11l5 8q0 4 2 10q6 10 8 12q2 4 10 16.5t10 16.5q0 4 10.5 11.5t14.5 11.5q4 0 20.5 14t20.5 18q6 0 10 5q2 2 4 6v12v8q-2 4 -5 35t-7 67.5t-7 68.5t-5 38l-21 41q-4 6 -12 19.5t-13 13.5q-4 8 -20 25.5t-20 21.5 q-4 0 -18.5 9t-18.5 11l-9 11v24v21q0 4 9.5 21.5t11.5 21.5q4 8 21.5 25.5l21.5 21.5q8 2 25.5 10t21.5 10h18h13q2 0 14 -5t25.5 -11t25 -10t15.5 -4q10 -6 30.5 -15.5t24.5 -9.5q10 -4 29.5 -10t41 -13.5t39 -13.5t21.5 -8q4 0 20.5 -4t38 -10.5t43 -11.5t33.5 -5 q4 0 24.5 -5t30.5 -5q4 -2 14.5 -5t21 -5t19.5 -3t11 -1q14 0 47 -3.5t70 -7.5t69.5 -7t46.5 -5l5 -4l4 -4v-25v-22l-9 -19q-4 -6 -12 -16t-16 -20.5t-16.5 -20.5t-10.5 -12l-22 -436l-19 -11v424l-8 -4q-2 -2 -4 -2t-2 -2q-2 -2 -4 -29.5t-3 -59.5t-3 -57l-2 -26 q0 -4 -9 -8l-8 -4v192q-8 2 -29.5 4t-45 3t-45 3t-29.5 2q-6 0 -19.5 2.5t-28 3.5t-26.5 3t-16 2q-6 2 -31 7t-52.5 11t-52 10.5t-30.5 4.5h-8q0 -4 -2.5 -16.5t2.5 -16.5q0 -2 1 -30t2 -60.5t3 -60.5l2 -27q12 -2 42.5 -4.5t64.5 -4.5t63.5 -4t42.5 -4q4 0 21.5 -4t21.5 -4 q2 -4 11 -11t9 -12v-14v-18q0 -4 -4 -11.5t-4 -11.5q-4 -8 -12 -20q-6 -8 -11 -13q-4 -8 -16 -20l-16 -16q-8 -4 -25.5 -11.5t-21.5 -7.5q-2 -2 -7 -2q-4 -2 -12 -2q-6 0 -14 2t-12 2t-27 4t-29 4h-55v-284q6 0 34.5 4t35.5 4q8 0 31.5 2t50 3t50 3t33.5 2q-4 6 -14 26.5 t-10 28.5q0 4 -4 25.5t-4 30.5v8v6q0 4 4 16.5t4 14.5t4 14q2 6 6 10q2 4 12.5 13.5t20.5 19.5t20.5 19.5t16.5 13.5q4 2 11 5t11 7h25h18q2 -6 4 -10q2 -6 9 -12q0 -4 4 -23.5t4 -21.5q4 -8 17.5 -33t17.5 -33q2 -6 14 -22.5t16 -22.5q2 -4 12.5 -13.5t20.5 -19.5 t20.5 -19.5t16.5 -13.5q4 -4 26.5 -21.5t28.5 -23.5q4 -4 16.5 -12t14.5 -12q6 -2 25.5 -11.5t42 -19.5t42 -20.5t25.5 -14.5q4 -2 13.5 -10t9.5 -10v-19v-24q0 -4 -5.5 -13.5t-7.5 -9.5q-4 -6 -13 -16t-19.5 -20.5t-19.5 -20.5t-13 -12q-4 0 -12.5 -5.5t-12.5 -5.5h-26h-29 q-4 0 -14.5 3t-23.5 7.5t-24.5 8.5t-13.5 6q-16 4 -43.5 11t-56.5 13.5t-50.5 11.5t-25.5 5t-10 2q-12 4 -14 4t-10.5 -3t-10.5 -3q0 -4 -2 -18.5t-3 -30t-3 -29.5t-2 -18q0 -6 -5 -29t-10 -27q0 -4 -5 -12t-5 -12q0 4 -1 15t-3 23.5t-3 23.5t-1 18q-2 4 -4 19t-4 33.5 t-3 35t-1 22.5l-11 10q-4 0 -9 -3t-9 -3v-325l-14 -56q-4 2 -8.5 14.5t-4.5 16.5q0 6 -2 19.5t-3 29t-3 30.5t-2 21q-2 14 -4 52.5t-3 81.5t-3 80.5t-4 54.5h-221z" />
<glyph unicode="F" horiz-adv-x="796" d="M301 201l-1 8t-3 18.5t-4 20.5t-4 16q0 8 -3 29.5t-5 30.5q-2 6 -5.5 21t-7.5 30.5t-7 29t-5 17.5q0 14 -9 46t-14 40q0 6 -4 19.5t-4 17.5l-10 8q-4 0 -9 -1t-9 -1v-164l-19 -20q0 2 -4 14t-4 16q0 10 -2 34t-3 50.5t-3 50t-2 31.5h-15q0 -6 -2 -24.5t-3 -40t-3 -40 t-2 -24.5q0 -10 -4 -35.5t-8 -31.5q-2 -4 -4 -7l-4 -4q0 10 -5.5 43t-5.5 43q-2 6 -5 24.5t-5 40t-3 41t-1 30.5q-4 0 -16.5 5t-14.5 5q-4 0 -23.5 4t-23.5 8l-8 8v25v22l8 19q4 6 13.5 16t19.5 20.5t20.5 19.5t14.5 13l10 5q4 2 7 4t7 2q8 2 33 5t33 7v8l-66 268 q-2 4 -4 11q-2 6 -2 14v9t2 9l4 13q0 4 2 8t3.5 8t5.5 8q2 2 10 14.5t10 16.5l25 25q6 2 12 6q4 4 9 6t9 6q4 2 12.5 7t12.5 5h18h13q6 -6 14 -10q12 -10 21 -12q2 -2 12 -10.5t20.5 -17.5t20.5 -17t14 -11q4 -4 16.5 -12t16.5 -12q14 -6 44 -21.5t60.5 -32t57 -28.5 t35.5 -12q16 -10 57 -27.5t87 -38t86 -38t56 -23.5q6 0 10 -4l5 -4v-23v-25q-2 -6 -5 -10q-6 -10 -10 -10q-4 -8 -20.5 -32.5t-20.5 -33.5q0 -12 -1 -43.5t-3 -67.5t-5 -66.5t-5 -43.5q0 -4 -1 -15t-2 -25.5t-3 -28t-4 -19.5q0 -10 -4 -30.5t-4 -24.5q-4 -4 -7.5 -13.5 t-5.5 -9.5v363h-10q-4 0 -7 -4t-7 -4q0 -10 -5.5 -36t-5.5 -32h-8q0 6 -5 31.5t-7 36.5q-6 4 -10 8t-7.5 7t-7.5 3q0 4 -16 12.5t-25 12.5q-16 8 -60 26.5t-94 40t-94 40t-61 24.5v-2v-6q2 -10 7 -31t9.5 -42.5t9.5 -38.5t7 -22q0 -4 5 -12t5 -12q2 0 10.5 -4t10.5 -4 q6 -2 24.5 -7.5t38 -11.5t36.5 -11t21 -7q6 -2 21.5 -6t31 -9.5t30 -10.5t18.5 -5t12 -5t12 -5q4 -4 11.5 -14.5t11.5 -10.5v-12v-18l-23 -46q-4 -4 -21.5 -21t-23.5 -22q-4 -8 -21.5 -15t-21.5 -7h-22h-25q-2 0 -21.5 9t-23.5 13q-4 0 -14 -2t-14 -2q0 -4 -1.5 -6t-1.5 -6 v-6q0 -6 4.5 -23.5t7.5 -39t6 -39t3 -23.5v-111v-213q0 -4 -4 -16t-4 -14q-2 -4 -4 -7.5t-4 -7.5q-2 -6 -5 -10q-4 -4 -13 -14t-19.5 -20.5l-19.5 -19.5t-13 -11t-21.5 -10.5t-23.5 -10.5h-6h-4q-4 0 -14.5 9.5t-10.5 11.5v303z" />
<glyph unicode="G" horiz-adv-x="968" d="M324 23q-6 2 -21.5 9t-31 16t-30 17.5t-18.5 12.5q-8 4 -21.5 11t-13.5 11q-6 6 -21 20.5t-31.5 31t-31 30t-16.5 17.5q0 2 -16.5 27.5t-24.5 39.5q-4 0 -7 7.5t-7 11.5q-4 10 -11.5 30.5t-11.5 24.5q0 6 -4 24.5t-4 20.5v90v92q2 10 4 21q2 10 3 19t1 16q4 2 7 14t6 16 q4 8 14 28.5t20.5 42t19.5 40t11 24.5q4 2 16.5 19.5t16.5 19.5q10 10 30.5 31t42 42.5t39 38.5t21.5 24q2 2 11 8t20.5 13t21.5 14.5t17 11.5q8 2 32.5 14t32.5 16q6 4 31.5 12.5t36.5 12.5q6 0 31.5 4t31.5 4h35h31q6 0 32.5 -4t36.5 -4q4 -4 16.5 -8t14.5 -8 q8 0 25.5 -9.5t21.5 -11.5q6 -4 22.5 -17.5t20.5 -17.5q2 0 14.5 -16t16.5 -23q2 -4 5 -7t5 -7q2 -6 4 -10v-23v-24q0 -2 -5 -14.5t-9 -16.5q-4 -6 -14.5 -17.5t-21.5 -23.5t-21.5 -23.5t-16.5 -15.5q-4 0 -17.5 -4t-19.5 -4h-10h-8q-8 4 -20.5 16.5l-16.5 16.5q0 4 -5 16 t-5 14q-2 4 -14.5 17.5t-16.5 17.5q-4 2 -21.5 10.5t-23.5 10.5q-4 4 -17.5 10t-17.5 6h-45h-41q0 -10 -1 -32.5t-3 -47t-5 -47t-5 -31.5q0 -6 -5 -26.5t-5 -28.5l-19 23v190l-26 -80l-11 8q-2 8 -5 23.5t-3 23.5h-10h-2q-4 -4 -10 -6q-4 -2 -8.5 -4t-6.5 -2q-4 -4 -16 -11 t-14 -7l-17.5 -17.5t-17.5 -19.5q-6 -4 -18.5 -21.5t-12.5 -21.5q-4 -4 -12 -21.5t-13 -25.5q-2 -2 -5 -14.5t-7 -16.5q0 -10 -4 -30.5t-4 -24.5v-56v-55q0 -4 4 -19.5t4 -25.5q4 -4 8 -17.5t4 -17.5q4 -2 12.5 -20.5t12.5 -24.5l8 -12q4 -4 7 -9t3 -9q8 -8 20.5 -25.5 t16.5 -17.5q4 -8 20.5 -25.5t20.5 -22.5q6 -2 24.5 -14t20.5 -16q4 -2 16.5 -8.5t26 -13.5t27.5 -14t20 -9q2 0 14.5 -5.5t16.5 -5.5q6 -2 19.5 -5t25.5 -5t22.5 -3t12.5 -1q6 0 23.5 5t21.5 9t20.5 18.5t20.5 22.5q10 14 23.5 40t13.5 30v152q-16 2 -53 4t-80 3t-81 3 t-54 4q-12 0 -36 2t-48.5 3t-45 3t-26.5 2q-4 2 -16.5 5t-14.5 7q-4 4 -6 9q-4 8 -4 10v8v6q0 6 4 19q2 6 6 12q2 6 13.5 18.5t23.5 24.5t23.5 22.5t15.5 14.5q4 0 17.5 5t17.5 5h26h41q33 0 83.5 -1t106.5 -2t112.5 -2t103.5 -2t79 -2t38 -1q4 0 17 -1t28.5 -3t30 -3 t18.5 -1l16 -17v-20v-19q0 -4 -6 -12t-10 -12q-2 -4 -10.5 -18.5t-10.5 -18.5q-4 0 -6 -2q-4 -4 -4 -8q-6 -6 -24.5 -18.5t-20.5 -12.5q-8 -4 -32.5 -12.5t-32.5 -12.5q-4 -2 -7.5 -14t-7.5 -16v-19v-14q2 -4 5 -20.5t7.5 -38t7.5 -42t5 -32.5q2 -6 5 -28.5t7 -27.5 q0 -6 3 -18t7 -25.5t8.5 -26t6.5 -18.5q0 -4 3 -16t6 -25.5t6 -23.5t3 -12q0 -4 1 -21.5t1 -24.5q0 -12 -1 -27.5t-1 -19.5q-4 -8 -8 -14t-7 -10t-3 -8q-8 -8 -25.5 -22.5t-21.5 -18.5q-6 -4 -22.5 -14.5t-23.5 -10.5h-16h-18l-9 10q-4 4 -11 32t-11 38l-4 16q-2 6 -5 13.5 t-5 11.5q0 6 -4.5 26.5t-10.5 45t-11 47t-5 28.5q0 4 -5 16.5t-5 16.5q-6 -6 -26.5 -22.5t-29.5 -22.5q-10 -8 -26.5 -21.5t-18.5 -13.5q-8 -2 -32.5 -14t-32.5 -16q-6 -4 -33 -14.5t-37 -10.5q4 -6 4 -31.5t-4 -36.5q0 -4 -5 -25.5t-5 -29.5q-2 4 -5 7t-3 5q-4 0 -7.5 18.5 t-5.5 24.5q0 8 -5 30t-5 30l-4 4q-4 4 -10 4h-4h-6q0 -10 -1 -37t-3.5 -56.5t-3.5 -56t-1 -36.5q-2 -6 -4 -20.5t-3 -30t-3 -31t-2 -21.5t-5 -26.5t-5 -28.5q-4 0 -7 -4t-7 -4q0 6 -5.5 26.5t-5.5 28.5v111q0 2 -4 21.5t-4 23.5q-2 6 -4 26.5t-4 43t-3 43t-1 28.5z" />
<glyph unicode="H" horiz-adv-x="716" d="M127 -66q-4 4 -11 21.5t-7 26.5q-4 4 -9.5 19t-5.5 24q0 4 -3 21t-7 38.5t-7 41t-5 30.5q0 12 -4.5 42.5t-4.5 37.5q-4 25 -10 81t-13 116.5t-13.5 111.5t-10.5 69q0 10 -1 29t-3 38t-3 33.5t-1 18.5v129v123q0 4 4 30.5t4 41.5q4 10 9 22l4 17q4 8 17 33.5t17 37.5 q2 2 10.5 14.5t10.5 16.5l25 25q4 2 16 10t14 10q4 2 10.5 5t14.5 7t18 7q4 0 9.5 3t9.5 3t9 -3t9 -3t11.5 -7.5t7.5 -11.5q0 -2 2 -4q0 -2 1 -4t1 -4l-4 -8q0 -8 -3.5 -21.5t-5.5 -13.5l-4 -7t-10 -14.5t-12 -14.5t-8 -9t-3.5 -5t-3.5 -8q-2 -6 -6 -10v-332h13q2 0 11 2.5 t18 3.5t18 3l8 2q14 2 50 9t78 14t78 13.5t50 8.5l18 10v344q0 4 10.5 19.5t16.5 25.5l55 55q4 0 18.5 8.5t22.5 10.5h8h7q6 0 18 -4q6 -2 10 -4v-398l12 -67v-340q2 -20 4.5 -68.5t3.5 -101.5t3 -101.5t4 -66.5q0 -2 2 -14.5t3 -27.5t3 -28.5t2 -15.5v-29v-26 q0 -4 -5 -17.5t-5 -17.5q-2 -4 -4 -22.5t-3 -39t-3 -38t-5 -19.5q0 -8 -3 -20.5t-7 -16.5q-2 -2 -6 -2q-4 -2 -12 -2v115q0 -6 -1 -23.5t-3 -37t-4 -37t-4 -23.5q0 -6 -5.5 -18.5t-9.5 -12.5q0 -2 -2 -4v-2h-2h-4q-2 0 -2 6q0 4 -4 26.5t-4 28.5q-4 8 -8.5 33t-4.5 33h-24 q-4 0 -11.5 4t-7.5 8q-4 0 -7 13.5t-5 19.5q-4 8 -7 29.5t-3 25.5q-2 8 -4 33t-3 53.5t-3 54t-4 35.5q0 14 -2.5 69.5t-3.5 119t-3 119t-2 69.5q0 6 -1 22.5t-3 33t-3 33t-1 22.5h-29h-26q-10 0 -36 -4t-32 -4q0 -4 -5 -8.5t-5 -8.5q-2 -12 -4 -42.5t-3 -66.5t-3 -68t-4 -44 q0 -4 -2 -22.5t-3 -42t-3.5 -45t-2.5 -31.5q0 -6 -1 -22.5t-3 -35t-3 -34t-1 -19.5q-2 -6 -4 -17t-3 -23.5t-3 -24t-2 -15.5q0 8 -5 33t-5 33v27v28q0 10 2 46t3 78t3 77t2 45v186h-16q0 -4 1 -14t2 -22.5t2 -23.5t1 -15q-4 -8 -7.5 -29t-7.5 -27h-4h-6q-2 2 -7 10.5 t-5 10.5q0 6 1 20.5t1 29.5t1 28.5t1 19.5q-4 0 -23.5 2t-23.5 2q-6 0 -22.5 -5t-22.5 -7v-35v-31q2 -6 5 -29.5t7 -54t7 -60.5t5 -46q0 -8 3.5 -29.5t7.5 -46.5t7 -48.5t3 -31.5q0 -4 3 -21.5t7 -37t8 -38t6 -24.5v-20v-25q-2 -2 -4 -6t-5 -7l-5 -5q-4 -8 -11 -20.5 t-11 -16.5q-2 -4 -11.5 -13.5l-19.5 -19.5t-20.5 -19t-12.5 -14v-497l-10 -21q-4 6 -9 26.5t-5 29.5q0 6 -2.5 22.5t-3.5 33.5t-3 32.5t-2 21.5q0 20 -2 70.5t-3 106t-3 105.5t-4 70z" />
<glyph unicode="I" horiz-adv-x="239" d="M74 -4q-4 0 -17.5 -4t-17.5 -4q-2 2 -11.5 10t-9.5 10v129v127q0 14 1 72.5t3.5 138.5t5.5 172t5 172t4 139.5t2 73.5q4 6 17.5 32t17.5 32q0 4 13 17l17 17q4 2 16.5 10.5t16.5 10.5q6 6 13 10q4 4 10 6h18h15q4 0 8 -6t4 -10q0 -2 5 -14.5t5 -16.5v-24v-21 q0 -4 -2 -17.5t-3 -27.5t-3 -27.5t-2 -17.5q0 -18 -2 -84.5t-5 -158t-7.5 -195t-7.5 -194.5t-6 -157.5t-3 -84.5q-4 -8 -7 -20.5t-7 -16.5q-6 -6 -10 -15q-12 -16 -13 -16q0 -4 -4 -12t-4 -13q0 -8 -2 -29.5t-3 -46t-3 -46t-2 -29.5q-2 -10 -5 -28.5t-5.5 -38t-3.5 -36 t-1 -22.5q0 -4 -5 -30.5t-5 -35.5q0 -2 -4 -20t-8 -25q0 -4 -4 -16t-4 -14v395v0z" />
<glyph unicode="J" horiz-adv-x="657" d="M-117 145q0 8 4 33t4 33q4 6 11.5 32.5t11.5 35.5q2 6 7 16t9 20.5t9.5 18.5t7.5 8q4 4 17 17.5t20 17.5q0 2 12 10t18 10q4 4 12.5 10.5t12.5 6.5h12h19q10 -10 10 -17q0 -4 2 -8q4 -8 4 -12t-4 -12q-2 -4 -2 -7q0 -4 -3 -16t-7 -25.5t-7.5 -24.5t-5.5 -13v-86v-103 q0 -4 5.5 -24.5t7.5 -30.5q0 -6 5 -24.5t5 -20.5q4 -4 12 -26.5t12 -29.5l46 -90q0 -2 7 -14t11 -16q8 -6 20.5 -24.5t16.5 -20.5q4 -4 16 -17.5t15 -17.5q4 -2 21 -14.5t26 -16.5q0 -4 7 -7t11 -7q6 0 19.5 -5.5t17.5 -5.5h33h30l15 15l11 11l9 9q2 6 4 11q2 4 9 10 q0 4 4 17t4 18q4 10 7 25.5t3 19.5q0 20 2 41q2 16 3 33.5t1 27.5t-1 26.5t-2 34t-2 29.5t-1 14q0 6 -3 36t-7 44q0 6 -3 22.5t-7.5 34t-7.5 33t-3 21.5q0 2 -3 14.5t-7 27.5t-8 29.5t-6 20.5q-2 8 -6.5 25.5t-9.5 36t-10 35t-5 22.5q-4 14 -17.5 60t-30 106.5t-35.5 130 t-35.5 130t-30 106.5t-17.5 61q0 4 -3 14t-3 12v7.5t2 9.5l4 12q0 4 7 21.5t14 23.5l55 55q4 4 20.5 11.5t22.5 7.5q4 0 6 2q4 4 6 4l10 -6q4 0 12.5 -7t12.5 -12q0 -6 4 -28.5t4 -26.5q2 -12 16.5 -64.5t35 -124t43 -153.5t43 -153.5t33.5 -124t18 -64.5q2 -2 5 -14 t7 -26.5t7 -29t5 -20.5q0 -8 4 -23.5t7 -32t6.5 -29.5t3.5 -15t2 -11.5t3 -21.5t3 -23.5t2 -17.5q2 -10 5 -26.5t5 -33t3 -28.5t1 -14v-56v-55q0 -6 -5 -33.5t-9 -42.5q0 -4 -3 -21.5t-7 -21.5q0 -4 -4.5 -17.5t-4.5 -19.5q-4 -8 -11 -28.5t-11 -26.5q-4 -4 -7 -11t-7 -7 q-8 -14 -22.5 -40t-18.5 -28q-4 -4 -14.5 -15.5t-23 -23.5t-24.5 -23.5t-18 -17.5q-2 -4 -20.5 -16.5t-24.5 -14.5q-2 -2 -11.5 -7t-20.5 -10t-21.5 -10t-12.5 -7q-2 0 -5 -4.5t-3 -8.5q-2 -2 -4 -13t-3 -24.5t-3 -23.5t-2 -12q0 -4 -5.5 -12.5t-5.5 -12.5q-4 4 -7 12t-7 13 q0 8 -5 32.5t-5 32.5h-19v-110h-12q-4 6 -7 31.5t-7 31.5q0 6 -2 15.5t-4 19.5l-4 20q0 2 -9.5 5t-21.5 7.5t-22.5 7.5t-14.5 3q-6 2 -10 4q-8 4 -8 10q-6 4 -19.5 11.5t-17.5 7.5q-6 6 -19.5 19t-28 27.5t-26.5 27t-14 18.5q-4 4 -20.5 28.5t-20.5 36.5q-4 4 -10.5 17.5 t-14.5 27t-14 25.5t-6 16q-2 2 -7.5 15.5t-10.5 30t-10 31.5t-7 24q-2 8 -5 23.5t-8 23.5q0 6 -1 17t-3 23.5t-3 21.5t-1 11v64v61z" />
<glyph unicode="K" horiz-adv-x="880" d="M494 262v-55h-13l-4 16t-5 15.5t-5 13.5q0 4 -2 18.5t-3 29.5t-3 29.5t-2 18.5t-4 16.5t-4 20.5l-13 18q-4 4 -12 14.5t-12 10.5v-10v-15q2 -8 5 -41.5t5 -72.5t3 -74t1 -43v-184v-123l-14 -55l-11 10l-2 10t-3 24.5l-2 29t-1 22.5q-2 10 -4 46t-4 84t-5 102.5t-5 102.5 t-3 83.5t-1 48.5q-2 4 -4 17t-3.5 26.5t-3.5 26t-4 16.5q-4 0 -16 3t-14 3q-4 0 -21 -4q-8 -2 -14 -2q-2 0 -27.5 -7.5t-40.5 -11.5q-4 -4 -21.5 -11t-21.5 -11q0 -6 2 -17.5t3 -23.5t3 -23.5t2 -15.5q4 -10 7.5 -34.5t7.5 -29.5q0 -6 3 -22t6 -33.5t6 -33t3 -21.5 q4 -4 8.5 -23.5t4.5 -23.5v-8v-13q0 -4 -4.5 -17t-8.5 -18q0 -2 -7 -14t-11 -16l-25 -25q-2 -2 -14 -10t-16 -10q-4 -4 -8.5 -5t-8.5 -4q-6 -2 -8 -2q-6 -2 -10 -4q-2 -2 -6 -2h-5q-8 0 -14 2t-10 4q-4 0 -6 2q-4 4 -4 9q0 2 -4.5 18t-8.5 27q-2 12 -7 36.5t-9 51t-9 49 t-7 29.5q0 2 -2.5 11t-3.5 21.5t-3 24.5t-2 20q0 6 -2 20.5l-4 29t-4 25.5t-2 13q0 12 -1 37t-3 52.5t-3 49t-1 27.5v250v248q0 4 4 16.5t4 14.5q4 4 8 14q2 6 4 10l12.5 12.5t16.5 17.5t15.5 16.5t11.5 9.5q4 4 21.5 11t21.5 11h18h19q2 -4 4 -6l6 -6q2 -4 5 -21.5t3 -21.5 v-545q6 4 22.5 12.5t34 16.5t32.5 15t22 11q4 4 17 12.5t19 12.5q8 6 22.5 17.5t28 22.5t24.5 19l11 7q8 8 30 28.5t45.5 44l44 44t26.5 30.5q2 0 5 9t7 9q0 2 4 17.5t4 19.5q2 2 2 4q0 4 2 7q2 4 7 8q6 10 19 25.5t17 19.5t24.5 21.5t31.5 25.5l8 4q8 4 10 4q6 4 19.5 7 t17.5 3l8 2q2 0 4 -1t4 -1h2q14 0 15 -10v-27v-28q0 -2 -4 -10.5t-9.5 -18.5t-11.5 -20.5t-8 -14.5q-4 -8 -21.5 -33.5t-25.5 -37.5q-2 -6 -20.5 -27t-24.5 -29t-24.5 -28.5t-40 -43t-40 -43t-24.5 -26.5q4 -4 16 -12.5t17 -12.5q4 -4 12 -11t17 -16t16.5 -17.5t9.5 -10.5 q4 -2 18.5 -31.5t22.5 -44.5q2 -6 16.5 -32.5t29.5 -55t28.5 -55.5t17.5 -33q0 -4 7 -17.5t17.5 -30.5t21.5 -34.5t17 -27.5q4 -4 12.5 -16.5t12.5 -16.5q4 -8 16.5 -23.5t14.5 -23.5q8 -10 25.5 -33t21.5 -23q6 -8 26.5 -28.5l43 -43l43 -43t30.5 -26.5q0 -4 5 -12t5 -12 v-2v-11q-4 -6 -11 -22.5t-7 -20.5q-4 -4 -13 -14t-20.5 -20.5t-21.5 -19.5t-17 -13l-12 -4q-12 -4 -18 -5h-9h-16q-6 2 -10 5q-2 0 -3 1t-3 1t-4 2q-4 8 -21.5 20t-21.5 17q-8 2 -29 23.5t-27 31.5l-14 14t-20.5 22.5t-20.5 22.5t-12 15q-2 4 -11.5 16t-19.5 26.5t-20.5 29 t-14.5 20.5q-4 4 -12 16t-12 14q-6 10 -22.5 38t-33 58.5t-33 57.5t-22.5 37z" />
<glyph unicode="L" horiz-adv-x="829" d="M283 -25q-4 0 -10.5 -3t-8.5 -3q-6 0 -34.5 -4t-60.5 -10t-60.5 -11t-34.5 -5h-31h-35q-2 0 -10 9t-10 11v6v4q0 6 4 22.5t4 22.5v222q4 16 6 30q2 12 3 25.5t3 23.5q0 4 2 14.5t3 20.5t3 19.5t2 11.5q2 10 10.5 50t17.5 87t17.5 88t10.5 51q0 6 5 32t9 36q0 6 2 19.5 t3 25.5t3 22.5t2 12.5v205q2 8 10.5 25.5t10.5 21.5q8 6 28.5 26.5t26.5 28.5q4 4 21.5 12.5t21.5 12.5h12h11q4 -4 14 -12.5t10 -12.5v-129v-123q0 -4 -3 -20.5t-6 -38t-8 -43t-7 -33.5q-2 -10 -10.5 -51t-17.5 -88t-17.5 -87t-10.5 -50q0 -14 -5 -40t-5 -28q0 -14 1 -52 t2 -80t2 -80t1 -52h19q4 0 23.5 3t43 6t43 6t23.5 3q6 2 17 5t23.5 5t21.5 3.5t12 1.5q10 0 33.5 2t50 3t50 3t31.5 2l93 86q0 4 13 7t19 7h4h7q2 0 10 -5t10 -9q2 0 8 -6q2 -2 2 -4l6.5 -6.5t8.5 -10.5q6 -8 10 -14q4 -10 13 -23.5t20 -25.5q10 -14 22 -31l101 -100v-23 v-18q0 -4 -4.5 -12.5t-4.5 -12.5q-4 -4 -7 -9t-7 -9q-6 -6 -10 -13q-4 -4 -11.5 -12t-11.5 -12q-4 -2 -16 -10.5t-17 -10.5q-6 -4 -14 -8q-4 -2 -8 -2q-4 -2 -10 -4t-15 -2q-2 0 -10 3t-10 3q-6 4 -18.5 14.5t-27 22.5t-26.5 22.5t-18 14.5q0 4 -9.5 7t-11.5 5q-4 0 -17 5 t-18 5q-10 4 -30.5 9.5t-24.5 5.5h-57h-62q-4 -4 -8 -12.5t-4 -12.5q0 -2 -2 -6t-4 -10q-2 -8 -4 -15q-8 -8 -12 -8q-4 -2 -7 0v57q-4 0 -10 3q-12 4 -16 4q-4 -4 -14.5 -7.5t-10.5 -7.5l-18 -231l-13 -21q0 12 -2 42t-3 64t-3 63.5t-2 41.5q-4 8 -7 24.5t-7 16.5t-6 2 q-2 0 -2 1t-2 1t-2 2z" />
<glyph unicode="M" horiz-adv-x="888" d="M811 -412q-8 0 -30.5 5.5t-24.5 9.5q-4 2 -6 6q-4 8 -5 12v10v2q0 4 5 21q2 8 6 14q2 4 11 15.5t20.5 22.5t21.5 22.5t14 15.5v35q-6 14 -20.5 46t-30.5 73t-33.5 85t-34 85t-28.5 72.5t-19 45.5q-6 16 -21 54.5t-30.5 81.5t-30 79.5t-20.5 53.5v-41v-37q0 -10 2 -27.5 t3 -37t3 -37t2 -23.5q2 -4 6 -19.5t8.5 -34t7.5 -35t3 -22.5v-28v-27q0 -4 -10.5 -26.5t-14.5 -28.5q0 -4 -5 -26.5t-5 -29.5l-8 -10q-4 4 -11.5 12.5t-11.5 12.5h-8h-6l-18 -135q-4 4 -8.5 12t-4.5 12q0 10 -5 43t-5 43q-4 0 -12 5t-13 5q-2 4 -10 12.5t-10 12.5 q-2 6 -7 23.5t-10.5 38t-10.5 38t-7 23.5q-2 4 -10 24.5t-10 30.5q0 4 -10.5 21.5t-14.5 21.5q-2 4 -8 15.5t-12.5 23.5t-12.5 22.5t-8 14.5q-6 8 -19.5 29.5t-27.5 45t-27.5 44t-17.5 26.5l-14 -10v-309q-8 -10 -22.5 -39t-18.5 -39q0 -6 -1 -25.5t-3 -42t-3.5 -42 t-1.5 -25.5t-5 -22.5t-5 -22.5q-4 4 -9 12t-5 12q0 6 -2 22.5t-3 34t-3 33t-2 21.5h-2h-11q-6 -4 -14 -6q-16 -4 -18 -4h-19h-12q-4 0 -12.5 9t-12.5 13q2 23 6.5 82.5t8.5 127t7 127t3 83.5v115v117q0 2 -2 13t-3 23.5t-3 23.5t-2 15q-4 8 -7.5 25.5t-7.5 21.5 q-2 2 -7 15.5t-10 29t-9 27.5t-4 16v11v12q2 6 10 24.5t10 18.5l10 10l17.5 17.5t16.5 17.5t11 12q4 0 21.5 9.5t21.5 9.5t9.5 3t9.5 3t9 -3t9 -3q2 0 4 -2l6 -6q0 -4 8.5 -20.5t17.5 -36t18.5 -36t11.5 -18.5q4 -8 16 -31.5t26.5 -50.5t27 -50.5t16.5 -33.5q2 -4 8 -15 t13 -23.5t13.5 -24t10.5 -15.5q8 -10 21.5 -30.5t13.5 -24.5t4 -6t8 -2q0 2 1 14t2 26.5t3 28t2 17.5q2 8 8 41t12.5 69.5t10.5 69.5t4 41q0 6 2 26.5t3 45t3 45t4 26.5q0 4 3 21.5t5 25.5q0 2 5.5 10.5t5.5 10.5q6 6 17 18.5t23.5 24.5t23.5 21.5t16 9.5q2 4 14 10t16 6h15 h10q2 0 5 -6t7 -10q0 -2 4 -14.5t4 -16.5v-166q0 -4 5.5 -24.5t5.5 -30.5q2 -6 6 -18.5t8 -26t7 -25.5t3 -18q2 -14 11.5 -42t9.5 -36q6 -14 18 -52t26.5 -81t27 -81t18.5 -52q2 -6 9 -24.5t14 -38t13.5 -37t8.5 -21.5q6 -14 23.5 -59.5t41 -105.5t50 -127t50 -125t42 -102 t24.5 -59q0 -4 2 -9t4 -9q2 -6 6 -12v-15v-10q0 -2 -5 -14.5t-7 -16.5q0 -4 -5 -12t-5 -12q-4 -2 -12.5 -16.5t-12.5 -14.5q0 -4 -4 -12t-4 -13q-4 -2 -7 -14t-5 -16l-10 18l-27 -8v-102l-18 -9l-11 9q-4 10 -6 39.5t-2 37.5h-92z" />
<glyph unicode="N" horiz-adv-x="753" d="M494 39q2 4 -5.5 7t-13.5 9l-24 -211l-15 -8q-4 4 -4 17.5t-4 15.5q0 6 1 30.5t2 52.5t3 52.5t2 30.5t1 22.5t2 32.5t1 30.5v18.5q-2 2 -4 6q-4 8 -4 13q-4 6 -15 24.5t-16 24.5q-4 6 -11 19.5t-15 27.5t-15.5 25.5t-9.5 15.5q-6 4 -21.5 21.5t-30.5 37t-28.5 38 t-19.5 26.5q-2 -4 -3 -14.5t-1 -12.5q-2 -6 -2 -18q0 -6 -2 -11q0 -10 1 -48t2 -81t2 -80.5t1 -48.5q-2 -2 -2 -10q0 -4 -2 -8v-18q-4 -2 -15.5 -17.5t-15.5 -17.5q-4 -4 -13.5 -12.5t-21.5 -17.5t-23.5 -18.5t-15.5 -13.5l-20 -8q-4 0 -12.5 1t-12.5 1t-7 1t-7 1t-6 2 l-8 11v12v22.5t-2.5 25.5t-4.5 19v15.5v28t1 27.5t1 17v17.5v25t-1 24.5t-3 15q0 10 -1 31t-1 42.5v38.5v21q0 12 -3 38t-5 52.5t-5 49t-3 28.5q0 8 -2 29t-5 42.5t-5 41t-4 25.5q0 4 -3.5 19t-6.5 31.5l-6 33t-3 22.5q8 0 10 6q2 2 3 10.5t2 17.5t1 17.5v10.5q4 0 13.5 12 t13.5 14q16 12 27 23q2 0 16 7t19 11q2 2 6 2t8 2q6 0 10 2q2 -2 6 -2t6 -1t7 -1h12q4 -2 10 -10t10 -14q0 -2 4.5 -10.5t9.5 -17.5t8 -18.5t3 -11.5q4 -10 16.5 -26.5t12.5 -20.5q2 -4 14 -19.5t27.5 -32.5t29 -34.5t19.5 -27.5q12 -12 40.5 -47t60.5 -75t60.5 -76 t40.5 -50v6l2 4q0 6 -2 21.5t-4 32t-4 30.5t-2 18q0 14 -4 65.5t-8 112t-8 111.5t-6 66q0 10 -2 18q-2 6 -3 14l-16 5q-8 2 -14 6q-14 4 -10 18v4v8v13q0 4 2 6q2 4 8 15t10 16q0 4 6 10t6 10q4 6 13.5 18.5t11.5 10.5q6 10 24.5 22t28.5 19q6 4 14 8q16 8 19 8l12 6t12 2h5 q2 0 4 -1t6 -1h10h8q4 -2 10.5 -12t8.5 -14q0 -6 2 -15q4 -16 4 -18q0 -4 3 -25.5t1 -32.5q0 -8 3 -43.5t5 -78.5t4 -80t2 -45q2 -10 4 -27.5t3 -36t2 -32t1 -15.5q4 -31 11.5 -92.5t17.5 -139t21.5 -162.5t21.5 -162t18.5 -138.5t12.5 -89.5l-2 -11q0 -8 -2 -14 q0 -4 -11.5 -18.5t-13.5 -18.5q-2 -2 -11 -9t-19.5 -15.5t-19.5 -15.5t-11 -9q-4 -4 -21.5 -9t-25.5 -9q-4 0 -7.5 1t-5.5 1l-10 2q-4 4 -13 18t-14 19q-6 8 -17 33.5t-23.5 54t-23.5 54.5t-17 36l-19 2l-31 -244l-14 -29v23.5t1 36t1 36t-2 23.5q2 14 6 46t8.5 67t8.5 66.5 t6 43.5z" />
<glyph unicode="O" horiz-adv-x="765" d="M385 12q-2 -6 -5 -22.5t-7 -32.5t-7.5 -32.5t-5.5 -22.5q0 -2 -4 -10.5t-4 -10.5h-10h-2q0 2 -5 14.5t-5 16.5q-2 6 -4 22.5t-3 35t-3.5 33.5t-4.5 20q-8 4 -32.5 12t-32.5 12q-2 0 -10.5 4t-10.5 8q-4 2 -9 5.5t-11 7.5q-8 4 -14 6q-4 6 -17.5 18.5t-27 26.5t-25.5 27.5 t-16 19.5q-4 0 -12.5 13.5t-12.5 19.5q-4 4 -9 13t-9.5 20.5t-8.5 20.5t-4 11q-4 2 -12 30t-12 38q-2 6 -5.5 22.5t-7.5 20.5q0 14 -4 46t-4 40v43v37q0 4 1 18.5t3 29.5t3 30.5t1 21.5q4 8 7.5 29.5t5.5 25.5q2 6 7 21.5l10 31t10 30t7 20.5t11.5 24.5t20.5 40t19.5 40 t12.5 24.5q2 2 10 14t17.5 25.5t17.5 25t10 11.5q4 4 8 14q2 6 5 10v68l10 18q6 6 17 18.5t23.5 25t24 22.5t15.5 14q6 4 22.5 13.5t22.5 9.5h30h35q6 0 23.5 -9.5t21.5 -13.5t20.5 -19.5t36 -35t37 -38t27.5 -26.5q2 -4 14.5 -21.5t16.5 -25.5q4 -4 12 -16t12 -17 q6 -10 18.5 -30.5t12.5 -24.5q2 -6 11.5 -22.5t18.5 -34t16 -32.5t9 -21q4 -4 12.5 -27t12.5 -29q2 -8 10 -32.5t11 -34.5q4 -4 7 -21.5t3 -21.5q4 -14 9 -40t5 -28v-74v-80q0 -4 -5 -24.5t-9 -30.5q0 -8 -3 -25.5t-7 -21.5q0 -2 -4.5 -14.5t-4.5 -16.5q-4 -6 -11 -20 t-14 -27.5t-13.5 -26t-8.5 -14.5q-2 -8 -14 -25.5t-16 -21.5q-6 -4 -17.5 -15t-24 -23.5t-23.5 -24t-15 -13.5q0 -2 -8.5 -8t-18.5 -13t-20.5 -13.5t-16.5 -8.5q-2 -2 -8 -5t-14.5 -7t-15.5 -7t-9 -3q-8 0 -8 -14q-2 -18 -4 -66.5t-3 -103t-3 -103.5t-2 -69q0 -8 -2.5 -20.5 t-4.5 -25.5q-2 -14 -4 -30h-14l-18 407h-23zM182 526q0 -8 5.5 -29.5t7.5 -31.5q4 -8 12 -32.5t12 -33.5q4 -6 16.5 -31.5t14.5 -31.5q4 -8 17.5 -23.5t17.5 -23.5l45 -45q6 -2 12 -6q4 -4 9 -7.5t9 -5.5q4 -4 12.5 -8t12.5 -4q4 -4 16.5 -7t14.5 -3h55h55q4 4 17.5 16 t17.5 14q2 4 10.5 20.5t10.5 27.5q4 4 7 16t3 16q2 2 4 15.5t3 32t3 36t4 27.5v4v6q-2 8 -4 23.5t-3 32t-3 28.5t-4 17q0 4 -5 21t-5 26l-10.5 31.5l-10.5 31.5q-4 8 -12 29.5t-12 25.5q-2 6 -9.5 22.5t-16.5 33t-18.5 33t-11.5 22.5q-4 8 -16 28.5t-14 26.5 q-4 4 -17.5 21.5t-17.5 25.5q-2 0 -10.5 9.5t-10.5 9.5l-10 -19q-4 -8 -9 -21t-5 -15q0 -6 -2 -32t-3 -55.5t-3.5 -56t-2.5 -33.5q0 -6 -4 -31.5t-4 -31.5q-4 6 -8 31.5t-4 31.5q0 14 -2 54.5t-3 84.5t-3 83t-2 55h-15h-10q-2 0 -14 -13.5t-17 -19.5q-4 -4 -16 -24.5 t-20 -30.5q0 -4 -4.5 -11.5t-4.5 -11.5q-2 -6 -7 -21.5t-10 -30.5t-10 -29.5t-7 -18.5q-2 -8 -7.5 -28.5t-5.5 -26.5v-93v-92z" />
<glyph unicode="P" horiz-adv-x="837" d="M485 254q2 10 1 37.5t-1 34.5q-4 0 -16 -4.5t-14 -8.5q-4 -2 -15.5 -5t-25 -7t-24.5 -8t-17 -4q-4 -4 -21.5 -10.5t-21.5 -10.5q-4 -8 -7.5 -29.5t-7.5 -45t-8 -45t-6 -29.5v-15.5t-1 -24.5t-2 -24.5t-3 -15.5q0 -2 -4 -14.5t-8 -14.5q-4 -6 -13.5 -18t-11.5 -17 q-4 -4 -22.5 -20t-24.5 -18q-4 -2 -17.5 -10.5t-19.5 -8.5q-8 -2 -14 -4q-16 -4 -19 -4l-6 2h-4q-4 2 -14 12l-8 8l26 312q-4 -2 -15 0t-23.5 5t-23 6t-12.5 7q-4 2 -16 15.5t-16 17.5q2 4 2 9v9t1 9.5t1 9.5t11 20.5t17 20.5q2 4 10.5 13t18.5 18.5t18.5 17.5t12.5 12 q-4 6 -5 23.5t-5 21.5q0 8 -3.5 24.5t-7.5 35t-7 34t-3 19.5q-4 10 -13 44t-14 44q0 6 -5 20.5t-11 31t-12 31.5t-8 21q2 8 -6.5 26.5t-12.5 23.5q0 4 -11 25.5t-15 31.5q-4 4 -10.5 17.5t-10.5 17.5t-15.5 17t-15.5 15q-2 6 -17 22.5t-19 16.5q-4 2 -9.5 6.5t-3.5 8.5 q-4 4 -10 16t-10 19q0 4 -3 16t-3 14q2 4 6 16.5t6 16.5q4 6 12 18.5t12 16.5q8 6 28 19.5t22 15.5q4 4 22.5 13t22.5 7h12h10q4 -2 11.5 -6t11.5 -4q2 -4 14 -17.5t25.5 -29t24.5 -27.5t16 -14q4 -4 20 -13.5t23 -13.5q8 -4 31.5 -14t31.5 -17q6 0 20.5 -5t32 -9t33.5 -9 t23 -5q14 -2 47 -10.5t43 -8.5q14 -2 71.5 -10t123 -17t124 -18.5t72.5 -13.5q6 0 20.5 -3t29.5 -6t30.5 -5t21.5 -2l17 -9q16 -8 24 -8q6 0 19.5 -6t17.5 -8q4 -4 19.5 -13.5t15.5 -13.5q4 -2 11 -11t11 -11l7 -13l4 -8q-2 -4 -2 -20.5v-26.5q-2 -6 -4 -24.5t-2 -20.5 l-5 -12q-2 -4 -5 -10.5t-5 -10.5q-4 -6 -13 -22.5t-15 -20.5q-2 -4 -15.5 -19.5t-17.5 -19.5q-10 -8 -29.5 -24.5t-40 -34.5t-38 -33.5t-21.5 -19.5q-2 0 -14.5 -7.5t-29 -16.5t-31.5 -18t-24 -16l-18 -9l-18 -9q-4 -4 -30 -16.5t-54.5 -25.5t-55 -25.5t-35.5 -14.5 q0 -4 -4 -7t-4 -5q-2 -10 -5 -30.5t-5 -43t-4 -43t-2 -27.5q0 -6 -1 -22t-2 -33.5t-2 -33t-1 -21.5q-8 -100 -14.5 -139t-8.5 -36t-3 38.5t0 82t3 93.5t4 73q0 4 1 29t1 35zM236 838q2 -14 9 -48t16 -73t16.5 -74t11.5 -49q2 -8 7 -30.5t10 -50.5t8 -52.5t3 -34.5q4 -2 9 -2 h10q2 0 4 -1t6 -1h6q2 0 15.5 4t17.5 4q10 4 28.5 10t37 11.5t32 9.5t15.5 4q8 2 27.5 9t42 16.5t42 16.5t29.5 11q2 4 25.5 14.5t31.5 18.5q6 2 17.5 7t23 11t20.5 11.5t11 7.5q2 0 11 6t20.5 13t21.5 15.5t15 14.5q4 2 9 5t9 7q2 4 11 15.5t9 15.5l5 10q-2 0 -2 2v4v6 q-4 4 -9 11q-8 12 -8 14q-4 2 -11 4t-11 6q-6 0 -19 8q-6 4 -12 7q-12 2 -37 8t-33 10l-17 3q-18 3 -40.5 6t-46 6t-37.5 6h-6h-8q0 -4 -2 -17.5t-4.5 -29t-6.5 -31t-6 -21.5q-2 -8 -3 -19t-5 -24q-4 -14 -6 -31q-4 -2 -10.5 -11t-10.5 -9l19 197l-19 2q-2 -6 -6 -26.5 t-10 -29.5q0 -2 -7 -4t-11 -2l6 64q-51 8 -99 16q-41 8 -85 16.5t-72 14.5h-8v-8z" />
<glyph unicode="Q" horiz-adv-x="968" d="M0 655q0 4 4 27t4 29q4 12 11.5 37.5t11.5 33.5q2 4 10 19.5t16.5 34t16.5 35t12 22.5q4 2 16.5 19.5t16.5 19.5l22.5 22.5t34 35t32.5 33.5t21 19q4 4 17.5 12.5t19.5 12.5t19.5 11t28 14.5t24.5 13.5t14 8q4 0 21.5 4t25.5 4h62h49q4 0 19.5 -10t23.5 -14q2 0 11 -9.5 t9 -11.5q4 -4 7.5 -21.5t3.5 -21.5q8 -6 28.5 -24.5t42 -40t40 -41t24.5 -27.5q2 -4 10 -16.5t10 -16.5q6 -10 16.5 -30.5t20.5 -42t18.5 -39t10.5 -21.5q2 -6 8 -19.5t12 -28.5t10.5 -30.5t6.5 -21.5q0 -8 4 -32.5t4 -33.5v-80v-63q0 -4 -3 -21.5t-6 -36t-7.5 -35 t-4.5 -18.5v-10v-2q10 -10 35 -36.5t53.5 -56.5t54 -57.5t36.5 -39.5q4 -4 16 -20.5t16 -20.5q0 -4 5.5 -16.5t5.5 -20.5v-6v-2q-4 -8 -11.5 -25.5t-7.5 -21.5q-4 -2 -13 -9.5t-18.5 -16.5t-16.5 -17.5t-7 -12.5q-4 -4 -21.5 -11t-25.5 -7l-4 -4q-2 -2 -11 -2l-10 6l-12 12 l-19 19q-2 2 -10 12t-17 21.5t-17.5 20.5t-10.5 11l-110 111q-6 -4 -19.5 -13.5t-29 -19.5t-31 -19.5t-21.5 -13.5q-2 0 -11 -5t-19.5 -10t-20.5 -9.5t-14 -6.5q-2 -2 -11.5 -5t-18.5 -7t-17.5 -7t-8.5 -5q-4 -2 -7 -31t-7 -37l-10 -8l-4 4l-4 4q-4 8 -8.5 29.5t-4.5 26.5 h-10q-2 -10 -5 -32t-7 -45.5t-7 -46t-5 -30.5q-2 -14 -5.5 -39t-3.5 -29q-4 0 -7 -4t-5 -4v230q0 2 -6 8l-4 4q-4 2 -17.5 5t-29 7t-28.5 7t-17 5q-6 2 -19.5 8.5t-28 12.5t-26.5 12t-14 8q-4 2 -16.5 14.5t-26 27t-26.5 28.5t-17 23q-4 0 -21.5 24.5t-26.5 38.5q-2 4 -4 10 q-4 12 -4 15q-4 8 -12 28.5t-12 26.5q-2 4 -5 14t-6.5 20.5l-6.5 19.5t-5 11q0 10 -4 31t-4 25v123v118zM166 555q0 -4 4 -30.5t4 -35.5q2 -4 6 -18t10.5 -29.5t11.5 -31t9 -21.5q0 -4 9 -20.5t9 -20.5q8 -10 25.5 -36.5t21.5 -32.5q2 -4 20.5 -20.5t25.5 -20.5 q0 -4 12 -12.5t18 -12.5q12 -2 37 -16.5t29 -14.5q6 -4 24.5 -9t20.5 -5h61h49q8 4 23.5 12t24.5 13q-8 6 -29 26.5t-27 28.5q-8 6 -37.5 32.5t-63.5 56.5t-63.5 56.5t-38.5 32.5q-4 4 -16 16.5t-14 16.5q0 4 -10.5 16t-14.5 14q0 4 -5 12.5t-5 12.5v4v6q0 6 4 19q2 6 6 12 q4 4 12.5 18.5t12.5 18.5q2 4 14 16.5t16 16.5q6 4 17.5 11t19.5 11q4 2 13 4q12 4 20 4h4h6q2 0 10.5 -4t10.5 -4q4 -4 12 -18.5t12 -18.5l86 -86l23.5 -23.5t30.5 -25.5q16 -14 37 -31h12v56q0 4 -5 21.5t-7 23.5q0 4 -5.5 17t-5.5 18q-4 10 -14 30.5t-10 24.5 q-2 6 -10.5 22.5t-10.5 22.5q-4 8 -17 28.5t-18 26.5q-2 8 -14 25.5t-16 21.5q-4 2 -13.5 11.5t-19.5 20.5t-20.5 19.5t-16.5 12.5q-10 8 -30.5 27.5t-24.5 19.5l-19 -16q0 4 -5 14t-7 10h-6h-4q-2 -6 -4 -18.5t-3 -25.5t-3 -25.5t-5 -18.5q0 -8 -2 -16.5t-4 -18.5l-4 -20 h-8q-4 0 -8 15t-4 28v110l-6 7q-2 2 -4 6q-6 4 -24.5 6t-21.5 2q-4 0 -10 -2q-12 -4 -14 -6q0 -4 -9.5 -11.5t-13.5 -11.5q0 -4 -7 -16.5t-11 -16.5t-7 -11t-7 -11l-5.5 -16.5t-6.5 -20.5t-6 -18.5t-5 -8.5q0 -12 -4 -32.5t-4 -22.5v-84v-88z" />
<glyph unicode="R" horiz-adv-x="1069" d="M281 -29q-2 0 -25 -3t-31 -3q-2 4 -10 14.5t-8 12.5l18 129q-6 4 -23.5 10t-21.5 8q-8 4 -19 19.5t-11 17.5v25q2 8 5 18t3 12q0 6 2 15q4 16 8 20q2 2 14.5 19.5t16.5 19.5q4 6 10 14q4 6 7 11.5t7 9.5v27q0 6 4 18l4 12q0 4 -5 22.5t-9 31.5q4 6 -3 36.5t-9 44.5 q0 4 1 16.5t-1 14.5q-4 8 -8 23.5t-8.5 29t-6.5 24.5t-2 13q-4 10 -14 34t-20.5 50.5t-19.5 49t-11 32.5q0 6 -11.5 22.5t-15.5 16.5q-4 4 -16.5 12.5t-26.5 17.5t-26.5 17t-14.5 8t-12 16.5t-19 26.5q0 4 -4 11.5t-4 11.5v10q0 4 1 7t1 8q0 2 3 10t3 10q2 2 4 6t4.5 5 t2.5 5q2 2 11 14.5t9 16.5q4 4 21.5 16.5t21.5 16.5t18.5 8t18.5 4l12 4q4 2 9.5 4t9.5 2h6h4q6 -4 24.5 -14t20.5 -16q4 -2 15.5 -12.5t24.5 -22.5t24.5 -23.5l15.5 -15.5q8 -4 23.5 -10t23.5 -6q25 -4 91.5 -11.5t141 -16.5t140 -17.5t90.5 -10.5q8 -6 42 -12t48 -6 q10 -10 30.5 -14.5t24.5 -6.5t17.5 -8t28 -13t28.5 -13.5t20 -8.5q4 0 12.5 -5t12.5 -5q8 -10 16.5 -20.5t12.5 -10.5q2 -4 11 -16t9 -16t-1 -18.5t-1 -22.5q-6 -6 -6 -23v-14q0 -2 -5 -10.5t-11.5 -18.5t-13.5 -20.5t-11 -14.5t-12 -14t-13 -14q-10 -10 -30.5 -31 t-24.5 -25q-12 -10 -45 -35.5t-69.5 -55t-69.5 -56.5t-45 -37q4 0 7 -5t7 -9q4 -2 14.5 -9.5t20.5 -16.5t19.5 -16t13.5 -7q6 -6 22.5 -17.5t32.5 -24t31.5 -22.5t21.5 -16q2 -4 12.5 -12.5t14.5 -16.5q8 -4 21.5 -15.5t26.5 -22.5t23.5 -21.5t12.5 -14.5q0 -4 7 -12 t15.5 -17.5t15.5 -17.5t7 -10q8 -12 12 -25q-2 -6 -2 -10v-12v-25q-4 -2 -14 -17.5t-15 -19.5q-4 -6 -24.5 -21t-26.5 -18q-4 -4 -20.5 -10t-20.5 -8h-18q-4 0 -9 1t-10 1q-6 6 -18 22.5t-25.5 33t-26 33t-18.5 22.5q-4 0 -19 13t-28 24q0 4 -10 12t-10 12q-10 6 -27.5 19.5 t-35 25.5t-31 21.5t-15.5 11.5q-4 2 -18.5 11t-31.5 20.5t-32.5 19.5t-21.5 12q-4 4 -10.5 6.5t-10.5 6.5l-12 6q-4 0 -11 -4t-12 -8q-6 0 -22 -12.5t-23 -12.5q-4 -2 -12 -10t-12 -10q-4 -6 -8 -23.5t-8.5 -36t-7.5 -35t-5 -22.5q0 -2 -3 -10.5t-6 -17.5t-7 -17t-4 -11 q-2 -4 -7.5 -16t-10.5 -25.5t-10 -25.5t-7 -16l-10 -11q-6 -4 -11 -10l9 64q-4 -6 -14.5 -30t-12.5 -32q0 -6 -3 -25.5t-6 -40t-6 -40t-3 -25.5l-17 20zM346 801q2 -12 10.5 -46t16.5 -73t16 -73t12 -46q2 -4 5.5 -15t5.5 -25.5t3 -27t1 -14.5l6 -18l4 -12h2h16q8 0 29 -1 t44.5 -3.5t44 -3.5t30.5 -3l20 11q6 4 19.5 14t29 20.5t30 19.5t20.5 13q10 8 33.5 28.5t50 42t49 40t33.5 26.5q4 0 9 10.5t9 14.5q-4 0 -11 9t-7 13q-6 0 -22.5 13.5t-23.5 13.5q-2 2 -13 5t-24.5 8.5t-28.5 10.5t-24 11q-10 2 -27.5 7t-21.5 5q-10 2 -18 4q-20 4 -27 4 h-43q-8 -2 -11 -14t-7 -16q0 -4 -5.5 -18.5t-5.5 -18.5h-8q0 8 -5 37.5t-5 40.5v4q0 2 -2 4h-6h-10q-2 -6 -10.5 -32t-8.5 -32q0 -8 -6 -20t-6 -17h-8l-6 7q0 2 -2.5 17t-2.5 22q-4 8 -3 32.5t-3 32.5l-129 8z" />
<glyph unicode="S" horiz-adv-x="768" d="M453 12h-17v-157h-18l-21 145q-12 0 -40.5 4t-39.5 8q-4 0 -16 3t-14 5q-8 4 -25.5 12.5t-21.5 12.5l-15 14q-6 6 -11 10.5t-7 6.5q0 4 -9.5 17t-13.5 18q-4 6 -11 23.5t-7 21.5q-4 4 -9 20.5t-5 20.5v69v56q0 8 10 28.5t14 26.5q-6 0 -22.5 2t-33 3t-32.5 3t-22 2 q-4 0 -12.5 4t-12.5 8q-4 0 -11 9.5t-12 9.5q0 2 -4 14q-2 6 -4 10v27v29q0 2 4 20.5t4 24.5q4 8 11.5 27.5t14.5 41t13 40t9 24.5q2 10 20 39.5t25 48.5q4 8 14 32.5t22.5 53.5t22.5 54.5t14 35.5q10 25 27.5 48.5t36 47t35 50t24.5 57.5q2 2 8.5 12t13.5 21.5t14 22.5 t11 18q0 2 7.5 15t11.5 21q6 6 19.5 21.5t17.5 17.5q4 8 21.5 25.5l21.5 21.5q2 0 14 10.5t16 14.5q2 0 15 4q4 2 10 4h39h37l24 -24q4 -2 11.5 -14.5t11.5 -16.5q0 -4 7 -24.5t11 -30.5q4 -6 14.5 -32t10.5 -32q0 -4 3 -15.5t7 -23.5t7 -23.5t3 -17.5q0 -4 5.5 -21.5 t5.5 -25.5q2 -12 8 -33.5t12 -44t10 -41t6 -22.5q0 -10 9.5 -25.5t9.5 -30.5q4 -14 9 -39.5t5 -29.5v-49v-25q0 -4 -5 -11t-9 -11q-4 -6 -16.5 -24.5t-14.5 -20.5q-4 -4 -21.5 -17.5t-21.5 -17.5q-4 0 -17.5 -4t-19.5 -4h-4h-6q-2 0 -10 4t-11 4q-4 4 -6 10q-4 12 -4 14 q-4 4 -7 16.5t-7 14.5q0 8 -5 25.5t-5 21.5q0 6 -1 21.5t-3 34t-3.5 35t-1.5 20.5q-4 12 -6 22t-4 19.5t-2 13.5q-4 20 -17.5 49t-17.5 39q-2 8 -10 38t-10 40q-4 10 -9 26.5t-12 32.5q-8 18 -14 39h-12q0 -6 1 -24.5t1 -40t1 -40t1 -24.5q0 -8 -5 -31.5t-7 -29.5 q0 4 -5.5 18.5t-5.5 18.5q-2 6 -4 19t-3 28.5t-3 30t-4 20.5l-18 -43v-203l-13 -18l-16 18v166q-4 -4 -11.5 -14.5t-15.5 -21.5t-14 -21.5t-8 -16.5q-2 -4 -12.5 -25.5t-22.5 -50t-25.5 -57t-19.5 -45.5q-2 -8 -10.5 -17t-10.5 -18q-4 -12 -11 -32.5l-14 -41t-13.5 -38 t-8.5 -19.5q0 -4 5.5 -20.5t5.5 -22.5q6 0 25.5 -1t41 -1h41t29.5 2q2 0 12 1t23.5 3t26 3t16.5 1l22 5.5t28.5 5.5t25 4t12.5 2h96h80q6 -4 31.5 -12.5t35.5 -12.5l21.5 -21.5t21.5 -25.5q2 -6 11.5 -22.5t9.5 -22.5v-55v-66q0 -2 -4 -14t-4 -16q-2 -4 -6.5 -13.5 t-10.5 -19.5t-12 -20.5t-8 -16.5t-6 -12q-4 -4 -7.5 -9.5t-5.5 -9.5q-8 -8 -20 -23.5t-16 -19.5q0 -4 -7.5 -11t-11.5 -11t-14 -12.5t-21.5 -17.5t-20.5 -16.5t-12 -9.5q-4 -4 -17 -12t-17 -12q-4 0 -14.5 -7.5t-24 -14.5t-24.5 -14t-13 -9q-2 0 -8 -6q-2 -2 -2 -5v-12v-18 q0 -6 2 -29.5t3 -50.5t3 -49.5t2 -26.5v-74v-71q0 -4 -2 -15.5t-3 -23.5t-3 -23.5t-2 -13.5q-4 6 -7.5 26.5t-7.5 28.5q-2 16 -5 58.5t-6 90.5t-5 90t-2 58zM326 344v-13t2 -20q2 -10 4 -22q0 -8 7 -23.5t15 -23.5q0 -2 17.5 -20.5t25.5 -24.5q2 0 10.5 -5.5t10.5 -5.5h61 h49q2 0 11.5 4.5t19.5 9.5t20.5 11t14.5 10q4 2 12 10.5t12 10.5q2 8 11.5 23.5t9.5 23.5v26v29q0 4 -9 21.5t-12 21.5q-4 2 -17 11.5t-17 9.5q-2 4 -24.5 7t-31.5 3h-26h-29q-10 0 -28.5 -1t-38 -2t-35 -3t-17.5 -4q-4 0 -12 -5q-6 -2 -10 -4q0 -8 -3 -28.5t-3 -26.5z" />
<glyph unicode="T" horiz-adv-x="677" d="M248 1006q-12 2 -43 4t-65 3t-63.5 3t-41.5 2q-2 0 -12.5 1t-22.5 2t-23.5 3t-15.5 4q-6 0 -26.5 5t-28.5 9q-10 0 -26.5 5.5t-18.5 5.5q-4 0 -12.5 4t-12.5 4q-4 8 -17.5 20.5t-13.5 16.5v10v8q0 8 4.5 20.5t4.5 16.5q4 4 11 16.5t11 14.5q4 4 16.5 17t16.5 18 q4 0 17.5 9t19.5 11q6 6 10 8t8 2h29h27q8 0 12 -10q0 -2 4 -10q2 -4 6 -10q4 0 16.5 -5.5t16.5 -5.5q8 -4 32.5 -9t34.5 -5q8 0 26.5 -2t38 -3t36 -3t20.5 -2h56h45q4 0 23.5 10t23.5 14h24h19q2 -4 11 -12t9 -12h47h43q8 0 42 2t74 3t75 3t43 2h116h113q4 0 8 -5t9 -5v-19 v-12q0 -4 -6.5 -12t-10.5 -13q-2 -6 -10 -18t-10 -12q0 -4 -3 -7.5t-8 -7.5q-4 -6 -8 -10q-4 -2 -17 -10t-20 -10q-4 -4 -12 -9q-4 -2 -6 -2l-227 -24v-682q0 4 -5.5 12t-5.5 12t-1 16.5t-3 26t-3 26.5t-1 17q-2 16 -4 60.5t-4 103t-5 124t-5 122.5t-3 101t-1 61h-15 q0 -6 -3 -28.5t-7 -26.5q0 -4 -1 -31t-3 -57.5t-3 -57t-1 -29.5q-2 2 -4 26t-3 51.5t-3 51t-2 25.5q0 6 -5.5 31.5t-5.5 32.5h-135v-25q2 -6 4 -36t6.5 -70.5t7.5 -89t7 -92.5t6 -77.5t4 -48.5q0 -4 1 -14t3 -22.5t4 -23.5t4 -13q0 -8 3 -28t6.5 -41.5t6.5 -39.5t3 -25 q4 -6 7 -26.5t7 -28.5q2 -8 6 -29l4 -16q2 -4 21.5 -7t23.5 -3q0 -4 5.5 -12.5t5.5 -12.5q2 -2 5 -27.5t7 -39.5v-6v-2q-4 -12 -7 -33t-5 -23q0 -4 -5.5 -12t-5.5 -12l-32 -41q-4 -4 -21.5 -16.5t-26.5 -20.5q-2 0 -10 -4t-10 -4h-29h-26l-11 8q-4 8 -14 25.5t-10 21.5 q0 6 -9.5 33.5t-11.5 42.5q-2 6 -5 20.5t-7 29.5t-7 28.5t-5 19.5q0 6 -2 24.5t-5 40t-6.5 41t-5.5 27.5q-2 12 -5 36t-7 48.5t-7 45t-3 26.5q-2 10 -7 52t-11.5 91t-10.5 91t-4 52q-2 6 -4 39t-3 72t-3 71t-2 36z" />
<glyph unicode="U" horiz-adv-x="903" d="M319 -18h-24q0 -10 -4 -40t-8 -38q0 -10 -1 -22.5t-3 -22.5q-2 -12 -5 -25h-18v148q-2 2 -6 4q-8 4 -10 4q-4 0 -16.5 3t-27 7t-26.5 8t-16 6q-4 0 -26 7.5t-30 15.5q-8 0 -16 4q-6 2 -8 4q-4 4 -11.5 12.5t-16.5 16.5t-17.5 15t-10.5 11t-4 11q-2 4 -4 7t-4 7l-4 16 q-2 6 -4 15v34v31q0 4 4 25.5t4 29.5q4 14 11.5 48t11.5 45q2 6 9 27.5t14 48t14.5 49t7.5 28.5q4 10 12 44t12 48q0 6 5.5 29t5.5 27v55v55q0 4 -2.5 10.5t-4.5 12.5l-4 16q-4 4 -23.5 8t-21.5 9q-4 0 -8 4q-2 2 -2 4q-2 6 -4 14q-2 6 -2 12.5v10.5v7t2 9l4 12q0 6 7 22.5 t11 22.5l48 47q2 2 14 10.5t16 10.5q4 0 16.5 5t16.5 5h10h2q4 -4 21.5 -11t21.5 -11q4 0 9 -4l4 -5q4 -8 12 -25.5t12 -21.5q0 -6 5 -22.5t5 -22.5v-90v-86q0 -4 -5 -24.5t-5 -30.5q-2 -6 -5 -20.5t-7 -28t-7 -25.5t-5 -14q0 -6 -8.5 -34t-17.5 -60.5t-18.5 -60 t-11.5 -34.5q-2 -10 -7 -30.5t-5 -24.5v-51v-49l17.5 -17.5t19.5 -17.5q8 -6 16 -10q6 -4 13.5 -7.5t11.5 -3.5t16.5 -5t16.5 -5q8 -4 25.5 -7t21.5 -7q2 0 13 -2t23.5 -3t23.5 -3t16 -2q8 0 25.5 -2t35.5 -3t31.5 -2.5t17.5 -1.5t27.5 -2t34.5 -2h11t13 2q8 0 16 2l9 33v68 v98q0 4 -1 18.5t-3 31t-3.5 31.5t-1.5 22q-2 2 -5 16t-6 32.5t-6 35t-5 26.5q-2 6 -7 25.5t-9.5 40t-9.5 39t-7 24.5q-4 14 -15 52t-23.5 80t-24 80t-15.5 54v29v27q0 4 2 10q6 10 9 12q2 4 10 16.5t10 16.5q4 4 12.5 11t12.5 11q4 0 16 10.5t14 14.5q4 0 12.5 4t12.5 4h18 h13q4 0 12 -10t12 -14q4 -12 11 -25q4 -10 7 -21.5t5 -17.5q4 -16 19.5 -69.5t36 -124t44 -149.5t44 -149.5t35.5 -124t19 -69.5l6.5 -19.5l9.5 -28.5t10 -30.5t5 -21.5q2 -6 8.5 -21.5t13.5 -33t14 -34t11 -22.5q0 -4 10.5 -21.5t14.5 -21.5v-22v-25q-2 -6 -6 -10t-6 -7 t-5 -3q-2 -4 -10 -17.5t-10 -17.5q0 -2 -9 -10.5t-9 -10.5q-4 0 -17.5 -10t-19.5 -14q-4 0 -12.5 -5.5t-12.5 -5.5h-12h-19q-4 0 -21.5 15.5t-21.5 19.5q-4 2 -18 10.5t-18 10.5q0 4 -3 10q-2 4 -4 7t-4 7v4v7l4 16q2 8 7 14q2 2 2 13q0 4 -2 6l-3 2q-4 4 -8 4q0 -2 -7 -8 t-14 -13.5t-14.5 -13.5t-9.5 -8q-4 -4 -18.5 -17.5t-22.5 -19.5q-4 0 -12 -5t-12 -5q-2 -2 -14.5 -5t-16.5 -3q-10 -4 -30.5 -8.5t-24.5 -4.5h-181q0 -18 -3 -63t-6 -97.5t-6 -98.5t-3 -64q-2 -6 -4 -23.5t-3 -36t-3 -36t-2 -23.5l-11 8v447z" />
<glyph unicode="V" horiz-adv-x="606" d="M469 6h-16q-2 -10 -5.5 -35.5t-7.5 -31.5q0 -8 -4 -29t-4 -27l-18 13v88q-4 0 -19.5 3t-17.5 7q-4 0 -12.5 17.5t-12.5 27.5q-4 8 -13 29.5t-9 25.5t-4 24.5t-4 31.5q-2 4 -4.5 18t-4.5 29.5t-4 30t-4 18.5q0 2 -3 15t-8 29.5t-10 32t-10 23.5q-2 4 -5 19.5t-7 34 t-7 32.5t-5 17q-6 16 -24.5 65t-44 115.5t-52.5 140.5t-52.5 140.5t-44 114.5t-24.5 65v28v27q0 4 9.5 21.5t11.5 25.5q4 2 21.5 19.5t21.5 19.5q8 4 25.5 14t21.5 10h18h13q6 -4 24.5 -21t20.5 -24q4 -4 9 -26.5t1 -28.5l180 -588l12 92l135 357v22v25q0 2 -5 10t-9 10v7v4 q4 6 7 19t7 13q0 4 9.5 18.5t13.5 18.5t8 11q10 10 10 12q4 0 16.5 7t20.5 11l5 5t8 5q4 2 6 5h26h19q0 -4 10 -12.5t14 -12.5q0 -2 5.5 -10t5.5 -10v-11v-14q0 -4 -5.5 -24.5t-5.5 -30.5q-4 -8 -7 -22.5t-7 -18.5q-4 -10 -16.5 -58.5t-26.5 -103.5t-27.5 -102.5 t-15.5 -57.5q-4 -12 -12 -40.5t-13 -39.5q0 -4 -10 -24.5t-22.5 -43t-22.5 -42t-10 -23.5q-2 -10 -7 -33.5t-5 -27.5v-92v-50q0 -4 5 -23.5t7 -21.5q2 -10 5 -28.5l6 -37t5 -31.5l2 -13q0 -6 2 -13q4 -12 4 -16t-4 -16q-2 -6 -2 -11q0 -4 -7 -21t-11 -22v-280q0 -6 -1 -28.5 t-3 -49.5t-4 -51.5t-4 -36.5q0 -6 -4.5 -31.5t-4.5 -32.5l-18 21v434z" />
<glyph unicode="W" horiz-adv-x="980" d="M879 -72q-4 0 -11.5 -5t-11.5 -5q-4 -4 -9 -7t-5 -7v-133h-11q0 8 -3 28.5t-6 44t-7 44t-4 30.5q0 2 -4 11.5t-9 21.5t-11.5 24.5t-10.5 20.5q-4 6 -11 21.5t-15.5 33t-16.5 33.5t-12 22q0 4 -11.5 25t-19.5 31q-6 8 -28.5 44t-49 77t-49 75.5t-28.5 42.5 q-2 6 -12.5 22.5t-22 35t-20.5 36t-11 23.5q-4 2 -14.5 14.5t-10.5 16.5h-2h-6q-2 -8 -5 -30.5t-7 -47.5t-7 -48.5t-3 -31.5q-4 -16 -9.5 -49t-5.5 -37q0 -6 1 -28.5t1 -49v-49t-2 -28.5q0 -6 -2 -15q-2 -6 -4 -11t-4 -9q-2 -2 -2 -4t-2 -7q-2 -4 -4 -10q-4 -6 -14.5 -16 t-21.5 -20.5t-20.5 -18.5t-11.5 -10q-4 -4 -21.5 -12.5t-25.5 -12.5h-8h-10q-4 0 -12.5 10.5t-12.5 14.5q-2 0 -5 9t-7 13l-43 129q-4 16 -22.5 74.5t-39 126.5t-39 126t-22.5 75q-2 8 -8 25.5t-13.5 37t-13.5 35.5t-8 22q0 2 -10 17.5t-10 19.5v27v37q2 4 4 10q4 8 4 12 q8 6 20.5 24.5t16.5 18.5q0 2 16 15.5t25 21.5q2 0 14 4q6 2 10 4h19h12q4 0 12 -10t12 -14q2 -2 10.5 -22.5t10.5 -32.5q6 -14 20.5 -56.5t29.5 -90.5t28.5 -91t19.5 -59q4 6 8.5 32.5t4.5 34.5q0 2 2 15.5t3 30t3 31.5t2 21q2 4 4 22.5t3 39t3 39t4 22.5q0 6 2 17.5t3 24 t3 23.5t2 15l13 19q4 10 16 25.5t16 19.5t20.5 16t20.5 14q4 4 16.5 8.5t20.5 8.5h8h11q4 -4 9 -8t5 -9q0 -4 4 -16t10 -26.5t11.5 -26.5t5.5 -17q6 -14 24.5 -52t40 -81t41 -80.5t29.5 -52.5q0 -2 7 -15.5t18.5 -30.5t22.5 -34.5t17 -29.5q2 -4 10.5 -16.5t16.5 -27 t16.5 -27.5t12.5 -20q0 -4 3 -9t7 -9q4 -6 10 -12q0 -4 5 -7t5 -8v43v37q0 14 -2 60.5t-5 101.5t-6 106.5t-5 75.5q-2 6 -4 24.5t-3 38t-3 36t-2 20.5q0 12 -5.5 38t-5.5 34l-4 8q-6 10 -10 10q-4 -4 -20.5 -17t-20.5 -18q-4 -2 -16 -10t-17 -10q-4 0 -7 -2t-7 -4l-8 -4h-19 h-14q-4 0 -8 4q-2 2 -4 6v18v19q6 8 10 16q4 6 6 12.5t4 10.5q4 8 12.5 21.5t12.5 15.5q6 6 21.5 21t32 31.5t28.5 29t14 16.5q6 8 33 19.5t37 11.5q4 0 10 2q8 4 12 4q2 0 19 -4q6 -2 14 -2q4 0 11 -2t12 -7q0 -4 10 -16t14 -14q0 -4 2 -17.5t6 -17.5q0 -6 5.5 -28.5 t5.5 -26.5q2 -14 5 -49t7 -44q2 -43 8 -121.5t11 -160.5t9.5 -146.5t4.5 -76.5v-232v-223q-4 -4 -12.5 -21.5t-12.5 -21.5q0 -4 -9 -18.5t-11 -18.5l-11 -18q0 -6 2 -23.5t3.5 -38t3.5 -38t2 -23.5v-19.5t1 -34t1 -38v-29.5v-19.5t-1 -25.5t-1 -22.5v-12.5l-11 -20 q-4 10 -6 42.5t-2 43.5q-2 6 -5 32.5t-5 57t-4 57.5t-2 33q0 8 -4 32.5t-4 32.5z" />
<glyph unicode="X" horiz-adv-x="917" d="M829 18q0 -6 -2 -19t-3 -27.5t-3 -27t-2 -14.5q0 -8 -5 -25.5t-9 -21.5l-12 11v110q-4 4 -20.5 7t-22.5 7l-11 11v75q-2 4 -4 11q-4 12 -4 14q-8 8 -20.5 22.5t-16.5 18.5q-4 8 -22.5 28.5t-40 42t-41 40t-25.5 24.5q-4 2 -28.5 22.5t-38.5 32.5q-12 10 -33 25.5 t-23 20.5q-4 0 -12 5t-12 5h-4h-6l-9 -10q-4 -4 -11 -16.5t-11 -16.5t-11.5 -16.5t-15.5 -27t-16 -28.5t-12 -20q-6 -8 -19.5 -30t-13.5 -26q-4 -4 -9.5 -14t-10.5 -20.5t-10 -19.5t-7 -11v-21q0 -4 -5 -17t-5 -18q-2 -2 -10.5 -14t-10.5 -16q-8 -6 -25.5 -24.5t-21.5 -20.5 q-2 -2 -10 -7.5t-18.5 -10.5t-20.5 -10l-14 -7h-11h-14q-4 0 -11 10t-12 14v13v18q4 4 7.5 17.5t5.5 17.5q2 6 10 22.5t17.5 33t16.5 32.5t11 23q0 2 13.5 24.5t21.5 30.5q8 14 29.5 48t46 73t47 72.5t33.5 48.5l-15 16l-287 205q-6 0 -28.5 6t-26.5 10q-2 0 -5 4t-7 4 q0 4 -4 16.5t-4 14.5v18v17q0 6 9 23.5t11 21.5q4 4 24.5 26.5t30.5 28.5q2 2 9 4l8 4t8 2q4 2 16.5 7.5t14.5 5.5h6h4q4 0 12 -5.5t13 -7.5l321 -231h10h13q4 4 8 10q4 4 6 7l4 6q6 6 27.5 32.5t49.5 59t52.5 65.5t36.5 51q6 10 19.5 27.5t17.5 17.5q0 2 1 10.5t3 17.5 t3 17.5t1 10.5q0 4 5 11t5 11q4 4 14.5 16.5t10.5 16.5q2 4 10 11t10 12q4 0 17.5 10t17.5 14q2 2 4 2q4 0 6 2q4 2 11 4h18h16q6 0 13.5 -10t7.5 -14q0 -6 2 -13q4 -12 4 -18q0 -8 -4 -20q-2 -8 -2 -13q0 -4 -11.5 -28.5t-19.5 -38.5q-2 -2 -7 -10.5t-11 -17.5t-10.5 -17.5 t-4.5 -10.5q-2 -2 -2 -13v-24.5t1 -24.5l1 -11q-2 -6 -4 -20.5t-3 -30t-3 -31t-2 -21.5q-2 -12 -7 -41.5t-10 -63.5t-10.5 -63.5t-7.5 -42.5q0 -12 -4 -28q-2 -8 -4 -15h-18q0 6 1 19.5t2 29t2 29.5t1 21q0 6 4 29.5t7 49t6 48t3 28.5q2 6 4 21.5t3.5 31t2.5 30t1 20.5v12 v18l-7 -6q-2 -2 -2 -4t-2 -2q0 -2 -1 -12t-3 -21.5t-3 -20.5t-1 -11q-4 -6 -14 -22.5t-15 -22.5v55q-2 0 -8 -3t-10 -7q-4 -6 -20.5 -27t-35 -45.5t-37 -48t-26.5 -35.5q-4 -4 -11 -17.5t-11 -17.5l10 -8l123 -102q6 -4 18.5 -15.5t25.5 -24t25.5 -23.5t18.5 -13l55 -56 q8 -8 28.5 -32.5t26.5 -32.5q8 -10 26 -37l22 -33q0 -4 4 -16t4 -14v-29v-27q0 -4 -4 -17t-4 -18q-4 -2 -14.5 -14t-10.5 -16q-2 -4 -4 -7.5t-4 -7.5q-2 -6 -4 -10l-19 -518l-16 20q-2 63 -4 125q-2 53 -3 107.5t-1 91.5v143h-13z" />
<glyph unicode="Y" horiz-adv-x="1009" d="M319 -53q-4 0 -12 5t-12 5q-2 4 -7 7t-5 7v13v18q4 4 11 21.5t11 21.5q6 8 22.5 25.5t22.5 21.5q4 2 21.5 11.5t25.5 9.5q2 0 18.5 2t35 3t36 3t21.5 2q6 4 31.5 7t31.5 7v13v18q0 4 -1 15.5t-3 24.5t-3 24.5t-1 15.5q-2 4 -4 18.5t-4 29.5t-3 29.5t-1 18.5q0 6 -5 28.5 t-5 26.5q-6 -4 -19.5 -18t-29 -29.5t-31 -30t-21.5 -18.5q-2 -2 -11 -8t-19.5 -13.5t-20.5 -14.5t-14 -9q-4 0 -23.5 -10t-21.5 -15l-11 -10q-4 -10 -7 -43t-7 -43q0 -6 -2 -13t-4 -15t-4 -17h-12v131h-9l-24 -63q-4 2 -6 4l-4 4q0 2 -2 11t-3.5 18.5t-3.5 17.5t-4 8 q0 2 -9 7.5t-21.5 10.5t-22.5 10t-10 7q-4 2 -13.5 11.5t-19.5 20.5t-19.5 21.5t-13.5 14.5q-4 0 -16 24.5t-21 38.5q0 4 -4 17.5t-4 17.5q-4 10 -7 25.5t-3 19.5l-25 299q-2 0 -11 10t-9 15v12v18q0 4 4 21.5t4 21.5q4 2 7 11.5t5 9.5q4 6 14.5 16t20.5 21.5t19.5 20.5 t11.5 13q4 2 21.5 10.5t23.5 8.5h8q4 0 6 1t4 1l17 -2q6 -4 10 -8t6 -7.5t4 -3.5q2 -10 11 -16q4 -4 6 -8v-324q2 -12 6 -22t6 -18.5t6 -14.5q0 -8 3 -18.5t7 -20.5q4 -12 11 -24q0 -4 10 -17.5t14 -19.5l31 -31q4 -4 10 -6q12 -4 14 -4q4 -4 16.5 -7.5t14.5 -7.5h10h15 q0 4 9 7.5t13 7.5q0 4 9.5 11t9.5 11q2 2 9 14.5t15.5 25.5t14.5 27.5t6 20.5q4 4 12 29t12 37q0 2 3.5 14t7.5 27.5t7 30t5 20.5q0 6 4 26.5t4 28.5q0 4 2 17.5t3 29t3 29.5t2 18q2 6 5.5 36t5.5 65t3 64.5t1 35.5t2 21.5t3 31t3 28.5t2 20q0 4 4 16t8 14q0 2 4 15 q2 6 4 10l18.5 18.5t25 23.5t22.5 21.5t14 14.5l13 4q12 4 18 4h6h4q2 0 15 -4q4 -2 10 -4q2 -4 5 -11.5t7 -11.5v-63v-72q-2 -10 -4 -52t-4 -90t-3 -90t-1 -53v-133v-125q0 -8 1 -31.5t3 -50t4 -50t4 -34.5q0 -4 3 -26.5t6 -49t6.5 -49t3.5 -26.5t3 -19.5t3 -23.5 q0 -6 -4 -23q-2 -8 -2 -14q0 -2 -3.5 -14.5t-7.5 -16.5q18 -2 61.5 -4t90.5 -3t90 -3t59 -4q8 0 36 -3t42 -7q4 0 21.5 -4.5t21.5 -4.5q2 -4 11.5 -7t9.5 -5q4 -4 14 -12t10 -12v-23v-33q-2 -6 -4 -10l-4 -12q-4 -4 -13 -12.5t-20.5 -19.5t-22 -20.5t-16.5 -11.5 q-2 0 -10 -5t-10 -5q-6 -2 -10 -4q-6 -2 -15 -2q-6 0 -10 2l-8 4q-4 0 -17 8q-8 4 -14 10q-8 4 -25.5 8.5t-21.5 4.5h-266q0 -8 -2 -28.5t-3 -43t-3 -43t-2 -27.5q0 -6 -5.5 -19t-9.5 -17q0 6 -1 21t-2 30.5t-3 30t-4 20.5q-2 8 -2 20.5t-2 24.5q-2 14 -4 31h-19v-166 l-18 -21q0 2 -5 20.5t-5 24.5t-1 27t-3 43.5t-3.5 43t-1.5 28.5h-299z" />
<glyph unicode="Z" horiz-adv-x="1095" d="M473 -70q-8 0 -8 2q-4 4 -8 17.5t-4 17.5q0 2 -2 16.5t-3.5 32t-3.5 31.5t-2 21q0 4 -5 16t-9 14h-4h-6q0 -6 -4 -22.5t-4 -22.5q-4 0 -7.5 -9t-5.5 -13l-24 67h-29h-45q-10 0 -35.5 -4t-32.5 -8q-8 0 -32.5 -7t-32.5 -11q-6 -4 -24.5 -11.5t-38 -15.5t-38 -16.5 t-24.5 -12.5l-12 -6q-8 0 -13 2q-4 2 -6 4l-10 11q-2 2 -4 6t-2 12v2q0 2 2 4t4 6q0 6 7 24.5t11 20.5l557 553l19 35h-10h-9q-8 0 -23 -5t-24 -5q-12 -6 -44.5 -16.5t-69.5 -22.5t-70 -23.5t-45 -17.5q-8 -2 -29.5 -10t-29.5 -11q-4 0 -11 -6l-4 -4v-180l-22 14v152 q0 -4 -7.5 -20.5t-11.5 -20.5q0 -4 -3 -7t-5 -7q0 4 -5 7t-5 7q-4 0 -7 9t-7 13h-11h-12q-2 -2 -13.5 -5t-24.5 -7t-23.5 -7t-12.5 -3q-14 -8 -28 -10q-8 -2 -17 -4h-18h-17q-2 4 -11 12t-9 12v8v13q0 4 4 20q2 8 4 14q4 6 17.5 23.5t19.5 22.5q4 4 18.5 16t22.5 14 q6 4 24.5 14.5t20.5 10.5t12.5 2t21.5 3t20.5 3t11.5 2q4 0 16 4t16 8q6 2 33 12.5t56.5 21.5t56 20.5t32.5 9.5q18 6 53.5 18.5t72 24.5t67.5 22.5t39 14.5q2 0 20.5 4t40 8t43 9t31.5 9t30.5 10.5t24.5 6.5h21h24q4 -4 7.5 -8t3.5 -9v-10q0 -4 1 -8t1 -8t-1 -9.5t-1 -9.5 v-10q0 -2 -9.5 -20.5t-15.5 -24.5l-12 -16q-4 -6 -9.5 -13.5t-9.5 -11.5q-4 -6 -13 -16t-18.5 -21.5t-16.5 -20.5t-7 -11q-14 -14 -44 -45t-67.5 -71t-80.5 -83t-81 -82t-69 -70.5t-45 -46.5q6 0 23.5 2t37 3t37 3t25.5 2h43h45q4 0 18.5 -2t32 -3t33.5 -3t27 -2 q8 0 32.5 -4t32.5 -4q2 -2 17.5 -5t33 -7t31.5 -7.5t18 -3.5h5h6q-4 4 -6 11q-4 8 -5 12q-4 0 -12 14.5t-12 18.5t-9 11t-10 13l-12 17q-4 6 -18.5 20.5l-31.5 31.5t-32.5 30.5t-17.5 17.5q0 4 -5 12.5t-5 12.5t5 16t5 14q2 4 10 17.5t10 17.5q4 2 17.5 14.5t17.5 16.5t9 7 t10 7q6 4 12 10h33h36q4 0 11.5 -3t11.5 -7l55 -55q2 -6 11.5 -18.5t20.5 -25.5t19.5 -25.5t12.5 -18.5q14 -20 45 -65.5t62.5 -93.5t59 -88t33.5 -52q2 -4 8.5 -13.5t11.5 -21.5t10 -22.5t7 -12.5v-10v-12q-4 -4 -8 -16.5t-8 -16.5t-14.5 -15.5t-22.5 -23.5l-23.5 -23.5 l-15.5 -15.5q-6 -2 -14 -4q-16 -4 -21 -4h-12h-18q-10 4 -36 17.5t-53.5 26.5t-52 25.5t-32.5 16.5q-6 2 -22.5 9t-34 13.5t-35 12.5t-25.5 10q-2 0 -11.5 3t-21.5 7t-23.5 8.5t-17.5 6.5q-8 2 -22.5 5t-28.5 6t-26.5 5t-14.5 2q-4 2 -14.5 4t-22.5 4t-23.5 3t-13.5 1 q-8 0 -25.5 -1t-21.5 -1v-166z" />
<glyph unicode="[" horiz-adv-x="425" d="M162 -25v-53h-6l-17 43l-6 4q-2 0 -2 -1t-2 -1q-2 -2 -4 -2q-4 0 -16.5 -3t-14.5 -3h-12h-10l-6 6q-8 8 -9 10q0 2 -3 10.5t-3 10.5v96v94q0 6 1 31t2 52.5t2 51t1 29.5v23.5t1 48.5t1 54.5v45.5v33t-1 51.5t-1 50v33.5q0 8 -3 33t-3 35q-2 6 -4 14q-2 6 -2 12.5v10.5 q-4 4 -7 14t-3 14q0 2 -4 12.5t-7.5 21.5t-6.5 21.5t-3 12.5v14v13q0 4 6.5 16t8.5 14q4 4 14 15.5t14 15.5q2 4 11.5 8t13.5 4q0 4 8 7t12 3h4h3q6 -2 30.5 -5t52 -7t51 -7t29.5 -3t19.5 -2t29 -3t28.5 -2t18 -1q2 0 6 -4q2 -2 4 -2v-4v-7q-4 -2 -5 -10t-5 -10 q0 -4 -4.5 -11.5t-8.5 -11.5l-30 -30q-2 0 -14.5 -6.5t-16.5 -6.5q-2 -2 -13.5 -5t-13.5 -3h-12h-10q-4 0 -14.5 1t-23.5 2t-24.5 3t-13.5 2h-6v-8q0 -4 3 -29.5t3 -29.5q0 -8 2 -23.5t3 -33t2 -31t1 -17.5v-94v-104q0 -6 -1 -30t-3 -51.5t-3 -50t-1 -28.5v-133v-129 q6 2 18.5 6t26.5 8t26.5 7t16.5 3t18.5 3t18.5 3q10 4 29.5 5.5t23.5 1.5q2 0 11.5 2t15.5 2q4 0 13 -2t11 -2q6 0 6 -7q0 -2 3 -4q0 -2 1 -5t1 -5q0 -4 -2.5 -8t-2.5 -8q-2 -2 -2 -4q-2 -2 -2 -4t-2 -5q-2 -4 -7 -12t-7 -12q-4 0 -8 -6t-8 -6q0 -2 -8.5 -7.5t-12.5 -7.5 q-4 -4 -8 -7t-8 -3q-2 0 -13.5 -1t-24.5 -2t-25.5 -2t-16.5 -1t-18.5 -3t-18.5 -3q-2 -2 -7 -4t-5 -4v-258h-8l-17 251h-14z" />
<glyph unicode="\" horiz-adv-x="497" d="M14 885v20l6 6h13h12q2 0 13.5 -6t13.5 -8q4 -4 18 -17.5t19 -19.5q4 -4 8 -11t8 -11q2 -4 8 -15.5t6 -15.5q0 -2 3 -20.5t3 -22.5q4 -2 8.5 -17.5t8.5 -19.5q2 -4 14 -27.5t17 -29.5q4 -10 23.5 -47t42 -79t41.5 -80t24 -46q6 -14 25.5 -53t42 -83t43 -85t30.5 -60 q4 -8 10 -20.5t11.5 -25.5t10.5 -23.5t5 -12.5v-12v-16q0 -8 -8 -9h-11h-12q-2 2 -6 5l-8 4q-4 4 -11.5 8t-11.5 4q-4 4 -12 13t-8 11l-379 738q0 4 -5 17t-10 20q0 6 -4 14q-2 4 -2 8v25z" />
<glyph unicode="]" horiz-adv-x="382" d="M256 -20q-4 -4 -9 -8.5t-5 -8.5v-20q0 -4 -3 -19.5t-8 -17.5q0 -2 -2 -4h-2q-2 0 -2 4q-2 0 -4 8t-2 12q-2 8 -5 29.5t-3 30.5l-29 14q-6 4 -21.5 8t-17.5 8q-4 0 -21.5 3.5t-21.5 3.5q-8 2 -21 4t-16 2l-16 8v12v19q2 2 4 6l6 6q4 8 21.5 25.5l21.5 21.5q2 0 7.5 3 t7.5 3h96v8q-2 6 -6 31t-9.5 53.5t-9.5 54t-4 31.5q-2 8 -5 34t-3 30v86v86q0 4 3 26.5t5 32.5q0 2 2 11.5t4 21.5t4.5 23.5t2.5 17.5q4 4 5 15.5t5 15.5q0 6 5 22.5t11 34.5t12.5 35.5t8.5 23.5v7q-4 0 -8.5 1t-8.5 1q-4 -2 -21.5 -5.5t-21.5 -3.5q-10 0 -37.5 -3t-38.5 -3 l-6 -10v-168q0 -4 -3 -18.5t-3 -18.5l-10 21q0 8 -1 27.5t-2 41t-2 40t-1 24.5t-3 29.5t-5 31.5q0 -4 -3.5 -5t-3.5 -5q-2 -2 -4 -6q-2 -2 -2 -6v-2h-6h-4q0 2 -1 11t-5 13q-2 0 -17.5 3t-19.5 3q-6 2 -23.5 7.5t-21.5 7.5l-6 6v16v15q0 4 3 8t3 8l21.5 21.5t23.5 21.5 q4 2 8 5t8 3h15h22q2 -2 20.5 -5t22.5 -3h62h57q2 0 14.5 2t27.5 5t27.5 5t16.5 2h29h24q2 -2 4.5 -7t4.5 -7v-10v-13q-4 -10 -11.5 -32.5t-15.5 -48t-15.5 -49t-9.5 -31.5q0 -4 -3 -15.5t-7 -15.5q0 -4 -3 -18.5t-3 -18.5q-2 -4 -4 -21.5t-2 -21.5q0 -6 -1 -23.5t-1 -36 v-35v-22.5v-31.5v-38t1 -33.5t1 -17q0 -8 5 -39t11 -68t12.5 -68.5t8.5 -40.5q0 -6 3 -29.5t3 -27.5v-35v-30q0 -2 -3 -11.5t-3 -13.5q-2 -2 -11.5 -12.5t-13.5 -14.5q-2 -4 -10 -13t-10 -11v-154h-6l-17 142h-2h-4z" />
<glyph unicode="^" horiz-adv-x="479" d="M377 408q-4 4 -8 11t-9 11q-6 12 -17 35.5t-23.5 49.5t-23.5 48.5t-15 28.5q-2 4 -10.5 26.5t-10.5 32.5q-2 6 -6 18.5t-9 27t-9.5 26.5t-6.5 16l-6 -6q-2 -4 -12 -17.5t-21.5 -29.5t-21.5 -31.5t-12 -19.5q-2 0 -9.5 -9.5t-17.5 -21.5t-19.5 -24.5t-13.5 -18.5l-4 -4 q-2 -2 -4 -2q-4 -4 -14.5 -12t-14.5 -8q-2 -4 -10 -5.5t-10 -5.5h-12h-13q0 4 -3 5t-3 6v8v12q0 4 6 15.5t9 15.5q2 2 9 12t16 20.5t17.5 20.5t10.5 12q2 6 11 20.5t18.5 28t17.5 24.5t10 15t8 16.5t13.5 27t13.5 27.5t8 19q4 6 13.5 33t9.5 35q0 2 2 11.5t3 20.5t2 20t1 12 q0 4 3 19t3 17q4 4 5 8.5t5 8.5q2 2 7.5 10t7.5 10q0 4 6 8.5t6 8.5q4 0 12 6t12 8q2 2 4.5 2t4.5 2q2 0 4 2h12h12l6 -6q0 -8 1 -28.5t2.5 -44t2.5 -45t1 -29.5q0 -2 3 -20.5t7 -25.5q2 -12 7 -36.5t7 -28.5q0 -4 4 -15.5t8.5 -24.5t9.5 -27.5t7 -20.5q2 -4 7 -19.5 t7 -17.5q2 -6 8.5 -19.5t13.5 -27.5t13 -26.5t8 -16.5q2 -2 9.5 -13.5t14.5 -23.5t14 -23.5t9 -13.5l4 -8q2 -4 2 -6v-10v-13q0 -2 -2 -6l-4 -8q-4 -4 -8 -13.5t-8 -9.5q-2 -4 -14.5 -15t-16.5 -15q0 -4 -1 -13.5t-2 -21.5t-2 -23.5t-1 -15.5q-2 -2 -4 -6q-2 -2 -2 -6v-2 l-4 8q-2 4 -4 6q-4 8 -7.5 31.5t-3.5 27.5v-110l-12 -6q0 2 -3 14t-3 16t-2 17.5t-3 29t-2 29t-1 19.5z" />
<glyph unicode="_" horiz-adv-x="800" d="M526 31l-18 -74h-2h-6q-2 0 -6 4q-2 2 -5 2v76l-12 6l-10 1t-22.5 2t-25.5 2t-22 1q-18 2 -66 2h-100.5h-100.5t-67 -2q-4 4 -14 5t-14 5q-2 0 -4 2l-4 5q0 2 -3.5 7t-3.5 7q0 4 3.5 11t3.5 11q2 2 7 10.5t7 10.5q4 4 15.5 16.5t15.5 14.5q4 4 11 8t11 8q4 2 15.5 7 t15.5 7h14h13q4 -2 10 -8t6 -10h352q4 0 23.5 -4t29.5 -8q6 0 20.5 -3t28 -7.5t24.5 -7.5t16 -3q8 -4 25.5 -8t21.5 -8q6 -2 28.5 -14.5t28.5 -16.5q4 0 8 -4l8 -8q0 -2 3 -7.5t3 -7.5v-4v-6q-4 -4 -8 -15t-8 -11q-4 -8 -21.5 -25.5t-21.5 -22.5q-2 0 -10 -3t-10 -3h-11h-6 q-10 4 -37.5 18.5t-36.5 18.5q-4 4 -21 8t-24 9h-6h-10l-12 -232l-8 -20l-11 20v238z" />
<glyph unicode="`" horiz-adv-x="239" d="M111 330q0 4 1 21.5t2 37t2 36.5t1 21v21v16q0 2 -9.5 18.5t-13.5 26.5q-2 4 -10 18.5t-10 18.5q-4 4 -17.5 21.5t-19.5 27.5q-4 4 -11.5 16.5t-11.5 14.5t-6 6l-4 8l-4 9v18v19q0 2 3 7t3 7q4 4 21.5 23.5t23.5 23.5q4 0 8 3t9 3h12h14l4 -4q2 -2 6 -2q2 -6 11.5 -19.5 t20.5 -27.5t19.5 -26.5t12.5 -16.5t10 -12.5t6 -12.5q6 -10 16.5 -32.5t14.5 -24.5v-23v-20q-4 -4 -16.5 -23.5t-14.5 -23.5q-2 -2 -3 -12.5t-2 -22.5t-1 -23.5v-15.5q-4 -2 -5 -10t-5 -10q0 2 -3 10t-3 10q-2 8 -4 28.5t-4 24.5l-7 -16l-22 -301l-8 -14q0 6 -3 28.5 t-3 28.5v59v62z" />
<glyph unicode="a" horiz-adv-x="829" d="M285 -190q-2 6 -4 22t-3.5 33.5t-3.5 33t-4 21.5q0 10 -5 40t-5 38q-2 4 -10 7t-10 7q-4 0 -23.5 5.5t-23.5 5.5q-6 0 -16.5 3t-21 7t-18.5 7l-8 3q-4 0 -17.5 10t-17.5 15q-4 4 -11 12t-16.5 16t-17.5 15.5t-10 11.5l-4 8q-2 4 -4 7t-4 7q0 4 -4.5 16.5t-4.5 16.5v29v26 q0 4 9.5 29t11.5 37q0 2 10 20.5t14 24.5q4 4 11 16q4 6 8 15q8 8 26.5 27.5t39 39t37 35t20.5 19.5q2 2 11 8l19.5 13t20.5 13.5t14 10.5q2 2 12.5 7t20.5 10t20.5 10t16.5 7q4 2 24.5 10.5t30.5 10.5q4 4 16.5 7t14.5 3q8 2 23.5 7t29 8.5t24.5 6.5t13 3h14q15 0 33.5 1 t36.5 1h29h23.5t37 -1t36.5 -1h24q4 0 16 -10.5t16 -14.5l6 -6l5 -4l2 -8q0 -4 -1 -7t-1 -6q0 -4 -5.5 -21t-5.5 -22q0 -2 2 -16t5.5 -34.5t7.5 -40t8 -31.5q0 -4 3 -17.5t6 -29l6 -31t3 -21.5q2 -8 6.5 -22.5t8.5 -28.5t7 -26.5t3 -14.5q2 -4 10 -28.5t10 -36.5 q2 0 5.5 -8.5t7.5 -17.5t7 -18.5t5 -11.5q4 -10 11 -36.5t11 -30.5v-15v-18q-4 -4 -7 -16.5t-5 -14.5q-4 -6 -15 -18t-23.5 -24.5l-24 -24t-17.5 -13.5q-6 -4 -12 -6q-12 -4 -18 -4h-19h-16l-8 10q-4 4 -11.5 25.5t-11.5 30.5q-4 6 -9 21.5t-10.5 30.5t-9.5 29.5t-4 18.5 q-4 6 -9 23.5t-10 37t-10.5 37t-7.5 23.5l-10 14q-4 -6 -18.5 -19.5t-29.5 -27.5t-30.5 -27.5t-21.5 -17.5q-4 0 -16.5 -9t-14.5 -9q-12 -6 -36.5 -19.5t-28.5 -17.5q-6 -2 -20.5 -7.5t-31 -9.5t-31 -9t-18.5 -7q-4 -6 -6 -10q-4 -12 -4 -13q-4 0 -7 -4t-7 -4l-11 8 q-2 4 -8 13.5t-10 9.5v-197zM193 274q4 -2 6 -6t3 -7t3 -5q0 -4 10 -13.5t14 -9.5q4 -4 16.5 -14t14.5 -10q12 -2 37 -11.5t29 -9.5h80h75q4 0 12.5 4.5t12.5 8.5q8 4 24.5 21.5t16.5 21.5q4 2 12 27.5t12 39.5q2 6 7.5 26.5t5.5 29.5v43v45q-4 4 -11.5 7t-11.5 3h-45h-43 q-4 0 -12 -2t-17 -4q-8 -2 -18 -4q-6 -6 -9 -26.5t1 -29.5l-23 41q-4 -8 -7 -32.5t-7 -32.5q0 -2 -5 -10.5t-5 -10.5q-2 0 -5.5 4t-3.5 9q-4 6 -8 31.5t-4 31.5h-10h-14q-4 0 -29 -13.5t-37 -17.5q-2 -4 -14.5 -12t-16.5 -12q-4 -2 -14 -10.5t-10 -10.5q-2 -4 -7 -12t-5 -12 v-29v-27z" />
<glyph unicode="b" horiz-adv-x="706" d="M354 -53q0 -8 -4 -28.5t-7 -42t-7 -41t-4 -28.5q0 -8 -6.5 -28.5t-6.5 -26.5q-4 4 -7 16.5t-3 16.5q0 10 1 33.5t1 50.5t1 50.5t1 31.5q2 4 -3 7t-9 9l-18 10q-8 4 -19.5 13.5t-15.5 11.5q-4 6 -16.5 21.5t-27 33t-26.5 32.5t-16 24q-6 4 -20.5 26.5t-20.5 32.5l-8 18 q-2 6 -2 19.5v28t-1 28t-4 17.5l-114 721q0 6 -7.5 28.5t-7.5 26.5q0 2 1.5 15t1.5 22q0 4 1 9t1 9q0 6 2 12q0 4 10 20.5t14 22.5q2 2 10.5 9.5t18.5 15.5t18 15.5t13 11.5q4 0 22.5 7t22.5 7t7 3t5 1q2 0 6 -4l2 -2q2 0 6 -3t8 -7l11 -11q4 -27 14 -92t20.5 -139 t20.5 -139.5t14 -91.5q0 -4 3 -16.5t3 -16.5q6 0 9 2l4 4q2 4 9 14.5t15.5 20.5t16.5 19t12 14q2 2 16.5 14t32 25.5t33.5 26.5t25 20q2 4 15 11t17 11q6 2 25.5 8t21.5 11q4 4 17.5 4h17.5q6 -2 12 -2h19q6 -2 19.5 -3.5t17.5 -1.5q6 0 12 -2q4 -2 9 -4t9 -4q4 -4 11.5 -8 t11.5 -6q4 -4 14.5 -18.5t14.5 -18.5t10 -16.5t10 -16.5q0 -4 7.5 -26.5t7.5 -30.5q4 -4 5 -21.5t5 -25.5q2 -12 3 -37t1 -29q0 -2 -1 -15t-2 -30.5t-3 -36t-2 -28.5t-2 -27.5t-4.5 -35t-4.5 -31t-2 -15.5t-2 -12t-4 -22.5t-5 -26t-5 -19.5q0 -6 -7 -25.5t-11 -27.5 q0 -4 -4.5 -16.5t-9.5 -26.5t-9 -25.5t-4 -15.5q-4 -8 -8 -20l-6 -13q-4 -8 -14.5 -24.5t-20.5 -32.5t-19.5 -30.5t-11.5 -16.5q0 -8 -16.5 -22.5t-22.5 -22.5q-2 -4 -15.5 -15.5t-17.5 -11.5q-6 -4 -17 -11t-23.5 -15.5t-24.5 -14.5t-19 -8q-2 -14 -6 -46t-8 -66.5 t-8 -64.5t-6 -42q-4 -6 -9.5 -31.5t-9.5 -36.5q0 -4 -6 -16t-6 -14q-4 8 -7 28.5t-3 28.5q2 14 5 49t7 75t7 76t3 50zM303 340q0 -4 2 -20.5t6 -20.5v-10t2 -10q2 -8 4 -13l109 -133q2 -2 4 -2h4h6q2 2 6 4q6 6 7 8q2 -2 5 7.5t7 9.5q0 2 4 14t8 26.5l8 29t7 20.5 q6 6 12 27.5t8 25.5q0 2 3 20.5t7 42t7 46t6 34.5v11q0 2 1 5t1 7v30.5v43v40v21.5q0 8 -2 17q-4 12 -9 22q0 4 -4 18.5t-2 18.5q0 4 -4 12q-2 4 -2 8q-10 12 -24.5 32t-18.5 20h-10q-4 0 -9.5 1t-7.5 1h-16q-6 0 -12 2q-4 -6 -10 -13q-12 -12 -15 -16q0 -4 -2 -7t-4 -7 q-4 -4 -6 -8q-4 -8 -14.5 -28t-14.5 -26l-6 -18l-4 -12q-4 -6 -5 -15.5t-5 -17.5q-4 -10 -6 -21q0 -2 -2.5 -16t-3.5 -32.5t-3 -37t-2 -30.5q0 -4 -2 -19.5t-3 -34t-3 -35t-2 -22.5z" />
<glyph unicode="c" horiz-adv-x="761" d="M545 -37h-29q0 -4 -1 -15t-3 -25.5t-3 -28t-1 -19.5q-2 -4 -4 -13t-4 -20q-2 -10 -4 -22h-11q-2 10 -4 18t-5 15.5t-5 11.5q0 6 -2 21.5t-3 33t-3 33.5t-2 22l-8 11q-8 4 -30 14t-26 10q-10 2 -35.5 14.5t-31.5 16.5q-2 2 -11.5 8t-19.5 13.5t-20.5 13.5t-14.5 10 q-6 4 -24.5 17.5t-20.5 17.5l-15 15t-23.5 22.5t-24 23t-17.5 15.5q-4 4 -18.5 26.5t-22.5 28.5q-4 4 -14 17.5t-10 17.5q-4 6 -11.5 22.5t-16.5 33.5t-17.5 32.5t-10.5 21.5q-2 2 -5 14.5t-7 16.5q0 4 -1 13.5t-3 19.5t-4 22v45v47q0 4 4 21.5t4 21.5q4 6 17.5 32t19.5 36 q0 4 9 16.5t9 16.5q8 8 33 32.5t35 32.5q4 2 17.5 10.5t17.5 10.5q4 4 14 10t20.5 11t18.5 9.5t10 4.5q8 2 25.5 7t21.5 5h56h55q2 0 20.5 -5t24.5 -7q4 -2 14.5 -5.5t20.5 -6.5t19.5 -5t11.5 -2q6 -4 22.5 -12t22.5 -12q8 -8 32.5 -23.5t32.5 -23.5q2 -2 27.5 -22.5 t40.5 -33.5l8 -8q8 -8 21.5 -25.5t13.5 -21.5t3 -10t7 -13q4 -8 10 -16v-18v-19q0 -4 -9 -21.5t-11 -21.5t-10.5 -12t-17.5 -17.5t-17 -16.5t-10 -9q-4 -4 -20.5 -11.5t-23.5 -11.5h-12h-10q-8 0 -21 4q-8 2 -12 7q-8 2 -15 10t-7 10q-4 8 -4 23.5t4 23.5q-4 2 -13.5 11.5 t-19.5 20.5t-20.5 19.5t-16.5 12.5q-4 4 -28.5 21.5t-36.5 25.5q-6 4 -22.5 12t-23.5 12h-4h-6q0 -12 -4 -37.5t-4 -33.5q-4 -2 -6 -4t-4 -2t-2 -3l-6 -4q-4 0 -5 2v2q-4 0 -7 10.5t-7 14.5q0 2 -2 13.5t-3 23.5t-3 22.5t-2 14.5q-6 2 -31.5 7t-36.5 5h-6h-2q-4 0 -21.5 -5 t-25.5 -7v-47v-52q0 -8 5 -23t7 -24l56 -110q4 -2 12 -14.5t12 -16.5q8 -10 27.5 -29.5l41 -41l40 -40l24.5 -24.5q2 0 10.5 -6t18.5 -14.5t20.5 -15.5t14.5 -9q8 -4 32.5 -16.5t32.5 -14.5q6 0 19.5 -5t17.5 -5h19v10q0 2 -5.5 10.5t-5.5 10.5v24v23q0 4 5.5 16t5.5 16 q2 2 12 11.5t20.5 19.5t20.5 20.5t16 14.5q4 2 11.5 5t11.5 7h18h25q2 0 5 -5t7 -7q2 -4 8 -16.5t13.5 -26.5t13.5 -27.5t8 -19.5q2 -2 7 -14.5t5 -16.5v-43v-37q0 -2 -5 -14t-7 -16q0 -4 -2 -7.5t-4 -7.5q-2 -6 -4 -10q-4 -2 -16.5 -20.5t-16.5 -24.5q-4 0 -7 -5t-5 -5 q-4 -6 -21.5 -18.5t-21.5 -12.5q-4 -4 -11.5 -7t-11.5 -7q-6 0 -26.5 -9.5t-28.5 -13.5q0 -12 -1 -45t-3 -69.5t-5 -69.5t-5 -45q0 -4 -3.5 -21.5t-7.5 -25.5l-8 -9l-18 21v264z" />
<glyph unicode="d" horiz-adv-x="854" d="M311 -10q-6 0 -21.5 3t-30.5 7t-29.5 7t-18.5 3t-17.5 5t-17.5 5q-6 4 -22.5 14.5t-22.5 10.5q-4 2 -16.5 10t-14.5 11q-4 8 -21.5 23t-25.5 24q-6 4 -10 12q-8 12 -8 20q-4 4 -9.5 14.5t-11.5 20.5t-10 19.5t-6 11.5q0 6 -4 26.5t-4 28.5v27v29q0 6 4 26.5t4 28.5 q4 6 7 19.5t5 17.5q4 6 17.5 31.5t17.5 31.5q2 4 10 17.5t11 13.5q4 6 15 17.5t23.5 23.5t23.5 22.5t17 16.5q4 8 20.5 19t20.5 11q2 4 14.5 10.5t27 13.5t27.5 13.5t19 10.5q4 0 17.5 4t19.5 4q4 2 11.5 4t13.5 6q8 4 16 6h82h84q2 0 12.5 -2t22.5 -4t21.5 -5t13.5 -5 q4 0 16 3t14 3v326q0 8 5.5 33.5t5.5 37.5q4 6 12 21.5t12 17.5q2 8 24.5 28.5t31.5 26.5q0 4 9 8.5t11 8.5q4 0 21 4q8 2 14 4q2 0 11 -3t9 -5q0 -20 2 -74.5t3.5 -115t3.5 -115t2 -74.5q2 -10 4 -35.5t3 -53.5t3 -52.5t4 -32.5q0 -10 3 -37t7 -59.5t7 -62.5t5 -44 q0 -12 4.5 -36.5t4.5 -28.5t10 -16.5t14 -16.5q0 -4 5 -16.5t5 -14.5q2 -12 7.5 -37.5t5.5 -34.5v-45v-41q0 -4 -5 -16t-8 -16q0 -4 -10 -16.5t-14 -14.5q0 -8 -14.5 -21.5t-16.5 -15.5q-6 -4 -14 -10q-16 -12 -21 -15q-2 0 -10 -5t-10 -5h-10h-15q-2 0 -10 4q-4 2 -8 6 t-7 16.5t-5 20.5q0 4 -5.5 21.5t-5.5 21.5q-2 4 -5 20.5t-7 35t-7 35t-5 20.5q0 2 -4 10t-4 10q-4 -2 -17.5 -19t-19.5 -19q-8 -12 -22.5 -34t-18.5 -22q-4 -4 -12.5 -14t-12.5 -10q-2 -4 -20.5 -16.5t-24.5 -14.5q-4 -4 -16.5 -14.5t-14.5 -10.5l-16 -8t-25.5 -13 t-24.5 -14.5t-13 -11.5t-4.5 -16t-3.5 -26.5t-2 -27t-1 -16.5t-4 -12t-4 -12q-4 4 -8 12t-4 12q-4 8 -10.5 33t-6.5 33v-258h-10q-4 0 -8 2q-2 0 -5 10t-3 14q-4 8 -8 33t-4 33q0 10 -2.5 33.5t-3.5 50t-3 49.5t-2 33zM164 342q4 -6 17.5 -31.5t19.5 -31.5q4 -8 28.5 -33 t36.5 -35q2 0 18.5 -8t26.5 -10q4 -4 16.5 -10.5t14.5 -6.5h61h50q4 0 21.5 10.5t25.5 14.5l11 11t7 11q2 2 9.5 14.5t13.5 25.5t12 27.5t10 20.5q0 4 5 16.5t5 14.5q2 8 7.5 23.5t8.5 29t6 24.5t3 13q0 6 1 25.5t1 23.5q-6 0 -32.5 3t-35.5 3q-4 0 -16 4.5t-27.5 7.5t-29 6 t-15.5 3q-4 0 -21 3t-26 3q-6 0 -22.5 -3t-22.5 -3q0 -2 -3 -14.5t-7 -16.5h-2h-6q-4 4 -8 11.5t-4 11.5l-7 6q-2 2 -4 2q-4 0 -16 3t-21 3q-6 0 -17 -3t-15 -3t-18.5 -7t-22.5 -14q-4 0 -12.5 -8t-12.5 -10q-4 -8 -6 -14t-6 -11v-55v-47z" />
<glyph unicode="e" horiz-adv-x="849" d="M479 -61q0 -8 -5 -38t-9 -40l-10 -19l-19 11v131q-4 2 -17 5t-27.5 7t-28 7t-19.5 5q-4 0 -13 3t-19.5 7.5t-20.5 7.5t-15 5q-4 0 -19 7t-24 11q-2 4 -14 12.5t-16 12.5q-6 6 -24.5 18t-20.5 12q-4 6 -21.5 24.5t-25.5 21.5q0 4 -13.5 20t-19.5 27q-4 4 -11.5 16 t-11.5 16q-2 4 -7 13.5t-9 20.5t-9 20.5t-7 11.5q-4 6 -11.5 31.5t-11.5 35.5q0 6 -4 32t-4 32v55v56q0 4 4 26.5t4 28.5q4 12 11 37.5t12 34.5q2 0 7 8t9 18t9 20.5t7 16.5q4 4 11.5 16.5t11.5 14.5q6 8 19.5 25.5t13.5 21.5q4 4 17 16.5t19 16.5q0 4 16.5 16t24.5 14 l33 25q10 4 36 16.5t32 14.5q4 0 17 6t18 10q10 0 25.5 4t19.5 4h59h61q2 0 28 -4t40 -4q6 -4 28.5 -10t26.5 -6q6 0 32 -9.5t32 -11.5q4 -2 16.5 -8t26.5 -12t27.5 -13.5t19.5 -9.5q6 -4 18.5 -11t12.5 -11q6 -6 24.5 -22.5t20.5 -22.5q4 -4 14 -21.5t10 -21.5v-31v-37 q-2 -6 -4 -14q-2 -6 -5 -11.5t-5 -9.5q0 -2 -3 -10t-7 -10q-2 -4 -14.5 -21.5t-16.5 -21.5t-16.5 -18.5t-16.5 -18.5q-8 -4 -25.5 -16.5t-21.5 -14.5q0 -2 -8 -7t-18.5 -10t-20.5 -10.5t-16 -7.5q-4 0 -17.5 -4t-19.5 -4q-8 -4 -22.5 -8t-18.5 -4q-6 0 -22.5 -2t-35 -3 t-34 -3t-19.5 -2h-55h-55q-6 0 -30 2t-50.5 3t-49 3t-26.5 2h-18h-17q0 -4 5 -17.5t5 -17.5q4 -6 16.5 -31.5t16.5 -32.5q4 -8 13.5 -20t9.5 -16q6 -4 18 -16.5t26.5 -27t28 -26.5t19.5 -16q0 -4 13 -12.5t20 -12.5q8 -4 32.5 -16.5t32.5 -14.5q2 0 14.5 -5t16.5 -5 q10 -4 36.5 -7t33.5 -7h30h35q6 4 22.5 7t22.5 7l10 10v131q2 6 4 15q2 6 4.5 11l4.5 9q2 2 2 4q0 4 2 6q2 4 4 11l55 55q4 4 21.5 12t25.5 13h8h11q4 -4 14 -12.5t10 -12.5q2 -2 5 -24.5t8 -30.5v-37v-39q-4 -8 -7.5 -28.5t-5.5 -26.5q0 -2 -4 -11.5t-9 -19.5t-11 -20.5 t-11 -14.5q-2 -6 -10 -19.5t-10 -13.5q-4 -4 -15.5 -15t-23.5 -23.5t-23.5 -23.5t-17.5 -16q0 -4 -12 -12t-19 -12q-4 -2 -21.5 -10.5t-21.5 -10.5q-8 0 -29.5 -10t-25.5 -14q-4 0 -11 -5t-11 -5q0 -12 -1.5 -43t-3.5 -67t-5 -67.5t-5 -44.5q0 -6 -3 -26.5t-7 -28.5 q0 -2 -4 -10t-4 -10q-4 6 -8.5 26.5t-4.5 28.5q0 12 -2 40t-3 59.5t-3 59.5t-2 38zM166 653q4 0 18.5 -1t30.5 -2t31.5 -2t21.5 -1l17 -4q8 -2 14 -4q14 -4 48 -8t44 -4h148h106l41 12q-4 6 -24.5 26.5t-30.5 28.5q-2 2 -12.5 8.5t-24.5 13.5t-27.5 13t-21.5 8q-2 0 -11.5 3 t-20.5 7.5t-20.5 7.5t-13.5 3q-10 4 -30.5 10t-24.5 6h-82h-84q-6 -4 -22.5 -14t-22.5 -10l-6 -7q-2 -2 -2 -4t-2 -2q-4 -4 -12.5 -21.5t-12.5 -21.5q-2 -4 -5 -16t-7 -14v-11z" />
<glyph unicode="f" horiz-adv-x="565" d="M10 584q0 10 2 14q0 4 2 8q0 4 7.5 17.5t9.5 17.5v4q0 2 1 2t1 2v10q2 4 2 20.5t-1 35t-2 35t-1 20.5q4 14 4 48t4 44q0 6 2 15q2 6 2 12t2 10q2 6 4 22.5t2 20.5l3 10q3 9 7.5 21t7.5 23.5t3 17.5q4 2 11 18.5t9 22.5q0 4 7 16t12 14q4 4 14 19.5t14 21.5q4 4 15.5 16.5 t13.5 12.5q8 6 25.5 19.5t36 26.5t34 23.5t17.5 14.5q4 -2 30.5 5t40.5 11q6 4 18.5 4.5t16.5 0.5q2 0 20.5 -4.5t28.5 -4.5q10 -4 28.5 -6t22.5 -2q2 0 9.5 -2t16.5 -5t17.5 -6t10.5 -7q8 -4 26.5 -15.5t24.5 -15.5l9 -9l16.5 -16.5t18.5 -17.5t13 -12q2 0 8.5 -10.5 t8.5 -12.5q2 -8 9 -23.5t7 -17.5v-6q0 -4 -1 -6t-1 -4t-1 -4t-1 -6v-9q-2 -4 -6 -8q-8 -8 -13 -8q-4 -4 -13 -15.5t-9 -15.5q-6 -2 -28.5 -15t-26.5 -15q-2 -4 -9.5 -22.5t-7.5 -23.5q-4 -4 -9 -11t-7 -11q-2 2 -4 6q-4 8 -2 12q0 6 -2 15q-4 14 -9 18q-6 6 -14 12 q-14 10 -20 21h-6h-9q-2 -6 -6 -21.5t-9 -33l-9 -31.5t-6 -19q0 -4 -2 -7t-5 -7q-4 -6 -6 -10l-12 29l27 147q-6 4 -11 10q-4 4 -7 9.5t-7 9.5q-2 0 -10 7t-10 7q-4 2 -15.5 9t-15.5 7q-2 0 -26.5 8.5t-37.5 12.5h-6h-2q-4 2 -13 -1t-13 -1q-2 -4 -7.5 -6t-5.5 -4 q-4 -4 -11 -19.5t-9 -19.5q0 -4 -5 -35t-10 -49q-2 -8 -4 -21.5t-4 -27.5q-4 -16 -6 -33v-68q4 -16 5 -50t5 -42l9 -12q2 0 6 -2q8 -4 10 -4l14 2q6 -2 24.5 -1t40 3t40 5t24.5 5q8 -4 22.5 -1t18.5 3h58h39.5t29.5 -4q8 -2 17 -2q6 -2 13 -2h11q6 -4 24.5 -6t20.5 -2 q6 0 6 -7v-6q0 -4 1 -11t1 -11t-2 -7t-4 -8l-4 -8q0 -2 -6 -9t-8 -9q-4 -6 -14.5 -14.5t-21.5 -16.5t-22.5 -15t-13.5 -7q-8 -4 -27.5 -10.5t-23.5 -6.5t-19.5 2t-35 4t-35.5 4t-21 2q-2 0 -23.5 -2t-33.5 0q-6 0 -22.5 -3t-22.5 1q-4 -4 -16.5 -5t-16.5 -5l-12 -8 q0 -8 3 -24.5t7 -35t7 -35t3 -22.5q2 -8 8.5 -33.5t13.5 -56.5t14 -58.5t12 -39.5q2 -6 8 -27.5t13 -46t12 -47.5t10 -33l-3 -12q-2 -4 -2 -12v-7q-4 -4 -15 -19t-15 -24q-4 -4 -25.5 -17t-28.5 -17q-4 2 -23.5 -5.5t-23.5 -7.5q-2 2 -10 3t-16 6h-19q-2 0 -8 11t-8 13 q-2 4 -4 10t-2 17q-4 2 -4 15t-4 18q-2 10 -11.5 50t-19.5 86t-19.5 85t-13.5 49q0 8 -5 33.5t-12 55.5t-13.5 55.5t-6.5 31.5q-2 2 -3 11t-5 9l-12 9q-4 4 -10.5 6t-8.5 4q-2 4 -5 7t-3 7q0 2 2 6q0 4 1 6.5t1 6.5z" />
<glyph unicode="g" horiz-adv-x="774" d="M467 -393q-2 0 -15.5 7t-21.5 7q-6 -2 -10 -4q-8 -4 -8 -10h-9h-4q0 4 -10 14t-14 10q0 2 -19.5 8.5t-25.5 12.5q-4 0 -14.5 6t-14.5 10q-4 2 -15.5 9.5t-21.5 14.5t-18 13t-8 8q-4 4 -16.5 19.5t-27 34t-25.5 35l-15 22.5q-2 8 -14.5 39t-16.5 45q-2 6 -5 19.5t-6 26.5 t-5.5 23.5t-2.5 12.5v12q0 10 5 18q0 8 3 21.5t3 15.5l4 9q4 8 8 8q2 2 12.5 9t22.5 14t21.5 13.5t13.5 8.5q0 4 14 11t16 7q2 4 4 6l7 7q-8 0 -30 10t-30 14q-6 10 -29.5 28.5t-31.5 20.5q-12 10 -21 21q-16 16 -28 32q-2 2 -5 7q-2 4 -2 12q-6 6 -19 28.5t-17 26.5 q-2 6 -11.5 26.5t-9.5 29.5q-4 6 -10 32.5t-6 34.5q0 6 -1 22.5t-1 20.5l2 12q2 13 5 28t6 30.5t5 23.5q0 18 4 47t4 33t12.5 24.5t18.5 30.5q8 8 23.5 33t23.5 35l14.5 14.5t12.5 14.5q6 6 23.5 17t36 23.5t32.5 24t18 15.5q4 2 31 15t43 21h10q4 0 7.5 1.5t7.5 1.5 q8 0 31.5 8t27.5 8q6 2 24.5 1t20.5 1h21.5t32 -1t30.5 -1h18q0 10 10.5 37.5t14.5 36.5q2 2 5 14t7 16q0 4 10.5 14.5t14.5 12.5q0 4 13.5 11t17.5 7q4 2 12 7.5t16 9.5q8 6 17 12h28q2 0 7.5 -2t9.5 -4q6 -4 10 -6l4 -4l6 -6q10 -10 6 -25q0 -8 3.5 -32.5t6.5 -53.5 t4 -55.5t-1 -36.5q0 -6 1 -22.5t2 -35t2 -36t1 -23.5q2 -14 1 -44t-1 -32q0 -16 -4 -56t-9.5 -84t-11.5 -83t-10 -53q0 -8 5 -23.5t5 -23.5q-2 -6 0 -26.5t6 -45.5t7.5 -45.5t5.5 -26.5q2 -4 3 -15t2 -24.5t2 -25.5t1 -19q2 -8 5 -27.5t5 -42t4 -42t2 -25.5q-4 -10 -2 -30.5 t2 -24.5t-5 -37t-5 -49q0 -12 -9 -45t-9 -45q0 -2 -5.5 -14.5t-9.5 -12.5q-8 -8 -18 -25.5t-12 -21.5q-4 -2 -12.5 -11t-12.5 -9q-2 -4 -11.5 -12.5t-20.5 -16.5t-22.5 -15.5t-13.5 -9.5q0 -2 -13 -5t-21 -7q-2 -4 -25 -14.5t-31 -12.5q-4 -6 -10 -23.5t-12 -35.5 t-10.5 -34.5t-4.5 -22.5q0 -4 -4 -16.5t-8 -14.5h-6h-2q0 2 -1 11t-2 20.5t0 19.5t5 12q-2 10 -1 31t1 29zM274 129q2 -6 9.5 -25.5t14.5 -42t13 -43t6 -28.5q0 -6 5.5 -16.5t11.5 -21.5t12 -21.5t10 -14.5q0 -6 16.5 -29.5t26.5 -33.5q4 -4 16.5 -12.5t14.5 -16.5 q4 -4 10 -8q8 -6 19 -6q4 -4 18.5 -11.5t18.5 -7.5q4 -2 10 -2q6 -2 16 -2q4 -4 14.5 -5t14.5 -1l8 4q10 4 10 6q4 4 11.5 21.5t7.5 21.5q0 10 -2 25.5t-2 19.5q8 8 8 33t-4 33q-2 4 -4 22.5t-3 41t-1 43t4 30.5q-2 4 -5.5 15.5t-5.5 24.5t-2 25.5t4 18.5q0 4 -2 9t-4 9 l-4 13q-2 0 -4 2l-4 4l-6 -6q-4 -4 -20.5 -11.5t-35 -14.5t-34 -14t-21.5 -10q-4 -4 -13 -5t-9 -5q-4 4 -16.5 2t-16.5 -2q-8 0 -25.5 -3t-21.5 -3q-6 -2 -32 -2h-32zM178 676q0 -8 -4 -25q-2 -8 -2 -16q-2 -6 -1 -28.5t1 -26.5q4 -4 7 -30t3 -40q4 -4 7.5 -13.5t7.5 -9.5 q4 -8 8 -20q2 -8 4 -12t10 -15.5t17.5 -25t18.5 -25.5t15 -18q4 0 13.5 -9.5t9.5 -11.5q6 0 20.5 -10t22.5 -18q2 0 14 -9.5t17 -9.5h22q10 0 19.5 -2t13.5 -4q6 -2 26.5 -5t28.5 -3l8 8q4 4 8.5 17.5t10.5 19.5q6 4 9 10t5 12q2 8 4 15v24v19q2 14 2 48t-2 69.5t-5 68.5 t-7 45q-2 6 -3 22.5l-2 33l-2 33t-1 22.5q0 2 -5 10t-5 10q-4 0 -15.5 9.5t-17.5 9.5q-8 8 -22.5 12t-18.5 6q-14 0 -19 6l-55 -313h-14q-2 0 -2 9v21.5t1 25.5t1 22l7 49t10 73.5t9 73.5t6 49l-18 -16l-25 -119l-20 -12v27q0 6 1 22.5t2 33.5t2 32.5t3 21.5h-8l-6 4 q-4 0 -23.5 -7t-23.5 -11q-2 0 -19 -10q-2 -6 -12 -19.5t-14 -19.5q0 -4 -6.5 -19.5t-6.5 -17.5q0 -4 -5 -18.5t-5 -24.5z" />
<glyph unicode="h" horiz-adv-x="706" d="M-8 1264q2 4 4 10q4 12 4 14q4 4 13.5 16.5t9.5 14.5q4 4 16 17.5t16 17.5q4 2 18.5 11t18.5 9q0 4 12.5 8t18.5 9h6h4l25 -25q2 -4 5 -11t3 -12q4 -6 8 -31.5t4 -31.5q0 -8 1 -48t2 -98.5t2 -124t2 -123t2 -98t1 -47.5q6 2 16.5 11.5t23 20.5t23.5 19.5t17 12.5 q2 4 14.5 12t16.5 12q4 0 12 5.5t13 5.5q4 0 9 2t9 4q6 2 12 6h43h37l45 -23q8 -6 28.5 -26.5t27.5 -28.5q4 -4 16 -25.5t14 -29.5q2 -4 7.5 -14.5t10.5 -22.5t10 -24.5t7 -18.5q0 -4 5 -16.5t10.5 -27.5t9.5 -31.5t6 -24.5q2 -4 6 -14.5t8 -21.5t7 -21.5t3 -16.5 q0 -8 8.5 -40t17.5 -67.5t18.5 -67.5t11.5 -38q0 -4 4 -14.5t7 -23.5t6 -24.5t3 -13.5q4 -8 7 -25.5t3 -21.5v-6v-2q0 -4 -7 -21.5t-11 -25.5q-4 -4 -11 -16.5t-12 -16.5q-2 -4 -4 -6q-4 -4 -10 -4q-4 -2 -16.5 -10.5t-14.5 -10.5q-10 -10 -24 -10q-2 -2 -6 -4t-13 -2 q-10 0 -14 2l-8 4q-2 0 -4 2t-5 3t-6 5q0 2 -5 10.5t-5 10.5q0 4 -4 17t-4 18q-4 10 -14.5 49t-20.5 84t-20 84t-13 49q-4 8 -12 37.5t-12 40.5q-2 6 -6 19t-9.5 28.5t-10.5 30t-5 20.5t-10 26.5t-14 28.5q0 2 -2 4q-4 4 -5 6q-2 4 -4 11q-2 4 -12 17t-14 17v-153 q-4 4 -9.5 25.5t-9.5 29.5q0 6 -2 24.5t-3 40t-3 40t-2 24.5q-2 4 -10 14.5t-10 10.5q-4 2 -12.5 7t-12.5 5q0 -4 -9 -11t-14 -11q-4 -10 -11 -37t-7 -33v-528q0 -4 -5 -21.5t-9 -26.5q0 -4 -9.5 -21t-13.5 -22q-4 -6 -25.5 -26.5t-29.5 -28.5q-4 -2 -16.5 -11t-16.5 -9h-29 h-26l-10 8l-5.5 11t-7.5 11q0 6 -4 22.5t-4 22.5q0 12 -5 45t-5 46q-2 12 -5 38.5t-5 56t-3 55.5t-1 36q0 12 -1.5 48t-2.5 84t-2 102.5t-2 102.5t-2 83t-1 47q0 4 -1 40t-2 86t-2 108.5t-2 109.5t-3 86t-2 39q-2 2 -2 4t-1 3t-1 3q-2 4 -4 10v29v27z" />
<glyph unicode="i" horiz-adv-x="237" d="M111 -209v189q-8 4 -23.5 12t-24.5 12q-2 6 -4 10q-4 8 -4 11q0 4 -5 26.5t-5 28.5q-2 6 -5 20.5t-5 29.5t-3 30.5t-1 21.5q-2 25 -5 69t-6.5 90t-6.5 83t-5 43v84v82q4 8 11.5 25.5t11.5 21.5l21.5 21.5t23.5 21.5q4 6 17 13t18 7q2 0 14 3.5t16 3.5q2 0 15 -5 q6 -2 10 -2l8 -20q2 -12 4 -46t3 -71t3 -69.5t2 -44.5t3.5 -47t7.5 -76t8 -78t6 -53q0 -4 2 -16.5t3 -26t3 -23.5t2 -12v-25v-20q0 -4 -5 -17.5t-5 -17.5q-4 -2 -14 -17q-6 -8 -11 -14q-4 -12 -12 -24q0 -16 -2 -60.5t-5 -93.5t-6 -92t-5 -62q0 -4 -5.5 -29.5t-9.5 -39.5 q0 -8 -5 -29.5t-5 -26.5q0 -4 -4 -16t-8 -14v221zM6 1223q0 2 1 5t1 5t2 4q2 8 15.5 22.5t15.5 18.5q2 0 11 5t20.5 12.5t21.5 13.5t17 8q4 2 12 2h12l12 -4q6 -2 17 -2q8 -4 14 -6q4 -2 10 -4q0 -10 2 -19q4 -20 7 -27q0 -4 1 -18t2 -30.5t3 -33t2 -24.5v-50t1 -62.5 t2 -55.5t3 -29q-2 -8 -4 -14l-6 -18q-2 -4 -2 -9.5t-2 -9.5q-2 -6 -4 -10q-6 -4 -12.5 -17.5t-10.5 -13.5q-4 -2 -17.5 -10t-28.5 -16.5t-29.5 -15.5t-20.5 -9q0 -4 -13.5 -4t-19.5 -4l-4 2h-6q-2 4 -10.5 11t-6.5 11q2 2 1 20.5t-1 20.5q-2 14 -3 44t-1 62v58.5v34.5 q0 4 -2 24.5t-4 44t-2 44v24.5t2 8q0 4 1 6.5t1 4.5z" />
<glyph unicode="j" horiz-adv-x="339" d="M88 -670q-8 4 -32.5 16.5t-32.5 14.5q-4 2 -12.5 8t-17.5 13.5t-16.5 13.5t-9.5 8q-4 4 -13 15.5t-19.5 23.5t-20.5 23.5t-16 15.5q0 4 -9.5 16.5t-13.5 20.5l-8 18v14v11q2 6 10 23.5t10 21.5q4 4 24.5 26.5t31.5 28.5q4 0 12 5t12 5h29h27l10 -10q0 -4 8 -13 t17.5 -21.5t18.5 -23t11 -12.5q2 -4 12.5 -13t20.5 -19.5t19.5 -19.5t11.5 -13q4 -2 11 -5t11 -3h8q0 6 3 31.5t3 31.5q-4 8 -7 33t-7 33q-2 8 -6 28.5t-9 42t-10.5 40t-5.5 24.5q-2 8 -12 40t-21.5 68.5t-20.5 69.5t-11 43q-2 4 -7 21.5t-10.5 39t-10.5 41t-9 29.5 q0 4 -3 26.5t-5 28.5q-4 14 -7 41t-3 31l-1 14q-2 15 -3 34.5l-2 39t-1 31.5t1 31.5t2 38t2.5 34t1.5 17.5t3 22.5t7 32.5q0 6 4 27q2 8 4 18q4 6 11 20.5t14.5 28t13.5 24.5t8 13q4 2 13.5 12.5t19.5 20.5t18 21.5t13 17.5q4 0 21 9t26 11h2h10q0 -2 9 -5t9 -7t3.5 -14.5 t3.5 -12.5q0 -4 -5 -16q-2 -6 -2 -12q0 -2 -3 -10.5t-6 -17.5t-6 -17.5t-3 -10.5q-4 -8 -8 -20q-2 -8 -4 -12q-4 -10 -7.5 -40t-3.5 -38l-4 -25q-2 -10 -2 -20v-17v-13t2 -19l4 -25q0 -6 1 -20.5t2.5 -30t3.5 -30.5t4 -21q0 -4 4 -25.5t8 -30.5q2 -10 7 -29.5t9 -41t9.5 -40 t7.5 -24.5q2 -10 12 -49t23.5 -84t25.5 -84t17 -49q0 -8 9 -40t9 -46q4 -12 9 -32.5t5 -22.5v-99v-102q0 -2 -5 -14.5t-9 -16.5q0 -4 -5 -12t-5 -12q-2 -6 -10.5 -18.5t-10.5 -12.5q-4 -4 -13 -13.5t-19.5 -21.5t-19.5 -22.5t-13 -12.5q-6 -4 -22.5 -16t-22.5 -14 q0 -6 -2 -20.5t-3 -30t-3.5 -31t-2.5 -21.5q-4 -4 -7 -11t-7 -7q-2 -4 -4 -4t-4 -2t-4 -2v104h-19q0 -4 -2 -18.5t-3 -30t-3 -29.5t-2 -18q-4 -6 -7 -17.5t-7 -19.5l-10 -8q-2 2 -5.5 14t-7.5 16q0 6 -1 24.5t-3 38t-3 38t-1 24.5zM8 1407q0 4 4 16l4 13l5.5 11t9.5 11 q4 4 14 13.5t21.5 18.5t20.5 16t11 10q4 4 18.5 7t20.5 3l13 -2q2 0 4 -1t6 -1h6q4 -6 10 -11q10 -10 14 -12q-2 -4 6.5 -17.5t8.5 -17.5q4 -6 11 -23.5t7 -23.5q4 -4 6 -16t7 -17q-2 -8 2 -25.5t4 -21.5v-15v-24.5v-28v-20.5q0 -4 1 -22.5t1 -40v-39v-21.5v-20v-28.5t1 -27 t1 -16.5q4 -2 6 -10t6 -8q0 -2 9 -8.5t12 -6.5l8 -10v-10q-2 -4 -2 -10v-4q0 -4 -5.5 -15.5t-5.5 -13.5q-4 -4 -19 -20.5t-22 -24.5l-10 -6q-4 -4 -16 -11.5t-17 -11.5q-6 -2 -14 -5t-12 -3q-2 -2 -14.5 -5t-16.5 -3h-8h-6q-4 0 -11.5 6t-11.5 8q-4 0 -10 10q-4 4 -6 11 q-4 4 -5 17t-5 22q0 6 -3.5 27.5t-3.5 27.5v231q0 6 -3 27.5t-3 30.5q-4 4 -5 16t-5 16q0 8 -8 24.5t-10 25.5q0 2 -8.5 15t-8.5 17q-2 4 -2 11q-2 6 -2 16z" />
<glyph unicode="k" horiz-adv-x="645" d="M35 301q-4 0 -13.5 6t-5.5 10q-4 0 -12 9q-4 4 -6 10v8l2 4q0 2 5 12.5t12.5 21.5t13.5 20l6 10q0 4 -2 17t-4 28.5t-3 29t1 15.5q0 6 -1 29.5t-1 51v54.5t2 39v35.5t-4 31.5q4 8 6 23.5t3 29t1 24.5v14l2 14t6 32.5l8 37t10 28.5q0 6 3.5 22.5t6.5 33l6 33t3 22.5l10 18 q2 0 20.5 17.5t28.5 19.5q0 4 4 8q2 2 4 2q4 4 19.5 11.5t17.5 3.5q2 2 15 6q6 2 10 4h18q4 0 9 -4q2 -2 4 -2q4 -4 11 -14.5t7 -14.5q0 -8 -4 -29.5t-9 -45t-10.5 -45t-7.5 -29.5q0 -6 -1 -20.5t-2 -31t-3 -33t-2 -24.5v-22.5v-41t-2 -44t-4 -29.5q0 -8 3 -33t5 -33 q-4 -8 -4 -23.5t1 -30.5t2 -27l1 -13q-2 -8 -1 -21.5t1 -15.5l10 -10l45 22q14 6 35 20.5t41.5 28t37 24.5t22.5 16q4 4 10 13t12 20.5t11.5 20.5t7.5 11q2 0 12 6t23.5 14.5t26.5 15.5t20 9q0 4 12 8l12 4q4 0 11.5 -4t11.5 -4q8 -4 16 -4h10q4 0 10.5 -5t6.5 -9v-23 q-4 -4 -9 -12q-2 -4 -2 -6q-6 -6 -22.5 -29.5t-20.5 -34.5q-6 -6 -19 -17t-25.5 -22.5t-23.5 -21.5t-14 -12q-10 -6 -30.5 -21.5t-43 -31t-43 -30t-30.5 -16.5q4 0 18.5 -9t18.5 -9q2 0 14.5 -3t25.5 -8t24.5 -8.5t15.5 -3.5q10 -6 30.5 -12t24.5 -6q0 -2 11.5 -9 t26.5 -16.5t29.5 -17.5t24.5 -12q2 -6 21.5 -17.5t23.5 -15.5q4 -2 14.5 -10.5t21.5 -17.5t21.5 -17t16.5 -10q0 -4 14.5 -21.5t14.5 -26.5q6 -2 18 -19t8 -19q4 -4 7.5 -12.5t3.5 -12.5v-12q0 -4 -2.5 -6.5t-4.5 -6.5t-4 -6q-4 -4 -12 -17t-12 -18q-2 -2 -22.5 -17 t-35.5 -19q-4 -2 -21.5 -10.5t-21.5 -10.5q-4 -12 -12 -44t-17.5 -67.5t-17.5 -66.5t-12 -41q-4 -14 -12.5 -42t-12.5 -32q0 -2 -9 -11t-11 -9l57 303q-2 8 -10 16t-10 13q0 2 -1 16t-5 14q4 4 -3.5 14.5t-9.5 12.5q0 4 -12 12t-16 12l-9 -45q0 6 -6 32t-10 32q0 4 -4 9 t-4 9q-4 0 -11.5 6.5t-11.5 6.5q-4 4 -19 17t-24 17q-4 0 -12 5.5t-18.5 11.5t-18.5 12t-8 8q-4 0 -21.5 6.5t-25.5 6.5q-10 6 -30.5 16t-24.5 10t-16.5 -1t-16.5 -1v-10q2 -6 7 -23.5t10 -36t10.5 -36t9.5 -23.5q-4 -8 1 -35.5t5 -38.5v-6v-4q-4 -6 -20.5 -22.5 t-16.5 -20.5q-2 0 -13.5 -9t-25.5 -20.5t-26.5 -21.5t-14.5 -12q-4 -4 -6 -17.5t-5 -29t-5 -29.5t-6 -21l-15 -8l19 94q-4 2 -11 5q-4 2 -9 4t-9 2q-2 0 -5 -2t-7 -2q2 -6 1 -20.5t-3 -31t-3 -31t-1 -18.5q-2 -10 -2 -18v-25q0 -6 -9 -22q-4 -8 -8 -15q0 -4 -4 -16t-8 -14 q0 2 -4 10t-4 10q0 6 3 26.5t7 43t6 41t2 24.5q0 4 -1 29t-5 37q4 4 5 13t1 20v24q-2 4 -6 21.5t-9 38t-8.5 37t-5.5 20.5q0 8 2 16q0 6 3 15q-4 8 -8.5 28.5t-7.5 42t-5 40t-2 24.5z" />
<glyph unicode="l" horiz-adv-x="266" d="M49 86q0 4 10.5 21.5t14.5 21.5v104v107q-2 6 -5 33.5t-7.5 61.5t-7.5 67t-5 51q0 8 -5 38t-10 66.5t-9.5 72.5l-6.5 52q-4 12 -8 33t-7 42.5t-6 37.5t-3 20q0 2 -3 9.5t-7 15.5q-6 8 -11 18v13v8q0 4 4.5 17.5t4.5 17.5q4 14 12 26q4 8 10 19q6 8 26.5 28.5t28.5 26.5 q4 4 21.5 11.5t23.5 11.5h11h14q4 -4 11 -11.5t7 -11.5q4 0 7.5 -22.5t5.5 -32.5t5 -29.5t7 -41t7 -40t5 -24.5q2 -14 6.5 -48t9.5 -71t10 -68.5t5 -42.5q2 -12 5 -39.5t7 -57.5t7.5 -56.5t5.5 -34.5q0 -12 2 -33.5t3 -44t3 -41t2 -25.5v-147v-141q0 -4 -10.5 -21.5 t-14.5 -21.5q-4 -8 -16 -25.5t-14 -21.5q0 -6 -2.5 -25.5t-3.5 -40t-3 -40t-2 -25.5q-4 -4 -7 -21.5t-7 -26.5q0 2 -2 5.5t-4 7.5t-4 10q0 6 -2 24.5t-4 38t-4.5 38t-2.5 24.5v-322l-8 -55q0 2 -2 13.5t-3 23.5t-3 23.5t-2 15.5q-2 6 -5 35.5t-5 64.5t-3 64.5t-1 36.5 q0 8 -2 23t-3 31.5t-3.5 29t-2.5 16.5q-6 6 -10 14l-7 10.5t-3 6.5q-4 4 -6 10q-4 12 -4 14q-4 0 -14.5 9.5t-10.5 13.5v24v31z" />
<glyph unicode="m" horiz-adv-x="1058" d="M94 -45q-4 4 -14 16.5t-10 14.5t-2 12t-3.5 22.5t-3.5 25.5t-4 20q0 10 -3 55t-6 97t-6 97t-3 58q-2 4 -4 18.5t-3 32.5t-3 34.5t-4 24.5q0 12 -5.5 45t-5.5 45q0 6 -4 30t-7 49.5t-6 48t-3 28.5v59v52q0 4 9 21.5t11 25.5q4 2 17.5 14t17.5 17q2 0 14.5 10t16.5 14 q2 0 14 4q6 2 10 4h19h12l4 -4q4 -4 11 -4q0 -2 4 -14q2 -6 6 -10v-48q0 -8 5 -40.5l11 -71.5t10 -74t4 -43q2 -4 4.5 -17.5t3.5 -27.5t3 -27.5t4 -19.5l10 -10q4 10 16.5 35.5t26.5 55t26.5 55.5t16.5 36q4 2 12.5 14.5t12.5 16.5q6 4 22.5 21.5t22.5 21.5q4 2 16 11t14 9 q4 4 17.5 8t17.5 8h2h11q4 -4 11 -8t7 -8q4 0 7 -7t7 -13q0 -4 5.5 -17.5t5.5 -17.5q0 -2 4 -20.5t8 -18.5q2 -10 7 -25.5t9 -31t9.5 -28.5t7.5 -18q0 -6 9 -22t13 -23q0 2 4 10.5t4 10.5t3 11t7.5 18.5t8.5 17.5t6 8q4 6 12 22.5t16.5 35t15.5 34t11 19.5q4 8 11.5 21.5 t11.5 13.5q2 2 9 10t16.5 17t17.5 17.5t12 10.5t16.5 11t16.5 9q4 4 16 8.5t14 8.5h11h14q4 -4 11 -8.5t12 -8.5q4 -2 11 -10t7 -10q2 -4 9 -16.5t15.5 -25.5t14.5 -27.5t6 -20.5q2 0 5 -8.5t7 -18.5t7.5 -20.5l5.5 -16.5q0 -4 5 -21.5t5 -25.5q2 -12 12 -57t20.5 -96.5 t20.5 -96.5t14 -57q0 -10 10.5 -39t14.5 -41q0 -6 9 -28.5t9 -26.5q2 -2 5.5 -5t7.5 -3q0 -4 14 -7.5t19 -5.5q4 -4 13 -12t9 -12v-12v-19q-4 -8 -11 -23.5t-11 -19.5q-2 -4 -11.5 -14.5t-19.5 -20.5t-20.5 -20t-12.5 -13q-4 0 -12 -5t-13 -5q-4 -4 -17 -7t-13 -7h-10h-7 q-2 4 -10 7t-10 7q-4 4 -17.5 16.5t-17.5 14.5q-2 4 -10 17.5t-10 17.5q-4 8 -10.5 26.5t-12.5 40t-12 40t-8 24.5q-4 12 -14.5 59t-20.5 99.5t-20.5 97.5t-12.5 55q0 6 -5 23.5t-5 21.5q-4 8 -12.5 33t-12.5 33l-8 -11q-2 -4 -5 -15t-6 -25.5t-6 -27.5t-6 -20 q-4 -10 -7 -39.5t-7 -37.5v-52v-49q0 -4 5 -24.5t9 -30.5q0 -4 5.5 -17.5t5.5 -17.5v-26v-29q0 -2 -3 -10.5t-8 -10.5l-13 -13l-19.5 -19.5t-20.5 -19.5t-16 -13q0 -6 -10 -10l-9 -5h-36h-19l-203 402l-10 10q-4 -10 -13 -38.5t-19.5 -61.5t-20.5 -61.5t-14 -39.5 q0 -4 -3.5 -17t-6.5 -26.5t-6 -25.5t-3 -17q-2 -4 -4 -18t-3 -31.5t-3 -33t-4 -17.5q0 -8 -5 -23.5t-5 -19.5t-5.5 -14.5t-11.5 -20.5t-10 -20t-4 -13q-2 -4 -4 -17t-3 -27.5t-3 -28t-5 -17.5q0 -2 -5 -14t-5 -16q-2 4 -5 16t-7 14q0 4 -4 21.5t-4 21.5l-6 4l-4 -4 q-14 0 -15 -8q0 -10 -3 -35.5t-7 -54.5t-7 -53.5t-5 -32.5q0 -6 -3.5 -24.5t-5.5 -20.5l-10 31v180z" />
<glyph unicode="n" horiz-adv-x="751" d="M135 -10q-4 4 -13 17t-13 18q2 4 -3.5 31.5t-9.5 37.5q-2 4 -4 16.5t-4 27t-4 28.5t-4 20q-2 8 -5 45t-7.5 87.5t-9.5 107.5t-10 107.5t-8 86t-5 46.5q-4 16 -8 50t-9 42q0 2 -4 11t-4 11q-2 2 -3 8.5t-5 12.5q-4 8 -8 14v10.5t2 10.5v14q0 6 2 10q0 4 10 20.5t15 24.5 q2 0 10 7.5t17 15.5t18.5 16t13.5 12q4 2 21.5 8.5t21.5 6.5h20q4 0 17 -4l4 -4q6 -6 6 -7q2 -6 8 -23.5t8 -23.5q0 -2 2.5 -11t5.5 -21.5t6 -23.5t5 -19q0 -6 1 -19.5t3 -28t4 -28t2 -17.5t3 -19t5 -31.5t4 -32t2 -17.5q4 -4 6.5 -12t6.5 -13q4 4 14 17.5t21.5 29 t22.5 27.5t15 17q2 4 25 28.5t35 36.5q2 0 6 5t8 3q6 6 23.5 17.5t21.5 15.5q10 2 36 12.5t36 14.5q2 -2 4 -2h10q2 0 4 -1t6 -1h9q2 -4 9 -8.5t11 -6.5l17 -20q4 -4 11 -17.5t11 -21.5q2 0 4 -10.5t4 -14.5q2 -8 13.5 -46t24.5 -82t24.5 -83t15.5 -49q0 -2 3 -12t7 -23.5 t8.5 -27t4.5 -19.5q2 -4 9 -41t15 -81t14.5 -81.5t6.5 -44.5q4 -2 8 -15t4 -17q-2 -6 -2 -15l-2 -10q0 -6 -6 -17.5t-11 -11.5q0 -4 -6 -13t-14 -19.5t-16.5 -20.5t-10.5 -12q-2 -4 -4 -18.5t-4 -31t-4 -30.5t-2 -18q0 4 -8 18t-6 16q0 4 -3 21.5t-3 21.5q-4 2 -17.5 -1 t-19.5 -3h-6q-6 0 -7 2h-18l-8 11q-4 4 -5 23.5t-5 23.5q-2 6 -10.5 53t-18.5 100.5t-19.5 100.5t-11.5 53q-4 12 -13 45t-21.5 68.5t-22.5 68.5t-15 47q0 -14 -1 -66t-4 -112.5t-7 -112t-8 -65.5q0 -8 -5 -32.5t-11 -31.5v36v69v68.5v35.5q0 6 -1 23.5t-1 37v37v23.5 q0 10 1 34t1 50.5t1 50t1 31.5q-4 -4 -11.5 -15.5t-14.5 -24.5t-15.5 -25.5t-10.5 -16.5q-6 -6 -15 -26.5t-15 -26.5l-6.5 -19.5t-8.5 -28t-8 -26.5t-4 -14q-2 -10 -5 -53t-5 -94.5t-3 -95.5t-1 -52q-4 -8 -13.5 -24.5t-13.5 -20.5q-2 -4 -12 -12.5t-20.5 -18.5t-19.5 -19.5 t-9 -13.5q-2 -2 -5 -15t-6.5 -30.5t-6.5 -32t-5 -18.5q0 -2 -7 -13t-7 -16l10 109q-4 -8 -9 -28.5t-9 -44t-8.5 -44t-6.5 -28.5q0 -6 -10 -31t-12 -31l16 197v0z" />
<glyph unicode="o" horiz-adv-x="716" d="M362 14q-8 0 -32.5 9.5t-32.5 9.5q-4 2 -15.5 8t-25.5 13t-27.5 13.5t-17.5 10.5q-6 4 -19.5 12t-17.5 12q-6 4 -19.5 18.5t-28.5 31t-29.5 32t-20.5 21.5q-2 0 -10.5 11t-10.5 20q-4 6 -10 18t-13 25.5t-13.5 25.5t-10.5 19q0 4 -4 16t-4 14v84v74q0 2 2 10t5 18.5 t6 20.5t7 14q0 4 5.5 12.5t5.5 12.5q2 4 9 15.5t15 22.5t15 20l6 8l11 11t19.5 20.5t20.5 21.5l14 14q6 4 22.5 16.5t22.5 16.5t18.5 11t27 14.5t26.5 13.5t18 8q6 0 22.5 4t23.5 4h65h68q4 0 19 -4t24 -4q2 0 10 -6t10 -10q8 -2 21.5 -14.5t13.5 -16.5q0 -2 2 -10t3 -17.5 t3 -17.5t4 -10q2 -4 9.5 -15.5t16.5 -25t17 -24.5t13 -15q4 -2 16 -24.5t16 -31.5q8 -14 22.5 -45.5t18.5 -40.5q4 -6 14.5 -31.5t10.5 -31.5q2 -12 7 -32.5t5 -22.5v-43v-37q0 -4 -5 -19.5t-7 -27.5q0 -2 -5 -14.5t-5 -16.5t-5.5 -12t-9.5 -13q0 -2 -7 -14t-11 -16 q-8 -6 -20.5 -22.5t-16.5 -22.5l-10 -11q-2 -4 -20.5 -16t-24.5 -16q-4 -4 -16.5 -13.5t-14.5 -9.5q-4 -4 -23.5 -12t-19.5 -12q-8 -2 -15.5 -20.5t-7.5 -25.5h-6h-8q0 4 -9 18.5t-9 18.5h-4h-9q-4 -4 -14 -7t-10 -5l-19 -201l-4 -2h-6q-2 0 -2 2q0 4 -5 17.5t-5 17.5 q-2 10 -5 35t-5 53.5t-3.5 54t-1.5 35.5zM166 500q0 -4 4 -21.5t4 -21.5q4 -4 10 -17.5t13.5 -28t13.5 -26.5t10 -14q2 -8 14.5 -23.5t16.5 -23.5q6 -4 22.5 -21.5t22.5 -23.5q8 -4 23.5 -17.5t23.5 -17.5q2 0 13.5 -6.5t25.5 -13.5t28.5 -13t20.5 -6q4 -4 16.5 -10.5 t14.5 -6.5h20.5t29.5 -1t28.5 -1h19.5q0 6 -1 21.5t-2 33t-3 32t-2 18.5q0 2 -3 10t-6 18.5t-8.5 20.5t-7.5 14t-7 16.5t-11 27t-12 27.5t-11 19q-4 6 -16 29t-16 27q-4 6 -17.5 23.5t-19.5 21.5q0 4 -9.5 11t-9.5 11q-4 -10 -7 -42.5t-5 -43.5q0 -8 -5 -25.5t-5 -21.5h-6 h-9q0 4 -5 16.5t-5 14.5q0 6 -2 24.5t-3 39t-2 39t-1 24.5q-4 2 -7 14t-5 17l-10 8l-7 6l-4 -4q-2 -2 -4 -2q-6 -6 -14 -10l-7 -3.5t-5 -3.5q-4 -2 -5 -4q-4 0 -12 -5t-12 -5h-12h-19l-10 10q-4 2 -7 11.5t-7 9.5t-11.5 -9.5t-11.5 -11.5q-2 -6 -4 -14q-4 -16 -4 -21v-36 v-39z" />
<glyph unicode="p" horiz-adv-x="669" d="M78 -266q0 6 -1 22.5t-3 33.5t-3 32.5t-1 21.5q-2 18 -6.5 69.5t-9.5 117t-10 140.5t-9 142.5t-8 118.5t-4 72q0 4 -1.5 15t-1.5 23.5v24v17.5v34.5t-2 60.5t-3 60.5t-3 34.5v23q0 10 -2 19t-4 13q0 2 -2 17.5t-4 32t-3 32t-1 19.5q0 2 1 17.5t1 21.5q0 4 1 10t1 12 q0 8 2 15q0 4 5 12t5 12q4 2 14.5 11.5t21.5 18.5t21.5 17t16.5 13q4 0 12 5t13 3h18q2 -2 12 -2h11q4 -6 14 -16.5t21.5 -23t21.5 -22.5t16 -14q2 -2 11.5 -9t18.5 -14.5t17.5 -14.5t12.5 -9q10 -6 42.5 -26.5t70.5 -45t70 -45t38 -27.5q2 -2 11 -9t19.5 -14t18.5 -14.5 t12 -11.5q6 -4 25.5 -22.5t25.5 -28.5q6 0 11 -4l4 -4q8 -10 17 -28.5t9 -22.5q4 -6 14.5 -33t14.5 -33q2 -8 5 -25.5t3 -21.5q0 -2 -2 -30.5t-4 -45.5q-2 -8 -2 -18t-2 -21q-2 -12 -2 -26q0 -4 -12.5 -29t-16.5 -39q-2 -4 -6 -8t-6 -7t-4 -1q0 -4 -8 -17.5t-13 -19.5 q-10 -6 -23 -19.5t-17 -17.5q0 -4 -10.5 -11t-10.5 -11q-8 -2 -30.5 -18.5t-28.5 -22.5q-4 0 -9.5 -17.5t-5.5 -21.5q-2 -6 -8 -19.5t-6 -17.5l-4 -4q-2 -2 -10 -2q0 2 -4.5 10t-4.5 10q-2 4 -4 18.5t-2 18.5l-28 -8l-13 -125q-2 -2 -6 -4q-8 -4 -12 -4h-2h-6q-4 4 -7.5 18 t-0.5 19q0 10 -2.5 42.5t-2.5 43.5q-10 6 -37.5 11t-39.5 9l-9 -4l-18 -340q0 -4 -10 -18.5t-15 -22.5q-4 -2 -12 -9t-17 -15.5t-18.5 -15.5t-13.5 -9q-6 -2 -22.5 -10.5t-22.5 -6.5h-19l-16 3q-2 0 -5 4t-7 6zM221 756q0 -4 -1 -18.5t-1 -18.5q2 -4 6 -33t7.5 -64.5 t6.5 -71.5t5 -54q2 -8 5 -23.5t3 -19.5l4 -4q4 -4 4 -11q6 -4 18.5 -13t24.5 -19.5t21.5 -18.5t11.5 -10q8 -10 31.5 -23.5t31.5 -13.5q10 -2 19 -2q8 -2 15 -2h11q8 -2 29 -3t25 -1q2 0 8 12t6 16q2 4 3 19.5t1 23.5q0 4 1 9.5t1 11.5q0 8 2 16q-4 6 -6 22.5t-2 22.5 q-4 10 -14.5 37t-14.5 33q0 2 -8 12.5t-17 21.5t-18.5 22.5t-13.5 15.5q-4 0 -12 4q-6 2 -11 6q-2 -10 -9 -37t-11 -37l-12 -10q-2 0 -4 6q-2 2 -2 6q-4 2 -7.5 14.5t-3.5 16.5v14.5t-1 26.5t-1 25.5v13.5t-5 6t-9 8q-10 6 -26.5 16.5t-33 21.5t-29.5 19.5t-16 8.5h-12z" />
<glyph unicode="q" horiz-adv-x="595" d="M475 -172q-2 6 -4 21.5t-3 31t-3 29.5t-2 20q0 4 -3 27t-7 49.5t-8.5 50t-6.5 29.5q0 4 -5 36t-10 68.5t-10 69.5t-5 39l-9 10q-4 -2 -14 -8t-21.5 -13t-20.5 -13.5t-11 -8.5t-11.5 -6t-18.5 -10t-17.5 -12.5t-8.5 -8.5q-2 -2 -4 -11t-3 -20.5t-2 -21.5t-1 -12 q-4 -2 -7 -10.5t-7 -10.5h-4h-6l-13 31q0 6 -4 22.5t-4 22.5h-10h-14q-4 -2 -11.5 -20.5t-11.5 -24.5h-8q0 6 -10.5 28.5t-14.5 26.5q0 4 -5 7.5t-5 7.5q-2 0 -16.5 9t-14.5 13q-10 4 -27.5 16.5t-17.5 16.5q-4 0 -17 16.5t-18 24.5q0 4 -4 12t-8 13q0 6 -4 18l-4 12v80v68 q2 12 6 24q4 10 7 20.5t7 18.5q0 4 5.5 12.5t5.5 12.5q2 4 9 15t15 22.5t15 19.5l6 8q47 59 107.5 111.5t138.5 75.5l16 8t26.5 12t26.5 10.5t17 4.5q0 2 5 5t5 7q4 0 14 14t10 19q6 10 18.5 26.5t12.5 20.5q4 0 16.5 7t20.5 11q2 0 5 2t7 4t6 6h25h20q2 -4 5 -6l6 -6 q4 -8 9 -28.5t5 -26.5v-92v-99q-2 -20 -4 -39q-2 -16 -5 -32.5t-5 -24.5q0 -4 -2 -15.5t-3 -24.5t-3.5 -24.5t-2.5 -15.5v-20v-35q0 -14 2.5 -43t3.5 -60.5t3 -58.5t2 -35q2 -4 7 -32.5t10 -64.5t10 -66.5t7 -38.5q0 -4 2.5 -15.5t3.5 -24t3 -23.5t2 -17q0 -2 1 -11.5 t3 -20.5t4 -21.5t4 -12.5v-37v-30q-4 -4 -11 -21.5t-12 -21.5q-6 -6 -26.5 -29t-28.5 -27q-4 -2 -21.5 -11t-23.5 -9h-16h-19l-4 4zM166 530q2 -6 4 -14q4 -16 4 -20q6 -6 8 -11q2 -4 4 -10l43 -43q8 -8 25.5 -15t21.5 -7h31h37q2 0 4 2l4 8q4 6 17.5 31.5t17.5 35.5 q2 4 7 16.5t5 16.5v60v61q-4 2 -8 10t-4 11v10v14q0 4 4 22.5t8 18.5v18q-8 0 -34.5 -2t-32.5 -2q-4 0 -12.5 -5t-12.5 -9q0 -8 -5 -32.5t-5 -32.5q0 -2 -4 -10.5t-8 -10.5q-2 -4 -4 -6q-4 -4 -11 -4v86q-8 0 -25.5 -9.5t-23.5 -11.5q-4 -6 -10 -10q-4 -4 -8 -7t-6 -7 q-4 -4 -11.5 -16.5t-11.5 -14.5q0 -4 -4 -17.5t-4 -17.5v-37v-39z" />
<glyph unicode="r" horiz-adv-x="509" d="M176 10q0 -4 -5 -7t-5 -5q-4 -8 -9 -32.5t-5 -33.5l-11 19q0 8 -4 34.5t-8 32.5q0 4 -9 23.5t-9 24.5q-4 0 -9.5 14t-5.5 18q-2 4 -5 17.5t-6 28t-6 25.5t-5 15q0 6 -2 22.5t-5.5 36t-6.5 37t-5 25.5q-2 10 -9 51t-15 89.5t-14.5 90.5t-6.5 52q-2 4 -5 19.5t-7 33.5 t-7 34.5t-5 22.5q0 2 -5.5 14.5t-5.5 16.5q-2 0 -11 14.5t-9 18.5v29v26q0 4 4 16.5t4 14.5q4 4 11.5 17.5t11.5 17.5q4 6 16 19t16 18q4 2 18.5 10t18.5 8q0 2 12.5 5t18.5 7h6h4q4 -4 12.5 -11t12.5 -11q2 -4 4 -10q4 -12 4 -15q4 -2 8 -14t4 -17q2 -6 5.5 -18t7.5 -25.5 t7 -25.5t5 -19q0 -8 5 -28.5t5 -26.5q4 6 16.5 18.5t26.5 25.5t26.5 25.5t16.5 18.5q4 0 21.5 14.5t23.5 16.5q4 2 21 14q8 6 14 10t26.5 11.5t28.5 11.5q10 4 35 6t33 2h13t23.5 -1t23 -3t14.5 -4q6 0 22.5 -9t22.5 -14q4 -4 14 -12t10 -12v-27v-37q0 -4 -5 -16t-9 -14 q-4 -8 -16.5 -25.5t-14.5 -21.5q0 -16 -2 -54.5t-3 -80.5t-3 -79.5t-2 -52.5q0 -6 -1 -20t-3 -29.5t-5 -29t-5 -19.5q0 -8 -5.5 -25.5t-5.5 -21.5v387q0 4 -4 8t-4 8h-12h-10q-4 -4 -7.5 -8t-7.5 -8l-2 -8t-3 -17.5t-3 -18.5t-2 -11q-2 -2 -5 -14.5t-3 -16.5q-6 -8 -12 -8 l-11 18q-2 6 -4 22.5t-3 34t-3 33t-4 21.5q0 2 -7 7t-11 5h-41h-37q-4 -4 -14.5 -11t-10.5 -11q-2 -6 -10 -32t-10 -32v-129v-129q0 -4 1 -21.5t3 -39t4 -39t4 -21.5v-55v-45q-4 -6 -6 -14q-2 -6 -4 -11.5t-2 -9.5q0 -2 -5.5 -10t-5.5 -10q-4 -4 -12 -17.5t-12 -17.5 q-2 -6 -14.5 -22.5t-16.5 -22.5q-2 -14 -4 -50t-3 -76t-3 -76t-4 -50q0 -6 -2 -19.5t-3 -28t-3 -26.5t-2 -16q0 -2 -4.5 -10.5t-8.5 -10.5q0 6 -4 32t-4 32v280v0z" />
<glyph unicode="s" horiz-adv-x="944" d="M588 -27q-4 0 -6 1t-7 1h-6q0 -4 -4 -4t-4 -2q-6 -8 -17.5 -31.5t-13.5 -31.5q0 4 1 14t1 14q-2 2 -4 25t-2 31q-6 0 -21.5 6t-31.5 12t-32.5 12.5t-22.5 6.5q-6 2 -18.5 9t-27 16t-25.5 17.5t-15 12.5q-4 0 -12.5 5t-18.5 13.5t-19.5 14.5t-13.5 10q-6 4 -12 10l-18 19 q-6 8 -17.5 23.5t-15.5 19.5t-18.5 23.5t-18.5 25.5q-4 0 -8 15t-6 24q0 4 -6.5 23.5t-8.5 23.5q0 6 -2 19.5t-2 17.5q2 10 4 18t4 15.5t2 11.5q0 10 5 26l4 17q2 4 9 2t14 -5t14.5 -6.5t11.5 -1.5v13q-4 2 -19.5 9t-33 16.5t-33 19.5t-17.5 16q-2 0 -16 15.5t-18 23.5 q-4 2 -10.5 11.5t-6.5 11.5q0 4 -7 17t-9 17q-4 10 -8.5 30t-6.5 28q-41 123 -30.5 200.5t56.5 117.5t120 46t159 -14t172 -62t159.5 -99.5t122.5 -126t63 -140.5q-2 -4 -2 -6v-2l-2 2q-4 2 -9 6l-8 4t-8 0q0 -4 -10 -25.5t-10 -25.5q-4 -4 -13.5 -10.5t-13.5 -10.5 q-2 0 -15.5 -9t-17.5 -13q-4 0 -8 1t-10 1q-8 0 -15 2h-6q-10 0 -12 2h-12q-4 0 -3 5t-3 5q2 4 -3.5 13.5t-5.5 13.5q0 2 -2 15.5t-6 21.5q16 16 18.5 34.5t-4 36t-18.5 28.5t-23 13q-2 0 -19 22.5t-37.5 48.5t-38 47.5t-19.5 21.5q0 -4 -2 11t-4 13q-4 -8 -9 -28 q-2 -8 -2 -17q-2 -16 -8 -49t-13 -69.5t-13.5 -69.5t-6.5 -47q23 -23 58 -40.5t61 -33.5q4 0 25.5 -6t47.5 -13.5t48.5 -16.5t28.5 -17q4 -4 14 -11.5t22.5 -13.5t21.5 -12t13 -6q8 -10 32 -25.5t30 -24.5q2 -2 12 -10t20.5 -17t19.5 -17.5t13 -10.5q4 -4 12.5 -13 t17.5 -19.5t17.5 -18.5t12.5 -8q2 -4 19.5 -29.5t25.5 -36.5q0 -4 2 -12t2 -12q-2 -6 -4 -11q-4 -12 -4 -14q-2 -4 -2 -14t-2 -15q0 -4 -6.5 -14t-8.5 -12q-4 -4 -17 -15.5t-13 -15.5q-6 -6 -29 -21.5t-31 -23.5q-6 -4 -21.5 -8t-23.5 -6q-6 -4 -23.5 -7.5t-21.5 -7.5 q-10 -4 -36.5 -7t-33.5 -5q-6 2 -21 2h-32.5h-34h-22.5l-14 -256h-9q0 2 -1 11.5t-1 19.5t2 19.5t6 11.5q-2 12 -6 40.5t-8 61.5t-6 61.5t2 40.5h-12zM334 444q0 -4 -4 -8l-4 -4q4 -8 8 -25.5t6 -21.5q4 -6 12 -18.5t18.5 -26.5t19.5 -25.5t16 -17.5q0 -4 11 -18.5t15 -18.5 q6 -4 28.5 -18.5t28.5 -24.5q6 -2 26 -16.5t28 -14.5q6 -4 14 -8q16 -8 23 -8q12 -10 32 -16q10 -4 23 -7q2 0 13 -3t25.5 -6l29 -6t20.5 -3q4 0 13 -2t20 -4q10 -4 22 -6l13 10q-4 2 -7 4l-6 6q-6 6 -12 15l-9 9t-9 7q-6 6 -22.5 21.5t-20.5 19.5q-4 2 -18.5 13t-31 23.5 t-32 25t-21.5 18.5q-2 0 -9 5t-17.5 12t-21.5 14.5t-17 9.5q-8 4 -29 20.5t-23 16.5q-10 4 -30.5 15t-44 24.5t-45 25.5t-31.5 21v-9zM217 813q-2 -6 -6 -24.5t-4 -20.5q-2 -4 4 -21.5t10 -25.5q4 -16 21.5 -27.5t23.5 -15.5q2 -2 11.5 -9t21.5 -16.5t23.5 -18.5t15.5 -13 q18 -4 34.5 -22.5t43.5 -25.5q0 8 3 14.5t3 14.5q2 25 8 65t12.5 79.5t12.5 70.5t6 35v15.5t-3 9.5t-8.5 -16.5t-13.5 -61.5l-12 -13q0 4 -3 17.5t-3 15.5q0 8 2 9t2 8q18 10 11 21t-29.5 20.5t-55.5 11.5t-61.5 -3t-49 -22.5t-20.5 -50.5z" />
<glyph unicode="t" horiz-adv-x="518" d="M319 -53q-6 6 -21 15t-22 13q-4 2 -15 15.5t-15 17.5q-2 6 -9.5 18.5t-9.5 20.5q-4 6 -9 20.5t-11 29t-11.5 26.5t-7.5 16q0 4 -3 17.5t-7 29t-8 30.5t-6 22q0 6 -1 19t-4 28.5t-5 29t-4 17.5q0 4 -1.5 28.5t-1.5 34.5q0 4 -1 17.5t-1 29v28.5v17q-4 6 -5 29t-5 27h-4 l-6 2l-8 -1t-17.5 -2t-18.5 -2t-11 -1t-12.5 1t-18.5 1q-4 0 -7 1t-7 1h-11q-2 0 -9 10t-9 14v6v2q0 4 5 17.5t7 17.5q4 8 8 13q2 4 7 6q4 6 17 18t28.5 25.5t30 24t20.5 14.5q2 2 15 10t18 8q2 8 8 30.5t11 47t10 46t9 30.5q0 6 2.5 17t4.5 22q2 12 6 24t20.5 37t22.5 31 q4 2 20.5 18.5t24.5 16.5q6 4 23.5 13t23.5 9q4 -2 8 -2h10l17 -2q2 0 4 -4t6 -4q0 -8 -2 -33t-2 -29q-2 -14 -4 -37.5t-2 -27.5q-4 -8 -8 -14q-6 -12 -7 -17q0 -10 -2 -32.5t-4 -47t-4 -46t-2 -27.5l19 -3q14 2 44.5 9.5t65.5 15.5t65.5 14.5t43.5 10.5q6 2 19 4t26 6 q14 4 30 6q4 0 18.5 -1t22.5 -1q2 -2 17.5 -3t19.5 -1q2 -4 5 -8t8 -11q-2 -2 -2 -4v-6q0 -4 -1.5 -6t-1.5 -6v-6q-4 -4 -6 -10q-4 -4 -5 -8.5t-3 -6.5q-4 -2 -13 -13t-13 -15q0 -4 -10.5 -11.5t-10.5 -11.5q-4 -2 -18.5 -9t-20.5 -7q-4 0 -20.5 -8.5t-20.5 -8.5l-12 -125 l-12 17l-11 96l-22 2v-8q-2 -8 1 -39t1 -39v-24.5v-35t1 -34t3 -19.5q-2 -4 -2 -8v-10l-2 -14l-12 10l-27 221l-178 -45q-2 -4 -2 -10q0 -4 -1 -9.5t-1 -9.5q0 -6 -1 -21.5t-1 -17.5q0 -14 2 -26q2 -10 2 -21.5t2 -17.5q0 -6 2 -27.5t2 -30.5q-2 -6 2 -24.5t4 -20.5 q2 -10 6 -25.5t8 -31.5t8.5 -28.5t4.5 -14.5q0 -4 4 -17.5t10 -28.5t11 -29.5t9 -20.5q2 -4 5 -6q6 -6 8 -6q4 0 20.5 -5.5t20.5 -5.5q2 -4 7 -8t5 -6q-2 -6 -2 -10v-15q0 -2 -1 -4t-1 -6v-8q-4 -4 -13.5 -20.5t-13.5 -24.5q-4 0 -15 -12.5t-13 -16.5l-15 -164l-18 2l-4 17 q-2 6 -3 13t1 11q-2 6 -3 17.5t-1 24t-1 23.5t-4 15l-38 -440l-5 420v0z" />
<glyph unicode="u" horiz-adv-x="657" d="M213 0h-14q-4 0 -11.5 -4t-11.5 -8q0 -4 -4 -21.5t-4 -21.5q0 -2 -5 -10.5t-5 -10.5q-4 2 -9.5 10.5t-5.5 10.5t-1 11t-2 18.5t-3 17.5t-4 8q-2 4 -16.5 12t-14.5 13q-6 4 -24.5 20t-20.5 21q0 4 -10 21t-14 24q0 4 -5 17t-5 17q-2 6 -5.5 23.5t-7.5 21.5q0 8 -4 33 t-4 33v166v166q0 6 1 30.5t3 52t3 52.5t1 31v100q4 4 19.5 28.5t27.5 37.5q0 2 9.5 10t11.5 10q4 4 17.5 12.5t17.5 12.5l10 6q4 2 10 4h8q4 0 6.5 1t4.5 1t4 -1t6 -1h6q2 0 11 -8.5t9 -10.5v-18v-29q0 -6 -2 -25.5t-4 -42t-4 -42t-2 -25.5v-223v-227q4 -8 7 -25.5t5 -22.5 q0 -2 5.5 -14t5.5 -16q4 -4 7 -14.5t7 -10.5q8 -6 22.5 -23.5t18.5 -21.5h18h15q8 0 12 14q4 4 12 16.5t13 14.5q4 12 20 45t21 45q6 10 15 30.5t9 25.5v26v29q0 4 -3 22.5t-7 39t-8 39t-6 22.5q0 6 -2.5 20.5t-3.5 27.5t-3 24.5t-2 15.5v84v82q0 8 10.5 23.5t14.5 23.5 q2 0 10 8l18.5 18.5l20.5 20.5l16 16q2 0 10.5 5.5t10.5 5.5h10q4 0 7 1t7 1t11.5 -1t11.5 -1l4 -5q2 -2 2 -3t2 -3q0 -4 5 -12t5 -12q6 -6 15.5 -28.5t9.5 -27.5q0 -4 3 -15t7 -25.5t7 -27.5t3 -18q0 -6 2.5 -17t3.5 -23.5t3 -23.5t2 -15q0 -6 2 -15q4 -16 4 -22t-3 -21.5 t-3 -17.5q0 -4 -2 -17.5t-3 -28t-3.5 -27.5t-2.5 -17v-13v-8q4 -12 12.5 -45t12.5 -45q2 -8 10 -34.5t18.5 -57.5t20.5 -60.5t17 -44.5q2 -10 10 -30.5t10 -24.5q4 -4 12.5 -18.5t12.5 -18.5l6 -12q2 -4 4 -6v-19v-18q0 -4 -5 -16.5t-5 -16.5q-4 -4 -14.5 -15t-22.5 -23.5 t-24.5 -23.5t-18.5 -16q-8 -2 -15 -4l-16 -4h-14h-11q-2 0 -10 4t-10 4q0 4 -10 21.5t-15 26.5q-2 2 -7 16t-11 32.5t-12 35t-11 26.5q-2 2 -7 15.5t-11 27.5t-10 26.5t-4 16.5q-4 4 -7.5 7t-5.5 7q0 -4 -5 -7t-5 -7q-2 -2 -10 -11t-17.5 -20.5t-17.5 -21.5t-10 -12 q-4 -2 -16.5 -14.5l-16.5 -16.5q-4 -2 -12 -9.5t-17.5 -15.5t-17.5 -14t-12 -6l-8 -10q0 -10 -2.5 -36t-3.5 -54.5t-3 -54t-2 -36.5q-4 -4 -7 -16t-7 -14q0 2 -5 14t-5 16q0 8 -3 32t-7.5 48.5t-7.5 46t-3 29.5h-10z" />
<glyph unicode="v" horiz-adv-x="692" d="M373 68q0 2 -4 12t-9.5 24.5t-11.5 27.5t-8 20q-8 14 -21.5 40.5t-25.5 54t-22.5 50t-14.5 29.5q-10 25 -28.5 62.5t-37.5 72.5q-23 41 -45 86l-18 4l-21 -207l-18 23l27 245l-19 21l-8 -101h-10l-19 166q0 2 -3 12.5t-8 22.5t-10 25.5t-11 19.5q-2 0 -8.5 11.5 t-14.5 24.5t-15 24.5t-9 15.5q-4 6 -7.5 13t-7.5 14q-4 8 -6 16v6q0 2 1 3t1 3v19q4 8 14.5 19t14.5 18q2 2 10 9t17.5 16t19.5 17.5t16 12.5q4 0 12.5 2t12.5 -2h28h27q2 -4 6 -8q2 -4 4 -6t2 -7q4 -4 11.5 -21t7.5 -22q4 -4 14 -20t21.5 -35.5t21.5 -36t15 -18.5 q8 -20 32.5 -69.5t53 -104t53 -104.5t35.5 -72l10 -11q0 14 8 50t17.5 78t18.5 78t13 50q2 10 6 26.5t8.5 32t7.5 28t3 14.5q0 4 5 34.5t5 49.5q0 4 1 17t3 28.5t3 30t1 18.5q-4 4 -16 10t-17 8q-4 4 -8 12.5t-4 12.5q6 4 12.5 16.5t8.5 14.5q0 4 8 14t10 14q8 4 30.5 21.5 t24.5 21.5q4 2 21.5 8.5t25.5 10.5q4 -2 11 -4q6 -2 14 -2h31q4 -2 8 -7q8 -8 10 -12q4 0 10 -6l5 -4v-37q0 -2 -1.5 -27.5t-7.5 -40.5q0 -6 -1 -19t-2 -25.5t-2 -22.5t-1 -12l-2 -13q-2 -12 -5 -28.5t-7 -33t-8 -26.5q-2 -8 -10.5 -47t-18.5 -84t-19.5 -84t-13.5 -47 q0 -10 -4 -32.5t-8 -48t-9 -49t-10 -32.5v-47q0 -6 -3 -23.5t-5 -21.5v-26.5v-49t1 -49t1 -26.5t-4 -16.5t-4 -20.5v-33q-4 -4 -8 -16.5t-10 -14.5q-4 -4 -16.5 -15t-27 -24.5t-26.5 -26t-14 -14.5q-4 -6 -9.5 -22.5t-9.5 -33.5t-6 -32.5t-2 -21.5l-10 -10l-12 110 q-2 -4 -4.5 -14t-3.5 -22.5t-3 -22.5t-4 -15q-4 -4 -9 -21t-9 -40t-7 -42t-3 -26q0 -2 -4.5 -10t-4.5 -10l-12 45z" />
<glyph unicode="w" horiz-adv-x="874" d="M219 -340q0 16 -2 60t-3 94.5t-3 95.5t-2 63q-2 2 -4 14.5t-3 27t-3 27.5t-4 19q-10 20 -33 64.5t-50.5 101t-59.5 116.5t-60.5 116.5t-51 100.5t-32.5 65l-5 9t-12.5 21.5t-14.5 25.5t-13 19q-2 2 -7.5 11.5t-10.5 18.5t-9 18l-4 8v24v23q0 4 9 21.5t12 21.5 q4 6 21 23.5t22 21.5q8 4 25.5 11t21.5 11h18h12q4 0 16.5 -12t16.5 -18q8 -8 20.5 -25.5t16.5 -21.5q0 -2 3 -10.5t6 -17.5t6 -17.5t3 -10.5q8 -16 31 -59t47.5 -90t47 -90t32.5 -62q2 8 5 28.5t7 27.5q0 12 4.5 42.5t4.5 36.5t2 22.5t3 34t3 33t2 21.5q2 6 5 32.5t5 56.5 t3 55.5t1 31.5q0 10 2 27.5t3 35t3 32t2 16.5q0 6 9.5 23.5t11.5 21.5q4 8 21.5 25.5t25.5 21.5q4 2 21.5 10t21.5 10h18h13q14 -4 14 -12q2 -6 6 -23.5t9.5 -36t10.5 -36t5 -23.5q2 -6 7 -20.5t10 -29.5t10.5 -30.5t7.5 -21.5q0 -4 5 -15.5t10 -24.5t9 -27.5t6 -20.5 q4 -10 14.5 -30.5t10.5 -24.5q4 -12 15.5 -38t23.5 -54.5t22.5 -53t14.5 -33.5q4 -4 12 -21.5t12 -21.5q4 -8 16.5 -29.5t14.5 -25.5v18v25q0 14 -5 72.5t-12.5 129t-14.5 138.5t-13 102q0 4 -1 17.5t-2 28t-3 27.5t-4 20l-9 8h-36q0 2 -2 4q-6 6 -9 6l-4 10q-2 4 -4 10 q0 4 3 17.5t5 19.5q4 6 11 15q6 8 14 20q4 6 16.5 21.5t14.5 17.5q4 4 12 14.5t12 10.5q4 4 16.5 11t14.5 11q8 4 25.5 14.5t21.5 10.5h8h17q4 -2 8 -6t7 -6.5t3 -4.5q2 0 5 -7t7 -11q0 -2 4.5 -15.5t4.5 -21.5q4 -23 10 -78t13 -118.5t13.5 -120t10.5 -78.5q2 -23 6 -62 t8 -77.5t7 -69.5t3 -35v-235v-232q-4 -6 -12 -22.5t-12 -22.5q-8 -8 -30 -32.5t-30 -32.5v-222l-18 -12q-4 8 -6 29.5t-2 25.5q-2 4 -5.5 21.5t-5.5 36t-4 34t-2 19.5q0 10 -4 26.5t-4 20.5q-4 2 -13 5t-9 7q-4 0 -7.5 3.5t-7.5 5.5q0 4 -2 10q-2 4 -4 7t-4 7q0 2 -3 10.5 t-6 17.5t-7 17t-4 10q-2 4 -8.5 16.5t-12.5 26t-13 26.5t-10 17q-4 6 -14 24.5t-20.5 38t-20.5 37t-12 21.5q-10 18 -31.5 63.5t-45 94.5t-46 93t-31.5 63q-2 -6 -5 -22.5t-6 -34t-6 -33t-5 -21.5q-4 -14 -9.5 -39.5t-5.5 -28.5v-90v-86q0 -4 7.5 -23.5t7.5 -21.5v-16v-19 q0 -2 -5 -16t-10 -14q-2 -4 -11 -15.5t-20.5 -25t-21.5 -24.5t-12 -15q0 -4 -2 -18.5t-3 -32t-2 -32.5t-1 -17q-4 -4 -7.5 -16.5t-5.5 -14.5q0 2 -5 10t-5 10q-4 12 -7 45t-7 45q0 -18 -2 -63t-3 -97.5t-3 -98.5t-2 -64q0 -6 -4.5 -32t-4.5 -32l-12 31v0z" />
<glyph unicode="x" horiz-adv-x="835" d="M733 -55q-4 0 -16 5t-17 5q-8 0 -12 14q-12 14 -35.5 40t-46 51.5t-41 47t-22.5 27.5q-4 4 -15.5 18.5t-26 32t-27.5 34t-17 26.5q-4 4 -13.5 16t-21.5 26.5t-22.5 27t-12.5 16.5q0 4 -9 12t-9 12h-11h-2q0 -4 -10 -16t-14 -16q-4 -6 -12.5 -22.5t-16.5 -34t-16 -33 t-11 -21.5q0 -4 -5 -17.5t-5 -19.5q-2 -4 -5 -20.5t-3 -20.5v-6v-8q2 -6 4 -15l4 -16v-6v-4q-2 -6 -10 -24.5t-10 -20.5l-56 -55q-4 -4 -21 -12.5t-26 -12.5h-8h-10l-37 37v33v41q0 4 5 21t7 24q0 4 5.5 17t5.5 17q4 10 14 31t10 25q2 6 14.5 31.5t16.5 35.5q2 2 8 12.5 t13.5 22.5t13.5 23.5t10 15.5q4 6 13 22.5t19.5 35t19.5 34t13 19.5q0 4 3.5 7t3.5 7q0 2 -4 6q-2 2 -3 4q0 2 -5 10.5t-5 10.5q-4 6 -16 24.5t-27.5 40t-32 41t-24.5 29.5q-8 8 -24.5 29.5t-16.5 25.5q-6 4 -20.5 16.5t-22.5 14.5v-197h-12l-25 244l-12 8l-19 -39l-24 64 h-2h-11q-6 -2 -14 -4q-16 -4 -18 -4h-4h-7q-2 0 -10 4q-4 2 -10 4q-4 0 -12 9t-13 13q0 4 -9 16.5t-13 16.5q0 4 -4 11t-4 12v18v14q0 8 9 23.5t11 23.5q4 2 13.5 11.5t19.5 20.5t19.5 19.5t13.5 12.5t21.5 11t23.5 11h16h19q2 0 14 -5t16 -7q4 0 12.5 -3t12.5 -7 q2 -4 14 -12.5t17 -12.5q10 -6 30.5 -21.5t24.5 -17.5q2 -4 12 -13t22.5 -20.5t21.5 -21.5t14 -16q2 0 11 -10.5t19 -22.5t20.5 -24.5t14.5 -18.5q2 -4 15.5 -20.5t27.5 -35t26.5 -35t16.5 -20.5q6 -4 19.5 -17t17.5 -17h6h2q2 2 4 6t4 5t2 5q6 4 23.5 25.5t39 45t39 45 t23.5 25.5q6 8 22.5 26.5t34 37t33 35t21.5 20.5q12 12 43 44t66.5 67.5t67.5 66.5t44 43q4 4 16.5 14.5t14.5 10.5q4 4 17.5 7t17.5 5h12h8q4 -2 8 -5t8 -7v-15v-18q-4 -4 -12 -21.5t-12 -25.5q-4 -2 -13.5 -14.5t-9.5 -16.5l-211 -221q-4 -4 -6 -10q-4 -12 -4 -15 q-4 -2 -7 -22.5t-7 -32.5q0 -4 -2 -16.5t-3 -26.5t-3 -26.5t-2 -16.5q0 -6 -4.5 -26.5t-4.5 -28.5q-4 -4 -7 -16.5t-5 -16.5q0 4 -5 21.5t-5 21.5q-2 6 -4 23.5t-3 38t-3 38t-4 23.5q-4 -8 -20.5 -23.5t-20.5 -23.5q-2 0 -9.5 -8.5t-16.5 -18.5t-17.5 -20t-12.5 -17 q-6 -10 -24.5 -30.5t-20.5 -24.5q-4 -8 -12 -19.5t-12 -11.5v-10v-6q4 -2 7 -10t7 -11q2 -2 8 -12t15.5 -22.5t17.5 -25.5t14 -19q4 -4 13.5 -16.5t19.5 -27t19.5 -26.5t13.5 -16q0 -2 6 -10.5t14.5 -17.5t14.5 -17.5t10 -10.5q10 -12 30.5 -36.5t24.5 -28.5 q6 -6 22.5 -24.5t33 -38t33 -38t22.5 -24.5v-29v-26q0 -4 -12.5 -20.5t-12.5 -20.5q0 -6 -1 -22.5t-3 -35t-3 -34t-1 -19.5q-4 -4 -9 -14.5t-9 -10.5v91h-13q-4 0 -6 -2.5t-6 -4.5t-6 -4v-321h-19q-4 18 -6 37q-2 16 -3 33.5t-1 29.5v197v0z" />
<glyph unicode="y" horiz-adv-x="669" d="M463 -616q0 6 8 18q4 6 8 10q2 2 2 4q0 4 2 6q2 4 4 11q0 4 2 8q0 4 1.5 6t1.5 4l-5 17q2 14 -1 45.5t-6 68.5t-6 69t-1 46q0 4 -1 17.5t-1 29.5t-1 30.5t-1 18.5q-4 14 -8 60.5t-7 99.5t-6.5 100t-3.5 60v12q-8 -4 -21 -13.5t-27.5 -19.5t-27 -19.5t-16.5 -13.5l-11 -4 t-24.5 -9t-25.5 -10t-15 -7l-16 -9q0 -4 -4 -16l-4 -12q-2 -2 -8 -2q-2 0 -4 2q0 -4 -5.5 -7t-5.5 -8q-6 -8 -12 -34.5t-12 -56t-12.5 -56.5t-8.5 -37l-18 -55q-4 -10 -12.5 -30.5t-12.5 -24.5q0 -4 -5 -16.5t-7 -14.5l57 389q-2 0 -8 8t-10 10q-4 4 -14.5 16.5t-20.5 26 t-18.5 25.5t-10.5 16q0 4 -10 27t-18 35q4 6 -2 25.5t-11 23.5q0 6 -4 29.5t-4 31.5q-2 6 -6 24.5t-8 40t-7 40t-3 26.5q0 4 -2 15.5t-4 25t-4.5 24.5t-2.5 15q2 8 -1 18.5t1 12.5q-4 8 -10 25.5t-8 21.5q0 6 4 26.5t4 28.5v13.5t2 19.5q0 10 2 23q4 0 16.5 13t16.5 20 q4 4 21.5 20t25.5 20q2 4 17.5 8.5t21.5 0.5q4 4 17.5 10t17.5 6q6 -2 10 -6l10 -10l11 -13q0 -4 2 -16t-2 -16q2 -6 4 -23.5t2 -36v-34v-17.5q0 -4 2 -17.5t3 -27.5t2 -26.5t1 -14.5q2 -6 4 -19.5t3 -25.5t3 -22.5t2 -12.5q0 -4 3 -17.5t6.5 -27.5t6.5 -26.5t3 -14.5 q2 -10 6 -25.5t9 -32t8 -30.5t5 -20q4 -8 13 -17q4 -6 10 -12l10 -10t8 -12.5t4 -16.5h7h4q4 0 9 2t9 2q0 2 3 12.5t8 24.5t10.5 27.5t11.5 23.5q8 4 11 26.5t7 28.5q2 4 5 14.5t7.5 21t7.5 19.5t3 11q2 8 6 23.5t9 31t8 27.5l3 12q2 10 7 21q4 10 5 18t5 16q0 14 4 41t4 31 q0 6 1 51t1 97.5t1 96.5t1 50l2 14q2 15 6 34.5t9.5 39t9.5 31.5q0 4 2 20.5t5 35t6 35.5t3 24q2 0 10.5 16t10.5 20q6 2 17 9.5t21.5 14.5t19.5 14t13 7q2 4 20.5 10.5t24.5 6.5h11l4 -4q2 -2 4 -2q4 0 13 -9.5t9 -13.5q-2 -14 -2 -24v-20.5t2 -16.5q0 -8 -1 -19.5 t-1 -23.5q-2 -14 -2 -31q0 -10 -3 -51t-8 -99.5t-11 -124t-11.5 -123t-8.5 -99.5t-3 -50q0 -6 -1 -28.5t-3 -51t-3 -56.5t1 -44q-4 -8 -5 -37t-1 -62.5v-65.5t-4 -48q2 -6 4 -23.5t3 -36t2 -36t1 -23.5q2 -8 4 -46t3 -81t3 -80t4 -45q2 -6 4 -25.5t5.5 -42t6.5 -42t7 -25.5 q-4 -6 -2 -29.5t5 -50t7 -49t4 -29.5q0 -2 -3 -17t-3 -19q-2 -6 -5 -16.5t-3 -14.5t-7 -21.5t-16 -21.5q-4 -4 -13 -10.5t-21.5 -13.5t-22.5 -13t-12 -8q-4 0 -20.5 -6.5t-20.5 -6.5h-15q-6 0 -10 1.5t-8 1.5q-8 0 -20.5 3t-16.5 3l-10 10v27v0z" />
<glyph unicode="z" horiz-adv-x="995" d="M588 -125q0 8 -1 28.5t-3 44t-5.5 43t-5.5 29.5q0 4 -2 18.5t-3 31t-3 31t-2 20.5h-2h-6q-4 -4 -8 -7t-4 -8q0 -4 -5.5 -26.5t-5.5 -28.5h-14l-18 55l-13 7q-4 0 -12 -3.5t-12 -3.5q-8 0 -40 -9t-46 -13q-6 0 -20.5 -4t-30 -9t-30.5 -11.5t-22 -8.5q-6 -2 -26.5 -10 t-45 -17.5t-45 -17.5t-26.5 -10q-2 0 -7 -2t-9 -4q-8 -2 -15 -4h-28h-27l-10 10q-2 4 -4 10t-2 14v5q0 4 2 6q2 4 4 10q0 4 7 20.5t11 22.5q4 4 11.5 17.5t11.5 19.5l33 41l23.5 23.5t36.5 37t36.5 36.5t25.5 28q4 4 15.5 13t24 19.5t23.5 19.5t17 13q8 8 49 38t88.5 66 t88.5 66.5t51 40.5q8 8 29.5 24.5t25.5 16.5l22.5 22.5t33 35t33 34t22.5 19.5q-4 4 -16.5 9t-16.5 5h-41h-51q-4 0 -19.5 -1t-34 -3t-38 -5t-29.5 -5q-14 0 -46 -5t-40 -5q-6 0 -22.5 -3.5t-33 -6.5t-33 -7t-22.5 -4q-4 0 -16 -5t-21 -5q-6 -2 -10 -4q-8 -4 -8 -11 q-2 -10 -4 -37.5t-3 -59.5t-3 -59.5t-4 -39.5q0 -6 -2 -21.5t-4.5 -33t-4.5 -34t-2 -22.5v297l-18 -86l-10 -14q-4 4 -7.5 14t-7.5 10q0 6 -5 33t-5 35h-18h-13q-4 -2 -17 -5t-28.5 -7t-29 -7.5t-17.5 -3.5h-26h-29l-8 11v18v12q0 6 9 24.5t11 21.5q4 4 13.5 14t19.5 21.5 t19.5 21.5t13.5 14q4 0 21.5 9.5t23.5 9.5q4 0 17.5 2t27.5 3t27.5 3t17.5 4l40 10t68.5 17.5t69.5 17.5t43 10q6 0 26.5 4t28.5 4q14 4 40 8.5t50.5 8.5t43 6t22.5 2h111h110q4 -4 21.5 -12.5t25.5 -12.5l9 -8q4 -8 7 -25.5t3 -21.5q0 -2 -3 -19.5t-7 -19.5 q-4 -4 -12.5 -21.5t-12.5 -25.5q0 -4 -9 -16.5t-12 -16.5q-8 -10 -23 -30.5t-20 -24.5l-102 -102q-14 -12 -27 -23q-10 -10 -21 -18.5t-15 -14.5q-4 -4 -12.5 -10t-17.5 -13t-16.5 -13.5t-9.5 -8.5q-8 -4 -40.5 -28.5t-70.5 -52t-71 -53t-39 -32.5q-8 -4 -29.5 -20 t-25.5 -21q-4 -4 -8 -7t-4 -7h2h10q2 2 18.5 7t35 11.5t35.5 11.5t21 7q6 0 18.5 3t26 6t25.5 6t18 3q4 4 31 9.5t35 5.5q4 0 18.5 2t30 3t30.5 3t21 2v68l4 8q2 4 4.5 6t2.5 4q2 6 10 19.5t10 17.5l10 8q4 4 16.5 12.5t20.5 12.5q2 2 5 3t7 3t7 4h24h21l4 -4l6 -6 q4 -4 12 -16.5t12 -16.5q0 -4 5.5 -12.5t11.5 -17.5t12 -16t8 -9q0 -4 6.5 -14.5t13.5 -22t13 -20.5t6 -11q4 -8 17.5 -23.5t17.5 -19.5q2 -4 12.5 -16.5t20.5 -25.5t20.5 -23.5t14.5 -12.5q0 -4 4 -12t4 -12v-13v-8q0 -8 -9.5 -23.5t-11.5 -23.5q-2 -2 -10 -9t-17 -16.5 t-17.5 -17.5t-10.5 -12q-4 -4 -20.5 -11.5t-22.5 -7.5q-4 -2 -6 -4t-4 -2h-2l-10 6q-4 0 -12.5 5t-12.5 5q-2 2 -14.5 16.5t-16.5 14.5q-4 4 -16 12.5t-17 12.5q-8 2 -23 10t-24 10q-2 0 -14 5t-16 5q-10 4 -31 9.5t-25 5.5q-6 0 -18 -1t-25.5 -2t-25 -2t-13.5 -1v-230 l-18 -30l-10 20v0z" />
<glyph unicode="{" horiz-adv-x="464" d="M121 352q0 2 3 13.5t5 23.5t4 22.5t2 14.5v4v2q0 4 -3 16.5t-3 14.5q-2 0 -4 2l-4 4q-4 4 -11.5 5t-11.5 1q-2 0 -11 -1t-20.5 -2t-20.5 -2t-11 -1h-6h-4q-2 0 -7.5 3t-7.5 3q0 2 -4 6q-2 2 -2 4v9v12q0 4 3 8t3 8q2 2 8.5 10.5t6.5 10.5l16 16q2 2 14.5 10.5t16.5 10.5 q6 8 25.5 26.5t23.5 26.5q2 0 7 8t7 12q4 4 5 8.5t5 8.5v43v45q-4 4 -8 26.5t-8 32.5q0 2 -4 10.5t-7 18.5t-6 18t-3 10q-2 2 -3.5 6.5t-3.5 8.5l-4 8v25v20q0 4 3 11.5t8 11.5q0 2 6 10t6 10q4 6 13 15.5t19.5 18.5t18.5 17t10 11q2 0 18.5 9t24.5 13q6 2 23.5 8t21.5 6h49 h54q10 -2 40.5 -7t41.5 -7q0 -4 3 -8t3 -8v-2v-4q-2 -6 -7 -16.5t-8 -14.5q-2 -4 -10 -12.5t-17 -17.5t-18.5 -17t-13.5 -11l-14 -178h-6v168q0 4 -3.5 5t-7.5 5h-2h-4q0 -4 -3 -23.5t-3 -23.5q-2 0 -4 -3t-4 -3q0 4 -3 11.5t-3 11.5q-4 4 -5 18.5t-6 18.5q-4 2 -21 4t-22 4 h-18h-18q-2 -2 -10.5 -4t-10.5 -4q0 -4 4 -16.5t9.5 -27t9.5 -27.5t4 -20q4 -2 5 -13t5 -13q0 -8 3 -25.5t3 -21.5v-25v-26q0 -4 -3 -18.5t-3 -18.5q-4 -4 -8 -18.5t-8 -18.5q-2 -4 -10.5 -17.5t-10.5 -19.5q-4 -4 -15 -21.5t-16 -21.5q2 -4 10.5 -8t10.5 -8 q4 -4 16.5 -15.5t14.5 -11.5q4 -4 5 -12.5t1 -12.5q0 -6 2 -12q0 -4 1 -9t1 -9t-2 -14.5t-2 -14.5q0 -2 -2 -13.5t-4 -23.5t-4.5 -23.5t-2.5 -13.5q-2 -6 -2 -14v-23q0 -6 1 -19t1 -17q0 -2 2.5 -15.5t4.5 -21.5q0 -6 2 -11q2 -4 4 -10t8 -19.5t13 -27.5t14.5 -26.5 t11.5 -16.5q0 -2 6 -10t8 -10q4 -4 11.5 -13.5t11.5 -11.5q4 6 24.5 23.5t26.5 21.5q4 2 8 6q6 6 14 10q2 0 7.5 3.5t7.5 3.5h10h12l6 -7v-12v-10q0 -2 -6 -14.5t-10 -16.5q-2 -4 -10 -15t-10 -16q-4 -4 -13.5 -12t-18.5 -17l-17.5 -17.5l-10.5 -10.5l-57 -43q0 -4 -3 -19.5 t-7 -17.5q0 -2 -4 -6q-2 -2 -3 -4q-2 -2 -4 -10t-2 -10q-2 0 -4 2l-4 4q0 2 -3 14t-3 16q-4 4 -5 12.5t-5 8.5q-2 4 -17.5 23.5t-19.5 23.5q-2 4 -13.5 21.5t-13.5 21.5q-2 2 -7 11t-11 21.5t-11.5 24t-7.5 17.5q-4 4 -8 18.5t-8 18.5q-2 4 -5 15t-3 15v64v61zM270 6 q-6 0 -6 -8t6 -8q4 0 4 8t-4 8z" />
<glyph unicode="|" horiz-adv-x="167" d="M104 57q-4 -6 -5 -26.5t-5 -24.5q0 -4 -3 -8t-3 -8q0 8 -3 32.5t-5 34.5l-6 13q-2 4 -5 14t-6.5 21.5t-6.5 20.5t-5 11q0 4 -3 17.5t-5 19.5q-4 14 -7 40t-3 28v643l-1 10t-3 22.5t-4 25.5t-5 22q0 6 -3 19t-3 17q0 2 -2 5l-6 6q-4 4 -6 10v6v4q0 2 3 10.5t3 10.5l8 16 q2 2 9.5 9t14.5 14.5t13 12.5t6 7q4 2 15.5 7t15.5 7h6h10q0 -2 2 -2t2.5 -1t2.5 -1q2 -2 6 -2q2 -2 4 -11t4 -13q0 -2 3 -17.5t3 -19.5q4 -6 5 -29.5t5 -28.5q0 -10 1 -32.5t2 -46t2 -43t1 -25.5v-479q0 -4 1.5 -17.5t2.5 -31t2 -32.5t1 -24q2 -4 4 -21.5t4 -21.5 q0 -4 6 -26.5t10 -26.5v-20v-23q0 -2 -3 -7t-7 -7q0 -2 -5 -9.5t-11.5 -14.5t-12.5 -14t-8 -9q0 -8 -1 -29t-2 -44.5t-2 -45t-1 -29.5q0 -6 -3 -31.5t-5 -31.5q0 -4 -2 -16.5t-4 -14.5l-7 6v223z" />
<glyph unicode="}" horiz-adv-x="413" d="M178 100q-10 0 -35.5 9.5t-31.5 13.5q-4 0 -8.5 6t-8.5 8v10v13l4 4q2 2 6 10q0 4 6.5 11.5t6.5 11.5q2 0 4 3t4 3q4 4 16 12l13 8q4 4 15 10.5t15 6.5v39v43q0 8 -3 38.5t-3 40.5q-2 4 -4 17.5t-5 28t-5 27.5t-2 18q-2 10 -5 29.5t-3 21.5v22v21q2 4 4 15t4 15 q0 4 6 14.5t10 14.5q0 2 6 11.5t6 13.5q4 4 15.5 18t15.5 19q-4 2 -11 13t-11 13q-2 4 -7.5 13.5t-7.5 11.5l-6 12q-4 4 -5 12.5t-5 12.5q0 4 -3 14t-3 14v15v16q0 6 2 14q4 16 4 23q4 2 5 13t5 14q0 4 3 15t6 23.5t7.5 22.5t4.5 12v23v24q-2 2 -4 6q-4 8 -5 9q0 2 -6 8 q-4 2 -6 4q-4 4 -15 8t-16 8q-4 2 -11 4t-11 5q-2 0 -8 -1.5t-11 -1.5q0 -6 1.5 -23t1.5 -37.5t1 -38t1 -23.5q0 -4 -1 -15.5t-2.5 -25t-2.5 -25.5t-1 -18q-2 -4 -3 -10.5t-3 -12.5q-2 -8 -4 -14h-6v194q0 -4 -3 -8t-5 -8l-4 -4q-2 -2 -6 -2v80q-6 4 -30 8t-34 8l-6 6v12v13 q0 2 3 10t3 10l21.5 21.5t23.5 21.5q4 4 14.5 8.5t14.5 8.5q4 0 18.5 3t18.5 3q2 0 8 1t10 1q0 -2 2 -2h4h6q2 0 7.5 -6t7.5 -6q4 -4 26.5 -10.5t26.5 -6.5q2 -2 10 -4t11 -4q4 -4 16 -8t14 -4q4 -4 17.5 -18.5t19.5 -18.5q0 -6 2 -10t4 -7v-45v-43q0 -4 -3 -15t-7 -23.5 t-7 -22.5t-3 -12q-4 -8 -7 -18.5t-3 -12.5v-31v-29q4 -2 8 -12t8 -18q2 -2 10 -13.5t10 -13.5q4 -4 13.5 -13t11.5 -9q4 -4 25.5 -18.5t23.5 -18.5q2 -2 3 -2t3 -2l4 -4q0 -4 3.5 -8.5t3.5 -8.5v-2v-4q-4 -4 -8.5 -15.5t-8.5 -15.5q-2 -4 -17.5 -18t-19.5 -19q-2 -2 -13 -7 t-13 -7q-8 0 -26.5 -3t-27.5 -3v-25v-28q0 -4 2 -16.5t5.5 -28t5.5 -28.5t4 -15v-12.5t2 -16.5l4 -20v-127v-125q0 -4 -6 -16.5t-10 -14.5q-2 -4 -18.5 -21.5t-24.5 -21.5l-11 -10q-4 -4 -10 -7q-4 -2 -5 -4t-5 -2v-2v-6q4 -4 5 -24.5t5 -28.5v-272l-10 -7q0 6 -1 20.5 t-2 31t-2 32t-1 21.5t-1 28.5t-2 50t-3.5 52t-2.5 31.5q0 8 -2 29.5t-4 29.5q-2 2 -4 6t-2 8z" />
<glyph unicode="~" horiz-adv-x="808" d="M412 662q-4 2 -12.5 9t-17.5 16t-16.5 17.5t-9.5 12.5q-2 0 -8 6t-13 15.5t-14.5 18.5t-11.5 15q-2 4 -16 20.5t-14 20.5q-6 10 -24.5 26.5t-21.5 18.5h-10h-14l-10 -10q-4 -4 -7.5 -7t-5.5 -3q0 -4 -14 -23.5t-18 -19.5q-4 -8 -16.5 -20.5t-14.5 -16.5q-4 0 -17.5 -9.5 t-17.5 -9.5q-6 -6 -10 -8t-10 -4h-25h-23l-4 4q-4 4 -4 8v15v18q0 4 4 16.5t4 14.5q8 12 25.5 36.5t22.5 28.5q4 6 16 19.5t26.5 28t27 27.5t16.5 18q2 0 10 5t19.5 12t22.5 14t17 12q0 2 9.5 5t9.5 7q8 0 20 4t17 4h36h41l19 -8q2 -4 12 -13.5t20.5 -19.5t20.5 -20.5 t16 -14.5q2 -2 8.5 -11t12.5 -18.5t12 -17.5t8 -8q6 -6 19.5 -18.5t26 -24.5t22.5 -23.5t12 -13.5q2 0 20.5 -9t24.5 -9l11 -4q2 0 5 2t7 2q2 6 8 18t13.5 25.5t13.5 26t8 18.5q2 0 14 14t17 16q4 0 16 10.5t20 14.5q2 2 5.5 3t7.5 3t6 4h18h19l8 -10v-43v-37q0 -2 -4 -20.5 t-4 -24.5q-4 -4 -17.5 -28.5t-19.5 -36.5q0 -4 -3 -9.5t-7 -9.5l-9 -12q-8 -6 -25.5 -22.5t-21.5 -22.5q-2 -4 -14 -12.5t-16 -12.5q-6 -4 -24.5 -11t-20.5 -11q-12 0 -45 -9.5t-46 -9.5q0 -6 -4 -24.5t-4 -20.5q-8 -12 -12 -24q-4 2 -6 4q-4 4 -4 10q-4 8 -9.5 32.5 t-5.5 32.5l-18 9q-2 -10 -4 -32t-3 -45.5t-3 -46t-2 -30.5t-2 -20.5t-4 -24.5q-2 -14 -5 -31h-14q-4 18 -6 37q-2 16 -3 33.5t-1 30.5q0 8 -2 31.5t-3 50t-2 50.5t-1 34z" />
<glyph horiz-adv-x="276" d="M152 -537h-5q0 4 -2 22.5t-4 22.5q0 2 -1 4.5t-1 6.5q-2 4 -2 8q-2 2 -10 6t-10 4q-2 2 -7.5 5t-7.5 5l-34 35q-2 2 -7.5 8.5t-7.5 10.5t-7 12t-7 12q-4 4 -10 20.5t-11 20.5q0 2 -4 11.5t-6 13.5q0 4 -4 14t-4 14h-10h-10q-2 0 -12.5 -2t-12.5 -2q-2 -2 -7 -2h-7v6v2 q0 4 2 7q0 4 2 6q0 2 4 7t6 7l2 4q0 2 2 2t5 2t5 2q2 2 7.5 3t7.5 3v43h-9q-4 0 -15 -2t-15 -2q-2 -2 -6 -2q-2 -2 -7 -2h-2q0 -2 -4 -4t-6 -2h-4h-6q-2 0 -2 2q-2 2 -2 4v11v8q0 2 4 7t6 7q4 10 10 10l54 11l2 2l2 2q2 4 4 18t2 16q0 4 2 12.5t2 12.5q2 4 3 11t3 10 q2 4 5 15t3 13q4 4 12.5 23.5t12.5 25.5q2 2 5 7.5t5 7.5q4 4 10 13t10 13q2 0 5.5 4t5.5 4q2 2 7 5.5t7 5.5q4 2 11 5t10 5q2 0 8 2t10 2h6h4q4 0 13.5 -2t11.5 -2t9 -4t11 -6q2 -2 7.5 -5t7.5 -6l19 -19t20 -19q2 -2 7 -9.5t7 -11.5q4 -4 11 -15.5t9 -13.5l5.5 -11t5.5 -9 v-12v-17q0 -8 -7 -14q-2 -6 -7 -17.5t-7 -13.5q-4 -4 -13 -14t-11 -10h-15q0 4 -2 15t-4 15q-2 2 -2 4t-1 3.5t-1 3.5q-4 4 -10 14t-11 14q-2 4 -9 12.5t-9 12.5l-20 20q-2 2 -9.5 7.5t-9.5 7.5q-2 0 -2 -1t-2 -1h-4q0 -10 1 -41t1 -41q0 -2 -2 -9.5t-2 -11.5q-2 4 -3 11.5 t-3 9.5q-2 10 -5 44t-3 44l-9 6v-70l-8 -10q0 4 -2 10t-2 11q-2 6 -3 28.5t-1 30.5h-4h-2q-2 -2 -5 -3t-5 -3l-5 -4q0 -2 -2 -5.5t-2 -5.5q-6 -6 -6 -14q-2 -4 -3 -15.5t-1 -15.5q0 -2 -1 -16t-1 -20q0 -4 1 -14.5t1 -12.5l4 -4q10 0 38 -2t36 -4q4 0 10 -2t10 -2l3 -3 q0 -2 2 -2v-8v-8l-5 -8q-2 -4 -7 -9t-7 -8h-2h-4q-2 2 -12.5 4.5t-12.5 2.5q-4 0 -21.5 -1t-21.5 -1v-9q0 -2 1 -7t3 -7q0 -4 3 -6q0 -2 2 -4h157q6 0 6 -6q0 -4 -2 -6q-4 -8 -4 -9q0 -2 -2 -5t-2 -5l-14 -14h-115l-2 -2q-2 0 -2 -2v-2v-4q0 -2 4 -9.5t6 -9.5 q2 -4 8.5 -15.5t10.5 -15.5t9 -10t7 -8l14 -14q2 -2 7.5 -5.5t7.5 -5.5t9 -5t11 -5q2 -2 7.5 -3t7.5 -1h4h6q2 0 7 1t7 3q2 0 5 4t5 6q2 4 9.5 18.5t9.5 20.5q2 0 3 6.5t3 8.5q0 4 6 24.5t8 24.5l7.5 15l7.5 15q4 4 15 14.5t15 14.5h2h2l3 -2q0 -2 2 -2q0 -2 1 -6t1 -6 t-1 -4t-1 -4v-5q0 -4 -3.5 -18l-5.5 -22q-2 -2 -5 -13.5t-5 -15.5t-6 -13.5t-4 -11.5q-4 -8 -17.5 -34.5t-17.5 -34.5q-2 -4 -4 -7q-2 -4 -4 -5t-2 -3q-2 -4 -7 -11t-7 -7q-4 -4 -10.5 -11.5t-10.5 -9.5q-2 -2 -14.5 -10t-14.5 -10l-4 -4q-2 -10 -3 -42t-3 -42 q0 -4 -2 -14.5t-2 -14.5q-2 -4 -4 -11t-4 -9v133zM88 94q6 0 0 -6q-4 0 -4 3t4 3z" />
<glyph unicode="&#xad;" d="M244 248h-29q-6 0 -17.5 -1t-23.5 -2t-23.5 -3t-15.5 -2q-2 0 -14 -5.5t-17 -5.5q-8 -8 -14 -10t-10 -4q-2 0 -14.5 -5t-16.5 -5h-8h-6q-4 0 -11.5 5t-11.5 5q0 4 -4 12.5t-4 12.5v8v12q2 8 10.5 23.5t10.5 19.5t11 13.5t19.5 19.5t20.5 20.5t14 14.5q4 2 10 4q4 2 7.5 4 t7.5 2q2 4 14 7t16 7q4 0 26 5.5t30 5.5q6 0 32.5 4t36.5 4q10 4 40 8t38 4t25.5 2t35 3t32 3t18.5 2h37h36q4 0 14.5 -9t10.5 -13v-6v-2q-4 -8 -12 -26t-13 -22q-2 -2 -10 -11t-18 -19.5t-20.5 -20.5t-16.5 -12q-6 -4 -10 -6q-2 -2 -6 -2q-2 0 -5 -2q-8 -4 -28.5 -12.5 t-26.5 -12.5l-24 -110l-11 -13v121q-2 0 -14 1t-16 1t-7.5 -4t-7.5 -8q0 -2 -3 -15.5t-7 -29t-7 -28.5t-5 -15q0 -4 -5 -16.5t-10 -14.5v119h-30z" />
<glyph unicode="&#x2000;" horiz-adv-x="785" />
<glyph unicode="&#x2001;" horiz-adv-x="1571" />
<glyph unicode="&#x2002;" horiz-adv-x="785" />
<glyph unicode="&#x2003;" horiz-adv-x="1571" />
<glyph unicode="&#x2004;" horiz-adv-x="523" />
<glyph unicode="&#x2005;" horiz-adv-x="392" />
<glyph unicode="&#x2006;" horiz-adv-x="261" />
<glyph unicode="&#x2007;" horiz-adv-x="261" />
<glyph unicode="&#x2008;" horiz-adv-x="196" />
<glyph unicode="&#x2009;" horiz-adv-x="314" />
<glyph unicode="&#x200a;" horiz-adv-x="87" />
<glyph unicode="&#x2010;" d="M244 248h-29q-6 0 -17.5 -1t-23.5 -2t-23.5 -3t-15.5 -2q-2 0 -14 -5.5t-17 -5.5q-8 -8 -14 -10t-10 -4q-2 0 -14.5 -5t-16.5 -5h-8h-6q-4 0 -11.5 5t-11.5 5q0 4 -4 12.5t-4 12.5v8v12q2 8 10.5 23.5t10.5 19.5t11 13.5t19.5 19.5t20.5 20.5t14 14.5q4 2 10 4q4 2 7.5 4 t7.5 2q2 4 14 7t16 7q4 0 26 5.5t30 5.5q6 0 32.5 4t36.5 4q10 4 40 8t38 4t25.5 2t35 3t32 3t18.5 2h37h36q4 0 14.5 -9t10.5 -13v-6v-2q-4 -8 -12 -26t-13 -22q-2 -2 -10 -11t-18 -19.5t-20.5 -20.5t-16.5 -12q-6 -4 -10 -6q-2 -2 -6 -2q-2 0 -5 -2q-8 -4 -28.5 -12.5 t-26.5 -12.5l-24 -110l-11 -13v121q-2 0 -14 1t-16 1t-7.5 -4t-7.5 -8q0 -2 -3 -15.5t-7 -29t-7 -28.5t-5 -15q0 -4 -5 -16.5t-10 -14.5v119h-30z" />
<glyph unicode="&#x2011;" d="M244 248h-29q-6 0 -17.5 -1t-23.5 -2t-23.5 -3t-15.5 -2q-2 0 -14 -5.5t-17 -5.5q-8 -8 -14 -10t-10 -4q-2 0 -14.5 -5t-16.5 -5h-8h-6q-4 0 -11.5 5t-11.5 5q0 4 -4 12.5t-4 12.5v8v12q2 8 10.5 23.5t10.5 19.5t11 13.5t19.5 19.5t20.5 20.5t14 14.5q4 2 10 4q4 2 7.5 4 t7.5 2q2 4 14 7t16 7q4 0 26 5.5t30 5.5q6 0 32.5 4t36.5 4q10 4 40 8t38 4t25.5 2t35 3t32 3t18.5 2h37h36q4 0 14.5 -9t10.5 -13v-6v-2q-4 -8 -12 -26t-13 -22q-2 -2 -10 -11t-18 -19.5t-20.5 -20.5t-16.5 -12q-6 -4 -10 -6q-2 -2 -6 -2q-2 0 -5 -2q-8 -4 -28.5 -12.5 t-26.5 -12.5l-24 -110l-11 -13v121q-2 0 -14 1t-16 1t-7.5 -4t-7.5 -8q0 -2 -3 -15.5t-7 -29t-7 -28.5t-5 -15q0 -4 -5 -16.5t-10 -14.5v119h-30z" />
<glyph unicode="&#x2012;" d="M244 248h-29q-6 0 -17.5 -1t-23.5 -2t-23.5 -3t-15.5 -2q-2 0 -14 -5.5t-17 -5.5q-8 -8 -14 -10t-10 -4q-2 0 -14.5 -5t-16.5 -5h-8h-6q-4 0 -11.5 5t-11.5 5q0 4 -4 12.5t-4 12.5v8v12q2 8 10.5 23.5t10.5 19.5t11 13.5t19.5 19.5t20.5 20.5t14 14.5q4 2 10 4q4 2 7.5 4 t7.5 2q2 4 14 7t16 7q4 0 26 5.5t30 5.5q6 0 32.5 4t36.5 4q10 4 40 8t38 4t25.5 2t35 3t32 3t18.5 2h37h36q4 0 14.5 -9t10.5 -13v-6v-2q-4 -8 -12 -26t-13 -22q-2 -2 -10 -11t-18 -19.5t-20.5 -20.5t-16.5 -12q-6 -4 -10 -6q-2 -2 -6 -2q-2 0 -5 -2q-8 -4 -28.5 -12.5 t-26.5 -12.5l-24 -110l-11 -13v121q-2 0 -14 1t-16 1t-7.5 -4t-7.5 -8q0 -2 -3 -15.5t-7 -29t-7 -28.5t-5 -15q0 -4 -5 -16.5t-10 -14.5v119h-30z" />
<glyph unicode="&#x2013;" horiz-adv-x="1040" d="M448 248h-53q-11 0 -32.5 -1t-43.5 -2t-43.5 -3t-28.5 -2q-4 0 -26.5 -5.5t-31.5 -5.5q-15 -8 -26 -10t-18 -4q-4 0 -27 -5t-31 -5h-14h-12q-7 0 -21 5t-21 5q0 4 -7.5 12.5t-7.5 12.5v8v12q4 8 19.5 23.5l19.5 19.5t20.5 13.5t36 19.5t38 20.5t25.5 14.5q8 2 19 4 q7 2 13.5 4t14.5 2q3 4 25.5 7t29.5 7q7 0 48 5.5t56 5.5q11 0 60 4t68 4q18 4 73.5 8t70.5 4t47.5 2t64.5 3t59 3t35 2h68h67q7 0 26.5 -9t19.5 -13v-6v-2q-7 -8 -22 -26t-24 -22q-4 -2 -19 -11t-33.5 -19.5t-38 -20.5t-30.5 -12q-11 -4 -18 -6q-4 -2 -11 -2q-4 0 -10 -2 q-14 -4 -52 -12.5t-49 -12.5l-45 -110l-20 -13v121q-4 0 -26 1t-30 1q-7 0 -13.5 -4t-14.5 -8q0 -2 -5.5 -15.5t-12.5 -29t-13 -28.5t-9 -15q0 -4 -9.5 -16.5t-18.5 -14.5v119h-56z" />
<glyph unicode="&#x2014;" horiz-adv-x="2064" d="M893 248h-108q-22 0 -64.5 -1t-87 -2t-87 -3t-57.5 -2q-7 0 -51.5 -5.5t-63.5 -5.5q-29 -8 -52 -10q-22 -2 -37 -4q-7 0 -53.5 -5t-60.5 -5h-30h-22q-15 0 -43 5t-42 5q0 4 -15 12.5t-15 12.5v8v12q7 8 38.5 23.5t39.5 19.5q7 4 40.5 13.5t72.5 19.5t76 20.5t51 14.5 q15 2 38 4q14 2 27 4t28 2q7 4 51.5 7t59.5 7q15 0 96.5 5.5t111.5 5.5q22 0 120 4t135 4q37 4 148 8t141 4t94.5 2t129.5 3t118.5 3t68.5 2h137h133q15 0 54 -9t39 -13v-6v-2q-15 -8 -44.5 -26t-48.5 -22q-7 -2 -36.5 -11t-66.5 -19.5t-76 -20.5t-61 -12q-23 -4 -37 -6 q-8 -2 -23 -2q-7 0 -18 -2q-30 -4 -106 -12.5t-98 -12.5l-89 -110l-40 -13v121q-8 0 -52.5 1t-58.5 1q-15 0 -28 -4t-28 -8q0 -2 -11 -15.5t-26 -29t-26 -28.5t-19 -15q0 -4 -18.5 -16.5t-36.5 -14.5v119h-111z" />
<glyph unicode="&#x202f;" horiz-adv-x="314" />
<glyph unicode="&#x205f;" horiz-adv-x="392" />
<glyph unicode="&#xe000;" horiz-adv-x="1198" d="M0 1198h1198v-1198h-1198v1198z" />
</font>
</defs>
</svg>
