<?xml version="1.0" standalone="no"?>
<!DOCTYPE svg PUBLIC "-//W3C//DTD SVG 1.1//EN" "http://www.w3.org/Graphics/SVG/1.1/DTD/svg11.dtd" >
<svg xmlns="http://www.w3.org/2000/svg">
<metadata></metadata>
<defs>
<font id="PoscaMadThrasherzRegular" horiz-adv-x="1024" >
<font-face units-per-em="2048" ascent="1493" descent="-555" />
<missing-glyph horiz-adv-x="778" />
<glyph horiz-adv-x="0" />
<glyph horiz-adv-x="2048" />
<glyph unicode=" "  horiz-adv-x="778" />
<glyph unicode="&#x09;" horiz-adv-x="778" />
<glyph unicode="&#xa0;" horiz-adv-x="778" />
<glyph unicode="!" horiz-adv-x="516" d="M170 373q-4 154 14.5 307.5t39 307t29.5 307t-13 304.5q-23 23 -25 50.5t11.5 49t40 32t63.5 0.5q41 -25 54 -70t12 -95t-10 -99.5t-15 -86.5q-20 -145 -39 -265t-27 -235.5t-3 -235.5t30 -263q-2 -43 -25.5 -65.5t-52.5 -23.5t-54.5 18.5t-29.5 62.5zM204 69.5 q-1 24.5 7 47t23.5 41t37.5 22.5q20 4 38 -1t32 -15q37 -14 48 -48t-5 -65q-4 -51 -49 -71q-39 -14 -72 12h-2q-10 10 -22.5 16t-22.5 19q-12 18 -13 42.5z" />
<glyph unicode="&#x22;" horiz-adv-x="520" d="M55 1061q12 57 27.5 109.5t25 102.5t10.5 101t-12 107l-2 2q-8 8 -13 18t-9 21q-16 18 -19 51q0 4 1.5 6t1.5 6q6 31 23 49.5t40 23.5t46.5 -5.5t41.5 -34.5q0 -6 1 -12.5t1 -12.5q2 0 2 1t2 1q2 -4 2 -14q0 -6 -1 -11t-1 -9q4 -66 -5 -126.5t-13 -125.5 q-6 -66 -2 -133.5t14 -133.5q-12 -35 -37.5 -50t-51.5 -12t-47.5 23.5t-25.5 57.5zM266 1681q0 4 1 7.5t1 7.5q6 31 24.5 49t41 23.5t45 -5t41.5 -37.5l6 -49q2 -4 2 -14q0 -2 -2 -2q2 -45 -2 -90t-10 -90t-11.5 -90t-5.5 -91q0 2 2 0q14 -47 21.5 -96t21.5 -96 q0 -37 -18 -59.5t-44 -27.5t-52.5 7t-44.5 45q2 74 7 152t8 150.5t2 138t-13 114.5q-18 25 -21 53z" />
<glyph unicode="#" horiz-adv-x="1261" d="M-35 371.5q-4 27.5 7.5 50t37 34t58.5 5.5l86 18q47 10 96 19.5t96 19.5q6 41 13.5 83t13.5 83q-14 -4 -28.5 -7t-29.5 -7q-41 -10 -79.5 -18.5t-77.5 -18.5q-6 -4 -12.5 -5t-12.5 -5q-4 -2 -10 -2q6 2 10 2l-2 4q-12 -4 -20 -6q-29 0 -49.5 14t-28.5 36.5t-1 47t31 47.5 q2 0 5 2q29 23 56.5 24t47.5 -14q53 2 106.5 7.5t106.5 13.5q4 23 4 46t2 46q2 51 -5 101t-13 102q-20 31 -8 67.5t59 55.5h6q33 2 52.5 -6.5t35.5 -36.5q14 -29 15.5 -73t-4 -93.5t-15.5 -99.5t-20 -91q80 16 160.5 36.5t160.5 43.5q0 39 -2 63.5t-3 46t-4 48t-7 69.5 q-2 8 -2 23q-16 23 -13.5 54.5t35.5 60.5l8 4q29 12 51.5 10t47.5 -23q35 -39 26 -90q0 -8 -4 -24q0 -4 -1 -13.5t-1 -5.5q0 8 1 14.5t-1 14.5q0 -4 -1 -9t-1 -10q-2 -29 -4 -59.5t-4 -60.5q-2 -20 -4 -39t-4 -37q80 27 158.5 55.5t156.5 57.5q37 2 61.5 -15.5t31.5 -42 t-4 -52.5t-44 -48q-92 -20 -186 -36.5t-189 -33.5q-4 -41 -6 -79t-4 -74q82 23 162 41t164 34q43 2 67.5 -20.5t27.5 -51t-15.5 -55t-61.5 -34.5q-88 -2 -172 -9.5t-170 -19.5q6 -92 27.5 -181t64.5 -190q12 -41 -3 -69.5t-41.5 -39t-57.5 1t-51 48.5q-25 104 -31 205.5 t-4 205.5q-186 -37 -369 -100q4 -61 18.5 -122.5t45.5 -129.5q12 -41 -3.5 -69.5t-42 -39t-57 1t-51.5 48.5q-16 74 -19 141.5t1 132.5q-35 -12 -69 -24.5t-68 -26.5q-29 -10 -52.5 -20.5t-47 -16.5t-48 -4t-51.5 14q-27 27 -31 54.5zM106 618q2 0 5 3h12q-4 0 -9 -1.5 t-8 -1.5zM442 541q94 23 185.5 48t183.5 52q2 39 2 78t2 80l-123 -25q-57 -14 -112.5 -29.5t-110.5 -31.5q-10 -47 -16.5 -89t-10.5 -83z" />
<glyph unicode="$" horiz-adv-x="1122" d="M-33 987q10 63 58.5 114.5t97.5 86.5q35 25 75 50.5t81 47.5q-2 14 -3.5 26.5t-3.5 24.5l-2 2q-10 18 -13 47t-6 59t-9 57.5t-21 41.5q-16 33 -10 61.5t25.5 45t49 17.5t60.5 -19q29 -37 44.5 -119t21.5 -180q29 10 55.5 18t54.5 16q-10 57 -14 103.5t-9 86.5t-12.5 75.5 t-23.5 76.5q-4 37 11 63t40 36t52.5 1t49.5 -40q23 -86 26 -168t7 -170q0 -12 1 -24.5t1 -22.5q57 0 112.5 -12.5t108.5 -40.5q35 -25 41.5 -56.5t-8 -57.5t-45.5 -36t-69 8q-63 39 -132 41q6 -111 13.5 -222.5t19.5 -221.5q43 -18 69.5 -32.5t52.5 -30t58.5 -38t88.5 -59.5 q41 -29 86 -86t70.5 -122.5t19 -130t-65.5 -107.5q-29 -20 -57.5 -39t-59.5 -39q-33 -20 -71 -37q41 -104 83 -204.5t87 -203.5q12 -41 -3.5 -69.5t-42 -38.5t-57 1t-51.5 48q-35 109 -69.5 214t-65.5 214q-66 -16 -135.5 -21.5t-136.5 -3.5q12 -88 28.5 -176t36.5 -180 q0 -37 -18.5 -59.5t-44 -27.5t-52 7t-45.5 45q-10 102 -18 201.5t-14 200.5q-39 4 -74 10t-68 16q-80 20 -123 73.5t-56 121t1 138.5t51 128q41 63 91.5 113.5t103.5 99.5q10 4 20.5 6t20.5 2l-6 86q-86 23 -170 48.5t-164 66.5q-10 12 -15.5 22.5t-9.5 26.5zM102 1012 q53 -23 106.5 -42.5t106.5 -35.5q-4 51 -7 100t-9 103q0 2 -1 4t-1 4q-4 -4 -10 -5t-11 -5l-40.5 -22.5t-47 -28t-47.5 -34t-39 -38.5zM180 282q8 -46 50 -81t128 -54l-8 204t-8 206q-18 -16 -38 -34t-40 -34q-45 -55 -68.5 -108t-15.5 -99zM266 1372q0 4 1 -3t3 -15 q-4 12 -4 18zM420 903q88 -29 178 -61q-14 100 -25.5 198.5t-25.5 198.5q-33 -6 -64.5 -16.5t-62.5 -22.5q2 -92 0 -168t0 -104v-25zM422 797q6 -170 18.5 -335t34.5 -331q63 -4 129 1t129 20q-41 143 -67 284q-16 74 -28.5 148.5t-23.5 148.5q-12 4 -23.5 8.5t-21.5 8.5 q-37 14 -73.5 25t-73.5 22zM707 694q23 -131 57.5 -259t79.5 -253q14 4 27.5 9.5t27.5 11.5q76 33 109.5 77t32.5 93t-33.5 100t-92.5 100q-35 31 -76.5 55t-82.5 44q-12 6 -24.5 12t-24.5 10z" />
<glyph unicode="%" horiz-adv-x="1200" d="M-2 -95q-8 32 14 68q186 223 351 457t331 471q86 123 178.5 241t180.5 240v2q23 37 54.5 45.5t57 -4t37.5 -42t-2 -70.5q-23 -37 -62.5 -85t-85.5 -95.5t-90 -90.5t-75 -73q-2 -2 -2 -1t2 3q-78 -86 -150.5 -174t-136.5 -185q-123 -180 -228.5 -366.5t-226.5 -368.5 q-29 -33 -60.5 -36t-55 14.5t-31.5 49.5zM71.5 1138.5q8.5 53.5 34 95.5t67.5 65.5t99 15.5q31 -10 45 -27q55 6 97.5 -5t89.5 -40q45 -27 52 -67.5t-13.5 -84.5t-60.5 -86t-89 -73t-98 -45.5t-88 -1.5q-55 16 -87 58t-44.5 92t-4 103.5zM190 1081q0 -31 7.5 -55.5t24 -37.5 t43 -13t67.5 20q25 12 54.5 38t47 51.5t12 48t-48.5 28.5q-10 -8 -23.5 -8h-29.5q-10 -4 -30.5 -13.5t-41 -18.5t-38 -18t-23.5 -11q-4 -2 -10 -2q-4 -10 -11 -9zM639 348.5q-2 20.5 6 42t31 39.5q8 4 16.5 7t18.5 7q23 41 61.5 62.5t85.5 -0.5q31 10 64.5 13t68.5 -1 q68 -10 102.5 -43t44 -78t-3 -96t-38.5 -98q-12 -23 -33 -39.5t-41 -34.5t-49 -25.5t-58 -17.5q-45 -14 -82.5 0t-66.5 45t-49.5 73t-28.5 83q-20 8 -33.5 24.5t-15.5 37zM819 307q-4 -41 10.5 -67.5t42.5 -49.5q43 -18 79 -2.5t59.5 46t32 69.5t-4 66.5t-45.5 36t-92 -22.5 q-18 -10 -35.5 -21.5t-36.5 -21.5q-8 -12 -10 -33zM903 989l12 12z" />
<glyph unicode="&#x26;" horiz-adv-x="1187" d="M-4 114.5q-4 12.5 0 35.5q23 100 73 181t109 163q57 78 119.5 153.5t124.5 153.5q-33 104 -50.5 209.5t-13.5 203.5q2 55 16.5 112.5t43 105t73 81t105.5 39.5q29 4 60.5 -7t52.5 -27q57 -45 74.5 -104.5t9 -123t-35 -127t-57.5 -114.5q-35 -59 -71.5 -113.5 t-77.5 -108.5q47 -127 115 -249q16 16 31.5 29.5t31.5 29.5q98 92 195.5 180t191.5 180q33 27 65.5 25t53 -22.5t23 -53.5t-24.5 -65q-117 -104 -234.5 -200.5t-234.5 -199.5q-8 -6 -15.5 -13t-15.5 -13q2 -2 3 -4t3 -5q23 -35 44.5 -66.5t45.5 -64.5q23 -29 47.5 -52 t49.5 -50q8 -8 12 -10q41 6 70.5 -28t9.5 -91q-14 -35 -51 -45q-41 -8 -78 8t-70 45t-59.5 62.5t-46.5 60.5q-49 63 -92 141q-98 -86 -203 -159q-27 -18 -70 -49t-91 -56.5t-97 -41t-86 -5.5q-14 4 -32.5 20.5t-25.5 20.5q-16 16 -20 28.5zM106 152q23 4 42.5 13t37.5 19 q43 23 84 51.5t78 57.5q55 41 106.5 87t100.5 93q-29 55 -53.5 112.5t-46.5 116.5q-51 -66 -101.5 -131t-97.5 -133q-20 -31 -44 -65.5t-45.5 -70.5t-37.5 -72.5t-23 -75.5v-2zM471 1217q0 -74 11.5 -147t33.5 -144q35 49 67.5 100t61.5 107q12 25 29.5 78t22.5 106t-13 94 t-76 39q-41 0 -66.5 -25.5t-42 -62.5t-22.5 -76.5t-6 -68.5z" />
<glyph unicode="'" horiz-adv-x="526" d="M127 1323q10 31 35.5 45t57.5 8t56 -41q12 -51 2 -93t-10 -95q2 -45 14.5 -96.5t22.5 -96.5q-12 -35 -37.5 -50t-51.5 -12t-47.5 23.5t-25.5 57.5q25 74 36 141.5t-25 140.5q-4 6 1 -7t3 -21q0 -4 -1 2t-3 8q-4 4 -9.5 8t-9.5 8q-18 39 -8 70z" />
<glyph unicode="(" horiz-adv-x="614" d="M101.5 530.5q7.5 147.5 34 294t67.5 291.5q18 63 39.5 137t51.5 144.5t71 133t98 105.5q35 12 63.5 4t44 -28.5t14.5 -50t-26 -58.5q-12 -10 -17 -12l-10 -4q8 8 20.5 22.5t4.5 6.5q-78 -86 -127 -181.5t-98 -199.5l-2 -2q-57 -154 -97 -318t-44.5 -327.5t36.5 -322.5 t146 -300q27 -35 55.5 -65.5t56.5 -65.5q25 -35 20 -67t-26.5 -50t-54.5 -18t-64 30q-53 76 -105 152t-81 164q-47 145 -62.5 291.5t-8 294zM332 1137q4 10 8 21.5t8 21.5q2 4 0 -1l-5 -12.5t-6 -16.5t-5 -13zM532 1485v2v-2z" />
<glyph unicode=")" horiz-adv-x="686" d="M84 1580.5q2 31.5 22.5 52t53.5 22.5t65 -25q59 -72 116.5 -143.5t94.5 -157.5q57 -141 84 -286.5t31 -293t-11.5 -295t-43.5 -294.5q-12 -66 -28.5 -141.5t-41.5 -148.5t-61 -138.5t-89 -110.5q-35 -16 -64.5 -10t-45.5 25.5t-17.5 49t21.5 60.5q16 14 21.5 17.5 t3.5 3.5q-4 -10 -16.5 -25.5t-4.5 -7.5q72 92 113 190.5t82 206.5q2 6 -1 -3t-6.5 -20.5t-5.5 -20.5t0 -3q49 162 80 335t26 343t-58.5 331.5t-172.5 301.5q-29 31 -60.5 60.5t-61.5 60.5q-27 33 -25 64.5z" />
<glyph unicode="*" horiz-adv-x="962" d="M61.5 534.5q-6.5 20.5 2 44t30.5 42.5q8 10 16.5 15t16.5 11q29 10 52.5 7t39.5 -17q41 8 83 16.5t83 18.5q-33 84 -51.5 163.5t-14.5 151.5q4 12 8.5 18.5t12.5 14.5q18 10 35.5 19.5t36.5 13.5q35 6 66.5 -6.5t55 -37t36 -57t8.5 -65.5q-6 -47 -16.5 -91t-24.5 -89 q72 16 145.5 26t148.5 15q37 -10 53.5 -34t15.5 -50.5t-20.5 -49t-56.5 -28.5q-70 16 -135 18t-137 6q-4 -2 -12 -2q33 -55 67.5 -108.5t67.5 -102.5t61.5 -91t46.5 -73q10 -35 -1 -62.5t-32.5 -40.5t-51 -9t-56.5 31q-35 74 -85 167t-99 193q-27 -53 -56.5 -101.5 t-62.5 -95.5q-29 -33 -60.5 -36t-55 14.5t-32 49.5t14.5 69q23 27 52.5 60.5t57.5 74.5q-4 -2 -5 -2t-5 -2q-45 -18 -83 -37t-85 -27q-31 4 -50 19.5t-25.5 36zM401 954q-2 -37 10.5 -82t34.5 -94q16 43 21.5 85t-4.5 79q-10 4 -21.5 10t-21.5 11q-13 -5 -19 -9z" />
<glyph unicode="+" d="M103 472q-3 26 12.5 51.5t50.5 37.5q4 0 11 1t3 -3q8 2 14.5 4t14.5 4q39 6 77 10.5t74 8.5q12 2 24.5 4t25.5 4q-10 39 -19.5 67.5t-20 58.5t-23.5 63.5t-32 82.5q-4 43 15.5 69t48.5 32t56.5 -9.5t39.5 -56.5q6 -72 15.5 -141.5t23.5 -141.5q72 20 142.5 47t142.5 62 q37 2 61.5 -15.5t31.5 -42t-4 -52t-44 -48.5q-76 -8 -155 -14t-154 -25h-3q18 -78 41 -152.5t56 -146.5q-4 14 2 11q12 -4 14 -19.5t6 -27.5q12 -41 -3 -70t-41.5 -39t-57.5 1t-51 48q-10 66 -14.5 131.5t-20.5 126.5q-8 31 -14.5 56.5t-12.5 48.5q-63 -27 -124.5 -55 t-127.5 -44q-37 4 -57.5 25.5t-23.5 47.5zM152 551q-4 -2 3 0t11 4q-4 -2 -7 -2t-7 -2z" />
<glyph unicode="," horiz-adv-x="454" d="M20.5 -277.5q-8.5 31.5 14.5 68.5q31 25 58.5 46.5t49 45t31.5 51t4 64.5q-31 8 -48 28.5t-18 45t14 48t50 36.5q70 -6 95.5 -35t25.5 -70t-19.5 -88t-37.5 -90t-36 -87t-36 -91q-29 -33 -60.5 -36t-55 14.5t-32 49z" />
<glyph unicode="-" horiz-adv-x="698" d="M77 494.5q-1 25.5 13 49t49 36.5q8 -2 25 -2v4h8q12 -4 18 -9q53 -6 109.5 -15t99.5 -11q31 -2 79 8t85 18q37 -10 53.5 -33.5t15.5 -50t-20.5 -49t-56.5 -28.5q-94 23 -179 36t-173 -14q-10 -4 -19.5 -8t-19.5 -6h-4q-8 -4 -10 -4v4q-35 6 -53.5 27.5t-19.5 47z" />
<glyph unicode="." horiz-adv-x="450" d="M87.5 42q8.5 32 36.5 54.5t66.5 33.5t73.5 6t60.5 -29.5t25.5 -71.5q0 -20 -5 -42t-21 -36q-18 -16 -42 -28.5t-53 -4.5q-6 4 -12 10.5t-12 10.5q-23 -10 -47 -6q-14 10 -28.5 16t-25.5 20q-25 35 -16.5 67z" />
<glyph unicode="/" horiz-adv-x="1112" d="M35 -11.5q-8 31.5 14 68.5q66 82 124 166t124 166q51 74 106.5 156t96.5 155q43 72 84 146t86 145q72 111 146.5 213t133.5 219q29 25 58.5 26t50 -14.5t29 -44t-4.5 -63.5q-51 -74 -108 -143.5t-114.5 -138t-114 -138t-107.5 -145.5q-127 -193 -231.5 -397.5 t-225.5 -403.5q-29 -33 -60.5 -36t-55 14.5t-31.5 49z" />
<glyph unicode="0" horiz-adv-x="901" d="M59 419q0 91 12.5 174t30.5 142q23 76 56 146q-25 31 -17 82q33 72 58.5 150.5t79.5 135.5q37 37 70.5 77t78.5 65q35 20 75 20t79 4q72 6 131 -44t105 -122.5t79 -150.5t51 -127q18 -47 27.5 -106.5t10.5 -122t-3 -123t-14 -109.5q-18 -94 -75.5 -195.5t-137.5 -185.5 t-178.5 -140.5t-200.5 -58.5q-92 -4 -153.5 39t-98.5 113t-51.5 158t-14.5 179zM174 376.5q0 -22.5 2 -36.5q8 -47 15.5 -94t23.5 -92q37 -90 116 -112t163 11q72 29 136 78t115.5 112.5t86 137.5t47.5 149q23 147 -5 299t-102 281q-16 27 -45 65.5t-65.5 68.5t-78.5 40.5 t-83 -16.5q-35 -23 -60.5 -50.5t-44.5 -60.5q29 4 55.5 -11.5t36.5 -55.5q4 -25 -3 -50.5t-29 -44.5q-23 -18 -41 -24q-8 -10 -23.5 -29.5t-33 -38t-30 -34t-14.5 -17.5q-49 -78 -80.5 -167t-48.5 -183q-2 -12 -4 -34t-4 -45.5t-2 -46z" />
<glyph unicode="1" horiz-adv-x="1069" d="M-45 813q10 27 39 42t69 3l13 -6q61 27 122.5 74t119 103t109.5 115.5t95 108.5q20 23 40 46.5t38 46.5q14 16 25.5 30.5t23.5 28.5q10 43 24.5 80t33.5 55q33 27 65 2q18 -14 18.5 -38.5t-10 -53.5t-27 -58.5t-32.5 -54.5q-12 -68 -16.5 -136t-8.5 -99 q-18 -223 6.5 -431t94.5 -421q10 -35 0 -60q63 25 127.5 43.5t136.5 20.5q41 -12 56.5 -40t9 -56.5t-32 -48t-68.5 -15.5q-14 4 -27.5 8t-29.5 9q-10 4 -24.5 -0.5t-20.5 6.5q-92 -6 -170 -43t-154 -90q-33 -23 -59.5 -44.5t-65.5 -29.5q-25 4 -38 11t-31 24q-1 0 -5 4 q-14 29 -12 53.5t16.5 40.5t35 24.5t42.5 4.5q12 4 17 6q31 12 61.5 22.5t59.5 20.5q16 6 31.5 12t31.5 12q-27 12 -41 45q-61 256 -65.5 501t34.5 501q-74 -96 -151.5 -187.5t-163.5 -175.5q-35 -35 -66.5 -63.5t-65.5 -48t-73 -24.5t-88 12q-37 20 -48 50.5t-1 57.5z M438 59q-10 -4 0.5 -2t24.5 9h-2q-6 -2 -11.5 -2.5t-11.5 -4.5z" />
<glyph unicode="2" horiz-adv-x="923" d="M29.5 52.5q-9.5 64.5 5 132t48.5 131t71 110.5q12 14 31.5 32.5t41 31t45 16.5t45.5 -6q31 -16 53.5 -39t43.5 -49q66 117 126 235.5t115 241.5q23 51 45.5 101t40 102.5t27.5 105.5t8 109q0 43 -18.5 61t-47 19.5t-62 -8t-64.5 -21.5q-23 -8 -60 -25.5t-79 -41 t-86 -51.5t-78 -56q18 -20 19 -52t-26 -63q-20 -14 -49.5 -28.5t-61.5 -20.5t-60.5 2t-45.5 39q-10 23 -12 46t8 46q20 43 74.5 95t128.5 100.5t159 87.5t166 57t150.5 12t112.5 -49q33 -33 43 -83t4 -108.5t-24.5 -120t-41 -117.5t-45 -103t-37.5 -76q-43 -90 -92 -178 q-25 -47 -51.5 -95.5t-52.5 -95.5q-18 -37 -38 -72.5t-40 -72.5q29 -41 64.5 -76t91.5 -51q66 -16 138.5 -8t139.5 18q43 2 67.5 -20.5t27.5 -51t-15 -55.5t-61 -35q-100 -12 -176 -8t-136.5 22.5t-109.5 52.5t-97 85q-23 -43 -53.5 -94.5t-65 -96.5t-71.5 -73.5t-72 -28.5 q-16 0 -28.5 7t-24.5 18q-49 49 -58.5 113.5zM134 91q-5 -32 5 -54q0 -6 11 -12q10 8 19 16t17 18q18 20 38 48t39.5 59t39 61.5t35.5 57.5q-31 39 -62 86q-102 -92 -133 -228q-4 -20 -9 -52z" />
<glyph unicode="3" horiz-adv-x="1050" d="M46 213q-9 68 5.5 135.5t48 130t76.5 111.5q33 27 65.5 24.5t53 -23t22.5 -53t-24 -65.5q-37 -37 -64.5 -89t-31.5 -105.5t18.5 -100.5t85.5 -78q49 -23 106.5 -30t115 0.5t112.5 27t100 47.5q78 49 129 115q31 43 60.5 114.5t42 148.5t-1 146.5t-68.5 110.5 q-49 37 -114.5 49.5t-135 7t-136.5 -22.5t-118 -40q-35 -23 -76 -51.5t-86 -28.5q-39 4 -47 35t21 55q2 0 36.5 47.5t79 105.5t85 111.5t55.5 67.5q53 57 107.5 111.5t113.5 107.5q-61 -10 -122.5 -21t-123.5 -24q-49 -10 -97 -19t-99 -20q-6 -2 -19.5 -6t-15.5 -6 q-23 -6 -42.5 -7t-43.5 -1q-29 16 -42.5 33.5t-17.5 48.5q0 23 8.5 37t18.5 30q49 39 94 19q14 4 39 8q51 8 100.5 16.5t98.5 14.5q119 18 240.5 41.5t242.5 23.5q57 -18 55 -78q-4 -27 -22 -43q-20 -16 -45 -28.5t-47 -30.5q-39 -35 -78 -68.5t-78 -68.5q-31 -29 -63.5 -66 t-66.5 -78t-67.5 -82.5t-66.5 -78.5q8 2 16 3t19 5q123 29 246.5 26.5t238.5 -59.5q59 -29 84 -85t30 -120.5t-1 -130t-8 -110.5q-4 -57 -36 -106.5t-57 -102.5q-31 -63 -92 -113.5t-141 -84.5t-170 -49t-175 -7t-159 40.5t-119 96.5q-43 61 -52 129zM213 1247q-6 -2 10 2 q-4 -2 -10 -2z" />
<glyph unicode="4" horiz-adv-x="882" d="M5 374q-5 56 3 121.5t26.5 137.5t40 136.5t41 117.5t29.5 84q16 45 32 88t32 88q20 61 30.5 89t15.5 46t8 42t11 79q20 33 48 44t52.5 4t42 -31.5t15.5 -61.5q-27 -102 -68.5 -198.5t-88 -192t-89.5 -191.5t-71 -198q-27 -96 -22 -164t40 -100.5t97.5 -29.5t150.5 48 q39 20 88 52t84 54l18 13q-2 72 -6 140t-4 140v2q8 35 30.5 53.5t48.5 19.5t49.5 -15.5t33.5 -51.5v-6q0 -8 -4 -20h2q-8 -47 -16.5 -92.5t-18.5 -90.5q23 14 44.5 27.5t43.5 28.5q41 14 70.5 1.5t42 -38t4.5 -57t-45 -54.5q-47 -23 -92 -47t-90 -49q-4 -98 18.5 -189.5 t95.5 -183.5q10 -35 -1 -62.5t-32.5 -40.5t-51 -9t-56.5 30q-29 57 -42 107.5t-19.5 98.5t-6.5 97.5v102.5q-12 -6 -23 -12.5t-24 -12.5q-31 -16 -51 -24t-37.5 -15.5t-38 -14.5t-53.5 -17q-18 -6 -47 -12.5t-57.5 -7.5t-56 3t-46.5 19q-27 20 -53.5 38.5t-46.5 45.5 q-25 35 -30 91z" />
<glyph unicode="5" horiz-adv-x="890" d="M25 1247q2 55 40.5 83t92 40t110 15.5t94.5 11.5q70 14 139.5 29.5t141.5 21.5q43 2 67.5 -20.5t27.5 -51t-15 -55.5t-61 -35q-98 -8 -193.5 -22.5t-194.5 -24.5q-29 -4 -55 -4t-55 -4q-6 0 -10 -2v-4v-84q-2 -41 -4.5 -83t-6.5 -85q-2 -25 -5 -55.5t-3 -61.5t3 -60.5 t16 -54.5q31 0 80 33t108 71t124.5 67.5t131.5 21.5q63 -8 107.5 -38t72 -73t44 -97t26.5 -110q6 -29 10 -76.5t7 -104t1 -118t-10 -116t-23.5 -97.5t-41.5 -65q-23 -18 -42.5 -38.5t-48.5 -29.5q-78 -23 -166 -27.5t-171.5 13.5t-158.5 60t-126 114q-18 27 -27.5 58.5 t-19.5 60.5q-4 14 -1 40.5t9 52.5t12 47.5t6 25.5q20 33 48 44t52.5 4t42 -31.5t15.5 -61.5q-6 -25 -15.5 -48.5t-11.5 -48.5q-2 -43 28 -79.5t79 -63.5t109.5 -43t120 -19t108.5 8t76 42q31 33 44 96.5t16 134t-2 136t-11 106.5q-6 39 -13.5 84t-25 82t-48 62.5t-79.5 27.5 q-68 4 -124 -26.5t-110.5 -70.5t-110 -75t-120.5 -37q-16 2 -24.5 7t-20.5 16q-39 66 -45 132t-6 142q0 39 1 76t1 73q0 41 -5.5 81t-0.5 81z" />
<glyph unicode="6" horiz-adv-x="923" d="M10 485q-2 125 30 250t90 241t138 218t174 180q35 29 73 47t71 43q35 12 63.5 4t44 -28.5t14.5 -50t-26 -58.5q-29 -18 -57.5 -31.5t-59.5 -29.5q-4 -4 -13 -9.5t-5 -0.5q-82 -55 -152.5 -131t-126 -164t-92.5 -185.5t-51 -197.5q51 41 119.5 84t142.5 74.5t149.5 43 t143.5 -11.5q35 -12 74 -18t61 -35q20 -23 38.5 -48.5t31.5 -54.5q27 -55 24.5 -122.5t-27 -138t-64.5 -141.5t-89 -131t-103.5 -107.5t-103.5 -69.5q-55 -27 -117.5 -9.5t-120 55.5t-104.5 87t-74 86t-45 81t-28 91t-15.5 95t-7.5 93zM117 432q0 -16 1 -30.5t3 -28.5 q6 -47 22.5 -101.5t38.5 -97.5q14 -25 48 -64.5t78 -73.5t92.5 -50.5t88.5 4.5q109 57 175.5 159.5t101.5 215.5q8 25 15 61.5t7 73.5t-11 68.5t-42 49.5q-68 39 -140.5 32t-143 -39.5t-134 -81t-110.5 -91.5q-49 -29 -90 -6z" />
<glyph unicode="7" horiz-adv-x="892" d="M-8 1376.5q10 26.5 38.5 42t69.5 2.5q39 -20 96.5 -25t125 -2t141.5 11t145.5 17.5t135 16.5t112.5 5q59 -16 37 -76q-27 -33 -52.5 -56.5t-52 -47t-51 -50t-49.5 -65.5q-53 -86 -92 -188.5t-57 -212.5q68 8 135 18t135 18q37 -10 53.5 -33.5t15.5 -50t-20.5 -49 t-56.5 -28.5q-72 16 -138.5 25t-134.5 5q-6 -104 12.5 -203.5t65.5 -187.5q16 -29 38 -53.5t42 -52.5q25 -35 19.5 -67t-27 -50.5t-54 -18.5t-63.5 31q-23 39 -51.5 75t-42.5 79q-37 117 -47 224.5t0 211.5q-29 -6 -57.5 -15.5t-57.5 -19.5q0 -2 -2 -2q-4 -4 -10 -5t-10 -3 q8 2 17 5t15 3q10 0 -7 -5t-27 -9q-29 -4 -52.5 3t-37 22.5t-16.5 38t9 46.5v5q25 39 57.5 46t59.5 -10h135q23 113 68 222.5t108 222.5q23 37 44.5 73.5t50.5 67.5q-84 -14 -175.5 -34.5t-179.5 -35t-169 -14.5t-142 25q-37 20 -48 51t-1 57.5z" />
<glyph unicode="8" horiz-adv-x="849" d="M25 1110q-16 61 8 115.5t70.5 98.5t102.5 75t103 45q35 12 66.5 21.5t66.5 9.5q12 2 24.5 1t25.5 -1q33 8 58 -2.5t38.5 -31t11.5 -49t-25 -55.5q-20 -12 -40.5 -16t-41 -4t-42 1t-43.5 -5q-27 -6 -71 -20.5t-85 -38t-69.5 -54.5t-24.5 -70q10 -72 56 -124t95 -99l6 -6 q35 49 70 97.5t70 97.5q29 43 43 66.5t25.5 43t23.5 45t37 72.5q23 37 54.5 45t57 -4t37.5 -42t-2 -71q-63 -111 -149 -219t-164 -219q98 -82 190 -166t158 -201q43 -78 52 -164.5t-16.5 -160.5t-88 -124t-162.5 -54q-76 0 -145 18q-143 39 -213 117t-86.5 177t10 213 t76.5 224q27 59 59 111q-76 59 -137.5 132t-89.5 175zM208 331q1 -87 40 -153.5t114.5 -105.5t186.5 -39q88 0 127 38t47 93t-8.5 121t-36.5 121q-20 51 -54 95t-76 82t-91 72.5t-101 69.5q-74 -109 -112 -211q-37 -96 -36 -183z" />
<glyph unicode="9" horiz-adv-x="899" d="M2 924.5q-4 101.5 22.5 203t73.5 170.5q35 49 84.5 87t102.5 61q29 12 66.5 17t76.5 2t74 -14t57 -32q4 20 9 40t12 40q8 12 15 16.5t21 8.5q4 2 6.5 2t4.5 2q20 -2 29.5 -8.5t19.5 -22.5q53 -123 45 -268.5t-62 -280.5q14 -256 45 -501.5t97 -495.5q8 -41 -9.5 -68.5 t-45 -35t-57.5 6t-46 52.5q-43 217 -62.5 426t-25.5 426q-8 -8 -10 -13q-31 -41 -72 -76.5t-89 -59t-99.5 -26.5t-104.5 21q-90 43 -132 131t-46 189.5zM128 982q-1 -34 1 -71q2 -66 20.5 -114.5t52.5 -75.5t82 -26t107 36q47 39 87 89t73 110v37q-2 68 -6 141.5t-2 144.5 q-41 -23 -78 -2t-41 64q-27 12 -60.5 2t-65.5 -30.5t-58.5 -46.5t-38.5 -46q-27 -43 -42.5 -78t-22.5 -67.5t-8 -66.5z" />
<glyph unicode=":" horiz-adv-x="712" d="M237.5 247q8.5 32 36 54.5t66.5 33.5t74 6t60.5 -29.5t25.5 -71.5q0 -20 -5.5 -42t-21.5 -36q-18 -16 -41.5 -28.5t-52.5 -4.5q-6 2 -12.5 8t-12.5 10q-25 -6 -47 -4q-14 10 -28.5 16.5t-24.5 20.5q-25 35 -16.5 67zM237.5 902.5q8.5 31.5 36 54t66.5 33.5t74 6 t60.5 -29.5t25.5 -71.5q0 -20 -5.5 -42t-21.5 -36q-18 -16 -41.5 -28.5t-52.5 -4.5q-6 2 -12.5 8.5t-12.5 10.5q-25 -6 -47 -4q-14 10 -28.5 16t-24.5 21q-25 35 -16.5 66.5z" />
<glyph unicode=";" horiz-adv-x="548" d="M20.5 -496.5q-8.5 31.5 14.5 68.5q47 47 93 92t80 95.5t53.5 107.5t14.5 127q-6 12 -6 31v8q8 37 31 55t48.5 20.5t49 -15t33.5 -52.5v-8q-2 -43 -13 -81t-29.5 -73t-41 -67.5t-43.5 -67.5q-41 -63 -71.5 -133t-65.5 -135q-29 -33 -60.5 -36t-55 14.5t-32 49zM238 301 q0 39 24.5 56.5t56 20.5t65.5 -5t56 -21q10 -14 13.5 -23.5t1.5 -25.5q4 -31 -11.5 -52t-29.5 -50q-43 -27 -82 -13q-39 -4 -76 33q-2 18 -10 40t-8 40z" />
<glyph unicode="&#x3c;" horiz-adv-x="1173" d="M104 475q-4 23 21 43q66 27 145.5 72t175.5 94q133 68 265.5 132t263.5 130q41 14 70.5 2t42 -37.5t4 -57.5t-44.5 -54q-186 -66 -370.5 -133.5t-361.5 -157.5q-12 -6 -24 -12.5t-25 -10.5q76 -33 155 -80t155.5 -99t147.5 -103t130 -94q20 -31 19 -61t-17 -49t-45 -25.5 t-61 10.5q-66 59 -137.5 127.5t-149.5 131t-161 115t-167 78.5q-27 16 -31 39z" />
<glyph unicode="=" horiz-adv-x="1243" d="M50 878.5q-3 24.5 12.5 49t50.5 37.5h24v2h8q2 -2 7 -2q117 -2 228.5 -3t225.5 7q104 8 209 25.5t209 27.5q37 -10 53.5 -33.5t15.5 -50.5t-20.5 -49.5t-56.5 -28.5q-98 10 -198.5 19.5t-199.5 3.5q-115 -8 -228.5 -26.5t-225.5 -43.5q-10 -4 -27 -8h-6h-2h-2 q-35 6 -54.5 27.5t-22.5 46zM96 479.5q0 32.5 18.5 54t50.5 26.5t66 -19q8 -6 36 -6t58.5 3t56.5 7l26 4q174 16 345 44t345 50q37 -10 53 -33.5t15 -50.5t-20.5 -49.5t-55.5 -28.5q-137 10 -270.5 14.5t-270.5 -24.5q-45 -8 -100.5 -28.5t-112.5 -36t-111.5 -17.5t-97.5 27 q-31 31 -31 63.5z" />
<glyph unicode="&#x3e;" horiz-adv-x="1060" d="M65.5 83q4.5 32 38.5 60q174 90 349.5 181.5t337.5 201.5q10 8 22 14.5t25 12.5q-80 20 -165 57t-167 79t-159 85t-140 78q-25 27 -28 57.5t10.5 52t41 30.5t62.5 -3q72 -51 152.5 -109.5t166.5 -110.5t174 -93t175 -55q29 -12 36 -35t-16 -45q-59 -35 -134 -90.5 t-163 -116.5q-123 -84 -245.5 -165t-245.5 -163q-39 -18 -70 -10t-46.5 31.5t-11 55.5z" />
<glyph unicode="?" horiz-adv-x="897" d="M131 995q-6 43 16 95q25 53 95.5 115.5t157.5 112.5t174.5 82t146.5 23q20 -4 41.5 -22.5t32.5 -28.5q27 -25 29.5 -68.5t-6.5 -92t-24.5 -91.5t-23.5 -65q-37 -92 -89 -201t-100.5 -223.5t-81 -227t-28.5 -210.5q2 -39 12.5 -76t18.5 -74q0 -37 -18.5 -59.5t-44 -27.5 t-52.5 7t-45 45q-4 47 -16.5 93t-3.5 92q29 154 83 285.5t123 271.5q35 68 72 134t66.5 134.5t44 140.5t2.5 150q-31 23 -87.5 -1t-115.5 -66t-109.5 -88.5t-68.5 -66.5q-4 -4 -9.5 -10t-9.5 -10q29 -18 34 -55t-25 -72q-47 -35 -89.5 -35t-69 23.5t-32.5 66.5z M404.5 -178.5q1.5 28.5 24 52.5t65.5 26h4q37 -10 53 -34t15 -50.5t-20.5 -49t-56.5 -28.5h-4q-43 4 -62.5 29.5t-18 54z" />
<glyph unicode="@" horiz-adv-x="1878" d="M33 389q10 78 15 153.5t28 147.5q43 137 110.5 270.5t154.5 247t191.5 198.5t222 127t246.5 35t267 -81q68 -35 133 -106.5t119.5 -167t95.5 -205t59.5 -221t12 -217t-47.5 -190.5t-119.5 -143.5t-201.5 -72.5q-20 -4 -52 9t-48 24q-33 23 -55.5 61.5t-39.5 89.5 q-45 -59 -90 -108.5t-82 -79.5q-23 -18 -57.5 -42t-74.5 -43.5t-81 -29.5t-75 0q-29 10 -52.5 29.5t-46.5 38.5q-31 23 -44 60.5t-16 80.5t0 86t9 76q14 94 51 186t95.5 168t137.5 130t179 77q59 12 119.5 -15.5t97.5 -76.5q35 10 63 -29q10 -29 21.5 -54.5t15.5 -53.5 q8 -59 -17.5 -131t-68.5 -146q6 -39 16.5 -76t26.5 -69q31 -66 73 -68t84 31t75 82t45 84q27 82 33 176t-6.5 190.5t-44 186.5t-76.5 163q-96 147 -203 215t-215.5 73t-216 -43t-204.5 -132t-180 -194.5t-143.5 -231.5t-94.5 -242.5t-32 -228.5q2 -152 68 -261.5t169 -180 t232 -107.5t263 -43q168 -8 277.5 17.5t197.5 79t174 134t209 185.5q35 12 63.5 4t44 -28.5t14 -50.5t-25.5 -58q-109 -86 -201 -158t-180 -127t-176 -90t-187.5 -48t-215 -2t-259.5 50q-45 12 -104 35.5t-118.5 54.5t-111 69t-77.5 81q-29 47 -56.5 91t-56.5 91 q-35 57 -49 128t-6 136zM643 279q2 -6 4 -32t12 -36q10 -8 19.5 -14.5t19.5 -14.5q16 4 33 4t31 7q37 16 82 48.5t90 75.5t87 92.5t77 102.5q-6 88 6 168q-23 12 -36 38.5t-5 61.5q0 2 2 4q-4 8 -9 16.5t-12 14.5q-16 16 -48.5 7t-69.5 -28.5t-68 -42t-43 -32.5 q-41 -37 -74.5 -89t-57.5 -111.5t-34 -122t-6 -117.5z" />
<glyph unicode="A" horiz-adv-x="1204" d="M-27 498q0 29 17.5 50t44.5 27q2 0 3 1.5t3 1.5q78 20 150.5 37.5t144.5 31.5q45 106 86 212t80 214q8 25 18 50.5t21 52.5q0 51 3 113.5t13 116.5t28.5 91t49.5 37q43 0 51 -32t8 -68q0 -68 -17.5 -137.5t-39.5 -135.5q4 -72 11 -136t11 -136q-2 6 -4 18.5t-4 12.5v-2 q8 -45 19.5 -86t25.5 -82q92 37 183.5 78.5t183.5 82.5q20 4 29 4q39 0 60.5 -24.5t21.5 -52.5q0 -23 -13.5 -44.5t-44.5 -35.5q-98 -23 -193.5 -48.5t-191.5 -54.5q51 -121 125 -245q23 -37 56.5 -95.5t73.5 -116t83 -104.5t86 -61q33 -10 47.5 -34t14.5 -46 q0 -31 -23 -56.5t-61 -25.5q-10 0 -27 4q-53 20 -95 57t-76 83t-62.5 97.5t-55.5 98.5q-57 102 -107.5 204.5t-86.5 207.5q-41 -12 -82 -25.5t-82 -28.5q-6 -2 -11.5 -4t-9.5 -4q-31 -86 -63.5 -168t-67.5 -166q-18 -43 -48 -99t-60.5 -103.5t-56 -79t-38.5 -25.5v2 q-27 -16 -49 -16q-31 0 -53 22.5t-22 55.5q0 10 5 24.5t13 28.5t17.5 24.5t17.5 10.5q12 8 16 14q0 -2 -1 -3t-1 -3l4 4q4 4 6 8q4 6 9 14q43 57 75.5 118t61.5 120q18 41 36.5 82t36.5 82q-49 -18 -97 -40t-95 -46q2 0 10 4t17 8q-10 -6 -22.5 -13t-25.5 -7q-29 0 -57 20 l-8 4q-25 31 -25 60zM8 555q2 0 4 2zM49 86q4 6 7 9t5 7t5 7v-3q-4 -4 -5 -4q-2 -4 -2 -5t-2 -5q-4 -4 -8 -6zM111 434q8 4 10 4q-2 -2 -4 -2t-6 -2zM477 676q31 8 60.5 16t58.5 19q-29 96 -43 192q-18 -57 -36.5 -113.5t-39.5 -113.5z" />
<glyph unicode="B" horiz-adv-x="1267" d="M37 158q4 26 47 32q11 2 24 2q39 0 100 -14q81 -20 200 -78q37 -18 79 -30q-47 147 -81.5 298.5t-53.5 307.5q-14 -10 -28.5 -17.5t-28.5 -15.5q-20 -4 -35.5 3t-25 19.5t-8.5 29t14 30.5v2l8 4l2 2q16 12 37.5 24.5t44.5 24.5q6 6 10 9q-11 127 -11 251q0 83 5 166 q-12 -10 -45 -24h-2q-18 -10 -39 -31q2 6 4 11t2 10q-31 -10 -63.5 -16.5t-57 -5.5t-35 11.5t3.5 32.5q23 37 90.5 80t153.5 82q0 14 2 20q6 33 24.5 51.5t41 23.5t44 -3t36.5 -29q72 27 131 45.5t88 22.5q21 4 42 4q39 -1 73 -13q54 -18 85 -56t34 -92v-8q0 -50 -34 -107 q-53 -88 -118.5 -168t-141.5 -152q115 23 223 25h12q100 0 171 -31q37 -16 57.5 -25.5t38 -19.5t33.5 -25.5t45 -42.5q66 -62 81 -156q6 -39 6 -78q0 -57 -12 -114q-22 -98 -71 -187t-111 -141q-102 -84 -227 -119.5t-256 -37.5q-20 -17 -47 -17h-1q-26 0 -50 19 q-96 6 -185 24q-113 25 -186.5 60t-107.5 69q-31 30 -31 53v5zM440 860q63 49 125 106.5t113 118t88 123t49 121.5q-23 35 -59 40q-12 2 -25 2q-24 0 -49 -7q-96 -29 -182 -68q-8 -29 -16.5 -58.5t-14.5 -57.5q-8 -39 -10 -79t-13 -79q0 2 2 11t1.5 17.5t-0.5 13.5t0 1 q-3 -53 -7 -105q-2 -33 -3 -64q0 -18 1 -36zM446 729q16 -180 70.5 -344t151.5 -338q104 2 207.5 38t189.5 101q74 56 116 148q43 95 43 191q0 93 -45 173q-46 82 -149 115q-67 22 -131 22q-9 -1 -19 -1q-74 -4 -149 -13q-8 -8 -20.5 -7t-24.5 -3q-10 -2 -26.5 -6t-33 -9 t-30.5 -10.5t-18 -7.5q-33 -10 -66 -22.5t-66 -26.5z" />
<glyph unicode="C" horiz-adv-x="1140" d="M-25 287q4 39 10.5 77.5t10.5 77.5q8 53 34.5 100.5t49.5 94.5q12 27 33.5 70t46 88t49 86t43.5 65q61 82 131 160t148.5 146.5t166.5 121.5t187 86q12 4 26 3q11 0 21 -1q26 -4 51 -16t45.5 -30.5t30.5 -37.5q8 -16 10 -37.5t6 -44.5q4 -8 5 -17t3 -13q3 -11 3 -21 q0 -24 -17 -49q-25 -29 -53.5 -34t-51 5.5t-36 34t-6.5 53.5q-2 12 -3 25.5t-1 17.5q-15 6 -33 6q-16 0 -34 -5q-38 -11 -76 -31.5t-70.5 -43t-47.5 -34.5q-51 -39 -117.5 -100.5t-134 -137t-131 -161.5t-112.5 -174.5t-76 -172.5q-21 -67 -22 -125q0 -15 2 -30 q4 -53 31.5 -89t68.5 -56.5t88 -30t92 -9.5q111 0 211 27t192.5 73t178.5 106.5t166 127.5q21 7 40 7q12 0 24 -3q28 -8 44 -28q14 -19 14 -45v-5q-2 -30 -26 -59q-84 -59 -169 -111.5t-174 -92.5t-184.5 -66.5t-201.5 -34.5q-62 -5 -113 -5h-16q-58 1 -108 15.5t-97 45 t-96 81.5q-27 29 -43 71q-13 34 -14 64q0 8 1 15zM1077 1282v8v-8z" />
<glyph unicode="D" horiz-adv-x="1101" d="M-47 1258q6 24 28.5 42.5t57.5 20.5q8 0 14 -2t10 -4q47 -10 93.5 -28.5t93.5 -31.5q18 -8 41 -14q24 34 64 34h3q42 -1 68 -46q10 -12 10 -39q51 -18 97.5 -36.5t94.5 -39t100 -46.5l116 -58q39 -20 86 -45t90 -56.5t74.5 -70.5t42.5 -88q8 -35 8 -70q-1 -40 -11 -80 q-20 -76 -65 -147.5t-109.5 -138t-134 -121t-140.5 -95.5t-126 -61q-14 -4 -59 -19.5t-98.5 -30t-102.5 -19.5q-11 -1 -21 -1q-34 0 -53 13q-20 14 -23 31.5t2 36t14 35.5t15 34q12 27 19.5 46t12.5 35.5t9.5 35t10.5 45.5q16 76 24 167t9 186v63q0 63 -1 124q-2 92 -6 170 q0 16 -6 45l-12 58q-57 16 -116.5 30.5t-125.5 30.5q-12 0 -18 2q-8 4 -16.5 5t-16.5 5q-31 16 -42 42q-7 17 -7 33q0 9 2 18zM338 80q74 14 147.5 34.5t141.5 49.5q43 18 94 53t90 64q33 20 61.5 57t55 78t49 83t41.5 74q33 58 33 103q-1 8 -1 15q-6 50 -40.5 89t-88 67.5 t-110.5 53.5q-98 41 -183 74t-167 61q3 -26 3 -52v-14q-1 -32 -1 -67q-4 -72 -7 -155.5t-9.5 -169.5t-16.5 -170t-29 -154q-14 -43 -28.5 -87t-34.5 -87z" />
<glyph unicode="E" horiz-adv-x="1140" d="M-43 592q-2 8 -2 16q0 19 10 41l21 -2l-17 12q29 29 82 39.5t123 24.5q-12 51 -23.5 100t-21.5 101q-4 20 -17.5 66t-25.5 99.5t-18 102.5q-2 18 -3 33q0 25 7 41q10 25 33.5 36t48.5 7q12 0 32 -9q4 0 8.5 -1t8.5 -1l49 7q49 6 96 16t94 22q123 31 241.5 69t231.5 91 q22 8 41 8q16 0 30 -6q30 -12 42 -37.5t4 -57.5t-45 -54q-137 -53 -280.5 -88t-290.5 -64q-53 -10 -106.5 -15t-106.5 -7q-10 0 -17 2q10 -104 31 -207t39 -205q2 -8 2 -15t2 -16q27 6 47 15q125 39 245 88t247 82h7q38 0 60 -20q24 -22 27.5 -51.5t-15 -56t-61.5 -34.5 q-37 0 -94 -8t-124 -20.5t-136.5 -31t-128.5 -40.5q-14 -6 -27.5 -11.5t-25.5 -11.5q25 -133 52 -264t64 -260q2 -4 0 5t-6 19q14 -39 27.5 -72.5t36.5 -68.5q59 72 115.5 139.5t119.5 136.5q98 106 202.5 200.5t213.5 187.5q20 7 39 7q13 1 25 -3q28 -8 44 -30 q15 -19 14 -46q0 -32 -26 -62q-109 -82 -215 -165.5t-205 -180.5q-78 -76 -147.5 -157.5t-147.5 -159.5q-18 -11 -35 -11q-23 0 -44 21q-49 55 -82 147.5t-55.5 193.5t-37 197.5t-28.5 162.5q-2 8 -6 28q-20 -10 -40 -18t-38 -19q-33 -16 -43 -20q-25 -18 -51.5 -16 t-45 17.5t-24.5 41.5zM-41 649q2 11 10 21q2 3 3 3q2 0 -3 -14q-2 -4 -2 -6t-2 -4h-6zM389 150q0 -4 1 -5.5t1 -3.5q-3 9 -3 10z" />
<glyph unicode="F" horiz-adv-x="1026" d="M-100 1406q0 3 -1 6q0 28 15 48q16 22 46 29q9 2 19 2q21 0 44 -12q47 -16 89 -30.5t81 -27.5l10 11q8 4 10 4q24 8 44 8q18 0 34 -6q33 -14 45 -62q82 -23 152 -33q46 -7 96 -7q25 0 50 2q77 5 168 26.5t218 65.5q22 7 40 7q16 1 30 -5q30 -12 42 -38q7 -15 8 -33 q0 -13 -4 -25q-8 -32 -44 -54q-123 -37 -216.5 -52.5t-176.5 -15.5t-166.5 13.5t-192.5 34.5q-4 -59 -11 -120q-5 -47 -5 -94v-26q0 -66 3 -120t11 -103q10 2 19.5 4t19.5 6q82 25 159.5 57.5t161.5 51.5q16 4 44 -0.5t36 -6.5q41 -12 56.5 -39.5t9.5 -56.5t-32 -48 q-21 -16 -55 -16q-7 0 -14 1q-61 25 -121 25q-37 0 -74 -9q-97 -25 -188 -76q0 -2 -1 -3t-1 -3q23 -92 64 -179t106 -202q14 -27 33 -59.5t40.5 -65.5t45 -60.5t51.5 -41.5q35 -25 41 -56.5t-8 -57.5t-45 -36q-11 -4 -23 -3q-22 0 -47 12q-39 29 -67.5 67.5t-51 81.5t-42 88 t-37.5 88q-39 90 -72 178t-61 181l-29 -3q-29 -4 -50.5 4.5t-33.5 25t-13 40t13 47.5l43 25q8 4 15.5 7t15.5 7q-8 29 -13.5 59.5t-9.5 63.5q-16 98 -17 196.5t-18 194.5q-27 4 -65.5 10.5t-77.5 13.5t-71 16.5t-44 17.5q-28 28 -30 60z" />
<glyph unicode="G" horiz-adv-x="1177" d="M38 761q28 165 107.5 318.5t196.5 282.5q39 41 85 82t98.5 71.5t109.5 46.5q42 13 85 13q16 0 32 -2q45 -4 75.5 -32t51.5 -64q10 -16 21 -39t15 -33q14 -16 25 -43q2 -4 2 -10q0 -33 -14.5 -54.5t-36 -29.5t-47 -2t-49.5 28q-23 23 -36.5 57.5t-23.5 63.5q-19 12 -43 12 q-27 0 -60 -15q-61 -28 -122 -74t-112.5 -98t-71.5 -77q-23 -29 -43.5 -57.5t-38.5 -61.5q-55 -98 -89 -204.5t-40 -221.5v-28q0 -158 61 -291q68 -145 203 -248q31 -10 47 -21.5t33.5 -18.5t42.5 -9h13q22 0 56 4q55 10 98.5 54t74 110t50 143.5t27.5 153.5q5 51 5 97 q0 23 -1 46q-4 66 -18 109q-2 4 -2 14q-10 -6 -20.5 -13t-20.5 -13v-2q-16 -16 -33.5 -29.5t-34.5 -30.5q-23 -20 -42 -35.5t-39.5 -21.5t-43 2t-47.5 33q-14 27 -12 49t13.5 39.5t29.5 27t41 9.5q2 2 3 2t3 2q18 14 44 22t44 17q109 47 216.5 100t223.5 80h7q38 0 61 -21 q25 -22 28 -51v-8q0 -25 -16 -47q-18 -27 -61 -35q-18 2 -36.5 1t-37.5 5q-2 2 6 4q-37 -2 -70.5 -7t-66.5 -15q4 -4 8 -9.5t9 -9.5q21 -75 21 -169v-35q-5 -115 -36 -230t-84 -216t-123 -161q-72 -61 -151 -71q-20 -2 -40 -2q-58 0 -113 20q-75 27 -142.5 80t-112.5 117 q-109 154 -140 319q-15 87 -15 173q0 79 13 158zM555 719q1 -1 3 -1q3 0 8 4q7 5 16 11h-9l-16 -8q-5 -2 -5 -4q0 -1 3 -2z" />
<glyph unicode="H" horiz-adv-x="1075" d="M-11 480v9q0 26 15 54q39 29 78 54.5t80 49.5q-14 41 -27.5 82t-25.5 84q-29 92 -45.5 185.5t-30.5 187.5q-4 25 -6 49.5t-7 46.5q-2 23 -3 43.5t-3 40.5q0 6 -2 20.5t-2 10.5q2 31 19.5 50t40 25.5t48 -3t46.5 -37.5q10 -30 10 -56q0 -7 -1 -13q-3 -32 -7 -75 q-2 -53 -2 -105q0 -39 1 -79q3 -92 17 -184q8 -59 23.5 -117t38.5 -113q104 53 208.5 96t213.5 88q16 6 33.5 12.5t35.5 12.5q-10 75 -13 149q-1 25 -1 49q0 49 4 97q4 47 9 82t7 76v20v12.5v12.5v20q-10 33 5 59q14 24 38 36q15 7 32 7q10 -1 22 -3q30 -8 53 -39 q10 -14 11 -30.5t-1 -35.5q0 -4 -1 -10t-1 -2t1 11t1 13.5v9.5t-2 -1q-4 -23 -4 -48.5t-4 -50.5q-12 -72 -25.5 -143.5t-27.5 -142.5v10q-1 -32 -1 -62t1 -59q16 8 33.5 14.5t33.5 16.5h7q32 1 54 -15q24 -18 32 -42.5t-3.5 -52.5t-44.5 -48q-27 -4 -52.5 -9t-49.5 -9 q12 -111 41 -204t66.5 -187.5t86 -195t101.5 -222.5q2 -2 2 -4.5t2 -4.5q0 -2 1 -2t1 -2q5 -18 5 -34q0 -15 -5 -29q-11 -26 -33 -40q-17 -10 -38 -10q-6 0 -13 1q-29 4 -55 30q-4 8 -11 15q-12 25 -12 47q-25 92 -59.5 183t-63.5 183q-37 111 -64.5 226.5t-47.5 232.5 q-129 -29 -243 -69.5t-218 -118.5q35 -72 77 -141.5t87 -141.5q20 -35 38.5 -68.5t41.5 -66.5q5 -18 5 -33q0 -24 -12 -43q-18 -31 -65 -41h-2q-23 2 -40.5 11.5t-27.5 23.5v-2q-2 2 -2 6q-4 6 -6 13.5t-4 13.5q-10 29 -22.5 54.5t-22.5 51.5q-4 10 -11.5 25.5t-2.5 7.5 l4 -8q-18 47 -40 94t-42 94q-10 20 -17.5 41t-17.5 43q-45 -43 -88 -94q-28 -15 -54 -15h-9q-30 3 -48 21t-21 48zM10 1372q-2 6 -2 12t2 13v-2q0 -4 1 -15.5t-1 -7.5zM838 1063q0 21 2 31v2l-1 -8q-1 -12 -1 -25z" />
<glyph unicode="I" horiz-adv-x="921" d="M-68 1320q6 26 28 44t58 18q57 -16 129 -16t150 12q6 33 25.5 51.5t43 22.5t46 -7t37.5 -38q113 25 218 57.5t185 55.5h7q39 0 61 -20q24 -22 27 -52v-8q1 -26 -15 -48q-18 -26 -62 -34q-59 -4 -118.5 -9.5t-118.5 -7.5h-4q-45 -6 -87 -11t-87 -13q-9 -153 -15 -303 q-2 -53 -2 -106q0 -97 6 -195q12 -166 50 -327t79 -320l126 20t128 20q37 -10 53.5 -33.5t15.5 -50t-20.5 -49t-56.5 -28.5q-77 12 -151 18q-32 3 -64 3q-42 0 -84 -5q-16 -4 -26 -2q-25 -4 -49.5 -9t-49.5 -13q4 2 11 2q-8 0 -13 -5q-12 -4 -25.5 -9t-27.5 -11 q-31 -10 -65.5 -23.5t-69.5 -19.5q-43 4 -62.5 29.5t-18.5 54.5t22.5 52.5t62.5 25.5h6h-2h2h25q35 2 69.5 4t69.5 4q10 0 18.5 1t18.5 1q-18 168 -28.5 334t-25.5 334q-12 145 -27.5 287.5t-29.5 285.5q-81 -23 -159 -44q-66 -18 -135 -18q-13 0 -27 1q-34 19 -46 45 q-9 18 -8 36q0 8 2 16zM188 31q4 0 10.5 1t10.5 1q-6 0 -11.5 -1t-9.5 -1zM406 -61q4 2 5 2t-1 -2h-4z" />
<glyph unicode="J" horiz-adv-x="970" d="M39 1313q-2 13 -2 22.5t2 16.5q4 14 16 37q31 25 88.5 36t120 14t124 3t101.5 6q117 16 232 47t233 47q37 -10 54 -34q15 -22 15 -46q0 -29 -21 -53q-19 -23 -56 -29q-72 4 -138 4t-126 -4q13 -27 13 -56q0 -14 -3 -29q-8 -37 -8 -74v-15q2 -51 7 -102t14 -103 q43 -233 99 -486t97 -488q-2 -12 -4 -19.5t-10 -17.5q-20 -12 -39 -26.5t-41 -24.5q-45 -18 -119 -19q-7 -1 -14 -1q-68 0 -144 13q-84 15 -167.5 44.5t-152.5 72.5t-111 99q-40 54 -40 118v6q2 70 36 126.5t82 104.5t101.5 88t96.5 77q21 7 40 7q12 0 23 -3 q29 -8 44.5 -28.5t14.5 -50.5t-26 -58q-55 -41 -113.5 -78t-109.5 -84q-20 -23 -29.5 -51.5t-23.5 -55.5q8 -20 12 -41.5t16 -38.5q37 -43 110 -79.5t155.5 -57t161.5 -20.5t130 30q-35 109 -61.5 223.5t-49 231.5t-46 233.5t-52.5 227.5q-14 55 -23 111.5t-16 113.5 q-1 8 -1 17q0 22 4 49q5 36 -7 59q-4 20 2 37q-49 -8 -100 -18.5t-106 -22.5q-49 -10 -78 -16.5t-45 -10.5q-12 -31 -45 -45q-13 -5 -27 -5q-22 0 -47 13q-14 10 -26.5 24.5t-16.5 31.5z" />
<glyph unicode="K" horiz-adv-x="882" d="M-24 1078q-1 5 -1 11q1 21 11 39q12 22 38 34q14 6 30 6t34 -5q45 -23 60.5 -83t15.5 -130.5t-9.5 -138.5t-11.5 -100q-2 -27 -2 -53.5t4 -51.5q12 35 26.5 70t35.5 69q25 41 35 60.5t17 34t18.5 33t37.5 57.5q18 27 49 76t66 103t70 103.5t59 79.5q13 23 35 32 q16 7 33 7l11 -1q22 -3 41 -19.5t28 -46.5q0 -25 -4.5 -43.5t-22.5 -36.5q-2 -2 -5 -4t-3 0q-59 -76 -126 -150t-129.5 -151.5t-116.5 -160.5t-87 -177q190 -43 366.5 -134.5t333.5 -201.5q20 -30 20 -59q1 -30 -17 -50q-16 -20 -45 -26.5t-62 10.5q-72 63 -144.5 115.5 t-150.5 105.5q-4 2 -3 1t5 -3q-72 41 -143.5 78t-147.5 67q-12 4 -26.5 9.5t-30.5 13.5q23 -92 60.5 -180t80.5 -174q5 -18 5 -34q0 -20 -8 -36q-16 -29 -42 -39q-13 -5 -26 -5q-15 0 -31 6q-31 11 -51 48q-27 102 -48.5 203t-35.5 205q-8 70 -15.5 153.5t-15.5 163.5 t-17.5 146.5t-21.5 103.5q-23 22 -26 50z" />
<glyph unicode="L" horiz-adv-x="849" d="M-4 1332q4 30 24 50q20 21 50 24h7q27 0 56 -20q25 -16 37 -56t16 -85q3 -36 3 -71v-17q-1 -43 -1 -67q-2 -66 -7 -161t-9 -205t-7 -226q-2 -58 -1.5 -115t1.5 -111q3 -110 14 -203.5t34 -156.5q76 49 142.5 98t134 92t141.5 77t166 50h7q38 -1 60 -21q24 -22 28 -50v-8 q0 -24 -16 -48q-18 -26 -61 -34q-72 -6 -134.5 -27t-122.5 -51.5t-117.5 -66.5t-116.5 -73q-43 -27 -80 -41q-27 -10 -50 -10q-8 0 -16 1q-28 5 -47.5 35t-26.5 91l-12 142q-2 49 -2 97t-4 95q-4 111 -9 222.5t-11 222.5q-4 123 -10.5 242.5t-16.5 240.5q-4 23 -8 43t-13 41 q-22 27 -22 53v7z" />
<glyph unicode="M" horiz-adv-x="1169" d="M-84 60q-3 10 -3 22q0 18 8 36q13 30 54 44h7q8 8 28.5 26.5l41 37t36.5 32.5t21 18q16 20 27 36t9 12v-2q39 61 73 125.5t69 130.5q8 16 19 37.5t24 48.5q-3 35 -3 68q0 17 1 33q2 48 6 93q2 29 6 71t15.5 82t33 68.5t62.5 32.5q29 2 45 -22q30 -56 30 -111 q0 -16 -2 -33q-12 -72 -39 -149q-8 -20 -17 -49t-22 -64q12 -94 30 -186t56 -179q2 -4 0 2.5t-5 13.5t-5 13t0 2q12 -25 22.5 -47t20.5 -45q29 70 60.5 136.5t60.5 137.5q16 41 31.5 100.5t30 126t25.5 134.5t22 127q-2 10 -3 19.5t-1 19.5q-5 37 -9 97q-4 50 -3 101v22 q1 62 13.5 119.5t43.5 88.5q18 14 38 14q8 0 17 -2q2 0 3 -1t3 -1q12 -8 17.5 -14t9.5 -21q11 -57 11 -116q0 -29 -3 -59q-8 -89 -17 -175q-4 -41 -9 -84t-9 -86q14 -115 31.5 -259t46.5 -287.5t74 -269.5t112 -202q23 -23 47.5 -42t46.5 -42q20 -30 20 -59q1 -31 -17 -51 q-16 -20 -46 -25q-8 -2 -15 -2q-22 0 -46 12q-29 29 -57.5 52.5t-51.5 56.5q-49 74 -83.5 164t-59.5 188t-41 202.5t-27 209.5q-23 -86 -47 -167t-53 -159q-12 -33 -27.5 -89t-41.5 -93q-6 -40 -41 -58q-16 -8 -34 -8q-22 0 -48 13q-72 76 -117 185.5t-68 231.5 q-33 -74 -70.5 -146.5t-79.5 -133t-88.5 -103.5t-95.5 -57q-12 -2 -24 -2q-26 0 -44 12q-28 18 -36 46zM430 934q2 6 2 11t2 11q-2 -6 -2 -11t-2 -11z" />
<glyph unicode="N" horiz-adv-x="948" d="M-16 1116q19 30 42 30q15 0 31 -13q29 -35 49.5 -89.5t36.5 -117.5q51 -111 121 -231t150 -232.5t168 -208.5t178 -160q-6 55 -15.5 110.5t-15.5 110.5q-27 243 -40 483q-10 184 -10 368q0 57 1 114q1 18 1 35q0 35 -3 71q-1 13 -1 27q0 40 9 78q30 47 70 47q26 0 57 -20 q18 -16 27.5 -35t17.5 -41q4 -17 4 -32q0 -21 -8 -38q-14 -29 -41 -39q-27 -187 -34 -371q-1 -36 -1 -71q0 -149 23 -299q10 -63 21.5 -126t25.5 -126q10 -43 24.5 -85t26.5 -85q11 -43 19 -87q5 -29 5 -58q0 -16 -1 -31q-6 -20 -15 -31q-4 -59 -73 -78q-35 0 -68 17.5 t-63.5 44t-58.5 54.5t-48 50q-102 102 -184 218t-154 241q18 -59 32.5 -119.5t22.5 -120.5q5 -40 7 -102q0 -6 1 -12q1 -55 -13 -103q-14 -53 -50 -84q-20 -18 -52 -18q-23 0 -52 10q-31 16 -43.5 40t-10.5 47.5t17.5 43t42.5 25.5q7 51 7 102q0 38 -4 75q-9 87 -27.5 173 t-42 171t-40.5 173q-4 29 -8 63.5t-8 69.5q-27 54 -45 104q-12 33 -11 52q0 10 3 16zM151 87q1 0 3 3q2 4 3 11.5t3 7.5q-12 -5 -12 -13q0 -9 3 -9zM829 1446h2v8q0 -2 -1 -4t-1 -4z" />
<glyph unicode="O" horiz-adv-x="1191" d="M-31 569q8 84 37 162t64 152q39 78 88 160t112 139q14 12 29.5 23.5t32.5 21.5q4 25 23.5 43t54.5 22q22 11 42 11q10 0 18 -2q28 -7 44 -29q82 -20 156.5 -50t146.5 -77q43 -29 97.5 -72t106.5 -97t99 -115.5t76 -127t34 -131.5q1 -9 1 -19q0 -57 -27 -110 q-53 -106 -134 -189t-182.5 -137.5t-219.5 -78.5q-83 -17 -171 -18q-36 0 -73 3q-123 8 -212 52.5t-146.5 113t-81.5 158.5q-18 67 -17 141q0 25 2 51zM82 502q-1 -14 -1 -27q0 -111 46 -181q51 -79 136 -117t191 -39h8l206 27q106 28 199.5 80t152.5 120q74 84 83 171 q2 18 2 36q0 68 -27 132q-34 80 -103.5 152t-156.5 129t-180 94t-175 49q-25 -16 -49.5 -30.5t-46.5 -36.5q-53 -53 -102.5 -118.5t-89.5 -138.5t-65.5 -149.5t-27.5 -152.5z" />
<glyph unicode="P" horiz-adv-x="1032" d="M-18 1403q18 76 78 76q16 0 36 -6q14 -4 27.5 -14.5t23.5 -22.5q6 -10 9.5 -17.5t7.5 -15.5q4 -4 8 -9l8 -10q14 -12 26.5 -25t26.5 -28q35 -35 79 -77t83 -76q98 -86 199.5 -166t200.5 -166q55 -49 109 -97.5t91 -113.5q5 -8 5 -16q0 -3 -1 -7q-2 -12 -6 -22 q-31 -78 -97.5 -112t-150.5 -58q-88 -27 -179 -44.5t-183 -19.5q27 -90 61.5 -177t75.5 -173q5 -18 5 -34q0 -20 -8 -36q-15 -28 -41 -38q-13 -5 -27 -6q-15 0 -31 6q-31 12 -51 49q-29 102 -51.5 205.5t-39.5 207.5q-29 4 -57.5 9.5t-56.5 13.5q-10 2 -23.5 12.5t-26 21.5 t-21.5 20l-9 9q-31 31 -31 64t18.5 54.5t50.5 26.5q5 1 11 1q27 0 55 -21q10 -10 19.5 -22t23.5 -23q6 -4 23 -12q-16 104 -30.5 204.5t-35.5 205.5q-6 35 -14 68.5t-16 68.5q0 6 -2 12v-4q0 -4 -1 5t-3 13q-4 18 -10.5 42t-12.5 42l-2 5q-12 31 -6 55q-53 41 -95 87t-42 85 zM119 1186q2 -2 1.5 -3t2.5 -3q-5 4 -5 6h1zM119 1186v2v-2zM299 1094q3 -38 3 -71v-16q-1 -40 1 -59q6 -72 10.5 -142t10.5 -142q4 -45 10 -87t16 -85q40 -4 85 -4h11q52 0 100 7t92 14t77 15q18 4 45.5 10.5t56.5 16.5t52.5 25.5t33.5 35.5q-37 61 -109.5 125 t-159.5 126.5t-176 120.5t-159 110z" />
<glyph unicode="Q" horiz-adv-x="890" d="M18 650q33 192 125 362q-27 -14 -52 -9t-42.5 23t-20.5 47v8q0 26 15 54q41 49 85 92t94 71.5t108 41.5q36 9 76 9q24 0 49 -3q51 -6 95 -32t91 -48q49 -23 85 -74t52 -102q16 -53 37 -104.5t25 -106.5q4 -69 4 -142v-49q-2 -98 -19.5 -195.5t-53.5 -187.5t-99 -164 q6 -10 13 -20t15 -21q2 -2 2 -3t3 -3q4 -6 9 -11t9 -11q4 -4 -2 3t-12 15q41 -43 80.5 -83t87.5 -81q20 -29 20 -55q0 -6 -1 -11q-5 -32 -26.5 -50.5t-54.5 -18.5t-63 31q-43 61 -78 124.5t-70 129.5q-2 -4 -4 -5t-4 -3q-86 -70 -176 -86q-32 -6 -62 -6q-56 0 -106 19 q-78 30 -137 99.5t-84 169.5q-27 113 -27 225q0 80 14 161zM126 520q-4 -36 -4 -73q0 -74 15 -152q18 -94 64.5 -146.5t106.5 -67.5q26 -6 53 -6q37 0 75 11q66 20 123 70q-6 10 -11 20t-11 21q-18 31 -42 66.5t-48.5 73.5t-46 75t-31.5 67q-4 33 10 56.5t36.5 33t49.5 1 t45 -37.5q8 -8 16.5 -17t14.5 -19q4 -19 4 -34q0 -21 -8 -36q16 -53 37.5 -104.5t48.5 -98.5q8 10 14 21.5t14 23.5q45 82 72 180.5t30 201.5v28q0 89 -17 175q-19 99 -64 183q-18 35 -42 64.5t-57 52.5q-47 35 -89 48q-32 10 -61 10q-9 0 -17 -1q16 -23 15 -52.5t-26 -57.5 q-8 0 -8 -2q-66 -90 -122 -182.5t-92 -190.5t-47 -205zM705 94l4 -4z" />
<glyph unicode="R" horiz-adv-x="1021" d="M-71 917q0 24 16 52q4 4 8 7t8 7v6q29 41 64 47q66 49 138.5 88t143.5 74q8 4 33 15.5t52.5 23.5t51 22.5t33.5 14.5q43 20 86 37.5t86 36.5q18 8 65 30q46 20 94 36q41 13 73 14h10q35 -2 33 -42q-2 -25 -28 -82t-65.5 -134.5t-89 -167t-100.5 -178.5t-99 -167.5 t-83 -136.5q16 -4 30.5 -9t30.5 -11q86 -39 157 -99.5t134 -131t124.5 -143.5t129.5 -134q19 -30 19 -58v-2q-1 -30 -17 -50t-45 -26q-8 -2 -16 -1q-22 0 -45 12q-55 57 -105.5 121.5t-100.5 129t-103.5 123t-114.5 105.5q-33 23 -69 44.5t-77 27.5q-6 -8 -11 -16.5 t-13 -18.5q16 -86 34.5 -171t47.5 -171q0 -37 -18.5 -59.5t-44.5 -27.5t-52.5 7t-44.5 45q-10 72 -15.5 143.5t-11.5 143.5q-7 -1 -14 -1q-26 0 -51 17q-23 18 -28 43t3 49.5t23.5 46t33.5 33.5q4 4 8.5 5t8.5 6q-8 90 -18.5 177t-26.5 175v-10q0 -6 -2 7t-6 19 q-6 20 -17 47q-4 10 -7 21.5t-7 21.5q-18 -12 -33.5 -25.5t-30.5 -25.5q-10 -18 -25.5 -33.5t-37.5 -23.5q-31 -6 -55 2q-26 8 -38 26q-14 20 -13 47zM301 1036q2 -45 10.5 -87t10.5 -85q4 -86 9 -169t15 -165h4q33 45 59.5 92.5t53.5 96.5q92 176 169 297q77 120 118 186 q35 55 35 72q1 3 -1 4q-1 2 -5 2q-16 0 -79 -37q-37 -23 -84 -46t-99 -49t-107.5 -53.5t-108.5 -58.5z" />
<glyph unicode="S" horiz-adv-x="1089" d="M-53 987q10 63 58 114.5t97 86.5q78 55 170.5 106.5t190.5 79.5q92 27 184 27h13q100 -2 192 -53q35 -25 41 -56.5t-8.5 -57.5t-44.5 -36q-11 -4 -23 -4q-22 0 -47 12q-56 37 -124 41q-14 1 -29 1q-54 0 -108 -12q-69 -15 -134.5 -44t-118.5 -57l-40.5 -22.5t-47.5 -28 t-47.5 -34t-38.5 -38.5q59 -29 122.5 -49.5t127 -39t127 -39t125.5 -44.5q78 -33 117.5 -50.5t70.5 -36t65.5 -42t102.5 -68.5q41 -29 86 -86q44 -57 70 -123q21 -53 21 -105q0 -13 -1 -25q-6 -64 -65 -107q-29 -20 -57.5 -39t-59.5 -39q-72 -47 -165 -69t-193 -28 q-36 -2 -72 -3q-62 1 -124 7q-97 10 -177 29q-80 20 -123 73q-42 54 -56 122q-7 33 -7 65q-1 36 7 73q14 71 52 128q41 63 91 113.5t103 99.5q21 7 40 7q12 0 24 -3q28 -8 43.5 -28.5t14.5 -50t-25 -58.5q-31 -27 -61 -54.5t-62 -52.5q-46 -57 -70 -113q-16 -37 -16 -72 q0 -17 4 -33q12 -48 64.5 -82.5t156.5 -49.5q61 -8 123 -8q64 1 130 9q130 16 243 63q75 33 109 77q33 43 33 90q0 50 -34 103q-33 51 -92 100q-35 31 -77 54.5t-83 44.5q-45 23 -92 42t-94 36q-72 27 -145.5 47t-146.5 39.5t-145.5 43t-140.5 58.5q-10 12 -15 22.5t-9 26.5 z" />
<glyph unicode="T" horiz-adv-x="952" d="M-71 1244q5 26 28 44.5t59 18.5q68 -18 149 -18q11 1 21 1q94 2 193 19q2 4 2 5t2 5q0 6 2 8v-2q10 20 29 37q4 4 6 4q23 8 43 8q13 0 23 -3q28 -7 42 -34q117 29 225.5 61t194.5 56h7q39 0 61 -20q24 -22 28 -52q1 -5 0 -9q0 -24 -16 -46q-18 -27 -61 -35 q-111 -8 -218.5 -18t-218.5 -29q-18 -164 -22 -309q-1 -26 -1 -51q-1 -117 15 -233q18 -140 64.5 -279.5t126.5 -292.5q5 -18 5 -33q0 -21 -8 -37q-16 -28 -42 -38q-13 -5 -27 -6q-15 0 -31 6q-30 12 -51 48q-76 225 -109.5 459t-50.5 469q-4 41 -13 118t-11 148 q-49 -12 -97.5 -26t-97.5 -24.5t-98 -15.5q-27 -3 -55 -3q-22 0 -45 2q-34 18 -46 45q-9 19 -8 38q0 7 1 14zM539 1305v2v4v-6z" />
<glyph unicode="U" horiz-adv-x="1079" d="M-28 34q-1 10 -1 19q1 27 7 55q8 38 21 75.5t21 60.5q53 168 124 325.5t149 315.5q20 41 52 100t42 117q-23 16 -29 48q-1 7 -1 13q0 26 18 54q29 25 58.5 31.5t55 -2.5t42 -33.5t20.5 -65.5q1 -8 1 -17q0 -27 -10 -54q-12 -36 -26 -68q-39 -92 -86 -181.5t-96 -178.5 t-96.5 -179t-85.5 -184q-8 -20 -21.5 -49t-26 -61t-21.5 -63.5t-9 -56.5h31.5t37.5 2q66 4 129.5 13.5t128.5 17.5q102 14 200.5 19.5t203.5 9.5q4 0 -1 0h-13.5h-15.5h-7q27 2 60.5 3t67.5 2t65.5 7t54.5 23q-31 80 -72 156.5t-67 156.5q-77 235 -77 464v6q1 232 60 474 q20 33 48 44q17 7 33 7q9 0 19 -3q24 -7 42 -31q16 -22 16 -55v-7q-68 -217 -82 -427q-3 -39 -3 -79q0 -172 50 -352q12 -47 34.5 -92t44 -91.5t39 -92.5t23.5 -95q0 -16 -3 -24.5t-13 -20.5q-53 -31 -112.5 -44t-121.5 -16q-37 -2 -73 -2l-49 1q-31 1 -61.5 1t-59.5 -1 q-78 0 -155 -14.5t-154 -26.5q-27 -4 -71 -13.5t-91 -15.5q-31 -4 -61 -4q-15 0 -29 1q-43 3 -68 21q-27 21 -30 57zM459 1085q2 0 10 5l-5 -2.5z" />
<glyph unicode="V" horiz-adv-x="962" d="M-20 924q29 53 58.5 69.5t58 9t55 -35t50 -62.5t43 -71.5t34.5 -63.5q35 -68 61.5 -137.5t52 -140t51 -140t58.5 -137.5q14 -31 29.5 -61.5t31.5 -59.5q0 74 -2 148q-1 25 -1 50q0 50 3 99q10 193 44 381.5t81 374.5q25 96 58.5 188t64.5 187q8 23 16.5 43t14.5 43 q2 6 4 16t4 23v2q0 2 1 3t1 3q0 6 4 18q4 16 4 10q4 8 10.5 16.5t16.5 16.5q4 4 6 4q26 9 47 9q10 0 20 -2q28 -7 50 -41q7 -17 7 -39q-1 -21 -7 -47q-14 -52 -38 -108t-51.5 -107.5t-39.5 -84.5q-12 -29 -23.5 -59.5t-23.5 -58.5q-2 -2 -3 -2q-41 -119 -74.5 -239 t-58.5 -243q-35 -170 -45 -322q-6 -95 -7 -197q0 -62 3 -126q0 -14 2 -47t-4 -64q-7 -30 -23 -48q-9 -11 -24 -11q-11 0 -25 6q-20 10 -31.5 30t-21.5 38q-4 6 -8 16.5t0 3.5q16 -29 14 -25.5t-14 26t-32.5 58.5t-41 70.5t-36 62.5t-19.5 36q-59 119 -110.5 239.5 t-110.5 237.5l-2 2q-25 33 -46.5 65.5t-45.5 65.5q-20 -4 -39 3t-31 21.5t-18 36.5q-4 12 -4 26q0 10 2 22zM840 1202q4 6 5 12.5t5 12.5l1 1l-3 -6z" />
<glyph unicode="W" horiz-adv-x="1079" d="M-70 809q-5 18 -5 35q0 20 7 39q28 48 77 48q16 0 34 -5q35 -23 57.5 -57.5t36 -75.5t21.5 -84t14 -80q20 -113 39.5 -221.5t75.5 -202.5q-2 14 -2 27.5v27.5q0 115 14 224.5t43 220.5q10 45 22.5 89t22.5 89q-19 17 -23 45q-1 5 0 10q0 24 17 53q27 37 76 47q31 2 51 -6 t37 -37q8 -14 10 -29.5t2 -31.5q25 -70 39 -154t24.5 -171t19.5 -172t24 -154q10 -51 22 -114t47 -108q4 16 7 38t8 51q6 49 10 98t8 96q16 143 36.5 281.5t57.5 277.5q23 76 45.5 150.5t42.5 150.5q6 23 13.5 58.5t11.5 60.5q4 -10 5 -17.5t3 -11.5q-2 16 -3 42t8 48 q10 21 32 29q7 2 15 2q20 0 50 -12q2 -2 3 -2t4 -2q20 -14 29 -26.5t16 -37.5q-6 -53 -31 -125.5t-55.5 -155.5t-63.5 -171t-55 -170q-25 -92 -40.5 -187.5t-31.5 -193.5q-8 -47 -15 -95.5t-16 -97.5q0 -10 -2 -46t-11 -73q-10 -38 -28 -64q-12 -17 -31 -17q-9 0 -20 4 q-23 8 -37 16t-23 18.5t-18.5 25.5t-23.5 38q-16 25 -25.5 52.5t-19.5 53.5q-41 127 -64.5 260.5t-56.5 262.5q-35 -102 -58.5 -202.5t-29.5 -211.5q-2 -21 -2 -42q0 -26 3 -53t3 -53q0 -21 -2 -42q-13 -34 -39 -34q-12 0 -27 7q-82 63 -130 149t-79.5 183.5t-57 197 t-62.5 189.5q-33 10 -56 51zM973 1323v2q3 24 4 24v-1q0 -6 -4 -25z" />
<glyph unicode="X" horiz-adv-x="923" d="M-24 1025q6 26 27.5 45.5t59.5 21.5q45 -4 68 -35q4 -8 8 -13q-4 4 -6 7.5t2 -0.5q53 -90 89 -185.5t89 -187.5q23 -39 46.5 -76t50.5 -72q6 10 12 19.5t14 19.5q66 98 123 196.5t111 201.5q35 74 72.5 145.5t58.5 149.5q20 33 48 44q17 7 33 7q10 0 20 -3q24 -7 42 -32 q15 -21 14 -51v-10q-33 -78 -76.5 -150t-93 -140.5t-99.5 -136t-95 -137.5q-33 -49 -63.5 -99t-61.5 -103q158 -188 367 -328q19 -30 19 -58q1 -31 -17 -51q-16 -20 -45 -26t-62 10q-92 84 -167 174t-146 188q-41 -78 -80 -154.5t-74 -154.5q0 -31 -24 -57q-4 -2 -6.5 -4 t-6.5 -4q-28 -18 -53 -18h-2q-26 0 -43.5 14t-27 38.5t-3.5 55.5q35 55 71 107.5t71 105.5q16 27 34.5 52.5t38.5 49.5l3 6t6 6q12 20 32 48q-53 76 -108.5 145.5t-102.5 146.5q-20 35 -37.5 72t-39.5 72h-3q-14 10 -22 23.5t-18 25.5q-29 12 -41 38q-8 17 -9 33q1 9 3 18z M31 934h4h-4zM139 1044q6 -10 11.5 -17t1.5 -3t-6.5 10t-6.5 10zM680 985q4 8 8 15.5t8 15.5q-4 -6 -8 -14.5t-8 -16.5z" />
<glyph unicode="Y" horiz-adv-x="854" d="M-2 1234q18 21 50 26q6 1 12 1q26 0 55 -20q23 -23 34 -53.5t21 -61.5q6 -20 13 -39.5t10 -23.5q-2 2 -3.5 4t-3.5 4q51 -96 123 -168t164 -129q23 61 47.5 121.5t46.5 120.5q25 61 43.5 106t36 86t36.5 84t46 103q2 4 8 11t15 17q12 27 34 41q20 11 40 11h6 q24 -2 44.5 -18.5t30.5 -49.5q0 -25 -4 -43t-22 -37l-9 -8q-6 -12 -22 -39t-32.5 -53.5t-30 -48t-15.5 -25.5q-31 -53 -55.5 -98t-48 -90t-46 -92.5t-47.5 -104.5q-57 -133 -93 -254t-52 -240q-13 -101 -13 -206v-40q3 -126 21 -268q-2 -43 -25.5 -65.5t-52.5 -23.5h-2 q-27 0 -52 19t-30 62q-2 51 -5 102q-2 30 -2 60q0 19 1 39q10 166 51 337t101 339q-10 2 -19.5 4t-19.5 8q-98 115 -183 235.5t-184 235.5q-4 4 -6 4q-31 31 -31 62q0 33 19 56zM762 1434q10 10 10 12l-8 -8q0 -2 -2 -4z" />
<glyph unicode="Z" horiz-adv-x="1191" d="M-32 140q16 56 51.5 116.5t76.5 114t60 78.5q129 170 264 338.5t285 320.5q23 23 43 44.5t43 43.5q-166 -35 -327 -70.5t-327 -70.5q-10 2 -18.5 2t-18.5 4q-35 18 -46 46t-5 53.5t28.5 43t57.5 15.5q166 29 329 54t327 52q70 13 131 29q41 11 86 11q22 0 45 -3 q51 -12 51 -51q0 -15 -8 -35q-16 -18 -36 -29.5t-42.5 -22t-44 -20.5t-39.5 -24q-104 -88 -195.5 -184.5t-185.5 -196.5q-6 -6 3 4t19.5 22.5t18.5 21.5t2 3q-143 -164 -276.5 -334t-237.5 -362q156 55 311.5 97t315.5 81q106 25 217.5 50.5t214.5 66.5v-3q25 16 57.5 10.5 t56.5 -40.5l2 -2q5 -20 5 -36t-5 -28q-10 -26 -45 -49q-106 -43 -229 -61.5t-235 -40.5q-147 -29 -292 -57.5t-290 -71.5q-25 -8 -50.5 -17.5t-49.5 -14.5q-20 -4 -37 -4h-7q-22 1 -36 17q-22 22 -22 56q-1 15 4 33z" />
<glyph unicode="[" horiz-adv-x="770" d="M82 1587q4 25 15.5 38t35.5 22q98 20 202.5 17t205.5 7q-4 0 -13.5 -1t-18.5 -1h-15q31 4 68.5 10.5t58.5 8.5q31 23 70.5 12.5t56.5 -64.5q8 -45 -20 -70.5t-75 -37.5t-105.5 -15.5t-112.5 0t-96 7.5t-54 4h-72q10 -35 21.5 -68t13.5 -67q4 -102 -1 -205t-16 -205v29 q-12 -303 -3.5 -602.5t-0.5 -602.5q2 -8 2 -26h43.5t44.5 4q10 2 -4 2t-30 -2q78 10 157.5 14t157.5 6q37 -10 53.5 -33.5t15.5 -50t-20.5 -49t-56.5 -28.5q-74 2 -148 0h-141q-98 0 -142 14t-56.5 49t-4.5 94.5t17 149.5q4 45 6 75.5t4 58.5t3 58.5t3 75.5q2 55 4 102.5 t3 94.5t2 96t1 108q2 100 -1 198.5t-3 197.5q2 90 4 178t-4 178q-2 29 -11 56.5t-18.5 53t-17.5 53.5t-8 56zM262 -221q7 2 21 2q-12 0 -19.5 -1t-1.5 -1z" />
<glyph unicode="\" d="M111 1398.5q6 28.5 25.5 45t49 17.5t60.5 -19q57 -78 98 -164t75 -175t64.5 -179t67.5 -179q94 -211 226 -405.5t263 -384.5q10 -35 -1 -62.5t-32.5 -41t-51 -9.5t-56.5 31q-111 211 -216 420t-214 420q-68 135 -127 268t-137 262q-4 6 1 -2t12 -20.5t12.5 -21.5t0.5 -3 q-29 35 -53 71.5t-57 69.5q-16 33 -10 61.5z" />
<glyph unicode="]" horiz-adv-x="675" d="M-20 -293q-8 45 19.5 70.5t74.5 38t105.5 15.5t112.5 0t95 -7t55 -4h70q-10 35 -20.5 67.5t-12.5 67.5q-4 98 0 198.5t15 200.5v-20q12 301 5 602t1 604q-2 8 -2 27h-43.5t-44.5 -4q-10 -2 4 -2t30 2q-78 -10 -157.5 -14.5t-157.5 -6.5q-37 10 -53.5 33.5t-15.5 50.5 t20.5 49.5t56.5 28.5q74 -4 148 0h141q98 0 142 -14.5t56.5 -49t4.5 -95t-17 -148.5q-4 -45 -6 -76t-4 -58.5t-3 -58t-3 -76.5q-2 -55 -4 -102t-3 -94t-2 -96.5t-1 -108.5q-2 -100 1 -198.5t3 -196.5q-2 -90 -4 -178t4 -179q2 -29 11 -56.5t18.5 -53t17.5 -53t8 -56.5 q-4 -25 -15.5 -38t-35.5 -21q-49 -10 -100.5 -13t-102.5 -4.5t-103 -1.5t-102 -6q2 0 12.5 1t19.5 1h14t1 0q-31 -4 -68.5 -10t-60.5 -8q-31 -23 -69.5 -12.5t-54.5 63.5zM444 1563q15 0 21 2q6 0 -1 -1t-20 -1zM494 354q0 6 1 10.5t1 0.5t-1 -6.5t-1 -4.5z" />
<glyph unicode="^" d="M170 892q0 26 16 54q5 4 9 12q27 20 47 23q23 14 35 22.5t40 28.5q47 33 88 75t76 83q63 72 98 129t51.5 109.5t17.5 104.5t-1 112q4 18 16.5 27t25.5 11.5t24.5 -6t15.5 -26.5h2v-2q39 -164 125 -309.5t182 -280.5q4 -6 -2 3t-14 21.5t-14.5 21.5t-1.5 3 q29 -33 56.5 -67.5t59.5 -63.5q25 -35 20 -66.5t-26.5 -50t-54.5 -18.5t-64 30q-37 43 -75.5 100.5t-74.5 124t-69 138.5t-59 143q-29 -92 -84 -176t-113 -153q-20 -25 -48 -61t-60.5 -70.5t-67.5 -62.5t-67 -36q-31 -6 -55.5 2t-39 26.5t-14.5 44.5z" />
<glyph unicode="_" horiz-adv-x="1126" d="M51 27.5q-8 27.5 5.5 57.5t54.5 44q51 8 103 6t105.5 -8t105.5 -13.5t105 -7.5q121 0 238 20.5t233 43.5q43 2 68 -20.5t28 -51t-15.5 -55.5t-61.5 -35q-158 6 -312.5 10.5t-312.5 -14.5q-8 0 -37.5 -2t-66.5 -6t-73.5 -10.5t-61.5 -14.5q-41 -8 -69 10.5t-36 46z" />
<glyph unicode="`" horiz-adv-x="600" d="M37 1501.5q10 30.5 35.5 45t57.5 8t56 -41.5q10 -25 17.5 -57.5t5.5 -60.5v-2q4 -16 11 -30.5t11 -31.5q35 -61 81 -102t116 -70q4 -2 -2 1t-14.5 8.5t-14.5 8.5t-2 3q31 -4 59.5 -16.5t57.5 -20.5q31 -23 40 -50.5t-1 -52t-36 -40t-62 -11.5q-90 61 -168 135t-148 160 q-16 20 -31.5 44t-25.5 46q-4 4 -12.5 25.5t-16.5 32.5q-2 4 -7 11t-3 3q4 -6 8 -12.5t6 -14.5q2 -4 -2 2.5t-8 10.5q-18 39 -8 69.5zM201 1424q0 -1 2 -3v2q-2 2 -2 1zM205 1405q0 -6 2 -8q-2 4 -2 8z" />
<glyph unicode="a" horiz-adv-x="1204" d="M7.5 548q17.5 21 43.5 27q2 0 3 1.5t3 1.5q78 20 151 37.5t144 31.5q45 106 86 212t80 214q8 25 18.5 50.5t20.5 52.5q0 51 3 113.5t13.5 116.5t29 91t48.5 37q43 0 51.5 -32t8.5 -68q0 -68 -17.5 -137.5t-40.5 -135.5q4 -72 11.5 -136t11.5 -136q-2 6 -4 18.5t-4 12.5 v-2q8 -45 19 -86t26 -82q92 37 183 78.5t183 82.5q20 4 29 4q39 0 60.5 -24.5t21.5 -52.5q0 -23 -13.5 -44.5t-43.5 -35.5q-98 -23 -193.5 -48.5t-191.5 -54.5q51 -121 124 -245q23 -37 57 -95.5t73.5 -116t82.5 -104.5t86 -61q33 -10 47.5 -34t14.5 -46q0 -31 -22.5 -56.5 t-61.5 -25.5q-10 0 -27 4q-53 20 -95 57t-75.5 83t-62.5 97.5t-55 98.5q-57 102 -107.5 204.5t-87.5 207.5q-41 -12 -82 -25.5t-82 -28.5q-6 -2 -11 -4t-9 -4q-31 -86 -64 -168t-67 -166q-18 -43 -48 -99t-61 -103.5t-56.5 -79t-37.5 -25.5v2q-27 -16 -49 -16 q-31 0 -53.5 22.5t-22.5 55.5q0 10 5 24.5t13.5 28.5t17.5 24.5t17 10.5q12 8 17 14q0 -2 -1.5 -3t-1.5 -3l5 4q4 4 6 8q4 6 8 14q43 57 75.5 118t61.5 120q18 41 36.5 82t37.5 82q-49 -18 -97.5 -40t-95.5 -46q2 0 10.5 4t16.5 8q-10 -6 -22.5 -13t-24.5 -7q-29 0 -57 20 l-9 4q-24 30 -24 58q0 31 17.5 52zM25 555q2 0 4 2zM66 86q4 6 7 9t5 7t4 7v-3l-4 -4q-2 -4 -2 -5t-2 -5q-4 -4 -8 -6zM127 434q8 4 10 4q-2 -2 -4 -2t-6 -2zM494 676q31 8 60.5 16t57.5 19q-29 96 -43 192q-18 -57 -36.5 -113.5t-38.5 -113.5z" />
<glyph unicode="b" horiz-adv-x="1267" d="M-84 158q4 26 47 32q11 2 24 2q39 0 100 -14q81 -20 200 -78q37 -18 80 -30q-47 147 -82 298.5t-54 307.5q-14 -10 -28.5 -17.5t-28.5 -15.5q-20 -4 -35.5 3t-25 19.5t-8.5 29t14 30.5v2l8 4l2 2q16 12 37.5 24.5t44.5 24.5q6 6 10 9q-11 127 -11 251q0 83 5 166 q-12 -10 -45 -24h-2q-18 -10 -39 -31q2 6 4 11t2 10q-31 -10 -63.5 -16.5t-57 -5.5t-35 11.5t4.5 32.5q23 37 90 80t153 82q0 14 2 20q6 33 24.5 51.5t41 23.5t44 -3t36.5 -29q72 27 131 45.5t88 22.5q21 4 42 4q38 -1 72 -13q54 -18 85.5 -56t34.5 -92v-8q0 -50 -33 -107 q-53 -88 -119 -168t-141 -152q115 23 222 25h12q99 0 171 -31q37 -16 57.5 -25.5t38 -19.5t33.5 -25.5t45 -42.5q66 -62 81 -156q6 -39 6 -78q-1 -57 -13 -114q-22 -98 -70.5 -187t-109.5 -141q-102 -84 -227.5 -119.5t-256.5 -37.5q-20 -17 -46 -17h-2q-26 0 -50 19 q-96 6 -184 24q-113 25 -186.5 60t-108.5 69q-31 30 -31 53v5zM319 860q63 49 125 106.5t113 118t88 123t49 121.5q-24 35 -60 40q-12 2 -24 2q-24 0 -49 -7q-96 -29 -182 -68q-8 -29 -16.5 -58.5t-14.5 -57.5q-8 -39 -10 -79t-12 -79q0 2 1 11t1 17.5v13.5t0 1 q-4 -53 -8 -105q-2 -33 -2 -64q0 -18 1 -36zM326 729q16 -180 70.5 -344t150.5 -338q104 2 207.5 38t189.5 101q74 56 116 148q43 95 43 191q0 93 -45 173q-46 82 -149 115q-67 22 -131 22q-8 -1 -18 -1q-74 -4 -150 -13q-8 -8 -20 -7t-25 -3q-10 -2 -26.5 -6t-33 -9 t-30.5 -10.5t-18 -7.5q-33 -10 -65.5 -22.5t-65.5 -26.5z" />
<glyph unicode="c" horiz-adv-x="1140" d="M-25 287q4 39 10.5 77.5t10.5 77.5q8 53 34.5 100.5t49.5 94.5q12 27 33.5 70t46 88t49 86t43.5 65q61 82 131 160t148.5 146.5t166.5 121.5t187 86q12 4 26 3q11 0 21 -1q26 -4 51 -16t45.5 -30.5t30.5 -37.5q8 -16 10 -37.5t6 -44.5q4 -8 5 -17t3 -13q3 -11 3 -21 q0 -24 -17 -49q-25 -29 -53.5 -34t-51 5.5t-36 34t-6.5 53.5q-2 12 -3 25.5t-1 17.5q-15 6 -33 6q-16 0 -34 -5q-38 -11 -76 -31.5t-70.5 -43t-47.5 -34.5q-51 -39 -117.5 -100.5t-134 -137t-131 -161.5t-112.5 -174.5t-76 -172.5q-21 -67 -22 -125q0 -15 2 -30 q4 -53 31.5 -89t68.5 -56.5t88 -30t92 -9.5q111 0 211 27t192.5 73t178.5 106.5t166 127.5q21 7 40 7q12 0 24 -3q28 -8 44 -28q14 -19 14 -45v-5q-2 -30 -26 -59q-84 -59 -169 -111.5t-174 -92.5t-184.5 -66.5t-201.5 -34.5q-62 -5 -113 -5h-16q-58 1 -108 15.5t-97 45 t-96 81.5q-27 29 -43 71q-13 34 -14 64q0 8 1 15zM1077 1282v8v-8z" />
<glyph unicode="d" horiz-adv-x="1101" d="M-47 1258q6 24 28.5 42.5t57.5 20.5q8 0 14 -2t10 -4q47 -10 93.5 -28.5t93.5 -31.5q18 -8 41 -14q24 34 64 34h3q42 -1 68 -46q10 -12 10 -39q51 -18 97.5 -36.5t94.5 -39t100 -46.5l116 -58q39 -20 86 -45t90 -56.5t74.5 -70.5t42.5 -88q8 -35 8 -70q-1 -40 -11 -80 q-20 -76 -65 -147.5t-109.5 -138t-134 -121t-140.5 -95.5t-126 -61q-14 -4 -59 -19.5t-98.5 -30t-102.5 -19.5q-11 -1 -21 -1q-34 0 -53 13q-20 14 -23 31.5t2 36t14 35.5t15 34q12 27 19.5 46t12.5 35.5t9.5 35t10.5 45.5q16 76 24 167t9 186v63q0 63 -1 124q-2 92 -6 170 q0 16 -6 45l-12 58q-57 16 -116.5 30.5t-125.5 30.5q-12 0 -18 2q-8 4 -16.5 5t-16.5 5q-31 16 -42 42q-7 17 -7 33q0 9 2 18zM338 80q74 14 147.5 34.5t141.5 49.5q43 18 94 53t90 64q33 20 61.5 57t55 78t49 83t41.5 74q33 58 33 103q-1 8 -1 15q-6 50 -40.5 89t-88 67.5 t-110.5 53.5q-98 41 -183 74t-167 61q3 -26 3 -52v-14q-1 -32 -1 -67q-4 -72 -7 -155.5t-9.5 -169.5t-16.5 -170t-29 -154q-14 -43 -28.5 -87t-34.5 -87z" />
<glyph unicode="e" horiz-adv-x="1140" d="M-43 592q-2 8 -2 16q0 19 10 41l21 -2l-17 12q29 29 82 39.5t123 24.5q-12 51 -23.5 100t-21.5 101q-4 20 -17.5 66t-25.5 99.5t-18 102.5q-2 18 -3 33q0 25 7 41q10 25 33.5 36t48.5 7q12 0 32 -9q4 0 8.5 -1t8.5 -1l49 7q49 6 96 16t94 22q123 31 241.5 69t231.5 91 q22 8 41 8q16 0 30 -6q30 -12 42 -37.5t4 -57.5t-45 -54q-137 -53 -280.5 -88t-290.5 -64q-53 -10 -106.5 -15t-106.5 -7q-10 0 -17 2q10 -104 31 -207t39 -205q2 -8 2 -15t2 -16q27 6 47 15q125 39 245 88t247 82h7q38 0 60 -20q24 -22 27.5 -51.5t-15 -56t-61.5 -34.5 q-37 0 -94 -8t-124 -20.5t-136.5 -31t-128.5 -40.5q-14 -6 -27.5 -11.5t-25.5 -11.5q25 -133 52 -264t64 -260q2 -4 0 5t-6 19q14 -39 27.5 -72.5t36.5 -68.5q59 72 115.5 139.5t119.5 136.5q98 106 202.5 200.5t213.5 187.5q20 7 39 7q13 1 25 -3q28 -8 44 -30 q15 -19 14 -46q0 -32 -26 -62q-109 -82 -215 -165.5t-205 -180.5q-78 -76 -147.5 -157.5t-147.5 -159.5q-18 -11 -35 -11q-23 0 -44 21q-49 55 -82 147.5t-55.5 193.5t-37 197.5t-28.5 162.5q-2 8 -6 28q-20 -10 -40 -18t-38 -19q-33 -16 -43 -20q-25 -18 -51.5 -16 t-45 17.5t-24.5 41.5zM-41 649q2 11 10 21q2 3 3 3q2 0 -3 -14q-2 -4 -2 -6t-2 -4h-6zM389 150q0 -4 1 -5.5t1 -3.5q-3 9 -3 10z" />
<glyph unicode="f" horiz-adv-x="1026" d="M-100 1406q-1 3 -1 6q0 28 15 48q16 21 46 29q9 2 19 2q21 0 44 -12q47 -16 89 -30.5t81 -27.5l10 11q8 4 10 4q24 8 44 8q18 0 34 -6q33 -15 45 -62q82 -23 152 -33q46 -7 96 -7q24 0 50 2q77 5 168 26.5t218 65.5q22 7 40 7q17 0 30 -5q30 -13 42 -38q8 -16 8 -33 q0 -12 -4 -25q-8 -31 -44 -54q-123 -37 -216.5 -52.5t-176.5 -15.5t-166.5 13.5t-192.5 34.5q-4 -59 -11 -120q-5 -47 -5 -94v-26q0 -66 3 -120t11 -103q10 2 19.5 4t19.5 6q82 25 159.5 57.5t161.5 51.5q16 4 44 -0.5t36 -6.5q41 -12 56.5 -39.5t9.5 -56.5t-32 -48 q-21 -16 -55 -16q-7 0 -14 1q-61 25 -121 25q-37 0 -74 -9q-97 -25 -188 -76q0 -2 -1 -3t-1 -3q23 -92 64 -179t106 -202q14 -27 33 -59.5t40.5 -65.5t45 -60.5t51.5 -41.5q35 -25 41 -56.5t-8 -57t-45 -36.5q-11 -3 -23 -3q-22 0 -47 12q-39 29 -67.5 67.5t-51 81.5t-42 88 t-37.5 88q-39 90 -72 178t-61 181l-29 -3q-29 -4 -50.5 4.5t-33.5 25t-13 40t13 47.5l43 25q8 4 15.5 7t15.5 7q-8 29 -13.5 59.5t-9.5 63.5q-16 98 -17 196.5t-18 194.5q-27 4 -65.5 10.5t-77.5 13.5t-71 16.5t-44 17.5q-29 29 -30 60z" />
<glyph unicode="g" horiz-adv-x="1177" d="M38 761q28 165 107.5 318.5t196.5 282.5q39 41 85 82t98.5 71.5t109.5 46.5q42 13 85 13q16 0 32 -2q45 -4 75.5 -32t51.5 -64q10 -16 21 -39t15 -33q14 -16 25 -43q2 -4 2 -10q0 -33 -14.5 -54.5t-36 -29.5t-47 -2t-49.5 28q-23 23 -36.5 57.5t-23.5 63.5q-19 12 -43 12 q-27 0 -60 -15q-61 -28 -122 -74t-112.5 -98t-71.5 -77q-23 -29 -43.5 -57.5t-38.5 -61.5q-55 -98 -89 -204.5t-40 -221.5v-28q0 -158 61 -291q68 -145 203 -248q31 -10 47 -21.5t33.5 -18.5t42.5 -9h13q22 0 56 4q55 10 98.5 54t74 110t50 143.5t27.5 153.5q5 51 5 97 q0 23 -1 46q-4 66 -18 109q-2 4 -2 14q-10 -6 -20.5 -13t-20.5 -13v-2q-16 -16 -33.5 -29.5t-34.5 -30.5q-23 -20 -42 -35.5t-39.5 -21.5t-43 2t-47.5 33q-14 27 -12 49t13.5 39.5t29.5 27t41 9.5q2 2 3 2t3 2q18 14 44 22t44 17q109 47 216.5 100t223.5 80h7q38 0 61 -21 q25 -22 28 -51v-8q0 -25 -16 -47q-18 -27 -61 -35q-18 2 -36.5 1t-37.5 5q-2 2 6 4q-37 -2 -70.5 -7t-66.5 -15q4 -4 8 -9.5t9 -9.5q21 -75 21 -169v-35q-5 -115 -36 -230t-84 -216t-123 -161q-72 -61 -151 -71q-20 -2 -40 -2q-58 0 -113 20q-75 27 -142.5 80t-112.5 117 q-109 154 -140 319q-15 87 -15 173q0 79 13 158zM555 719q1 -1 3 -1q3 0 8 4q7 5 16 11h-9l-16 -8q-5 -2 -5 -4q0 -1 3 -2z" />
<glyph unicode="h" horiz-adv-x="1075" d="M-11 480v9q0 26 15 54q39 29 78 54.5t80 49.5q-14 41 -27.5 82t-25.5 84q-29 92 -45.5 185.5t-30.5 187.5q-4 25 -6 49.5t-7 46.5q-2 23 -3 43.5t-3 40.5q0 6 -2 20.5t-2 10.5q2 31 19.5 50t40 25.5t48 -3t46.5 -37.5q10 -30 10 -56q0 -7 -1 -13q-3 -32 -7 -75 q-2 -53 -2 -105q0 -39 1 -79q3 -92 17 -184q8 -59 23.5 -117t38.5 -113q104 53 208.5 96t213.5 88q16 6 33.5 12.5t35.5 12.5q-10 75 -13 149q-1 25 -1 49q0 49 4 97q4 47 9 82t7 76v20v12.5v12.5v20q-10 33 5 59q14 24 38 36q15 7 32 7q10 -1 22 -3q30 -8 53 -39 q10 -14 11 -30.5t-1 -35.5q0 -4 -1 -10t-1 -2t1 11t1 13.5v9.5t-2 -1q-4 -23 -4 -48.5t-4 -50.5q-12 -72 -25.5 -143.5t-27.5 -142.5v10q-1 -32 -1 -62t1 -59q16 8 33.5 14.5t33.5 16.5h7q32 1 54 -15q24 -18 32 -42.5t-3.5 -52.5t-44.5 -48q-27 -4 -52.5 -9t-49.5 -9 q12 -111 41 -204t66.5 -187.5t86 -195t101.5 -222.5q2 -2 2 -4.5t2 -4.5q0 -2 1 -2t1 -2q5 -18 5 -34q0 -15 -5 -29q-11 -26 -33 -40q-17 -10 -38 -10q-6 0 -13 1q-29 4 -55 30q-4 8 -11 15q-12 25 -12 47q-25 92 -59.5 183t-63.5 183q-37 111 -64.5 226.5t-47.5 232.5 q-129 -29 -243 -69.5t-218 -118.5q35 -72 77 -141.5t87 -141.5q20 -35 38.5 -68.5t41.5 -66.5q5 -18 5 -33q0 -24 -12 -43q-18 -31 -65 -41h-2q-23 2 -40.5 11.5t-27.5 23.5v-2q-2 2 -2 6q-4 6 -6 13.5t-4 13.5q-10 29 -22.5 54.5t-22.5 51.5q-4 10 -11.5 25.5t-2.5 7.5 l4 -8q-18 47 -40 94t-42 94q-10 20 -17.5 41t-17.5 43q-45 -43 -88 -94q-28 -15 -54 -15h-9q-30 3 -48 21t-21 48zM10 1372q-2 6 -2 12t2 13v-2q0 -4 1 -15.5t-1 -7.5zM838 1063q0 21 2 31v2l-1 -8q-1 -12 -1 -25z" />
<glyph unicode="i" horiz-adv-x="921" d="M-68 1320q6 26 28 44t58 18q57 -16 129 -16t150 12q6 33 25.5 51.5t43 22.5t46 -7t37.5 -38q113 25 218 57.5t185 55.5h7q39 0 61 -20q24 -22 27 -52v-8q1 -26 -15 -48q-18 -26 -62 -34q-59 -4 -118.5 -9.5t-118.5 -7.5h-4q-45 -6 -87 -11t-87 -13q-9 -153 -15 -303 q-2 -53 -2 -106q0 -97 6 -195q12 -166 50 -327t79 -320l126 20t128 20q37 -10 53.5 -33.5t15.5 -50t-20.5 -49t-56.5 -28.5q-77 12 -151 18q-32 3 -64 3q-42 0 -84 -5q-16 -4 -26 -2q-25 -4 -49.5 -9t-49.5 -13q4 2 11 2q-8 0 -13 -5q-12 -4 -25.5 -9t-27.5 -11 q-31 -10 -65.5 -23.5t-69.5 -19.5q-43 4 -62.5 29.5t-18.5 54.5t22.5 52.5t62.5 25.5h6h-2h2h25q35 2 69.5 4t69.5 4q10 0 18.5 1t18.5 1q-18 168 -28.5 334t-25.5 334q-12 145 -27.5 287.5t-29.5 285.5q-81 -23 -159 -44q-66 -18 -135 -18q-13 0 -27 1q-34 19 -46 45 q-9 18 -8 36q0 8 2 16zM188 31q4 0 10.5 1t10.5 1q-6 0 -11.5 -1t-9.5 -1zM406 -61q4 2 5 2t-1 -2h-4z" />
<glyph unicode="j" horiz-adv-x="970" d="M39 1313q-2 13 -2 22.5t2 16.5q4 14 16 37q31 25 88.5 36t120 14t124 3t101.5 6q117 16 232 47t233 47q37 -10 54 -34q15 -22 15 -46q0 -29 -21 -53q-19 -23 -56 -29q-72 4 -138 4t-126 -4q13 -27 13 -56q0 -14 -3 -29q-8 -37 -8 -74v-15q2 -51 7 -102t14 -103 q43 -233 99 -486t97 -488q-2 -12 -4 -19.5t-10 -17.5q-20 -12 -39 -26.5t-41 -24.5q-45 -18 -119 -19q-7 -1 -14 -1q-68 0 -144 13q-84 15 -167.5 44.5t-152.5 72.5t-111 99q-40 54 -40 118v6q2 70 36 126.5t82 104.5t101.5 88t96.5 77q21 7 40 7q12 0 23 -3 q29 -8 44.5 -28.5t14.5 -50.5t-26 -58q-55 -41 -113.5 -78t-109.5 -84q-20 -23 -29.5 -51.5t-23.5 -55.5q8 -20 12 -41.5t16 -38.5q37 -43 110 -79.5t155.5 -57t161.5 -20.5t130 30q-35 109 -61.5 223.5t-49 231.5t-46 233.5t-52.5 227.5q-14 55 -23 111.5t-16 113.5 q-1 8 -1 17q0 22 4 49q5 36 -7 59q-4 20 2 37q-49 -8 -100 -18.5t-106 -22.5q-49 -10 -78 -16.5t-45 -10.5q-12 -31 -45 -45q-13 -5 -27 -5q-22 0 -47 13q-14 10 -26.5 24.5t-16.5 31.5z" />
<glyph unicode="k" horiz-adv-x="882" d="M-24 1078q-1 5 -1 11q1 21 11 39q12 22 38 34q14 6 30 6t34 -5q45 -23 60.5 -83t15.5 -130.5t-9.5 -138.5t-11.5 -100q-2 -27 -2 -53.5t4 -51.5q12 35 26.5 70t35.5 69q25 41 35 60.5t17 34t18.5 33t37.5 57.5q18 27 49 76t66 103t70 103.5t59 79.5q13 23 35 32 q16 7 33 7l11 -1q22 -3 41 -19.5t28 -46.5q0 -25 -4.5 -43.5t-22.5 -36.5q-2 -2 -5 -4t-3 0q-59 -76 -126 -150t-129.5 -151.5t-116.5 -160.5t-87 -177q190 -43 366.5 -134.5t333.5 -201.5q20 -30 20 -59q1 -30 -17 -50q-16 -20 -45 -26.5t-62 10.5q-72 63 -144.5 115.5 t-150.5 105.5q-4 2 -3 1t5 -3q-72 41 -143.5 78t-147.5 67q-12 4 -26.5 9.5t-30.5 13.5q23 -92 60.5 -180t80.5 -174q5 -18 5 -34q0 -20 -8 -36q-16 -29 -42 -39q-13 -5 -26 -5q-15 0 -31 6q-31 11 -51 48q-27 102 -48.5 203t-35.5 205q-8 70 -15.5 153.5t-15.5 163.5 t-17.5 146.5t-21.5 103.5q-23 22 -26 50z" />
<glyph unicode="l" horiz-adv-x="849" d="M-4 1332q4 30 24 50q20 21 50 24h7q27 0 56 -20q25 -16 37 -56t16 -85q3 -36 3 -71v-17q-1 -43 -1 -67q-2 -66 -7 -161t-9 -205t-7 -226q-2 -58 -1.5 -115t1.5 -111q3 -110 14 -203.5t34 -156.5q76 49 142.5 98t134 92t141.5 77t166 50h7q38 -1 60 -21q24 -22 28 -50v-8 q0 -24 -16 -48q-18 -26 -61 -34q-72 -6 -134.5 -27t-122.5 -51.5t-117.5 -66.5t-116.5 -73q-43 -27 -80 -41q-27 -10 -50 -10q-8 0 -16 1q-28 5 -47.5 35t-26.5 91l-12 142q-2 49 -2 97t-4 95q-4 111 -9 222.5t-11 222.5q-4 123 -10.5 242.5t-16.5 240.5q-4 23 -8 43t-13 41 q-22 27 -22 53v7z" />
<glyph unicode="m" horiz-adv-x="1169" d="M-84 60q-3 10 -3 22q0 18 8 36q13 30 54 44h7q8 8 28.5 26.5l41 37t36.5 32.5t21 18q16 20 27 36t9 12v-2q39 61 73 125.5t69 130.5q8 16 19 37.5t24 48.5q-3 35 -3 68q0 17 1 33q2 48 6 93q2 29 6 71t15.5 82t33 68.5t62.5 32.5q29 2 45 -22q30 -56 30 -111 q0 -16 -2 -33q-12 -72 -39 -149q-8 -20 -17 -49t-22 -64q12 -94 30 -186t56 -179q2 -4 0 2.5t-5 13.5t-5 13t0 2q12 -25 22.5 -47t20.5 -45q29 70 60.5 136.5t60.5 137.5q16 41 31.5 100.5t30 126t25.5 134.5t22 127q-2 10 -3 19.5t-1 19.5q-5 37 -9 97q-4 50 -3 101v22 q1 62 13.5 119.5t43.5 88.5q18 14 38 14q8 0 17 -2q2 0 3 -1t3 -1q12 -8 17.5 -14t9.5 -21q11 -57 11 -116q0 -29 -3 -59q-8 -89 -17 -175q-4 -41 -9 -84t-9 -86q14 -115 31.5 -259t46.5 -287.5t74 -269.5t112 -202q23 -23 47.5 -42t46.5 -42q20 -30 20 -59q1 -31 -17 -51 q-16 -20 -46 -25q-8 -2 -15 -2q-22 0 -46 12q-29 29 -57.5 52.5t-51.5 56.5q-49 74 -83.5 164t-59.5 188t-41 202.5t-27 209.5q-23 -86 -47 -167t-53 -159q-12 -33 -27.5 -89t-41.5 -93q-6 -40 -41 -58q-16 -8 -34 -8q-22 0 -48 13q-72 76 -117 185.5t-68 231.5 q-33 -74 -70.5 -146.5t-79.5 -133t-88.5 -103.5t-95.5 -57q-12 -2 -24 -2q-26 0 -44 12q-28 18 -36 46zM430 934q2 6 2 11t2 11q-2 -6 -2 -11t-2 -11z" />
<glyph unicode="n" horiz-adv-x="948" d="M-16 1116q19 30 42 30q15 0 31 -13q29 -35 49.5 -89.5t36.5 -117.5q51 -111 121 -231t150 -232.5t168 -208.5t178 -160q-6 55 -15.5 110.5t-15.5 110.5q-27 243 -40 483q-10 184 -10 368q0 57 1 114q1 18 1 35q0 35 -3 71q-1 13 -1 27q0 40 9 78q30 47 70 47q26 0 57 -20 q18 -16 27.5 -35t17.5 -41q4 -17 4 -32q0 -21 -8 -38q-14 -29 -41 -39q-27 -187 -34 -371q-1 -36 -1 -71q0 -149 23 -299q10 -63 21.5 -126t25.5 -126q10 -43 24.5 -85t26.5 -85q11 -43 19 -87q5 -29 5 -58q0 -16 -1 -31q-6 -20 -15 -31q-4 -59 -73 -78q-35 0 -68 17.5 t-63.5 44t-58.5 54.5t-48 50q-102 102 -184 218t-154 241q18 -59 32.5 -119.5t22.5 -120.5q5 -40 7 -102q0 -6 1 -12q1 -55 -13 -103q-14 -53 -50 -84q-20 -18 -52 -18q-23 0 -52 10q-31 16 -43.5 40t-10.5 47.5t17.5 43t42.5 25.5q7 51 7 102q0 38 -4 75q-9 87 -27.5 173 t-42 171t-40.5 173q-4 29 -8 63.5t-8 69.5q-27 54 -45 104q-12 33 -11 52q0 10 3 16zM151 87q1 0 3 3q2 4 3 11.5t3 7.5q-12 -5 -12 -13q0 -9 3 -9zM829 1446h2v8q0 -2 -1 -4t-1 -4z" />
<glyph unicode="o" horiz-adv-x="1191" d="M-31 569q8 84 37 162t64 152q39 78 88 160t112 139q14 12 29.5 23.5t32.5 21.5q4 25 23.5 43t54.5 22q22 11 42 11q10 0 18 -2q28 -7 44 -29q82 -20 156.5 -50t146.5 -77q43 -29 97.5 -72t106.5 -97t99 -115.5t76 -127t34 -131.5q1 -9 1 -19q0 -57 -27 -110 q-53 -106 -134 -189t-182.5 -137.5t-219.5 -78.5q-83 -17 -171 -18q-36 0 -73 3q-123 8 -212 52.5t-146.5 113t-81.5 158.5q-18 67 -17 141q0 25 2 51zM82 502q-1 -14 -1 -27q0 -111 46 -181q51 -79 136 -117t191 -39h8l206 27q106 28 199.5 80t152.5 120q74 84 83 171 q2 18 2 36q0 68 -27 132q-34 80 -103.5 152t-156.5 129t-180 94t-175 49q-25 -16 -49.5 -30.5t-46.5 -36.5q-53 -53 -102.5 -118.5t-89.5 -138.5t-65.5 -149.5t-27.5 -152.5z" />
<glyph unicode="p" horiz-adv-x="1032" d="M-18 1403q18 76 78 76q17 0 36 -6q14 -4 27.5 -14.5t23.5 -22.5q6 -10 9.5 -17.5t7.5 -15.5q4 -4 8 -9l8 -10q14 -12 26.5 -25t26.5 -28q35 -35 79 -77t83 -76q98 -86 199.5 -166t200.5 -166q55 -49 109 -97.5t91 -113.5q5 -7 5 -16q0 -3 -1 -7q-2 -12 -6 -22 q-31 -78 -97.5 -112t-150.5 -58q-88 -27 -179 -44.5t-183 -19.5q27 -90 61.5 -177t75.5 -173q5 -18 5 -34q0 -20 -8 -36q-15 -28 -41 -38q-13 -6 -27 -6q-15 0 -31 6q-31 12 -51 49q-29 102 -51.5 205.5t-39.5 207.5q-29 4 -57.5 9.5t-56.5 13.5q-10 2 -23.5 12.5t-26 21.5 t-21.5 20l-9 9q-31 31 -31 64t18.5 54.5t50.5 26.5q5 1 11 1q27 0 55 -21q10 -10 19.5 -22t23.5 -23q6 -4 23 -12q-16 104 -30.5 204.5t-35.5 205.5q-6 35 -14 68.5t-16 68.5q0 6 -2 12v-4q0 -4 -1 5t-3 13q-4 18 -10.5 42t-12.5 42l-2 5q-12 31 -6 55q-53 41 -95 87t-42 85 zM119 1186q2 -2 2 -3t2 -3q-5 4 -5 6h1zM119 1186v2v-2zM299 1094q3 -38 3 -71v-16q-1 -40 1 -59q6 -72 10.5 -142t10.5 -142q4 -45 10 -87t16 -85q40 -4 85 -4h11q52 1 100 7.5t92 13.5t77 15q18 4 45.5 10.5t56.5 16.5t52.5 25.5t33.5 35.5q-37 61 -109.5 125 t-159.5 126.5t-176 120.5t-159 110z" />
<glyph unicode="q" horiz-adv-x="890" d="M18 650q33 192 125 362q-27 -14 -52 -9t-42.5 23t-20.5 47v8q0 26 15 54q41 49 85 92t94 71.5t108 41.5q36 9 76 9q24 0 49 -3q51 -6 95 -32t91 -48q49 -23 85 -74t52 -102q16 -53 37 -104.5t25 -106.5q4 -69 4 -142v-49q-2 -98 -19.5 -195.5t-53.5 -187.5t-99 -164 q6 -10 13 -20t15 -21q2 -2 2 -3t3 -3q4 -6 9 -11t9 -11q4 -4 -2 3t-12 15q41 -43 80.5 -83t87.5 -81q20 -29 20 -55q0 -6 -1 -11q-5 -32 -26.5 -50.5t-54.5 -18.5t-63 31q-43 61 -78 124.5t-70 129.5q-2 -4 -4 -5t-4 -3q-86 -70 -176 -86q-32 -6 -62 -6q-56 0 -106 19 q-78 30 -137 99.5t-84 169.5q-27 113 -27 225q0 80 14 161zM126 520q-4 -36 -4 -73q0 -74 15 -152q18 -94 64.5 -146.5t106.5 -67.5q26 -6 53 -6q37 0 75 11q66 20 123 70q-6 10 -11 20t-11 21q-18 31 -42 66.5t-48.5 73.5t-46 75t-31.5 67q-4 33 10 56.5t36.5 33t49.5 1 t45 -37.5q8 -8 16.5 -17t14.5 -19q4 -19 4 -34q0 -21 -8 -36q16 -53 37.5 -104.5t48.5 -98.5q8 10 14 21.5t14 23.5q45 82 72 180.5t30 201.5v28q0 89 -17 175q-19 99 -64 183q-18 35 -42 64.5t-57 52.5q-47 35 -89 48q-32 10 -61 10q-9 0 -17 -1q16 -23 15 -52.5t-26 -57.5 q-8 0 -8 -2q-66 -90 -122 -182.5t-92 -190.5t-47 -205zM705 94l4 -4z" />
<glyph unicode="r" horiz-adv-x="1021" d="M-71 917q0 24 16 52q4 4 8 7t8 7v6q29 41 64 47q66 49 138.5 88t143.5 74q8 4 33 15.5t52.5 23.5t51 22.5t33.5 14.5q43 20 86 37.5t86 36.5q18 8 65 30q46 20 94 36q41 13 73 14h10q35 -2 33 -42q-2 -25 -28 -82t-65.5 -134.5t-89 -167t-100.5 -178.5t-99 -167.5 t-83 -136.5q16 -4 30.5 -9t30.5 -11q86 -39 157 -99.5t134 -131t124.5 -143.5t129.5 -134q19 -30 19 -58v-2q-1 -30 -17 -50t-45 -26q-8 -2 -16 -1q-22 0 -45 12q-55 57 -105.5 121.5t-100.5 129t-103.5 123t-114.5 105.5q-33 23 -69 44.5t-77 27.5q-6 -8 -11 -16.5 t-13 -18.5q16 -86 34.5 -171t47.5 -171q0 -37 -18.5 -59.5t-44.5 -27.5t-52.5 7t-44.5 45q-10 72 -15.5 143.5t-11.5 143.5q-7 -1 -14 -1q-26 0 -51 17q-23 18 -28 43t3 49.5t23.5 46t33.5 33.5q4 4 8.5 5t8.5 6q-8 90 -18.5 177t-26.5 175v-10q0 -6 -2 7t-6 19 q-6 20 -17 47q-4 10 -7 21.5t-7 21.5q-18 -12 -33.5 -25.5t-30.5 -25.5q-10 -18 -25.5 -33.5t-37.5 -23.5q-31 -6 -55 2q-26 8 -38 26q-14 20 -13 47zM301 1036q2 -45 10.5 -87t10.5 -85q4 -86 9 -169t15 -165h4q33 45 59.5 92.5t53.5 96.5q92 176 169 297q77 120 118 186 q35 55 35 72q1 3 -1 4q-1 2 -5 2q-16 0 -79 -37q-37 -23 -84 -46t-99 -49t-107.5 -53.5t-108.5 -58.5z" />
<glyph unicode="s" horiz-adv-x="1089" d="M-53 987q10 63 58 114.5t97 86.5q78 55 170.5 106.5t190.5 79.5q92 27 184 27h13q100 -2 192 -53q35 -25 41 -56.5t-8.5 -57.5t-44.5 -36q-11 -4 -23 -4q-22 0 -47 12q-56 37 -124 41q-14 1 -29 1q-54 0 -108 -12q-69 -15 -134.5 -44t-118.5 -57l-40.5 -22.5t-47.5 -28 t-47.5 -34t-38.5 -38.5q59 -29 122.5 -49.5t127 -39t127 -39t125.5 -44.5q78 -33 117.5 -50.5t70.5 -36t65.5 -42t102.5 -68.5q41 -29 86 -86q44 -57 70 -123q21 -53 21 -105q0 -13 -1 -25q-6 -64 -65 -107q-29 -20 -57.5 -39t-59.5 -39q-72 -47 -165 -69t-193 -28 q-36 -2 -72 -3q-62 1 -124 7q-97 10 -177 29q-80 20 -123 73q-42 54 -56 122q-7 33 -7 65q-1 36 7 73q14 71 52 128q41 63 91 113.5t103 99.5q21 7 40 7q12 0 24 -3q28 -8 43.5 -28.5t14.5 -50t-25 -58.5q-31 -27 -61 -54.5t-62 -52.5q-46 -57 -70 -113q-16 -37 -16 -72 q0 -17 4 -33q12 -48 64.5 -82.5t156.5 -49.5q61 -8 123 -8q64 1 130 9q130 16 243 63q75 33 109 77q33 43 33 90q0 50 -34 103q-33 51 -92 100q-35 31 -77 54.5t-83 44.5q-45 23 -92 42t-94 36q-72 27 -145.5 47t-146.5 39.5t-145.5 43t-140.5 58.5q-10 12 -15 22.5t-9 26.5 z" />
<glyph unicode="t" horiz-adv-x="952" d="M-71 1244q5 26 28 44.5t59 18.5q68 -18 149 -18q11 1 21 1q94 2 193 19q2 4 2 5t2 5q0 6 2 8v-2q10 20 29 37q4 4 6 4q23 8 43 8q13 0 23 -3q28 -7 42 -34q117 29 225.5 61t194.5 56h7q39 0 61 -20q24 -22 28 -52q1 -5 0 -9q0 -24 -16 -46q-18 -27 -61 -35 q-111 -8 -218.5 -18t-218.5 -29q-18 -164 -22 -309q-1 -26 -1 -51q-1 -117 15 -233q18 -140 64.5 -279.5t126.5 -292.5q5 -18 5 -33q0 -21 -8 -37q-16 -28 -42 -38q-13 -5 -27 -6q-15 0 -31 6q-30 12 -51 48q-76 225 -109.5 459t-50.5 469q-4 41 -13 118t-11 148 q-49 -12 -97.5 -26t-97.5 -24.5t-98 -15.5q-27 -3 -55 -3q-22 0 -45 2q-34 18 -46 45q-9 19 -8 38q0 7 1 14zM539 1305v2v4v-6z" />
<glyph unicode="u" horiz-adv-x="1079" d="M-28 34q-1 10 -1 19q1 27 7 55q8 38 21 75.5t21 60.5q53 168 124 325.5t149 315.5q20 41 52 100t42 117q-23 16 -29 48q-1 7 -1 13q0 26 18 54q29 25 58.5 31.5t55 -2.5t42 -33.5t20.5 -65.5q1 -8 1 -17q0 -27 -10 -54q-12 -36 -26 -68q-39 -92 -86 -181.5t-96 -178.5 t-96.5 -179t-85.5 -184q-8 -20 -21.5 -49t-26 -61t-21.5 -63.5t-9 -56.5h31.5t37.5 2q66 4 129.5 13.5t128.5 17.5q102 14 200.5 19.5t203.5 9.5q4 0 -1 0h-13.5h-15.5h-7q27 2 60.5 3t67.5 2t65.5 7t54.5 23q-31 80 -72 156.5t-67 156.5q-77 235 -77 464v6q1 232 60 474 q20 33 48 44q17 7 33 7q9 0 19 -3q24 -7 42 -31q16 -22 16 -55v-7q-68 -217 -82 -427q-3 -39 -3 -79q0 -172 50 -352q12 -47 34.5 -92t44 -91.5t39 -92.5t23.5 -95q0 -16 -3 -24.5t-13 -20.5q-53 -31 -112.5 -44t-121.5 -16q-37 -2 -73 -2l-49 1q-31 1 -61.5 1t-59.5 -1 q-78 0 -155 -14.5t-154 -26.5q-27 -4 -71 -13.5t-91 -15.5q-31 -4 -61 -4q-15 0 -29 1q-43 3 -68 21q-27 21 -30 57zM459 1085q2 0 10 5l-5 -2.5z" />
<glyph unicode="v" horiz-adv-x="962" d="M-20 924q29 53 58.5 69.5t58 9t55 -35t50 -62.5t43 -71.5t34.5 -63.5q35 -68 61.5 -137.5t52 -140t51 -140t58.5 -137.5q14 -31 29.5 -61.5t31.5 -59.5q0 74 -2 148q-1 25 -1 50q0 50 3 99q10 193 44 381.5t81 374.5q25 96 58.5 188t64.5 187q8 23 16.5 43t14.5 43 q2 6 4 16t4 23v2q0 2 1 3t1 3q0 6 4 18q4 16 4 10q4 8 10.5 16.5t16.5 16.5q4 4 6 4q26 9 47 9q10 0 20 -2q28 -7 50 -41q7 -17 7 -39q-1 -21 -7 -47q-14 -52 -38 -108t-51.5 -107.5t-39.5 -84.5q-12 -29 -23.5 -59.5t-23.5 -58.5q-2 -2 -3 -2q-41 -119 -74.5 -239 t-58.5 -243q-35 -170 -45 -322q-6 -95 -7 -197q0 -62 3 -126q0 -14 2 -47t-4 -64q-7 -30 -23 -48q-9 -11 -24 -11q-11 0 -25 6q-20 10 -31.5 30t-21.5 38q-4 6 -8 16.5t0 3.5q16 -29 14 -25.5t-14 26t-32.5 58.5t-41 70.5t-36 62.5t-19.5 36q-59 119 -110.5 239.5 t-110.5 237.5l-2 2q-25 33 -46.5 65.5t-45.5 65.5q-20 -4 -39 3t-31 21.5t-18 36.5q-4 12 -4 26q0 10 2 22zM840 1202q4 6 5 12.5t5 12.5l1 1l-3 -6z" />
<glyph unicode="w" horiz-adv-x="1079" d="M-70 809q-5 18 -5 35q0 20 7 39q28 48 77 48q16 0 34 -5q35 -23 57.5 -57.5t36 -75.5t21.5 -84t14 -80q20 -113 39.5 -221.5t75.5 -202.5q-2 14 -2 27.5v27.5q0 115 14 224.5t43 220.5q10 45 22.5 89t22.5 89q-19 17 -23 45q-1 5 0 10q0 24 17 53q27 37 76 47q31 2 51 -6 t37 -37q8 -14 10 -29.5t2 -31.5q25 -70 39 -154t24.5 -171t19.5 -172t24 -154q10 -51 22 -114t47 -108q4 16 7 38t8 51q6 49 10 98t8 96q16 143 36.5 281.5t57.5 277.5q23 76 45.5 150.5t42.5 150.5q6 23 13.5 58.5t11.5 60.5q4 -10 5 -17.5t3 -11.5q-2 16 -3 42t8 48 q10 21 32 29q7 2 15 2q20 0 50 -12q2 -2 3 -2t4 -2q20 -14 29 -26.5t16 -37.5q-6 -53 -31 -125.5t-55.5 -155.5t-63.5 -171t-55 -170q-25 -92 -40.5 -187.5t-31.5 -193.5q-8 -47 -15 -95.5t-16 -97.5q0 -10 -2 -46t-11 -73q-10 -38 -28 -64q-12 -17 -31 -17q-9 0 -20 4 q-23 8 -37 16t-23 18.5t-18.5 25.5t-23.5 38q-16 25 -25.5 52.5t-19.5 53.5q-41 127 -64.5 260.5t-56.5 262.5q-35 -102 -58.5 -202.5t-29.5 -211.5q-2 -21 -2 -42q0 -26 3 -53t3 -53q0 -21 -2 -42q-13 -34 -39 -34q-12 0 -27 7q-82 63 -130 149t-79.5 183.5t-57 197 t-62.5 189.5q-33 10 -56 51zM973 1323v2q3 24 4 24v-1q0 -6 -4 -25z" />
<glyph unicode="x" horiz-adv-x="923" d="M-24 1025q6 26 27.5 45.5t59.5 21.5q45 -4 68 -35q4 -8 8 -13q-4 4 -6 7.5t2 -0.5q53 -90 89 -185.5t89 -187.5q23 -39 46.5 -76t50.5 -72q6 10 12 19.5t14 19.5q66 98 123 196.5t111 201.5q35 74 72.5 145.5t58.5 149.5q20 33 48 44q17 7 33 7q10 0 20 -3q24 -7 42 -32 q15 -21 14 -51v-10q-33 -78 -76.5 -150t-93 -140.5t-99.5 -136t-95 -137.5q-33 -49 -63.5 -99t-61.5 -103q158 -188 367 -328q19 -30 19 -58q1 -31 -17 -51q-16 -20 -45 -26t-62 10q-92 84 -167 174t-146 188q-41 -78 -80 -154.5t-74 -154.5q0 -31 -24 -57q-4 -2 -6.5 -4 t-6.5 -4q-28 -18 -53 -18h-2q-26 0 -43.5 14t-27 38.5t-3.5 55.5q35 55 71 107.5t71 105.5q16 27 34.5 52.5t38.5 49.5l3 6t6 6q12 20 32 48q-53 76 -108.5 145.5t-102.5 146.5q-20 35 -37.5 72t-39.5 72h-3q-14 10 -22 23.5t-18 25.5q-29 12 -41 38q-8 17 -9 33q1 9 3 18z M31 934h4h-4zM139 1044q6 -10 11.5 -17t1.5 -3t-6.5 10t-6.5 10zM680 985q4 8 8 15.5t8 15.5q-4 -6 -8 -14.5t-8 -16.5z" />
<glyph unicode="y" horiz-adv-x="854" d="M-2 1234q18 21 50 26q6 1 12 1q26 0 55 -20q23 -23 34 -53.5t21 -61.5q6 -20 13 -39.5t10 -23.5q-2 2 -3.5 4t-3.5 4q51 -96 123 -168t164 -129q23 61 47.5 121.5t46.5 120.5q25 61 43.5 106t36 86t36.5 84t46 103q2 4 8 11t15 17q12 27 34 41q20 11 40 11h6 q24 -2 44.5 -18.5t30.5 -49.5q0 -25 -4 -43t-22 -37l-9 -8q-6 -12 -22 -39t-32.5 -53.5t-30 -48t-15.5 -25.5q-31 -53 -55.5 -98t-48 -90t-46 -92.5t-47.5 -104.5q-57 -133 -93 -254t-52 -240q-13 -101 -13 -206v-40q3 -126 21 -268q-2 -43 -25.5 -65.5t-52.5 -23.5h-2 q-27 0 -52 19t-30 62q-2 51 -5 102q-2 30 -2 60q0 19 1 39q10 166 51 337t101 339q-10 2 -19.5 4t-19.5 8q-98 115 -183 235.5t-184 235.5q-4 4 -6 4q-31 31 -31 62q0 33 19 56zM762 1434q10 10 10 12l-8 -8q0 -2 -2 -4z" />
<glyph unicode="z" horiz-adv-x="1191" d="M-32 140q16 56 51.5 116.5t76.5 114t60 78.5q129 170 264 338.5t285 320.5q23 23 43 44.5t43 43.5q-166 -35 -327 -70.5t-327 -70.5q-10 2 -18.5 2t-18.5 4q-35 18 -46 46t-5 53.5t28.5 43t57.5 15.5q166 29 329 54t327 52q70 13 131 29q41 11 86 11q22 0 45 -3 q51 -12 51 -51q0 -15 -8 -35q-16 -18 -36 -29.5t-42.5 -22t-44 -20.5t-39.5 -24q-104 -88 -195.5 -184.5t-185.5 -196.5q-6 -6 3 4t19.5 22.5t18.5 21.5t2 3q-143 -164 -276.5 -334t-237.5 -362q156 55 311.5 97t315.5 81q106 25 217.5 50.5t214.5 66.5v-3q25 16 57.5 10.5 t56.5 -40.5l2 -2q5 -20 5 -36t-5 -28q-10 -26 -45 -49q-106 -43 -229 -61.5t-235 -40.5q-147 -29 -292 -57.5t-290 -71.5q-25 -8 -50.5 -17.5t-49.5 -14.5q-20 -4 -37 -4h-7q-22 1 -36 17q-22 22 -22 56q-1 15 4 33z" />
<glyph unicode="{" horiz-adv-x="798" d="M31 471q-12 47 11.5 90t63 70.5t89 36t88.5 -14.5q6 12 11 25.5t11 28.5q35 90 45 185t14.5 192.5t13.5 192.5t42 185q16 51 51 90t76 72q16 14 33.5 22.5t35.5 18.5q4 4 12.5 10t4.5 2l-2 -2q25 14 50.5 12.5t43.5 -17t25.5 -42t-5.5 -59.5q-6 -16 -30.5 -31.5t-54 -34 t-60.5 -44t-51 -62.5q-6 -14 -14.5 -47t-15.5 -70t-12 -70.5t-7 -50.5q-12 -74 -21.5 -151.5t-25 -153.5t-40 -148.5t-67.5 -138.5q23 -63 27 -132.5t8 -137.5q4 -104 18.5 -198.5t46 -179.5t87 -160.5t139.5 -141.5q20 -31 19 -60.5t-17.5 -49t-45 -25.5t-61.5 10 q-72 66 -123 133.5t-84.5 142t-53 157.5t-27.5 181q-2 27 -1 71t1 95.5t-2.5 103.5t-8.5 97q-39 -41 -88 -63.5t-98 2.5q-16 10 -31.5 26.5t-19.5 32.5zM116 500.5q3 -9.5 3 -13.5q31 2 60.5 23.5t56.5 58.5q-2 2 -2.5 3t-2.5 3q-10 10 -26.5 7.5t-32.5 -14t-29.5 -24 t-19.5 -20.5q-10 -14 -7 -23.5z" />
<glyph unicode="|" d="M582 1567q-4 37 11 62.5t39.5 35.5t52.5 1t50 -40q31 -104 38 -220t2 -233.5t-17.5 -235.5t-18.5 -226q-16 -276 4.5 -535.5t77.5 -527.5q0 -37 -18.5 -59.5t-44 -27.5t-52 7t-44.5 45q-16 160 -27.5 316.5t-7.5 316.5q4 174 17 345t9 345v159t-6 161.5t-20 158.5 t-45 152z" />
<glyph unicode="}" horiz-adv-x="806" d="M78.5 1594.5q1.5 29.5 17 50t43 27.5t62.5 -7q74 -63 127 -130t90 -139.5t58.5 -155.5t31.5 -181q2 -29 3 -73t2 -94t4 -103.5t11 -96.5q39 41 86.5 65.5t100.5 2.5q16 -10 31.5 -25.5t21.5 -32.5q14 -47 -8.5 -91t-62.5 -73.5t-90 -40t-89 12.5q-4 -12 -9 -24.5 t-9 -26.5q-31 -92 -38 -188.5t-9 -192.5t-8.5 -191.5t-36.5 -187.5q-16 -51 -49 -91t-72 -75q-16 -14 -33.5 -23.5t-36.5 -19.5q-4 -4 -11 -10t-3 -2q0 2 2 4q-25 -16 -50.5 -16.5t-45 14t-27.5 41t4 61.5q6 18 29.5 33.5t53.5 35t60.5 45t49.5 64.5q6 14 12 48t12 71t10 71 t6 50q8 74 15.5 150.5t21 153.5t36 150.5t63.5 139.5q-27 66 -33 134.5t-10 135.5q-6 104 -23.5 197.5t-52.5 178.5t-92.5 159t-143.5 137q-23 29 -21.5 58.5zM563 596q2 -2 3 -2t3 -2q12 -10 27.5 -6t32 14t30 23.5t19.5 21.5q8 14 5 23.5t-5 13.5q-59 -6 -115 -86z" />
<glyph unicode="~" d="M138 479.5q-7 38.5 16 67.5q10 23 22 41q10 18 32.5 31.5t41.5 23.5q70 41 150.5 57.5t160.5 6.5q39 -4 83 -30t89 -58.5t92 -64.5t93.5 -49.5t91.5 -13t86 43.5q29 29 50 61.5t44 62.5q33 27 65.5 25t53 -22.5t22.5 -53.5t-24 -65q-23 -20 -52.5 -51t-64.5 -57.5 t-74 -45t-78 -14.5q-29 4 -58.5 4t-57.5 12q-47 25 -90.5 57.5t-88.5 65.5t-93 57.5t-101 30.5q-39 4 -96.5 -12.5t-98.5 -44.5q2 2 6 0q4 -8 -8 -11.5t-18 -9.5q-8 -4 -14.5 -11t-14.5 -13q0 -12 -5 -23.5t-9 -21.5q-23 -25 -42.5 -33t-51.5 -4h-7q-45 23 -52 61.5z M332 528l10 11z" />
<glyph unicode="&#xa1;" horiz-adv-x="428" d="M58 13q3 50 15.5 99.5t18.5 84.5q27 143 50.5 263t35.5 234.5t12 234.5t-18 265q2 43 26.5 64.5t54.5 21.5t53.5 -20.5t27.5 -63.5q-2 -154 -27.5 -307.5t-51.5 -306t-42 -304t2 -305.5q18 -25 19.5 -51t-13 -46.5t-41 -31t-61.5 1.5q-39 27 -51.5 72t-9.5 95zM123 1462 q-10 35 8 64q4 23 16.5 41t36.5 28q18 8 36 3t32 -17h6q10 -10 21.5 -17.5t21.5 -19.5q12 -18 12 -42.5t-9 -48t-26.5 -40t-37.5 -20.5q-39 -9 -70 18q-37 16 -47 51z" />
<glyph unicode="&#xa2;" horiz-adv-x="1140" d="M-25 287q4 39 10.5 77.5t10.5 77.5q8 53 34.5 100.5t49.5 94.5q12 27 33.5 70t46 88t49 86t43.5 65q55 74 118.5 145.5t135.5 137.5q-16 96 -42 187t-71 183q-4 37 11.5 63t40 36t52 1t50.5 -40q29 -84 45 -168t26 -170q127 92 267 139q20 6 46.5 2t51.5 -16t45.5 -30.5 t30.5 -37.5q8 -16 11 -37.5t5 -42.5q4 -10 5 -19t3 -13q10 -35 -14 -70q-25 -29 -53.5 -34t-51 5.5t-36 34t-6.5 53.5q-2 12 -3 25.5t-1 17.5q-29 12 -67 1t-76 -31.5t-70.5 -43t-47.5 -34.5q-6 -4 -13 -10t-13 -11q4 -92 7 -183t11 -183q12 -154 29.5 -307.5t40.5 -307.5 q102 47 194.5 113t180.5 137q35 12 63.5 4t44 -28.5t14 -50t-25.5 -58.5q-111 -78 -221.5 -142.5t-233.5 -105.5q6 -41 12.5 -83t14.5 -85q-2 -43 -25.5 -65.5t-52.5 -23.5t-54.5 18.5t-29.5 62.5q-2 35 -3 69t-3 68q-63 -12 -133 -18q-72 -6 -129.5 -5t-107.5 15.5t-97 45 t-96 81.5q-27 29 -43.5 71t-12.5 79zM66 289q4 -53 31.5 -89t68.5 -56.5t88 -30t92 -9.5q66 -2 126 8.5t120 26.5q-6 227 -15.5 451.5t-41.5 447.5q-2 10 -3.5 20.5t-3.5 20.5q-80 -76 -164.5 -176t-153.5 -206.5t-111 -213t-33 -194.5zM1077 1282v8v-8z" />
<glyph unicode="&#xa3;" horiz-adv-x="1126" d="M-17 112q1 40 23.5 80.5t56 72.5t74.5 50.5t80 14.5q63 -6 106.5 -45t84.5 -90q25 35 43 72.5t32 74.5q70 174 95 356q-35 -4 -67 -11t-67 -17q2 0 2 -1t-2 -1q-4 -4 -9 -5t-9 -6q-8 -12 -27 -22q-16 -4 -31.5 -6t-31.5 -2q-35 2 -54.5 21.5t-22.5 44t10.5 47t43.5 34.5 v2q7 2 15 6q39 14 71 0q47 4 93.5 5t91.5 6q2 23 2 45v45q0 45 -5.5 112.5t-3 137t15.5 133t50 102.5q33 35 70 63.5t84 34.5q43 6 97 2t98 -23.5t67.5 -56t5.5 -96.5q-14 -37 -41 -52t-52.5 -10t-46 26.5t-20.5 56.5q-10 4 -37 8q-51 4 -79.5 -15.5t-44 -51t-23.5 -71.5 t-16 -77q0 2 1 11t1 17.5v12.5q-6 -90 -9.5 -173t-9.5 -165q63 12 124.5 28.5t123.5 34.5q43 2 67.5 -20.5t27.5 -51t-15.5 -55t-61.5 -34.5q-72 0 -139 1t-135 -3q-14 -129 -50 -256t-120 -260q-10 -16 -21.5 -33t-25.5 -33q29 -33 61.5 -59.5t75.5 -40t97.5 -10.5 t125.5 32q53 23 101.5 50.5t97.5 54.5q41 14 70.5 1.5t42 -38t4 -57t-44.5 -54.5q-96 -43 -177 -75.5t-160 -42t-159 11t-172 86.5q-31 20 -55 55q-63 -47 -137 -67.5t-148 6.5q-57 20 -80.5 56t-22.5 76zM90.5 138q-16.5 -38 15 -58.5t94 -17t124.5 46.5q-25 35 -52.5 64.5 t-66.5 45.5q-98 -43 -114.5 -81zM438 668q2 0 4 2q-2 -2 -4 -2z" />
<glyph unicode="&#xa5;" d="M78 1321.5q6 28.5 25.5 44.5t49 17t60.5 -19q47 -92 78 -189.5t78 -189.5q29 -59 74.5 -108.5t95.5 -94.5q16 78 37.5 157t41 159t33 159.5t11.5 159.5q8 43 34.5 61.5t55 15.5t51 -27.5t20.5 -67.5q-10 -90 -37.5 -177t-60.5 -173t-64.5 -173.5t-50.5 -177.5 q12 -37 -12 -67v-4q-4 -37 -6 -74t-2 -72q72 20 144.5 48t160.5 59q37 2 61.5 -15.5t31.5 -42t-4 -52t-44 -48.5q-86 -6 -172 -15t-172 -30q4 -35 10 -70.5t17 -70.5q43 16 87 35.5t97 42.5q37 2 61.5 -15.5t31.5 -42t-4 -52.5t-44 -48q-49 0 -100.5 -3t-102.5 -11 q25 -80 56 -160q12 -41 -3.5 -70t-42 -39t-57.5 1.5t-51 47.5q-25 96 -37 181q-47 -16 -92 -36t-94 -24q-43 4 -62.5 29.5t-18.5 54.5t23.5 52.5t65.5 25.5q10 -2 24.5 0t12.5 -8q0 -2 -2 -2q37 -2 68.5 1t62.5 7q-4 39 -6 75t-2 72q-76 -23 -147.5 -42t-153.5 -15 q-33 18 -45.5 45t-7.5 52.5t27.5 44t59.5 18.5q14 -4 31.5 -5t26.5 -14v-2q59 -2 111.5 2t99.5 15q2 70 12 147q-23 8 -39 27q-51 74 -92 151.5t-80 159.5q-35 76 -87 156t-104 147q10 -12 15 -26q2 -6 0 -3t-7 11t-12.5 17t-13.5 16q-16 33 -10 61.5z" />
<glyph unicode="&#xa6;" d="M582 1567q-4 37 11 62.5t39.5 35.5t52.5 1t50 -40q31 -104 38 -220t2 -233.5t-17.5 -235.5t-18.5 -226q-16 -276 4.5 -535.5t77.5 -527.5q0 -37 -18.5 -59.5t-44 -27.5t-52 7t-44.5 45q-16 160 -27.5 316.5t-7.5 316.5q4 174 17 345t9 345v159t-6 161.5t-20 158.5 t-45 152z" />
<glyph unicode="&#xa7;" horiz-adv-x="1019" d="M88 604q0 33 8 60q29 92 94.5 183t143.5 157q-45 10 -83 34.5t-48 71.5q-20 90 11.5 172t93 148.5t141 113.5t159.5 68q35 10 73 16t73 -10q37 -27 42 -63.5t-26 -71.5q-4 -4 -5 -6.5t-5 -6.5q-29 -16 -53.5 -16t-42.5 12h-2q-55 -4 -113 -26q-33 -12 -82 -44t-92 -73 t-67.5 -88t-8.5 -92q8 -23 26.5 -36t41 -20.5t47 -10.5t43.5 -5q80 -10 155.5 -15t153.5 -24q35 -8 68.5 -28.5t54.5 -49.5q16 -20 31.5 -39.5t27.5 -42.5q18 -29 13 -60.5t-22 -62t-39.5 -57t-39.5 -43.5q-25 -23 -64.5 -53.5t-68.5 -50.5q-14 -10 -26.5 -17.5t-24.5 -17.5 q41 -8 82 -25q43 -20 60.5 -53t15 -68.5t-19.5 -70.5t-42 -60q-72 -68 -163 -111.5t-177 -90.5q-59 -29 -111.5 -67t-113.5 -64q-37 -6 -62.5 7t-38 35.5t-6.5 51.5t35 53q55 18 104.5 45t102.5 51q57 27 115.5 49.5t111 46t94.5 48t66 55.5q2 2 2 4t2 4v10q-6 12 -12 25.5 t-16 22.5q-23 18 -59 26t-81 10q-8 -4 -16 -9t-17 -9q-51 -8 -81 16q-72 -4 -145 -5t-126 16q-33 10 -53.5 33.5t-29.5 54t-9 63.5zM205 592q-2 -29 20 -43q33 -20 86.5 -23.5t114.5 -3.5q10 29 35 51q82 37 163 77t150 95q2 2 14.5 11.5t26.5 23t23.5 27.5t3.5 27 q-23 45 -58.5 72.5t-78.5 43t-90.5 21.5t-94.5 10q0 -10 -2 -20.5t-6 -20.5q0 -2 -4 -6q-16 -18 -37 -29h-2l-12 -6q-20 -10 -51 -35.5t-64 -59.5t-64.5 -73t-51 -74.5t-21.5 -64.5z" />
<glyph unicode="&#xa8;" d="M420 1217q6 37 28.5 56t49 20t50 -15t34.5 -53q-25 -12 -30 -19.5t-3 -12.5t6 -11t-4 -21q-6 -12 -11 -15t-9.5 -6t-6.5 -8.5t-2 -21.5q-59 -10 -89 25.5t-13 81.5zM766 1249q20 35 50 44.5t55.5 0t40 -36t6.5 -63.5q12 -23 10 -49.5t-25 -52.5q-4 2 -14 2 q-43 -27 -88 -4q-2 16 -12.5 24t-12.5 25q0 8 7.5 21.5t4.5 21.5q0 16 -7 33.5t-15 33.5zM877 1176q-2 -4 8 -11.5t6 -3.5q-2 4 -5 8.5t-7 8.5z" />
<glyph unicode="&#xa9;" d="M-27.5 701.5q11.5 109.5 56 216t112.5 208.5q45 68 110.5 111t140.5 66.5t157 33t160 13.5q2 35 32.5 60.5t81.5 10.5q72 -25 145.5 -58.5t127.5 -88.5q55 -57 105 -142t81 -181.5t35 -192.5t-33 -174q-59 -123 -156.5 -207t-214.5 -156q-49 -31 -110.5 -61.5t-127 -52 t-133 -29.5t-126.5 8q-47 14 -98.5 21.5t-92.5 37.5q-35 29 -73.5 53.5t-63.5 61.5q-74 111 -100.5 221.5t-15 220zM75 611.5q-1 -119.5 47 -226t157 -168.5q35 -20 75.5 -29.5t79.5 -19.5q45 -12 95.5 -5t99.5 23.5t95 39t83 42.5q53 31 110.5 69t108.5 84t92 99t62 115 q16 47 13 100.5t-15 100.5q-37 150 -104.5 239.5t-182.5 145.5q-25 -25 -57 -31q-80 2 -161 3t-157 -11.5t-146.5 -45t-131.5 -96.5q-74 -78 -118 -193.5t-45 -235zM345 558.5q7 62.5 30.5 132t53.5 132t61.5 110.5t54.5 68q27 23 50 44.5t50 41.5q10 8 21.5 8.5t23.5 0.5 q31 2 58.5 3t51 -4t44.5 -19.5t37 -45.5q10 -37 -2.5 -64.5t-36 -40t-51 -8t-50.5 30.5q-10 2 -23 6t-24 0q-53 -18 -101 -63t-84 -103.5t-54.5 -122t-14.5 -118.5q2 -16 11.5 -32.5t17.5 -33.5q16 -4 34.5 -11t35.5 -3q53 12 101 34.5t99 43.5q37 2 61.5 -15.5t32 -42 t-4 -52t-44.5 -48.5q-59 -12 -117.5 -28.5t-119.5 -20.5q-35 -2 -68 15.5t-65 29.5q-47 18 -61.5 65.5t-7.5 110z" />
<glyph unicode="&#xab;" horiz-adv-x="1185" d="M18 340q0 23 13.5 44.5t32 40.5t39 35.5t32.5 31.5q80 86 161 168.5t165 160.5q18 18 46 45t52 43q14 10 27.5 11.5t27.5 -2.5q6 -2 12.5 -2.5t12.5 -2.5l4 -4h4l-2 -2q25 -16 35 -41.5t6 -50t-22.5 -43t-53.5 -18.5q-12 -10 -24 -19q-10 -8 -21.5 -15t-19.5 -13 q-41 -31 -88 -67t-86 -69q-4 -4 -30 -24.5t-55.5 -45t-55 -46t-31.5 -27.5l-2 -2q57 -10 119.5 -46t122 -79t110.5 -87t86 -73q20 -31 19 -60.5t-17 -49t-45 -25.5t-62 10q-37 39 -73.5 83t-76.5 85t-84 75t-95 56q-39 16 -59.5 12.5t-33 -14t-24.5 -18.5t-35 2 q-16 8 -21 17.5t-10 25.5zM504.5 373.5q-2.5 21.5 19.5 40.5q98 66 193.5 145.5t181.5 165.5q-6 -6 -4 -2q10 14 22.5 25.5t22.5 23.5q4 4 8 9t8 12q2 35 34 59.5t81 9.5q41 -16 50 -42.5t-1 -55.5t-31.5 -55.5t-41.5 -42.5q-66 -59 -142 -103.5t-147 -95.5 q-23 -16 -49.5 -33.5t-53.5 -34.5q76 -18 141.5 -49t125 -72.5t117 -93t116.5 -112.5q25 -35 19.5 -67t-27 -50t-54 -18t-63.5 30q-27 35 -54.5 70t-53.5 69q-2 4 0 2l6 -6q-43 49 -85 87t-88 67t-100.5 49.5t-122.5 32.5q-25 14 -27.5 35.5zM954 70q2 -2 2 0h-2zM965 756 q2 -10 12 -19q-2 0 -2 2q-10 7 -10 17z" />
<glyph unicode="&#xad;" horiz-adv-x="698" d="M77 494.5q-1 25.5 13 49t49 36.5q8 -2 25 -2v4h8q12 -4 18 -9q53 -6 109.5 -15t99.5 -11q31 -2 79 8t85 18q37 -10 53.5 -33.5t15.5 -50t-20.5 -49t-56.5 -28.5q-94 23 -179 36t-173 -14q-10 -4 -19.5 -8t-19.5 -6h-4q-8 -4 -10 -4v4q-35 6 -53.5 27.5t-19.5 47z" />
<glyph unicode="&#xae;" d="M61.5 504q-14.5 106 0 218t53.5 212t96 156q61 59 92 88.5t60.5 48t69.5 35t120 51.5l12 4t13 4q-10 23 -7.5 45.5t18 39.5t40 24.5t55.5 -0.5q96 -35 213 -105t220.5 -162t179 -198.5t92.5 -214.5q18 -119 -19 -224.5t-109.5 -191.5t-170 -150.5t-201.5 -99.5 q-45 -16 -82 -24.5t-74 -13.5t-76 -6t-86 -3q-39 0 -76.5 11t-76.5 22q-51 12 -101.5 42.5t-83.5 73.5q-29 35 -54 71t-54 71q-49 70 -63.5 176zM169 535.5q17 -119.5 88 -222t196 -161.5q92 -43 202.5 -34t216 52t194.5 112.5t140 149.5q23 33 36 61.5t21.5 56.5t12.5 58.5 t6 69.5q4 61 -32 127.5t-96 130t-137 121t-153 104.5q-16 -10 -39.5 -12t-48.5 12q-31 18 -86 20.5t-119.5 -16t-133 -58.5t-126.5 -106q-88 -98 -123.5 -222t-18.5 -243.5zM284 842.5q-1 25.5 15 52.5q37 47 100 94q-12 27 -6 53.5t26.5 42t48.5 16.5t58 -20q4 -8 9 -12 q82 37 163.5 40t139.5 -56q20 -20 37.5 -53t19.5 -62q6 -82 -23.5 -149.5t-78.5 -126.5q43 -16 87 -40t86 -48.5t83 -45t79 -32.5q31 -23 40.5 -50.5t-1 -52t-36 -40t-62.5 -11.5q-47 23 -92 46.5t-88 51.5q-55 37 -101.5 72t-97.5 49q-16 -14 -34.5 -27.5t-34.5 -27.5 l-25 -19q33 -55 94 -106q25 -35 20 -66.5t-26.5 -50t-54.5 -18.5t-64 30q-29 41 -46 78t-27 74q-25 -10 -50.5 -8t-48.5 18q-27 18 -30 41t9.5 44.5t37 44t55.5 40.5l-4 28t-4 30q-6 33 -10.5 64.5t-8.5 64.5q-10 -10 -23.5 -17.5t-25.5 -9.5q-31 -6 -54.5 3t-36.5 27.5 t-14 44zM539 734q0 -42 4 -81q25 10 45 18.5t30 10.5q18 4 38 5t40 -3q16 16 28.5 34.5t25.5 37.5v2q8 25 20 47t18 47q4 23 3.5 48.5t-11.5 45.5q-18 35 -48 41t-62.5 -4t-63.5 -29.5t-53 -35.5q-4 -25 -8 -48.5t-4 -46.5q-2 -47 -2 -89z" />
<glyph unicode="&#xb0;" horiz-adv-x="628" d="M65.5 1314.5q12.5 59.5 51.5 100.5q16 16 34.5 27.5t36.5 23.5q0 4 6.5 9.5t10.5 9.5q29 23 55.5 24.5t48.5 -10.5q14 6 35 6q115 -8 167 -55t52 -166q0 -31 -16.5 -61.5t-42.5 -48.5q-61 -45 -125 -63.5t-141 -29.5q-68 -6 -111 30t-58.5 90t-3 113.5zM188 1288v2 q-23 -66 8 -98.5t115 -15.5q16 2 50 21.5t61 45t35 53t-25 45.5q-23 10 -22 17q-4 -4 -18.5 -7.5t-55.5 -7.5q-16 0 -37 9q-23 -12 -48.5 -24.5t-37.5 -16.5q-8 -8 -16.5 -20.5t-8.5 -2.5z" />
<glyph unicode="&#xb1;" horiz-adv-x="980" d="M77 267.5q-3 25.5 12 51t50 37.5q100 -8 201.5 -8t202.5 10q63 6 102 13.5t73 9.5t72.5 -1t104.5 -15q31 -23 40 -50.5t-1 -52t-36 -40t-62 -11.5q-104 49 -184.5 58.5t-154 -1t-153.5 -33t-186 -40.5q-37 4 -57.5 25.5t-23.5 47zM101 820.5q-3 25.5 12.5 51t50.5 37.5 q4 0 11 1t3 -3q8 2 14.5 4t14.5 4q39 6 77 10.5t74 8.5q12 2 24.5 4t25.5 4q-10 39 -19.5 67.5t-20 58.5t-23.5 63.5t-32 82.5q-4 43 15.5 69t48.5 32t56.5 -9.5t39.5 -56.5q6 -72 15.5 -141.5t23.5 -140.5q72 20 142.5 46.5t142.5 61.5q37 2 61.5 -15.5t31.5 -42t-4.5 -52 t-43.5 -47.5q-76 -8 -155 -14.5t-155 -24.5h-2q18 -78 41 -153t56 -146q-4 14 2 10q12 -4 14 -19.5t6 -27.5q12 -41 -3 -70t-41.5 -39t-57.5 1t-51 48q-10 66 -14.5 131.5t-20.5 126.5q-8 31 -14.5 56.5t-12.5 48.5q-63 -27 -124.5 -54.5t-127.5 -43.5q-37 4 -57.5 25.5 t-23.5 47zM150 899q-4 -2 3 0t11 4q-4 -2 -7 -2t-7 -2z" />
<glyph unicode="&#xb2;" d="M78 621q4 47 32.5 79.5t57.5 61.5q37 37 81 51t91 14t95 -12t95 -27q39 43 82 93.5t76 91.5q27 33 57.5 72.5t57 82.5t43 88.5t14.5 92.5q-29 0 -75 -12.5t-97 -32t-102 -44t-90 -49.5q-2 -20 -13.5 -39.5t-36.5 -35.5q-33 -14 -65.5 -6t-54 29.5t-25.5 53t18 64.5 q23 33 88.5 65.5t142.5 60.5t150.5 46t114.5 25q20 2 48 0t52.5 -11.5t43 -28t20.5 -46.5q2 -23 2 -47.5t-4 -49.5q-10 -49 -44 -110.5t-83 -127t-107.5 -132t-115.5 -127.5q6 -2 13 -4t13 -5q25 -8 71 -14t79 -8v2q0 8 7 10t16.5 1t19.5 -3t18 0q29 4 57.5 10.5t57.5 12.5 q43 2 67.5 -20.5t27.5 -51.5t-15.5 -55.5t-61.5 -34.5q-102 -16 -197 -16t-196 38q-10 4 -31.5 14.5t-48.5 22.5q-29 -29 -54.5 -52t-47.5 -40q-37 -31 -97.5 -52.5t-116.5 -20.5t-95 31t-35 102zM182 612.5q-4 -24.5 39 -30.5q41 -6 78 10t68 39q8 4 25.5 21.5t39.5 37.5 q-10 4 -20.5 6t-18.5 6q-49 12 -97 -2t-79 -38.5t-35 -49zM375 1243h2h-2zM383 1245q2 0 2 1t2 1h-2zM811 723h17.5t7.5 4t-9.5 1t-15.5 -5z" />
<glyph unicode="&#xb3;" d="M86 737.5q2 18.5 6 37t10.5 34.5t8.5 27q20 33 47.5 44t52.5 4t42 -32t15 -61q-4 -12 -9 -25.5t-9 -26.5q20 -29 61 -44t91.5 -17t105.5 5t105.5 22.5t91 36t61.5 44.5q29 33 43 77t10 85t-30.5 71t-79.5 34q-31 2 -55.5 -8.5t-48 -23.5t-47 -24.5t-50.5 -11.5 q-33 6 -47 33q-6 20 6 47t33.5 57.5t49.5 60t54 56.5q-86 -29 -167 -45t-134 -12q-33 18 -45 44.5t-7 52.5t27.5 44t59.5 18q63 -8 123.5 8.5t121 40t120 44t120.5 20.5q31 -8 43.5 -24.5t10.5 -47.5q-12 -37 -40 -70.5t-60 -64t-66.5 -59.5t-61.5 -55q31 6 70 2 q55 -4 95 -29t63.5 -62.5t32 -86t1.5 -99.5q-4 -35 -23.5 -66.5t-35.5 -66.5q-25 -49 -85 -86t-138 -60.5t-165 -29.5t-164 7t-134 49t-78 100q-4 14 -2 32.5zM762 1413q2 2 2 3t-2 -1v-2z" />
<glyph unicode="&#xb4;" horiz-adv-x="686" d="M96 1479.5q8 27.5 39 48.5q25 8 47.5 16t46.5 10q2 0 2 -2q53 29 86 63t53.5 76t32 94t19.5 116q0 6 -2 -3.5t-4 -21.5t-4 -21.5t-2 -3.5q2 27 5 51.5t7 49.5q12 41 41 56t57.5 10t48 -30.5t13.5 -68.5q-29 -61 -57.5 -129t-63.5 -133.5t-78 -123.5t-98 -101 q-20 -16 -43.5 -29t-46.5 -25q-37 -6 -63 9.5t-35 40t-1 52zM186 1532q8 4 15.5 7t15.5 7q-12 -6 -25.5 -11t-5.5 -3z" />
<glyph unicode="&#xb5;" horiz-adv-x="929" d="M51 -455q27 80 51.5 185.5t42 224.5t26.5 243t5 241.5t-22.5 221t-53.5 179.5q-4 37 11.5 62.5t40 35.5t52 1t50.5 -40q2 -6 3 -13t3 -14q12 -10 25 -24q27 -70 38 -132.5t17 -126t11 -128t16 -137.5q6 -35 13 -77t20.5 -82t36 -75t57.5 -55q57 -35 100 -12.5t74.5 68.5 t50 102.5t26.5 89.5q47 193 35 391t-57 387q-4 43 15.5 68.5t48 31.5t56 -9t40.5 -56q14 -111 21 -244t-2 -268t-38.5 -262t-87.5 -228q-37 -63 -82 -103t-96 -53.5t-107.5 2t-111.5 64.5q-47 41 -76 108.5t-45 139.5q-2 -10 -2 -21.5v-21.5q-6 -178 -11 -355.5t-36 -353.5 q-14 -41 -44 -54t-57.5 -5t-46 35.5t-10.5 68.5z" />
<glyph unicode="&#xb8;" d="M295 -397.5q10 26.5 38.5 42t69.5 3.5q6 -4 21.5 -11.5t31 -13.5t28.5 -12l12 -6q53 -8 108 8t97 49t66 80t11 102q-18 8 -28.5 14.5t-21.5 6.5t-26.5 -4t-46.5 -13q-35 -10 -81 -34.5t-93 -42t-89 -18.5t-68 34q-16 23 -10.5 53.5t16.5 53.5q8 16 17 31.5t18 31.5l-5 -4 q-8 -4 1.5 9t13.5 22q10 23 18.5 44t16.5 44q23 37 54.5 45t57 -4.5t37.5 -42t-2 -70.5q-10 -16 -29.5 -46t-42.5 -60q66 18 132.5 39.5t140.5 13.5q66 -8 89 -45t21 -86t-21.5 -99.5t-39.5 -85.5q-37 -63 -90 -102t-114.5 -54.5t-128 -10t-130.5 29.5q-37 20 -48 51 t-1 57.5z" />
<glyph unicode="&#xba;" horiz-adv-x="628" d="M65.5 721q12.5 59 51.5 100q16 16 34.5 27.5t36.5 23.5q0 4 6.5 9.5t10.5 9.5q29 23 55.5 25t48.5 -11q14 6 35 6q115 -8 167 -55t52 -166q0 -31 -16.5 -61.5t-42.5 -48.5q-61 -45 -125 -63.5t-141 -29.5q-68 -6 -111 30t-58.5 90.5t-3 113.5zM188 694v2q-23 -66 8 -98.5 t115 -15.5q16 2 50 21.5t61 45t35 53t-25 46.5q-23 10 -22 16q-4 -4 -18.5 -7t-55.5 -7q-16 0 -37 8q-23 -12 -48.5 -24.5t-37.5 -16.5q-8 -8 -16.5 -20.5t-8.5 -2.5z" />
<glyph unicode="&#xbb;" horiz-adv-x="1239" d="M21.5 829.5q1.5 32.5 21.5 53t52 22.5t67 -24q31 -33 62.5 -63t60.5 -64v-2q47 -43 92 -76t93 -55.5t103.5 -37t122.5 -18.5q27 -10 32 -30.5t-15 -42.5q-92 -76 -177 -165t-159 -182q-10 -16 -19.5 -28.5t-19.5 -26.5q-12 -16 -16 -24q0 -35 -28 -60.5t-77 -17.5 q-43 12 -54 36.5t-5 54.5t25.5 59.5t37.5 47.5q59 66 129 117t137 111q20 16 45 36.5t48 41.5q-78 10 -145.5 33.5t-131 58t-126 81t-128.5 99.5q-29 33 -27.5 65.5zM246 788q-4 2 6 -8q-2 2 -3 4t-3 4zM301 117q2 -4 4 -5.5t4 -5.5q-4 8 -8 11zM546.5 808.5 q-1.5 29.5 12.5 51t42 30.5t63 -3q41 -35 82.5 -75t86 -76t91.5 -65.5t100 -45.5q41 -12 60.5 -6t31.5 17t22.5 20.5t35.5 2.5q27 -10 34 -41q2 -23 -9 -45t-27.5 -43.5t-34 -40t-29.5 -32.5q-72 -94 -143.5 -185.5t-145.5 -177.5q-16 -23 -40.5 -52.5t-47.5 -45.5 q-16 -12 -30.5 -14t-30.5 0q-4 0 -8.5 1t-8.5 1q-6 0 -8 2h-2v2q-25 14 -38 38.5t-12 50t18.5 45t52.5 23.5q12 12 22 21q10 8 19.5 16t17.5 17q39 35 82 75.5t78 77.5q4 2 26.5 25.5t49 51.5t50 52.5t29.5 30.5l2 2q-59 4 -124.5 31.5t-129 65.5t-120 77t-93.5 64 q-25 27 -26.5 56.5z" />
<glyph unicode="&#xbf;" horiz-adv-x="829" d="M55 -24.5q-2 44.5 9.5 92t28 89.5t26.5 64q39 90 96 197.5t109.5 219.5t89.5 223.5t37 209.5q0 39 -9.5 76t-15.5 74q2 37 21.5 58t45 26.5t52 -9t43.5 -47.5q4 -47 13 -93t-1 -91q-35 -154 -94.5 -284t-132.5 -265q-37 -68 -78 -132.5t-71.5 -131t-48 -137t-9.5 -150.5 q18 -16 52 -10t73 24.5t80 46t77.5 55.5t65.5 52.5t41 38.5l18 18q-29 20 -32.5 56.5t30.5 70.5q49 33 91.5 31t68 -26.5t29.5 -66.5t-21 -93q-18 -35 -58 -74t-92 -76t-111.5 -69.5t-119 -55t-112.5 -33t-92 -4.5q-20 4 -41 24t-31 32q-25 25 -27 69.5zM371 1451 q2 26 22.5 47.5t57.5 27.5h4q43 -6 61.5 -32t16 -55.5t-26 -52t-66.5 -22.5h-4q-37 12 -52 36.5t-13 50.5z" />
<glyph unicode="&#xc0;" horiz-adv-x="1239" d="M7.5 484.5q-3.5 23.5 3.5 43t23.5 32.5t37.5 18q31 8 63.5 17t61.5 15q41 10 84 19.5t86 17.5q45 106 86 212t79 214q8 25 18.5 50.5t20.5 54.5q0 43 3.5 95t9.5 100t18 88t33 61q12 12 24.5 12t28.5 -2q16 -6 22.5 -14.5t10.5 -24.5q12 -82 -7.5 -168t-47.5 -172 q2 -68 11 -133.5t13 -132.5q-2 4 -5 21.5t-3 9.5q8 -45 19.5 -87.5t25.5 -82.5q92 39 182 80.5t185 82.5q41 10 69.5 -5t37.5 -42.5t-3 -57.5t-51 -48q-98 -23 -193.5 -48.5t-191.5 -54.5q51 -121 125 -245q23 -37 56.5 -95.5t73.5 -117t83 -104.5t86 -60q39 -16 52 -46 t5 -58.5t-35.5 -46t-70.5 -7.5q-53 20 -95.5 57t-76 83t-62.5 97.5t-55 98.5q-59 102 -108.5 204.5t-86.5 207.5q-41 -12 -82 -25.5t-82 -28.5q-6 -2 -11 -4t-9 -4q-31 -86 -63.5 -168t-67.5 -166q-23 -55 -49.5 -108t-61.5 -101q-14 -20 -28.5 -38.5t-32.5 -34.5 q-16 -18 -24.5 -22.5t-4.5 -0.5v2q-29 -20 -58.5 -16t-48 23.5t-21.5 50t22 61.5q4 6 20 18q6 2 15 11q4 4 12 15t13 17.5t3 4t-16 -26.5q-2 -4 4 5l10 15q25 31 41 56q29 45 53.5 92t46.5 94q18 41 37 81t37 81q-49 -16 -96 -36.5t-94 -45.5q-4 -4 5 0t19 8q-12 -8 -30 -16 q-23 -4 -38.5 1t-35.5 17l-8 4q-18 23 -21.5 46.5zM39 555q-2 -2 1 0t5 4q-2 -2 -4 -2t-2 -2zM141 432l4 4q2 0 5.5 2t1.5 0t-11 -6zM508 674q57 14 119 37q-29 98 -43 194q-18 -59 -37 -116.5t-39 -114.5zM551 1931q6 37 28.5 56.5t49 20.5t50 -15.5t34.5 -53.5 q0 -25 1 -49t-5 -47q-2 -4 -2 -2q10 -59 31.5 -102t55 -76t79 -59.5t102.5 -53.5q6 -2 -2 2t-19.5 10.5t-19.5 11.5t-2 3q25 -10 47 -21.5t45 -21.5q35 -25 41 -56.5t-8.5 -57t-45 -36t-69.5 8.5q-49 47 -104.5 96t-105.5 102.5t-92 112.5t-67 125q-10 25 -13 51t-9 51z M700 1888q0 -8 2 -20q-2 8 -2 22q0 6 0 -2z" />
<glyph unicode="&#xc1;" horiz-adv-x="1232" d="M7.5 484.5q-3.5 23.5 3.5 43t23.5 32.5t37.5 18q31 8 63.5 17t61.5 15q41 10 84 19.5t86 17.5q45 106 86 212t79 214q8 25 18.5 50.5t20.5 54.5q0 43 3.5 95t9.5 100t18 88t33 61q12 12 24.5 12t28.5 -2q16 -6 22.5 -14.5t10.5 -24.5q12 -82 -7.5 -168t-47.5 -172 q2 -66 11 -132.5t13 -131.5q-2 8 -5 22.5t-3 6.5q8 -45 19.5 -87.5t25.5 -82.5q92 39 182 80.5t185 82.5q41 10 69.5 -5t37.5 -42.5t-3 -57.5t-51 -48q-98 -23 -193.5 -48.5t-191.5 -54.5q51 -121 125 -245q23 -37 56.5 -95.5t73.5 -117t83 -104.5t86 -60q39 -16 52 -46 t5 -58.5t-35.5 -46t-70.5 -7.5q-53 20 -95.5 57t-76 83t-62.5 97.5t-55 98.5q-59 102 -108.5 204.5t-86.5 207.5q-41 -12 -82 -25.5t-82 -28.5q-6 -2 -11 -4t-9 -4q-31 -86 -63.5 -168t-67.5 -166q-23 -55 -49.5 -108t-61.5 -101q-14 -20 -28.5 -38.5t-32.5 -34.5 q-16 -18 -24.5 -22.5t-4.5 -0.5v2q-29 -20 -58.5 -16t-48 23.5t-21.5 50t22 61.5q4 6 20 18q6 2 15 11q4 4 12 15t13 17.5t3 4t-16 -26.5q-2 -4 4 5l10 15q25 31 41 56q29 45 53.5 92t46.5 94q18 41 37 81t37 81q-49 -16 -96 -36.5t-94 -45.5q-4 -4 5 0t19 8q-12 -8 -30 -16 q-23 -4 -38.5 1t-35.5 17l-8 4q-18 23 -21.5 46.5zM39 555q-2 -2 1 0t5 4q-2 -2 -4 -2t-2 -2zM141 432l4 4q2 0 5.5 2t1.5 0t-11 -6zM270.5 1479.5q8.5 27.5 38.5 48.5q25 8 47.5 16t46.5 10q2 0 3 -2q53 29 85.5 63t53 76t32 94t19.5 116q0 6 -2 -3.5t-4 -21.5t-4 -21.5 t-2 -3.5q2 27 5 51.5t7 49.5q12 41 41 56t57.5 10t48 -30.5t13.5 -68.5q-29 -61 -57.5 -129t-63.5 -133.5t-78 -123.5t-98 -101q-20 -16 -43.5 -29t-46.5 -25q-37 -6 -62.5 9.5t-35 40t-1 52zM360 1532q8 4 15.5 7t15.5 7q-12 -6 -25.5 -11t-5.5 -3zM508 674q57 14 119 37 q-29 98 -43 194q-18 -59 -37 -116.5t-39 -114.5z" />
<glyph unicode="&#xc2;" d="M-23.5 484.5q-3.5 23.5 4 43t23.5 32.5t37 18q31 8 63.5 17t61.5 15q41 10 84 19.5t86 17.5q45 106 86 212t80 214q8 25 18 50.5t21 54.5q0 43 3 95t9 100t18.5 88t32.5 61q12 12 24.5 12t28.5 -2q16 -6 22.5 -14.5t10.5 -24.5q12 -82 -7 -168t-48 -172q2 -68 11 -133.5 t13 -132.5q-2 4 -5 21.5t-3 9.5q8 -45 19.5 -87.5t25.5 -82.5q92 39 182.5 80.5t184.5 82.5q41 10 69.5 -5t38 -42.5t-3 -57.5t-51.5 -48q-98 -23 -193.5 -48.5t-191.5 -54.5q51 -121 125 -245q23 -37 56.5 -95.5t73.5 -117t83 -104.5t86 -60q39 -16 52.5 -46t5 -58.5 t-36 -46t-70.5 -7.5q-53 20 -95 57t-76 83t-62.5 97.5t-55.5 98.5q-59 102 -108.5 204.5t-85.5 207.5q-41 -12 -82 -25.5t-82 -28.5q-6 -2 -11.5 -4t-9.5 -4q-31 -86 -63.5 -168t-67.5 -166q-23 -55 -49.5 -108t-60.5 -101q-14 -20 -28.5 -38.5t-33.5 -34.5 q-16 -18 -24.5 -22.5t-4.5 -0.5v2q-29 -20 -58.5 -16t-47.5 23.5t-21.5 50t21.5 61.5q10 10 18 16q4 4 8.5 6.5t8.5 6.5t12 15t13.5 17.5t3 4t-16.5 -26.5q-2 -4 4 5l10 15q25 31 41 56q29 45 53.5 92t47.5 94q18 41 36.5 81t36.5 81q-49 -16 -96 -36.5t-94 -45.5q-4 -4 5 0 t20 8q-12 -8 -31 -16q-23 -4 -38 1t-36 17l-8 4q-18 23 -21.5 46.5zM8 555q-2 -2 1 0t5 4q-2 -2 -4 -2t-2 -2zM111 432l4 4q2 0 5 2t1 0t-10 -6zM311 1596.5q8 27.5 39 45.5l2 3q4 2 9.5 4t9.5 4q27 12 51 25.5t47 27.5q35 20 39 23q6 6 12 10q16 14 32.5 26.5t33.5 24.5 q23 20 46 39.5t42 42.5q6 8 13 16t13 17q4 12 7.5 23t9.5 22q16 31 43.5 31.5t46.5 -27.5q12 -33 -4 -60q-8 -45 12.5 -95t67.5 -136q12 -41 -3.5 -69.5t-42 -39t-57 1t-51.5 48.5q-10 37 -19.5 78.5t-15.5 84.5q-29 -35 -62.5 -76.5t-70.5 -80.5t-74.5 -71t-70.5 -44 q-39 -8 -65.5 7.5t-37 41t-2.5 53zM477 674q57 14 119 37q-29 98 -43 194q-18 -59 -36.5 -116.5t-39.5 -114.5z" />
<glyph unicode="&#xc3;" horiz-adv-x="1239" d="M7.5 484.5q-3.5 23.5 3.5 43t23.5 32.5t37.5 18q31 8 63.5 17t61.5 15q41 10 84 19.5t86 17.5q45 106 86 212t79 214q8 25 18.5 50.5t20.5 54.5q0 43 3.5 95t9.5 100t18 88t33 61q12 12 24.5 12t28.5 -2q16 -6 22.5 -14.5t10.5 -24.5q12 -82 -7.5 -168t-47.5 -172 q2 -68 11 -133.5t13 -132.5q-2 4 -5 21.5t-3 9.5q8 -45 19.5 -87.5t25.5 -82.5q92 39 182 80.5t185 82.5q41 10 69.5 -5t37.5 -42.5t-3 -57.5t-51 -48q-98 -23 -193.5 -48.5t-191.5 -54.5q51 -121 125 -245q23 -37 56.5 -95.5t73.5 -117t83 -104.5t86 -60q39 -16 52 -46 t5 -58.5t-35.5 -46t-70.5 -7.5q-53 20 -95.5 57t-76 83t-62.5 97.5t-55 98.5q-59 102 -108.5 204.5t-86.5 207.5q-41 -12 -82 -25.5t-82 -28.5q-6 -2 -11 -4t-9 -4q-31 -86 -63.5 -168t-67.5 -166q-23 -55 -49.5 -108t-61.5 -101q-14 -20 -28.5 -38.5t-32.5 -34.5 q-16 -18 -24.5 -22.5t-4.5 -0.5v2q-29 -20 -58.5 -16t-48 23.5t-21.5 50t22 61.5q10 10 18 16q4 4 8 6.5t9 6.5q4 4 12 15t13 17.5t3 4t-16 -26.5q-2 -4 4 5l10 15q25 31 41 56q29 45 53.5 92t46.5 94q18 41 37 81t37 81q-49 -16 -96 -36.5t-94 -45.5q-4 -4 5 0t19 8 q-12 -8 -30 -16q-23 -4 -38.5 1t-35.5 17l-8 4q-18 23 -21.5 46.5zM39 555q-2 -2 1 0t5 4q-2 -2 -4 -2t-2 -2zM141 432l4 4q2 0 5.5 2t1.5 0t-11 -6zM240 1513q8 41 35.5 60.5t56.5 15.5q90 66 188 125.5t205 77.5q33 6 73 -13.5t76.5 -43t62.5 -44t32 -16.5q20 12 32.5 38 t20.5 56.5t13 60.5t12 50q23 37 54.5 45t57 -4t37.5 -42t-2 -71q-14 -29 -28.5 -60.5t-30.5 -59.5q-20 -37 -48 -67t-61 -44t-69.5 -10t-75.5 32q-10 8 -27.5 28t-37 39.5t-39 32.5t-34.5 9q-43 -12 -87 -40t-83 -56q10 6 18.5 12t4.5 2q-55 -51 -112.5 -98t-110.5 -105 q-45 -29 -84 -9t-47 73q0 8 -1 14t-1 12zM508 674q57 14 119 37q-29 98 -43 194q-18 -59 -37 -116.5t-39 -114.5z" />
<glyph unicode="&#xc4;" horiz-adv-x="1232" d="M7.5 484.5q-3.5 23.5 3.5 43t23.5 32.5t37.5 18q31 8 63.5 17t61.5 15q41 10 84 19.5t86 17.5q45 106 86 212t79 214q8 25 18.5 50.5t20.5 54.5q0 43 3.5 95t9.5 100t18 88t33 61q12 12 24.5 12t28.5 -2q16 -6 22.5 -14.5t10.5 -24.5q12 -82 -7.5 -168t-47.5 -172 q2 -68 11 -133.5t13 -132.5q-2 4 -5 21.5t-3 9.5q8 -45 19.5 -87.5t25.5 -82.5q92 39 182 80.5t185 82.5q41 10 69.5 -5t37.5 -42.5t-3 -57.5t-51 -48q-98 -23 -193.5 -48.5t-191.5 -54.5q51 -121 125 -245q23 -37 56.5 -95.5t73.5 -117t83 -104.5t86 -60q39 -16 52 -46 t5 -58.5t-35.5 -46t-70.5 -7.5q-53 20 -95.5 57t-76 83t-62.5 97.5t-55 98.5q-59 102 -108.5 204.5t-86.5 207.5q-41 -12 -82 -25.5t-82 -28.5q-6 -2 -11 -4t-9 -4q-31 -86 -63.5 -168t-67.5 -166q-23 -55 -49.5 -108t-61.5 -101q-14 -20 -28.5 -38.5t-32.5 -34.5 q-16 -18 -24.5 -22.5t-4.5 -0.5v2q-29 -20 -58.5 -16t-48 23.5t-21.5 50t22 61.5q4 6 20 18q6 2 15 11q4 4 12 15t13 17.5t3 4t-16 -26.5q-2 -4 4 5l10 15q25 31 41 56q29 45 53.5 92t46.5 94q18 41 37 81t37 81q-49 -16 -96 -36.5t-94 -45.5q-4 -4 5 0t19 8q-12 -8 -30 -16 q-23 -4 -38.5 1t-35.5 17l-8 4q-18 23 -21.5 46.5zM39 555q-2 -2 1 0t5 4q-2 -2 -4 -2t-2 -2zM141 432l4 4q2 0 5.5 2t1.5 0t-11 -6zM409 1601.5q1 28.5 23.5 52t65.5 25.5h4q37 -10 53 -33.5t15 -50t-20.5 -49t-55.5 -28.5h-5q-43 4 -62 29.5t-18 54zM508 674q57 14 119 37 q-29 98 -43 194q-18 -59 -37 -116.5t-39 -114.5zM678 1675v4q6 37 28.5 56.5t49 20.5t50 -15.5t34.5 -52.5v-5q-2 -43 -25.5 -65.5t-52.5 -23.5t-54.5 18.5t-29.5 62.5z" />
<glyph unicode="&#xc5;" horiz-adv-x="1243" d="M7.5 484.5q-3.5 23.5 3.5 43t23.5 32.5t37.5 18q31 8 63.5 17t61.5 15q41 10 84 19.5t86 17.5q45 106 86 212t79 214q8 25 18.5 50.5t20.5 54.5q0 43 3.5 95t9.5 100t18 88t33 61q12 12 24.5 12t28.5 -2q16 -6 22.5 -14.5t10.5 -24.5q12 -82 -7.5 -168t-47.5 -172 q2 -66 11 -132.5t13 -131.5q-2 8 -5 22.5t-3 6.5q8 -45 19.5 -87.5t25.5 -82.5q92 39 182 80.5t185 82.5q41 10 69.5 -5t37.5 -42.5t-3 -57.5t-51 -48q-98 -23 -193.5 -48.5t-191.5 -54.5q51 -121 125 -245q23 -37 56.5 -95.5t73.5 -117t83 -104.5t86 -60q39 -16 52 -46 t5 -58.5t-35.5 -46t-70.5 -7.5q-53 20 -95.5 57t-76 83t-62.5 97.5t-55 98.5q-59 102 -108.5 204.5t-86.5 207.5q-41 -12 -82 -25.5t-82 -28.5q-6 -2 -11 -4t-9 -4q-31 -86 -63.5 -168t-67.5 -166q-23 -55 -49.5 -108t-61.5 -101q-14 -20 -28.5 -38.5t-32.5 -34.5 q-16 -18 -24.5 -22.5t-4.5 -0.5v2q-29 -20 -58.5 -16t-48 23.5t-21.5 50t22 61.5q10 10 18 16q4 4 8 6.5t9 6.5q4 4 12 15t13 17.5t3 4t-16 -26.5q-2 -4 4 5l10 15q25 31 41 56q29 45 53.5 92t46.5 94q18 41 37 81t37 81q-49 -16 -96 -36.5t-94 -45.5q-4 -4 5 0t19 8 q-12 -8 -30 -16q-23 -4 -38.5 1t-35.5 17l-8 4q-18 23 -21.5 46.5zM39 555q-2 -2 1 0t5 4q-2 -2 -4 -2t-2 -2zM141 432l4 4q2 0 5.5 2t1.5 0t-11 -6zM494.5 1709q5.5 50 45.5 94t107 63h17q14 16 37.5 22t54.5 -2q84 -37 121.5 -80t41 -86t-22.5 -82t-67 -64.5t-93 -35.5 t-103 6q-78 23 -111 69t-27.5 96zM508 674q57 14 119 37q-29 98 -43 194q-18 -59 -37 -116.5t-39 -114.5zM616.5 1673.5q-0.5 -14.5 12 -26t35 -18.5t47.5 -5q18 2 38.5 13.5t32.5 25.5q16 16 17.5 27.5t-7 19.5t-22.5 12t-31 7q-16 -25 -43.5 -34t-58.5 7 q-20 -14 -20.5 -28.5z" />
<glyph unicode="&#xc6;" horiz-adv-x="1898" d="M-23.5 484.5q-3.5 23.5 4 43t23.5 32.5t37 18q31 8 63.5 17t61.5 15q41 10 84 19.5t86 17.5q45 106 86 212t80 214q8 25 18 50.5t21 54.5q0 43 3 95t9 100t18.5 88t32.5 61q12 12 24.5 12t28.5 -2q16 -6 22.5 -14.5t10.5 -24.5q12 -82 -7 -168t-48 -172q2 -68 11 -133.5 t13 -132.5q-2 4 -5 21.5t-3 9.5q10 -47 20.5 -91.5t26.5 -85.5q43 14 87 29.5t89 32.5q-12 55 -25 110.5t-24 110.5q-4 20 -17 66.5t-25.5 99.5t-18.5 102t4 74t33.5 36t48.5 7q12 0 33 -8q4 0 8 -1t8 -1l49 6q49 6 96.5 16.5t94.5 22.5q123 31 241.5 69t231.5 91 q41 14 70.5 1.5t42 -38t4 -57t-45.5 -54.5q-137 -53 -280 -88t-291 -63q-53 -10 -106.5 -15.5t-106.5 -7.5q-10 0 -16 2q10 -104 30.5 -206.5t38.5 -205.5l6 -36q98 37 184.5 71.5t151.5 63.5q41 10 70 -5.5t38 -43t-3.5 -57t-50.5 -48.5q-72 -16 -167.5 -40.5t-201.5 -53.5 q25 -129 52.5 -255t62.5 -251q2 -4 0 5t-7 20q14 -39 27.5 -73t36.5 -69q59 72 115.5 139.5t119.5 137.5q98 106 203 200.5t213 186.5q35 12 63.5 4t44 -28.5t14.5 -50.5t-26 -58q-109 -82 -215 -166t-204 -180q-72 -72 -137.5 -148t-135.5 -147q12 -20 10 -44t-16 -42.5 t-37.5 -27.5t-56.5 -1q-53 20 -95 57t-76 83t-62.5 97.5t-55.5 98.5q-57 102 -106 203.5t-86 208.5q-47 -14 -89 -28.5t-77 -25.5q-6 -2 -11.5 -4t-9.5 -4q-31 -86 -63.5 -168t-67.5 -166q-23 -55 -49.5 -108t-60.5 -101q-14 -20 -28.5 -38.5t-33.5 -34.5 q-16 -18 -24.5 -22.5t-4.5 -0.5v2q-29 -20 -58.5 -16t-47.5 23.5t-21.5 50t21.5 61.5q10 10 18 16q4 4 8.5 6.5t8.5 6.5t12 15t13.5 17.5t3 4t-16.5 -26.5q-2 -4 4 5l10 15q25 31 41 56q29 45 53.5 92t47.5 94q18 41 36.5 81t36.5 81q-49 -16 -96 -36.5t-94 -45.5q-4 -4 5 0 t20 8q-12 -8 -31 -16q-23 -4 -38 1t-36 17l-8 4q-18 23 -21.5 46.5zM8 555q-2 -2 1 0t5 4q-2 -2 -4 -2t-2 -2zM111 432l4 4q2 0 5 2t1 0t-10 -6zM477 674q29 6 57.5 15t61.5 20q-29 94 -43 196q-18 -59 -36.5 -116.5t-39.5 -114.5zM731 653q51 -120 125 -243q27 -43 66 -112 t86 -132q-23 63 -38.5 135t-27.5 140.5t-22.5 130t-18.5 106.5q-4 12 -4 22q-41 -12 -83 -23t-83 -24zM1085 250q0 -4 1 -5t1 -3q-4 12 -2 8z" />
<glyph unicode="&#xc7;" d="M-25 287q4 39 10.5 77.5t10.5 77.5q8 53 34.5 100.5t49.5 94.5q12 27 33.5 70t46 88t49 86t43.5 65q61 82 131 160t148.5 146.5t166.5 121.5t187 86q20 6 46.5 2t51.5 -16t45.5 -30.5t30.5 -37.5q8 -16 10 -37.5t6 -44.5q4 -8 5 -17t3 -13q10 -35 -14 -70 q-25 -29 -53.5 -34t-51 5.5t-36 34t-6.5 53.5q-2 12 -3 25.5t-1 17.5q-29 12 -67 1t-76 -31.5t-70.5 -43t-47.5 -34.5q-51 -39 -117.5 -100.5t-134 -137t-131 -161.5t-112.5 -174.5t-76 -172.5t-20 -155q4 -53 31.5 -89t68.5 -56.5t88 -30t92 -9.5q86 0 158 15q31 -8 49 -36 t8 -71q-49 -8 -100 -12q-23 -2 -43.5 -3t-38.5 -1q8 18 15.5 37t15.5 39q18 31 44.5 41t49.5 6q168 33 312.5 121t277.5 198q35 12 63.5 4t44 -28.5t14 -50t-25.5 -58.5q-150 -106 -300.5 -184t-328.5 -109q-2 -4 -2 -6t-2 -6q-10 -16 -29.5 -46t-42.5 -60q66 18 132.5 39.5 t140.5 13.5q66 -8 89 -45t21 -86t-21.5 -99.5t-39.5 -85.5q-37 -63 -90 -102t-114.5 -54.5t-128 -10t-130.5 29.5q-37 20 -48 51t-1 57.5t38.5 42t69.5 3.5q6 -4 21.5 -11.5t31 -13.5t28.5 -12l12 -6q53 -8 108 8t97 49t66 80t11 102q-18 8 -28.5 14.5t-21.5 6.5t-26.5 -4 t-46.5 -13q-35 -10 -81 -34.5t-93 -42t-89 -18.5t-68 34q-16 23 -10.5 53.5t16.5 53.5q8 16 17 31.5t18 31.5l-5 -4q-8 -4 1.5 9t13.5 22q0 4 4 12q-53 -2 -98 4t-87 21.5t-81 44t-82 71.5q-27 29 -43.5 71t-12.5 79zM1077 1282v8v-8z" />
<glyph unicode="&#xc8;" horiz-adv-x="1220" d="M-43 591.5q-6 26.5 8 57.5l21 -2l-17 12q29 29 82 39.5t123 24.5q-12 51 -23.5 100t-21.5 101q-4 20 -17.5 66t-25.5 99.5t-18.5 102.5t4.5 74q10 25 33.5 36t48.5 7q12 0 32 -9q4 0 8.5 -1t8.5 -1l49 7q49 6 96 16t94 22q35 10 72 19.5t72 19.5q-8 2 -16.5 4.5 t-16.5 6.5q-49 47 -104.5 96t-105.5 102.5t-92 112.5t-67 125q-10 25 -13 51t-9 51q6 37 28.5 56.5t49 20.5t50 -15.5t34.5 -53.5q0 -25 1 -49t-6 -47q-2 -4 -2 -2q10 -59 32 -102t55.5 -76t78.5 -59.5t103 -53.5q6 -2 -2.5 2t-19.5 10.5t-19 11.5t-2 3q25 -10 47 -21.5 t45 -21.5q41 -29 43 -68t-25 -63q68 23 133.5 47.5t128.5 52.5q41 14 71 2t42 -37.5t4 -57.5t-45 -54q-137 -53 -280.5 -88t-290.5 -64q-53 -10 -106.5 -15t-106.5 -7q-10 0 -17 2q10 -104 31 -207t39 -205q2 -8 2 -15t2 -16q27 6 47 15q125 39 245 88t247 82 q43 2 67.5 -20.5t27.5 -51.5t-15.5 -55.5t-61.5 -34.5q-37 0 -94 -8t-124 -20.5t-136.5 -31t-128.5 -40.5q-14 -6 -27.5 -11.5t-25.5 -11.5q25 -133 52 -264t64 -260q2 -4 0 5t-6 19q14 -39 27.5 -72.5t36.5 -68.5q59 72 115.5 139.5t119.5 136.5q98 106 202.5 200.5 t213.5 187.5q35 12 63.5 3.5t44 -29t14.5 -50t-26 -58.5q-109 -82 -215 -165.5t-205 -180.5q-78 -76 -147.5 -157.5t-147.5 -159.5q-43 -27 -79 10q-49 55 -82 147.5t-55.5 193.5t-37 197.5t-28.5 162.5q-2 8 -6 28q-20 -10 -40 -18t-38 -19q-33 -16 -43 -20 q-25 -18 -51.5 -16t-45 17t-24.5 41.5zM-41 649q2 12 10 21.5t0 -11.5q-2 -4 -2 -6t-2 -4h-6zM311 1888q0 -8 2 -20q-2 8 -2 22q0 6 0 -2zM389 150q0 -4 1 -5.5t1 -3.5q-4 13 -2 9z" />
<glyph unicode="&#xc9;" horiz-adv-x="1220" d="M-43 591.5q-6 26.5 8 57.5l21 -2l-17 12q29 29 82 39.5t123 24.5q-12 51 -23.5 100t-21.5 101q-4 20 -17.5 66t-25.5 99.5t-18.5 102.5t4.5 74q10 25 33.5 36t48.5 7q12 0 32 -9q4 0 8.5 -1t8.5 -1l49 7q49 6 96 16t94 22q123 31 241.5 69t231.5 91q41 14 71 2t42 -37.5 t4 -57.5t-45 -54q-137 -53 -280.5 -88t-290.5 -64q-53 -10 -106.5 -15t-106.5 -7q-10 0 -17 2q10 -104 31 -207t39 -205q2 -8 2 -15t2 -16q27 6 47 15q125 39 245 88t247 82q43 2 67.5 -20.5t27.5 -51.5t-15.5 -55.5t-61.5 -34.5q-37 0 -94 -8t-124 -20.5t-136.5 -31 t-128.5 -40.5q-14 -6 -27.5 -11.5t-25.5 -11.5q25 -133 52 -264t64 -260q2 -4 0 5t-6 19q14 -39 27.5 -72.5t36.5 -68.5q59 72 115.5 139.5t119.5 136.5q98 106 202.5 200.5t213.5 187.5q35 12 63.5 3.5t44 -29t14.5 -50t-26 -58.5q-109 -82 -215 -165.5t-205 -180.5 q-78 -76 -147.5 -157.5t-147.5 -159.5q-43 -27 -79 10q-49 55 -82 147.5t-55.5 193.5t-37 197.5t-28.5 162.5q-2 8 -6 28q-20 -10 -40 -18t-38 -19q-33 -16 -43 -20q-25 -18 -51.5 -16t-45 17t-24.5 41.5zM-41 649q2 12 10 21.5t0 -11.5q-2 -4 -2 -6t-2 -4h-6zM270.5 1479.5 q8.5 27.5 38.5 48.5q25 8 47.5 16t46.5 10q2 0 3 -2q53 29 85.5 63t53 76t32 94t19.5 116q0 6 -2 -3.5t-4 -21.5t-4 -21.5t-2 -3.5q2 27 5 51.5t7 49.5q12 41 41 56t57.5 10t48 -30.5t13.5 -68.5q-29 -61 -57.5 -129t-63.5 -133.5t-78 -123.5t-98 -101q-20 -16 -43.5 -29 t-46.5 -25q-37 -6 -62.5 9.5t-35 40t-1 52zM360 1532q8 4 15.5 7t15.5 7q-12 -6 -25.5 -11t-5.5 -3zM389 150q0 -4 1 -5.5t1 -3.5q-4 13 -2 9z" />
<glyph unicode="&#xca;" horiz-adv-x="1220" d="M-43 591.5q6 -26.5 24.5 -41.5t45 -17.5t51.5 16.5q10 4 43 20q18 10 37.5 18.5t40.5 18.5q4 -20 6 -28q14 -66 28.5 -162.5t37 -197.5t55 -193.5t82.5 -147.5q37 -37 79 -10q78 78 148 160t147 157q98 96 205 180.5t215 165.5q25 29 26 58.5t-14.5 50t-44 29t-63.5 -3.5 q-109 -92 -213.5 -186.5t-202.5 -201.5q-63 -70 -119.5 -137t-115.5 -139q-23 35 -36 68.5t-28 72.5q4 -10 6 -19t0 -5q-37 129 -64.5 260t-51.5 264q12 6 25 11t28 12q59 23 128.5 41t136.5 30.5t124 20.5t94 8q43 8 61.5 34.5t15.5 55.5t-27.5 51.5t-67.5 20.5 q-127 -33 -247 -82t-245 -88q-20 -8 -47 -15q-2 8 -2 15.5t-2 15.5q-18 102 -38.5 204.5t-31.5 207.5q6 -2 17 -2q53 2 106 7t107 15q147 29 290.5 64t280.5 88q37 23 45 54.5t-4 57t-42 37.5t-71 -2q-113 -53 -231.5 -91t-241.5 -69q-47 -12 -94 -22t-96 -16l-49 -7 q-4 0 -8.5 1t-8.5 1q-20 8 -32 9q-25 4 -48.5 -7.5t-33.5 -35.5q-10 -25 -4 -74t18 -102.5t25.5 -99.5t17.5 -66q10 -51 21.5 -100.5t23.5 -100.5q-70 -14 -123 -24.5t-82 -39.5l17 -12l-21 2q-14 -31 -8 -57.5zM-41 649q2 12 10 21.5t0 -11.5q-2 -4 -2 -6t-2 -4h-6z M90 1628q51 82 74.5 131t15.5 92q-18 29 -4 58q23 29 52.5 26.5t50.5 -30.5q14 -25 18 -41q12 -18 29 -35q23 -20 48 -40t52 -38q16 -12 35.5 -23.5t38.5 -25.5q6 -6 10 -8q6 -2 16.5 -7.5t30.5 -15.5q27 -14 54.5 -27.5t56.5 -23.5q4 -2 10 -4t10 -4l2 -2q35 -18 44 -45 t-3 -51.5t-41 -39t-72 -6.5q-39 12 -80.5 42t-82.5 68t-80 78t-72 75q-6 -41 -17.5 -82t-21.5 -76q-23 -37 -57.5 -47t-65 0t-47 36.5t-4.5 65.5zM389 150q-2 4 2 -9q0 2 -1 3.5t-1 5.5z" />
<glyph unicode="&#xcb;" horiz-adv-x="1220" d="M-43 591.5q-6 26.5 8 57.5l21 -2l-17 12q29 29 82 39.5t123 24.5q-12 51 -23.5 100t-21.5 101q-4 20 -17.5 66t-25.5 99.5t-18.5 102.5t4.5 74q10 25 33.5 36t48.5 7q12 0 32 -9q4 0 8.5 -1t8.5 -1l49 7q49 6 96 16t94 22q123 31 241.5 69t231.5 91q41 14 71 2t42 -37.5 t4 -57.5t-45 -54q-137 -53 -280.5 -88t-290.5 -64q-53 -10 -106.5 -15t-106.5 -7q-10 0 -17 2q10 -104 31 -207t39 -205q2 -8 2 -15t2 -16q27 6 47 15q125 39 245 88t247 82q43 2 67.5 -20.5t27.5 -51.5t-15.5 -55.5t-61.5 -34.5q-37 0 -94 -8t-124 -20.5t-136.5 -31 t-128.5 -40.5q-14 -6 -27.5 -11.5t-25.5 -11.5q25 -133 52 -264t64 -260q2 -4 0 5t-6 19q14 -39 27.5 -72.5t36.5 -68.5q59 72 115.5 139.5t119.5 136.5q98 106 202.5 200.5t213.5 187.5q35 12 63.5 3.5t44 -29t14.5 -50t-26 -58.5q-109 -82 -215 -165.5t-205 -180.5 q-78 -76 -147.5 -157.5t-147.5 -159.5q-43 -27 -79 10q-49 55 -82 147.5t-55.5 193.5t-37 197.5t-28.5 162.5q-2 8 -6 28q-20 -10 -40 -18t-38 -19q-33 -16 -43 -20q-25 -18 -51.5 -16t-45 17t-24.5 41.5zM-41 649q2 12 10 21.5t0 -11.5q-2 -4 -2 -6t-2 -4h-6zM265 1540 q1 29 23.5 52.5t65.5 25.5h4q37 -10 53.5 -33.5t15.5 -50.5t-20.5 -49.5t-56.5 -28.5h-4q-43 4 -62.5 29.5t-18.5 54.5zM389 150q0 -4 1 -5.5t1 -3.5q-4 13 -2 9zM535 1614v4q6 37 28.5 56.5t49 20.5t50 -15.5t33.5 -53.5v-4q-2 -43 -25.5 -65.5t-52 -23.5t-54 18.5 t-29.5 62.5z" />
<glyph unicode="&#xcc;" horiz-adv-x="921" d="M-68.5 1320q5.5 26 28 44t58.5 18q57 -16 129 -16t150 12q6 33 25.5 51.5t43 22.5t46 -7t37.5 -38q113 25 218 57.5t185 55.5q43 2 67.5 -20.5t27.5 -51.5t-15.5 -55.5t-61.5 -34.5q-59 -4 -118.5 -9.5t-118.5 -7.5h-4q-45 -6 -87 -11t-87 -13q-10 -152 -15.5 -302.5 t4.5 -301.5q12 -166 50 -327t79 -320l126 20t128 20q37 -10 53.5 -33.5t15.5 -50t-20.5 -49t-56.5 -28.5q-78 12 -151.5 18t-147.5 -2q-16 -4 -26 -2q-25 -4 -49.5 -9t-49.5 -13q4 2 11 2q-8 0 -13 -5q-12 -4 -25.5 -9t-27.5 -11q-31 -10 -65.5 -23.5t-69.5 -19.5 q-43 4 -62.5 29.5t-18.5 54.5t23.5 52.5t65.5 25.5h2h25q35 2 69.5 4t69.5 4q10 0 18.5 1t18.5 1q-18 168 -28.5 334t-25.5 334q-12 145 -27.5 287.5t-29.5 285.5q-80 -23 -158.5 -44t-162.5 -17q-33 18 -45.5 44.5t-7 52.5zM143 1905q6 31 26.5 46t43.5 16t44.5 -12 t31.5 -44q0 -20 1 -40t-5 -38l-2 -2q8 -49 27.5 -84t50 -61.5t70.5 -48t93 -44.5q6 -2 -2 2l-17 8.5t-17.5 8.5t-2.5 2q23 -8 42.5 -16.5t41.5 -18.5q31 -18 37 -45t-7 -48.5t-41 -30.5t-62 7q-45 39 -94.5 79t-95.5 85t-84 93t-58 102q-10 20 -13.5 42t-7.5 42zM188 31 q4 0 10.5 1t10.5 1q-6 0 -11.5 -1t-9.5 -1zM276 1872q0 -12 3 -17q-2 8 -2.5 14.5t-0.5 2.5zM406 -61q8 4 4 0h-4z" />
<glyph unicode="&#xcd;" horiz-adv-x="921" d="M-68.5 1320q5.5 26 28 44t58.5 18q57 -16 129 -16t150 12q6 33 25.5 51.5t43 22.5t46 -7t37.5 -38q113 25 218 57.5t185 55.5q43 2 67.5 -20.5t27.5 -51.5t-15.5 -55.5t-61.5 -34.5q-59 -4 -118.5 -9.5t-118.5 -7.5h-4q-45 -6 -87 -11t-87 -13q-10 -152 -15.5 -302.5 t4.5 -301.5q12 -166 50 -327t79 -320l126 20t128 20q37 -10 53.5 -33.5t15.5 -50t-20.5 -49t-56.5 -28.5q-78 12 -151.5 18t-147.5 -2q-16 -4 -26 -2q-25 -4 -49.5 -9t-49.5 -13q4 2 11 2q-8 0 -13 -5q-12 -4 -25.5 -9t-27.5 -11q-31 -10 -65.5 -23.5t-69.5 -19.5 q-43 4 -62.5 29.5t-18.5 54.5t23.5 52.5t65.5 25.5h2h25q35 2 69.5 4t69.5 4q10 0 18.5 1t18.5 1q-18 168 -28.5 334t-25.5 334q-12 145 -27.5 287.5t-29.5 285.5q-80 -23 -158.5 -44t-162.5 -17q-33 18 -45.5 44.5t-7 52.5zM100.5 1533.5q8.5 22.5 40.5 39.5q25 6 48.5 13 t50.5 9q6 0 -3.5 -3t-20.5 -7t-19.5 -7t-1.5 -1q72 25 114.5 52.5t69.5 63.5t39 81t22 102q0 4 -2 -3l-5 -17.5l-5 -17.5t-2 -1q2 20 6 39.5t8 40.5q12 33 42 46t59.5 8t50 -25.5t14.5 -55.5q-31 -49 -60.5 -104t-66.5 -107.5t-81 -100.5t-101 -83q-23 -14 -47 -23.5 t-47 -19.5q-39 -4 -65.5 7t-36 31.5t-1 43zM188 31q4 0 10.5 1t10.5 1q-6 0 -11.5 -1t-9.5 -1zM406 -61q8 4 4 0h-4z" />
<glyph unicode="&#xce;" horiz-adv-x="921" d="M-68.5 1320q-5.5 -26 7 -52.5t45.5 -44.5q84 -4 162.5 17.5t158.5 43.5q14 -143 29.5 -285.5t27.5 -287.5q14 -168 24.5 -334t29.5 -334q-10 0 -18.5 -1t-18.5 -1l-70 -4t-69 -4h-25h-2h-4q-41 -2 -62.5 -25.5t-22.5 -52.5t18.5 -54.5t62.5 -29.5q35 6 69.5 19.5 t65.5 23.5q14 6 27.5 11t25.5 9q4 4 13 5q-6 0 -11 -2q25 8 49.5 13t49.5 9q10 -2 26 2q74 8 147.5 2t151.5 -18q37 6 56.5 28.5t20.5 49t-15.5 50t-53.5 33.5q-66 -10 -128 -20t-126 -20q-41 160 -78.5 320.5t-50.5 326.5q-10 152 -5 302t16 302q45 8 87 13t87 11h4 q59 2 118.5 7.5t118.5 9.5q43 8 61.5 34.5t15.5 55.5t-27.5 51.5t-67.5 20.5q-80 -23 -185.5 -55.5t-217.5 -57.5q-14 27 -37 38t-46.5 7t-43 -22.5t-25.5 -51.5q-78 -12 -149.5 -12t-129.5 16q-37 0 -59 -18t-27.5 -44zM63 1593q33 88 47.5 139.5t0.5 92.5q-25 25 -17 59 q16 33 46 37t55 -23q12 -14 22 -32q10 -8 19.5 -15.5t19.5 -15.5q27 -16 55.5 -30.5t57.5 -26.5q20 -10 40.5 -17.5t41.5 -17.5q8 -4 10 -4t53 -15q27 -8 55.5 -16t59.5 -14h2q8 0 18 -2t6 -2h-2q39 -10 53.5 -35t8.5 -50.5t-33 -46t-70 -20.5q-41 4 -88 24.5t-95 49 t-94 61.5t-83 60q2 -41 0 -83t-6 -79q-16 -41 -48 -57.5t-65 -12.5t-54.5 27.5t-15.5 64.5zM188 31q4 0 10.5 1t10.5 1q-6 0 -11.5 -1t-9.5 -1zM406 -61q8 4 4 0h-4z" />
<glyph unicode="&#xcf;" horiz-adv-x="921" d="M-68.5 1320q5.5 26 28 44t58.5 18q57 -16 129 -16t150 12q6 33 25.5 51.5t43 22.5t46 -7t37.5 -38q113 25 218 57.5t185 55.5q43 2 67.5 -20.5t27.5 -51.5t-15.5 -55.5t-61.5 -34.5q-59 -4 -118.5 -9.5t-118.5 -7.5h-4q-45 -6 -87 -11t-87 -13q-10 -152 -15.5 -302.5 t4.5 -301.5q12 -166 50 -327t79 -320l126 20t128 20q37 -10 53.5 -33.5t15.5 -50t-20.5 -49t-56.5 -28.5q-78 12 -151.5 18t-147.5 -2q-16 -4 -26 -2q-25 -4 -49.5 -9t-49.5 -13q4 2 11 2q-8 0 -13 -5q-12 -4 -25.5 -9t-27.5 -11q-31 -10 -65.5 -23.5t-69.5 -19.5 q-43 4 -62.5 29.5t-18.5 54.5t23.5 52.5t65.5 25.5h2h25q35 2 69.5 4t69.5 4q10 0 18.5 1t18.5 1q-18 168 -28.5 334t-25.5 334q-12 145 -27.5 287.5t-29.5 285.5q-80 -23 -158.5 -44t-162.5 -17q-33 18 -45.5 44.5t-7 52.5zM142 1663q1 29 23.5 52.5t65.5 25.5h5 q37 -10 53 -34t15 -50.5t-20.5 -49t-56.5 -28.5h-4q-43 4 -62.5 29.5t-18.5 54.5zM188 31q4 0 10.5 1t10.5 1q-6 0 -11.5 -1t-9.5 -1zM406 -61q8 4 4 0h-4zM412 1737v4q6 37 28.5 56.5t49 20.5t50 -15.5t33.5 -53.5v-4q-2 -43 -25.5 -65.5t-52 -23.5t-54 18.5t-29.5 62.5z " />
<glyph unicode="&#xd0;" horiz-adv-x="1101" d="M-47 1257.5q6 24.5 28.5 43t57.5 20.5q8 0 14 -2t10 -4q47 -10 93.5 -28.5t93.5 -31.5q18 -8 41 -14q25 35 66.5 34t68.5 -46q10 -12 10 -39q51 -18 97.5 -36.5t94.5 -39t100 -46.5l116 -58q39 -20 86 -45t90 -56.5t74.5 -70.5t42.5 -88q18 -74 -2.5 -150t-65.5 -147.5 t-109.5 -138t-134 -121t-140.5 -95.5t-126 -61q-14 -4 -59 -19.5t-98.5 -30t-102.5 -19.5t-74 12q-20 14 -23 31.5t2 36t14 35.5t15 34q12 27 19.5 46t12.5 35.5t9.5 35t10.5 45.5q14 68 21 146.5t11 162.5q-39 0 -76.5 -3t-78.5 -5q-33 18 -45.5 44.5t-7 52t28 44 t59.5 18.5q31 -12 60.5 -21t61.5 -13q0 78 -2 149.5t-6 134.5q0 16 -6 45l-12 58q-57 16 -116.5 30.5t-125.5 30.5q-12 0 -18 2q-8 4 -16.5 5t-16.5 5q-31 16 -42 42t-5 50.5zM338 80q74 14 147.5 34.5t141.5 49.5q43 18 94 53t90 64q33 20 61.5 57t55 78t49 83t41.5 74 q39 68 32.5 118t-41 89t-88 67.5t-110.5 53.5q-98 41 -183 74t-167 61q4 -33 3 -65.5t-1 -67.5q-4 -47 -5 -99t-5 -108q84 2 170 19q37 -10 53 -34t15 -50.5t-20.5 -49t-56.5 -28.5q-45 14 -86 21.5t-82 11.5q-6 -90 -16 -175t-29 -157q-14 -43 -28.5 -87t-34.5 -87z" />
<glyph unicode="&#xd1;" horiz-adv-x="970" d="M6 1116q31 49 74 17q29 -35 49.5 -89.5t36.5 -117.5q51 -111 120.5 -231t149.5 -232.5t168 -208.5t178 -160q-6 55 -15 110.5t-15 110.5q-27 242 -40.5 482.5t-9.5 482.5q2 53 -2 106.5t9 104.5q49 78 127 27q18 -16 27 -35t18 -41q10 -41 -4.5 -70t-40.5 -39 q-27 -186 -34 -370.5t21 -370.5q10 -63 21.5 -126t25.5 -126q10 -43 24.5 -85t27 -85t19.5 -87t3 -89q-6 -20 -14 -31q-4 -59 -74 -78q-35 0 -67.5 17.5t-63.5 44t-58.5 54.5t-48.5 50q-102 102 -184 218t-153 241q18 -59 32.5 -119.5t22.5 -120.5q6 -41 7 -102.5 t-13.5 -114.5t-50 -84t-103.5 -8q-31 16 -43 40t-10 47.5t17.5 43t41.5 25.5q12 90 3 177t-27.5 173t-42 171t-39.5 173q-4 29 -8.5 63.5t-8.5 69.5q-27 53 -44 103.5t-9 68.5zM15.5 1378q0.5 21 2.5 39q10 66 41 119t82 86q25 14 67 16t89 -1t95 -5t86 7.5t58.5 34 t14.5 75.5q-4 37 -16.5 74t-22.5 71q-2 37 16.5 51.5t44 8.5t50 -29.5t34.5 -62.5q2 -29 8.5 -68t8.5 -77t-6.5 -71.5t-32.5 -50.5q-16 -12 -32.5 -26.5t-39.5 -16.5q-43 -4 -90 0t-95 7.5t-92 -2t-77 -25.5q-25 -16 -42 -56t-22 -81h5q8 -4 4 -11.5t-2 -17.5 q-2 -8 -1 -16.5t3 -18.5q10 -8 15 -19.5t9 -21.5q4 -31 0 -46t-22 -30l-4 -2q-43 -4 -76 23t-39 61q-12 16 -14 41q-8 20 -7.5 41zM35 1305v2v-2zM43 1286q0 -2 1 -2t1 -2q0 -4 0 -1t-2 5zM170 93.5q2 -9.5 6 -3.5q2 4 3 11.5t3 7.5q-14 -6 -12 -15.5zM852 1446h2v8 q0 -2 -1 -4t-1 -4z" />
<glyph unicode="&#xd2;" horiz-adv-x="1191" d="M-31 569q8 84 37 162t64 152q39 78 88 160t112 139q14 12 29.5 23.5t32.5 21.5q4 25 23.5 43t54.5 22q31 16 59.5 9t44.5 -29q82 -20 156.5 -50t146.5 -77q43 -29 97.5 -72t106.5 -97t99 -115.5t76 -127t34 -132t-26 -128.5q-53 -106 -134 -189t-182.5 -137.5t-219 -79 t-244.5 -14.5q-123 8 -212 52.5t-146.5 113t-81 158.5t-15.5 192zM82 502q-6 -129 45 -208t136 -117t191.5 -39t213 27t200 80t152.5 120q74 84 83 171t-25 167.5t-103.5 152.5t-156.5 129t-180 94t-175 49q-25 -16 -49.5 -30.5t-46.5 -36.5q-53 -53 -102.5 -118.5 t-89.5 -138.5t-65.5 -149.5t-27.5 -152.5zM285 1829q6 37 28.5 56.5t49 20.5t50 -15.5t33.5 -53.5q0 -25 1.5 -49.5t-5.5 -46.5q-2 -4 -2 -2q10 -59 32 -102.5t55.5 -76t78.5 -59t103 -53.5q6 -2 -2.5 2t-19.5 10t-19.5 11.5t-1.5 3.5q25 -10 47 -21.5t45 -21.5 q35 -25 41 -57t-8.5 -57.5t-45 -35.5t-69.5 8q-49 47 -104.5 96.5t-105.5 102.5t-92 112.5t-67 124.5q-10 25 -13 51.5t-9 51.5zM434 1786q0 -8 2 -21q-2 9 -2 23q0 6 0 -2z" />
<glyph unicode="&#xd3;" horiz-adv-x="1191" d="M-31 569q8 84 37 162t64 152q39 78 88 160t112 139q14 12 29.5 23.5t32.5 21.5q4 25 23.5 43t54.5 22q31 16 59.5 9t44.5 -29q82 -20 156.5 -50t146.5 -77q43 -29 97.5 -72t106.5 -97t99 -115.5t76 -127t34 -132t-26 -128.5q-53 -106 -134 -189t-182.5 -137.5t-219 -79 t-244.5 -14.5q-123 8 -212 52.5t-146.5 113t-81 158.5t-15.5 192zM82 502q-6 -129 45 -208t136 -117t191.5 -39t213 27t200 80t152.5 120q74 84 83 171t-25 167.5t-103.5 152.5t-156.5 129t-180 94t-175 49q-25 -16 -49.5 -30.5t-46.5 -36.5q-53 -53 -102.5 -118.5 t-89.5 -138.5t-65.5 -149.5t-27.5 -152.5zM168 1397.5q8 27.5 39 48.5q25 8 47 16t47 11q2 0 2 -3q53 29 86 63t53.5 76t31.5 94t20 116q0 6 -2.5 -3.5t-4.5 -21.5t-4 -21.5t-2 -3.5q2 27 5 51.5t8 49.5q12 41 40.5 56.5t57.5 10t48 -31t13 -68.5q-29 -61 -57.5 -129 t-63 -133.5t-77.5 -123.5t-99 -101q-20 -16 -43.5 -29t-46.5 -25q-37 -6 -62.5 9.5t-34.5 40t-1 52zM258 1450q8 4 15.5 7t15.5 7q-12 -6 -25.5 -11t-5.5 -3z" />
<glyph unicode="&#xd4;" horiz-adv-x="1191" d="M-31 569q8 84 37 162t64 152q39 78 88 160t112 139q14 12 29.5 23.5t32.5 21.5q4 25 23.5 43t54.5 22q31 16 59.5 9t44.5 -29q82 -20 156.5 -50t146.5 -77q43 -29 97.5 -72t106.5 -97t99 -115.5t76 -127t34 -132t-26 -128.5q-53 -106 -134 -189t-182.5 -137.5t-219 -79 t-244.5 -14.5q-123 8 -212 52.5t-146.5 113t-81 158.5t-15.5 192zM82 502q-6 -129 45 -208t136 -117t191.5 -39t213 27t200 80t152.5 120q74 84 83 171t-25 167.5t-103.5 152.5t-156.5 129t-180 94t-175 49q-25 -16 -49.5 -30.5t-46.5 -36.5q-53 -53 -102.5 -118.5 t-89.5 -138.5t-65.5 -149.5t-27.5 -152.5zM147.5 1432.5q8.5 27.5 38.5 46.5l2 2q4 2 9.5 4t9.5 4q27 12 51.5 25.5t46.5 27.5q35 20 39 23q6 6 12 10q16 14 33 26.5t33 24.5q23 20 46.5 40t41.5 42q6 8 13 16.5t14 16.5q4 12 7 23.5t9 21.5q16 31 44 32t46 -28 q12 -33 -4 -59q-8 -45 12.5 -95.5t67.5 -136.5q12 -41 -3.5 -69.5t-42 -39t-57 1t-51.5 48.5q-10 37 -19 79t-16 85q-29 -35 -62.5 -77t-70.5 -81t-74.5 -71t-70.5 -44q-39 -8 -65.5 7.5t-37 41t-2 53z" />
<glyph unicode="&#xd5;" horiz-adv-x="1191" d="M-31 569q8 84 37 162t64 152q39 78 88 160t112 139q14 12 29.5 23.5t32.5 21.5q4 25 23.5 43t54.5 22q31 16 59.5 9t44.5 -29q82 -20 156.5 -50t146.5 -77q43 -29 97.5 -72t106.5 -97t99 -115.5t76 -127t34 -132t-26 -128.5q-53 -106 -134 -189t-182.5 -137.5t-219 -79 t-244.5 -14.5q-123 8 -212 52.5t-146.5 113t-81 158.5t-15.5 192zM82 502q-6 -129 45 -208t136 -117t191.5 -39t213 27t200 80t152.5 120q74 84 83 171t-25 167.5t-103.5 152.5t-156.5 129t-180 94t-175 49q-25 -16 -49.5 -30.5t-46.5 -36.5q-53 -53 -102.5 -118.5 t-89.5 -138.5t-65.5 -149.5t-27.5 -152.5zM144 1473.5q-3 39.5 16 68.5q4 12 9 21.5t13 21.5q10 18 25.5 32.5t30.5 24.5q55 39 115.5 52.5t117.5 -2.5q29 -8 58.5 -38t59 -67t61.5 -73.5t63.5 -57t64.5 -19.5t66 42q25 29 42 62.5t38 64.5q27 27 49 22.5t35.5 -27 t12.5 -57.5t-22 -67q-18 -23 -42.5 -53.5t-52 -57.5t-57.5 -43t-59 -10q-20 4 -41.5 5t-37.5 17q-33 27 -63 66t-59.5 75.5t-62 65.5t-71.5 39q-29 8 -70 -6t-74 -41l2 -2q2 -10 -6 -12t-14 -11q-10 -6 -23 -24q0 -12 -5 -23.5t-9 -21.5q-18 -25 -32.5 -33t-37.5 -4l-6 2 q-31 29 -34 68.5zM168 1552v2v-2zM288 1511q1 0 3 5l-2 -3q-2 -2 -1 -2zM291 1516l6 6z" />
<glyph unicode="&#xd6;" horiz-adv-x="1191" d="M-31 569q8 84 37 162t64 152q39 78 88 160t112 139q14 12 29.5 23.5t32.5 21.5q4 25 23.5 43t54.5 22q31 16 59.5 9t44.5 -29q82 -20 156.5 -50t146.5 -77q43 -29 97.5 -72t106.5 -97t99 -115.5t76 -127t34 -132t-26 -128.5q-53 -106 -134 -189t-182.5 -137.5t-219 -79 t-244.5 -14.5q-123 8 -212 52.5t-146.5 113t-81 158.5t-15.5 192zM82 502q-6 -129 45 -208t136 -117t191.5 -39t213 27t200 80t152.5 120q74 84 83 171t-25 167.5t-103.5 152.5t-156.5 129t-180 94t-175 49q-25 -16 -49.5 -30.5t-46.5 -36.5q-53 -53 -102.5 -118.5 t-89.5 -138.5t-65.5 -149.5t-27.5 -152.5zM142 1458.5q1 28.5 23.5 52t65.5 25.5h5q37 -10 53 -33.5t15 -50.5t-20.5 -49.5t-56.5 -28.5h-4q-43 4 -62.5 30t-18.5 54.5zM412 1532v4q6 37 28.5 56.5t49 20.5t50 -15.5t33.5 -53.5v-4q-2 -43 -25.5 -65.5t-52 -23.5t-54 18.5 t-29.5 62.5z" />
<glyph unicode="&#xd7;" horiz-adv-x="923" d="M-24.5 1025q6.5 26 28 45.5t59.5 21.5q45 -4 68 -35q4 -8 8 -13q-4 4 -6 7.5t2 -0.5q53 -90 89 -185.5t89 -187.5q23 -39 46.5 -76t50.5 -72q6 10 12 19.5t14 19.5q66 98 123 196.5t111 201.5q35 74 72.5 145.5t58.5 149.5q20 33 48 44t52.5 4t42 -32t14.5 -61 q-33 -78 -76.5 -150t-93 -140.5t-99.5 -136t-95 -137.5q-33 -49 -63.5 -99t-61.5 -103q158 -188 367 -328q20 -31 19 -60.5t-17.5 -49t-45 -25.5t-61.5 10q-92 84 -167 174t-146 188q-41 -78 -80 -154.5t-74 -154.5q0 -31 -24 -57q-4 -2 -6.5 -4t-6.5 -4 q-29 -18 -54.5 -17.5t-43.5 14t-27.5 38t-3.5 55.5q35 55 71 107.5t71 105.5q16 27 34.5 52.5t38.5 49.5l3 6t6 6q12 20 32 48q-53 76 -108.5 145.5t-102.5 146.5q-20 35 -37.5 72t-39.5 72h-3q-14 10 -22 23.5t-18 25.5q-29 12 -41.5 37.5t-6 51.5zM31 934h4h-4zM139 1044 q6 -10 11.5 -17t1.5 -3t-6.5 10t-6.5 10zM680 985q4 8 8 15.5t8 15.5q-4 -6 -8 -14.5t-8 -16.5z" />
<glyph unicode="&#xd8;" horiz-adv-x="1191" d="M-31 569q8 84 37 162t64 152q39 78 88 159.5t112 139.5q14 12 29.5 23.5t32.5 21.5q4 25 23.5 43t54.5 22q31 16 59.5 9t44.5 -29q82 -20 156.5 -50t146.5 -77q4 -2 5 -4t5 -4q27 39 52.5 77.5t52.5 77.5q29 25 58.5 26t50 -14.5t28.5 -44t-4 -63.5q-33 -35 -64.5 -70.5 t-62.5 -72.5q63 -55 125.5 -125t105.5 -146.5t57.5 -155.5t-22.5 -153q-53 -106 -134 -189t-182.5 -137.5t-219 -79t-244.5 -14.5q-29 2 -54.5 6t-50.5 11q-29 -53 -55 -97t-55 -75q-33 -18 -62.5 -15.5t-48 21t-21.5 48.5t15 62q14 10 22.5 25.5t24.5 26.5q2 2 2 -3 q10 14 19.5 28.5t19.5 31.5q-117 68 -169 184.5t-42 261.5zM82 502q-6 -117 34 -190.5t111 -114.5q41 66 79 130t79 130q90 143 181.5 284.5t185.5 282.5q-152 82 -289 104q-25 -16 -49.5 -30.5t-46.5 -36.5q-53 -53 -102.5 -118.5t-89.5 -138.5t-65.5 -149.5t-27.5 -152.5z M358 147q84 -16 179.5 -5.5t185.5 40t168 77t129 106.5q70 80 82 161.5t-16.5 158.5t-90 146.5t-141.5 126.5q-86 -102 -167 -206.5t-146 -216.5q-41 -72 -87 -177.5t-96 -210.5z" />
<glyph unicode="&#xd9;" horiz-adv-x="1079" d="M-28 33.5q-3 36.5 5.5 75t21.5 75.5t21 60q53 168 124 325.5t149 315.5q20 41 52 100t42 117q-23 16 -29 48t17 67q29 25 58.5 31.5t55 -2.5t42 -33.5t20.5 -65.5q4 -35 -8.5 -71t-26.5 -68q-39 -92 -86 -181.5t-96 -178.5t-96.5 -179t-85.5 -184q-8 -20 -21.5 -49 t-26 -61t-21.5 -63.5t-9 -56.5h31.5t37.5 2q66 4 129.5 13.5t128.5 17.5q102 14 200.5 19.5t203.5 9.5q4 0 -1 0h-13.5h-15.5h-7q27 2 60.5 3t67.5 2t65.5 7t54.5 23q-31 80 -72 156.5t-67 156.5q-78 238 -77 470t60 474q20 33 48 44t52.5 4t42 -31.5t15.5 -61.5 q-68 -217 -82 -427t47 -431q12 -47 34.5 -92t44 -91.5t39 -92.5t23.5 -95q0 -16 -3 -24.5t-13 -20.5q-53 -31 -112.5 -44t-121 -16t-123 -1t-120.5 0q-78 0 -155 -14.5t-154 -26.5q-27 -4 -71 -13.5t-91 -15.5t-90 -3t-68 21q-27 20 -30 56.5zM223 1808q6 37 28.5 56.5 t49.5 20.5t50.5 -15.5t33.5 -52.5q0 -25 1 -49.5t-5 -47.5q-2 -4 -2 -2q10 -59 31.5 -102t55.5 -76t79 -59.5t102 -53.5q6 -2 -2 2.5t-19.5 10.5t-19.5 11t-2 3q25 -10 47.5 -21.5t44.5 -21.5q35 -25 41 -56.5t-8 -57t-45 -36t-70 8.5q-49 47 -104 96t-105.5 102.5 t-92.5 112.5t-66 125q-10 25 -13.5 51t-9.5 51zM373 1765q0 -8 2 -20q-2 8 -2 22q0 6 0 -2zM459 1085q2 0 10 5l-5 -2.5z" />
<glyph unicode="&#xda;" horiz-adv-x="1079" d="M-28 33.5q-3 36.5 5.5 75t21.5 75.5t21 60q53 168 124 325.5t149 315.5q20 41 52 100t42 117q-23 16 -29 48t17 67q29 25 58.5 31.5t55 -2.5t42 -33.5t20.5 -65.5q4 -35 -8.5 -71t-26.5 -68q-39 -92 -86 -181.5t-96 -178.5t-96.5 -179t-85.5 -184q-8 -20 -21.5 -49 t-26 -61t-21.5 -63.5t-9 -56.5h31.5t37.5 2q66 4 129.5 13.5t128.5 17.5q102 14 200.5 19.5t203.5 9.5q4 0 -1 0h-13.5h-15.5h-7q27 2 60.5 3t67.5 2t65.5 7t54.5 23q-31 80 -72 156.5t-67 156.5q-78 238 -77 470t60 474q20 33 48 44t52.5 4t42 -31.5t15.5 -61.5 q-68 -217 -82 -427t47 -431q12 -47 34.5 -92t44 -91.5t39 -92.5t23.5 -95q0 -16 -3 -24.5t-13 -20.5q-53 -31 -112.5 -44t-121 -16t-123 -1t-120.5 0q-78 0 -155 -14.5t-154 -26.5q-27 -4 -71 -13.5t-91 -15.5t-90 -3t-68 21q-27 20 -30 56.5zM352 1418.5q8 27.5 39 47.5 q25 8 47.5 16.5t46.5 10.5q2 0 2 -2q53 29 86 62.5t53.5 75.5t32 94.5t19.5 115.5q0 6 -2 -3t-4 -21.5t-4 -21.5t-2 -3q2 27 5 51.5t7 48.5q12 41 41 56.5t57.5 10.5t48 -30.5t13.5 -68.5q-29 -61 -57.5 -129t-63.5 -133.5t-78 -124t-98 -101.5q-20 -16 -43.5 -28.5 t-46.5 -24.5q-37 -6 -63 9t-35 40t-1 52.5zM442 1470q8 4 15.5 7.5t15.5 7.5q-12 -6 -25.5 -11.5t-5.5 -3.5zM459 1085q2 0 10 5l-5 -2.5z" />
<glyph unicode="&#xdb;" horiz-adv-x="1079" d="M-28 33.5q-3 36.5 5.5 75t21.5 75.5t21 60q53 168 124 325.5t149 315.5q20 41 52 100t42 117q-23 16 -29 48t17 67q29 25 58.5 31.5t55 -2.5t42 -33.5t20.5 -65.5q4 -35 -8.5 -71t-26.5 -68q-39 -92 -86 -181.5t-96 -178.5t-96.5 -179t-85.5 -184q-8 -20 -21.5 -49 t-26 -61t-21.5 -63.5t-9 -56.5h31.5t37.5 2q66 4 129.5 13.5t128.5 17.5q102 14 200.5 19.5t203.5 9.5q4 0 -1 0h-13.5h-15.5h-7q27 2 60.5 3t67.5 2t65.5 7t54.5 23q-31 80 -72 156.5t-67 156.5q-78 238 -77 470t60 474q20 33 48 44t52.5 4t42 -31.5t15.5 -61.5 q-68 -217 -82 -427t47 -431q12 -47 34.5 -92t44 -91.5t39 -92.5t23.5 -95q0 -16 -3 -24.5t-13 -20.5q-53 -31 -112.5 -44t-121 -16t-123 -1t-120.5 0q-78 0 -155 -14.5t-154 -26.5q-27 -4 -71 -13.5t-91 -15.5t-90 -3t-68 21q-27 20 -30 56.5zM313 1410q0 30 25 56l4 4 q4 2 12 11q23 18 42.5 38.5t37.5 41.5q14 16 19.5 22t9.5 10q6 6 10 13q12 18 24.5 34.5t22.5 32.5q16 27 33.5 52.5t28.5 52.5q8 14 14 39v23t4 24q8 35 33.5 44t52.5 -14q23 -27 12 -63q6 -41 42 -84t102 -109q23 -37 16.5 -68.5t-29 -49t-54.5 -16.5t-62 32 q-20 35 -42 72t-40 78q-18 -41 -39 -91.5t-44.5 -99.5t-50 -90t-55.5 -64q-35 -18 -65.5 -11t-47 28.5t-16.5 51.5zM459 1085q2 0 10 5l-5 -2.5z" />
<glyph unicode="&#xdc;" horiz-adv-x="1079" d="M-28 33.5q-3 36.5 5.5 75t21.5 75.5t21 60q53 168 124 325.5t149 315.5q20 41 52 100t42 117q-23 16 -29 48t17 67q29 25 58.5 31.5t55 -2.5t42 -33.5t20.5 -65.5q4 -35 -8.5 -71t-26.5 -68q-39 -92 -86 -181.5t-96 -178.5t-96.5 -179t-85.5 -184q-8 -20 -21.5 -49 t-26 -61t-21.5 -63.5t-9 -56.5h31.5t37.5 2q66 4 129.5 13.5t128.5 17.5q102 14 200.5 19.5t203.5 9.5q4 0 -1 0h-13.5h-15.5h-7q27 2 60.5 3t67.5 2t65.5 7t54.5 23q-31 80 -72 156.5t-67 156.5q-78 238 -77 470t60 474q20 33 48 44t52.5 4t42 -31.5t15.5 -61.5 q-68 -217 -82 -427t47 -431q12 -47 34.5 -92t44 -91.5t39 -92.5t23.5 -95q0 -16 -3 -24.5t-13 -20.5q-53 -31 -112.5 -44t-121 -16t-123 -1t-120.5 0q-78 0 -155 -14.5t-154 -26.5q-27 -4 -71 -13.5t-91 -15.5t-90 -3t-68 21q-27 20 -30 56.5zM368 1519.5q1 28.5 23.5 52 t65.5 25.5h4q37 -10 53 -33.5t15 -50t-20.5 -49t-55.5 -28.5h-4q-43 4 -62.5 29.5t-18.5 54zM459 1085q2 0 10 5l-5 -2.5zM637 1593v4q6 37 28.5 56.5t49 20.5t50 -15.5t34.5 -52.5v-4q-2 -43 -25.5 -66t-52.5 -24t-54.5 18.5t-29.5 62.5z" />
<glyph unicode="&#xdd;" horiz-adv-x="854" d="M-20.5 1179.5q0.5 32.5 18.5 54t50 27t67 -19.5q23 -23 34 -53.5t21 -61.5q6 -20 13 -39.5t10 -23.5q-2 2 -3.5 4t-3.5 4q51 -96 123 -168t164 -129q23 61 47.5 121.5t46.5 120.5q25 61 43.5 106t36 86t36.5 84t46 103q2 4 8 11t15 17q12 27 34.5 40.5t46 11.5t44 -18.5 t30.5 -49.5q0 -25 -4 -43t-22 -37l-9 -8q-6 -12 -22 -39t-32.5 -53.5t-30 -48t-15.5 -25.5q-31 -53 -55.5 -98t-48 -90t-46 -92.5t-47.5 -104.5q-57 -133 -93 -254t-52 -240.5t-13 -245.5t21 -268q-2 -43 -25.5 -65.5t-52 -23.5t-54 18.5t-30.5 62.5q-2 51 -5 101.5t-1 99.5 q10 166 51 337t101 339q-10 2 -19.5 4t-19.5 8q-98 115 -183 235.5t-184 235.5q-4 4 -6 4q-31 31 -30.5 63.5zM188.5 1418.5q8.5 27.5 38.5 47.5q25 8 47.5 16.5t47.5 10.5q2 0 2 -2q53 29 85.5 62.5t53 75.5t32 94.5t19.5 115.5q0 6 -2 -3t-4 -21.5t-4 -21.5t-2 -3 q2 27 5 51.5t7 48.5q12 41 41 56.5t57.5 10.5t48 -30.5t13.5 -68.5q-29 -61 -57.5 -129t-63.5 -133.5t-78 -124t-98 -101.5q-20 -16 -43.5 -28.5t-46.5 -24.5q-37 -6 -62.5 9t-35 40t-1 52.5zM279 1470l15 7.5l15 7.5q-12 -6 -25 -11.5t-5 -3.5zM762 1434q8 8 10 11t-8 -7 q0 -2 -2 -4z" />
<glyph unicode="&#xde;" horiz-adv-x="868" d="M86 1487q25 37 80 39h6q29 -10 41 -23v2q0 -2 2 -4q18 -16 23 -39q41 -82 44 -193.5t-8 -221.5q57 41 125 81.5t134.5 64.5t128 19.5t108.5 -53.5q25 -25 37 -83t16 -124.5t3 -128t-1 -92.5q-2 -111 -17 -215t-71 -203q-23 -41 -76 -63.5t-117.5 -32.5t-132 -10t-120.5 6 q16 -86 33.5 -172t35.5 -174q0 -37 -18 -59.5t-44 -27.5t-52.5 7t-44.5 45q-10 104 -17.5 205.5t-11.5 206.5q-12 6 -24.5 12t-24.5 14q-23 23 -29 47.5t0 46t24.5 36t45.5 16.5q-4 86 -6 171t-4 171v61q-2 2 -3 2t-4 2q-4 4 -18 26.5t-12 43.5q4 49 41 74q4 104 -3.5 207.5 t-41.5 195.5q-8 14 -25 29q-27 51 -2 88zM143 827l4 -4zM246 594.5q6 -109.5 22 -219.5q18 -10 39 -13q27 -4 77 -11t102.5 -10t97.5 4t63 32q53 74 71.5 168t22.5 182q2 18 0 77.5t-9 123t-21.5 116t-36.5 58.5q-37 10 -88 -16.5t-106.5 -68.5t-109 -88t-91.5 -75 q-10 -27 -33 -39q-6 -111 0 -220.5zM262 936q2 -4 4 -6t4 -6v2q-2 4 -5 9t-3 3v-2z" />
<glyph unicode="&#xdf;" horiz-adv-x="991" d="M34 1010.5q-3 33.5 12 65.5t43 61.5t52 52.5q8 27 25.5 41t38.5 18q55 49 129 111.5t151.5 105.5t151.5 53.5t127 -42.5q49 -47 60.5 -114t1 -139.5t-39 -143t-59.5 -126.5q43 -10 78 -40.5t59 -63.5q37 -47 52.5 -116.5t14.5 -144.5t-19.5 -148.5t-49.5 -129.5 q-35 -66 -91 -94.5t-118.5 -26t-122 33t-100.5 83.5q-16 33 -10 61.5t25.5 45t49 17.5t60.5 -19q2 -4 9 -12.5t14.5 -16.5t13.5 -14.5t6 -8.5q16 -10 33 -14q33 -10 62.5 -5t45.5 38q23 49 42.5 101t28.5 104.5t4 102.5t-32 93q-16 25 -36.5 46.5t-51.5 29.5q-10 4 -32 0 q-23 -29 -52.5 -57.5t-61.5 -48t-64.5 -23.5t-61.5 16q-10 10 -12 17.5t-7 21.5q2 35 24 62.5t53.5 49t70.5 36t76 20.5q33 53 57.5 118t35.5 126t5 114.5t-37 84.5q-12 12 -29.5 11t-36 -7t-35 -15.5t-24.5 -13.5q-74 -43 -137.5 -102.5t-122.5 -122.5q8 -68 7 -135.5 t-5 -135t-9 -135t-5 -137.5q0 -127 14 -248t31 -246q2 -8 0 6.5t-4 33t-4 33t0 3.5q23 -127 45 -251t51 -250q6 -43 -13.5 -69t-47 -32t-56 9.5t-43.5 56.5q-20 240 -33 476t-36 474q-10 92 -11.5 180t-11.5 176q-27 -16 -48.5 -18t-49.5 14q-37 29 -40 62.5z" />
<glyph unicode="&#xe0;" horiz-adv-x="1239" d="M7.5 484.5q-3.5 23.5 3.5 43t23.5 32.5t37.5 18q31 8 63.5 17t61.5 15q41 10 84 19.5t86 17.5q45 106 86 212t79 214q8 25 18.5 50.5t20.5 54.5q0 43 3.5 95t9.5 100t18 88t33 61q12 12 24.5 12t28.5 -2q16 -6 22.5 -14.5t10.5 -24.5q12 -82 -7.5 -168t-47.5 -172 q2 -68 11 -133.5t13 -132.5q-2 4 -5 21.5t-3 9.5q8 -45 19.5 -87.5t25.5 -82.5q92 39 182 80.5t185 82.5q41 10 69.5 -5t37.5 -42.5t-3 -57.5t-51 -48q-98 -23 -193.5 -48.5t-191.5 -54.5q51 -121 125 -245q23 -37 56.5 -95.5t73.5 -117t83 -104.5t86 -60q39 -16 52 -46 t5 -58.5t-35.5 -46t-70.5 -7.5q-53 20 -95.5 57t-76 83t-62.5 97.5t-55 98.5q-59 102 -108.5 204.5t-86.5 207.5q-41 -12 -82 -25.5t-82 -28.5q-6 -2 -11 -4t-9 -4q-31 -86 -63.5 -168t-67.5 -166q-23 -55 -49.5 -108t-61.5 -101q-14 -20 -28.5 -38.5t-32.5 -34.5 q-16 -18 -24.5 -22.5t-4.5 -0.5v2q-29 -20 -58.5 -16t-48 23.5t-21.5 50t22 61.5q4 6 20 18q6 2 15 11q4 4 12 15t13 17.5t3 4t-16 -26.5q-2 -4 4 5l10 15q25 31 41 56q29 45 53.5 92t46.5 94q18 41 37 81t37 81q-49 -16 -96 -36.5t-94 -45.5q-4 -4 5 0t19 8q-12 -8 -30 -16 q-23 -4 -38.5 1t-35.5 17l-8 4q-18 23 -21.5 46.5zM39 555q-2 -2 1 0t5 4q-2 -2 -4 -2t-2 -2zM141 432l4 4q2 0 5.5 2t1.5 0t-11 -6zM508 674q57 14 119 37q-29 98 -43 194q-18 -59 -37 -116.5t-39 -114.5zM551 1931q6 37 28.5 56.5t49 20.5t50 -15.5t34.5 -53.5 q0 -25 1 -49t-5 -47q-2 -4 -2 -2q10 -59 31.5 -102t55 -76t79 -59.5t102.5 -53.5q6 -2 -2 2t-19.5 10.5t-19.5 11.5t-2 3q25 -10 47 -21.5t45 -21.5q35 -25 41 -56.5t-8.5 -57t-45 -36t-69.5 8.5q-49 47 -104.5 96t-105.5 102.5t-92 112.5t-67 125q-10 25 -13 51t-9 51z M700 1888q0 -8 2 -20q-2 8 -2 22q0 6 0 -2z" />
<glyph unicode="&#xe1;" horiz-adv-x="1232" d="M7.5 484.5q-3.5 23.5 3.5 43t23.5 32.5t37.5 18q31 8 63.5 17t61.5 15q41 10 84 19.5t86 17.5q45 106 86 212t79 214q8 25 18.5 50.5t20.5 54.5q0 43 3.5 95t9.5 100t18 88t33 61q12 12 24.5 12t28.5 -2q16 -6 22.5 -14.5t10.5 -24.5q12 -82 -7.5 -168t-47.5 -172 q2 -66 11 -132.5t13 -131.5q-2 8 -5 22.5t-3 6.5q8 -45 19.5 -87.5t25.5 -82.5q92 39 182 80.5t185 82.5q41 10 69.5 -5t37.5 -42.5t-3 -57.5t-51 -48q-98 -23 -193.5 -48.5t-191.5 -54.5q51 -121 125 -245q23 -37 56.5 -95.5t73.5 -117t83 -104.5t86 -60q39 -16 52 -46 t5 -58.5t-35.5 -46t-70.5 -7.5q-53 20 -95.5 57t-76 83t-62.5 97.5t-55 98.5q-59 102 -108.5 204.5t-86.5 207.5q-41 -12 -82 -25.5t-82 -28.5q-6 -2 -11 -4t-9 -4q-31 -86 -63.5 -168t-67.5 -166q-23 -55 -49.5 -108t-61.5 -101q-14 -20 -28.5 -38.5t-32.5 -34.5 q-16 -18 -24.5 -22.5t-4.5 -0.5v2q-29 -20 -58.5 -16t-48 23.5t-21.5 50t22 61.5q4 6 20 18q6 2 15 11q4 4 12 15t13 17.5t3 4t-16 -26.5q-2 -4 4 5l10 15q25 31 41 56q29 45 53.5 92t46.5 94q18 41 37 81t37 81q-49 -16 -96 -36.5t-94 -45.5q-4 -4 5 0t19 8q-12 -8 -30 -16 q-23 -4 -38.5 1t-35.5 17l-8 4q-18 23 -21.5 46.5zM39 555q-2 -2 1 0t5 4q-2 -2 -4 -2t-2 -2zM141 432l4 4q2 0 5.5 2t1.5 0t-11 -6zM270.5 1479.5q8.5 27.5 38.5 48.5q25 8 47.5 16t46.5 10q2 0 3 -2q53 29 85.5 63t53 76t32 94t19.5 116q0 6 -2 -3.5t-4 -21.5t-4 -21.5 t-2 -3.5q2 27 5 51.5t7 49.5q12 41 41 56t57.5 10t48 -30.5t13.5 -68.5q-29 -61 -57.5 -129t-63.5 -133.5t-78 -123.5t-98 -101q-20 -16 -43.5 -29t-46.5 -25q-37 -6 -62.5 9.5t-35 40t-1 52zM360 1532q8 4 15.5 7t15.5 7q-12 -6 -25.5 -11t-5.5 -3zM508 674q57 14 119 37 q-29 98 -43 194q-18 -59 -37 -116.5t-39 -114.5z" />
<glyph unicode="&#xe2;" d="M-23.5 484.5q-3.5 23.5 4 43t23.5 32.5t37 18q31 8 63.5 17t61.5 15q41 10 84 19.5t86 17.5q45 106 86 212t80 214q8 25 18 50.5t21 54.5q0 43 3 95t9 100t18.5 88t32.5 61q12 12 24.5 12t28.5 -2q16 -6 22.5 -14.5t10.5 -24.5q12 -82 -7 -168t-48 -172q2 -68 11 -133.5 t13 -132.5q-2 4 -5 21.5t-3 9.5q8 -45 19.5 -87.5t25.5 -82.5q92 39 182.5 80.5t184.5 82.5q41 10 69.5 -5t38 -42.5t-3 -57.5t-51.5 -48q-98 -23 -193.5 -48.5t-191.5 -54.5q51 -121 125 -245q23 -37 56.5 -95.5t73.5 -117t83 -104.5t86 -60q39 -16 52.5 -46t5 -58.5 t-36 -46t-70.5 -7.5q-53 20 -95 57t-76 83t-62.5 97.5t-55.5 98.5q-59 102 -108.5 204.5t-85.5 207.5q-41 -12 -82 -25.5t-82 -28.5q-6 -2 -11.5 -4t-9.5 -4q-31 -86 -63.5 -168t-67.5 -166q-23 -55 -49.5 -108t-60.5 -101q-14 -20 -28.5 -38.5t-33.5 -34.5 q-16 -18 -24.5 -22.5t-4.5 -0.5v2q-29 -20 -58.5 -16t-47.5 23.5t-21.5 50t21.5 61.5q10 10 18 16q4 4 8.5 6.5t8.5 6.5t12 15t13.5 17.5t3 4t-16.5 -26.5q-2 -4 4 5l10 15q25 31 41 56q29 45 53.5 92t47.5 94q18 41 36.5 81t36.5 81q-49 -16 -96 -36.5t-94 -45.5q-4 -4 5 0 t20 8q-12 -8 -31 -16q-23 -4 -38 1t-36 17l-8 4q-18 23 -21.5 46.5zM8 555q-2 -2 1 0t5 4q-2 -2 -4 -2t-2 -2zM111 432l4 4q2 0 5 2t1 0t-10 -6zM311 1596.5q8 27.5 39 45.5l2 3q4 2 9.5 4t9.5 4q27 12 51 25.5t47 27.5q35 20 39 23q6 6 12 10q16 14 32.5 26.5t33.5 24.5 q23 20 46 39.5t42 42.5q6 8 13 16t13 17q4 12 7.5 23t9.5 22q16 31 43.5 31.5t46.5 -27.5q12 -33 -4 -60q-8 -45 12.5 -95t67.5 -136q12 -41 -3.5 -69.5t-42 -39t-57 1t-51.5 48.5q-10 37 -19.5 78.5t-15.5 84.5q-29 -35 -62.5 -76.5t-70.5 -80.5t-74.5 -71t-70.5 -44 q-39 -8 -65.5 7.5t-37 41t-2.5 53zM477 674q57 14 119 37q-29 98 -43 194q-18 -59 -36.5 -116.5t-39.5 -114.5z" />
<glyph unicode="&#xe3;" horiz-adv-x="1239" d="M7.5 484.5q-3.5 23.5 3.5 43t23.5 32.5t37.5 18q31 8 63.5 17t61.5 15q41 10 84 19.5t86 17.5q45 106 86 212t79 214q8 25 18.5 50.5t20.5 54.5q0 43 3.5 95t9.5 100t18 88t33 61q12 12 24.5 12t28.5 -2q16 -6 22.5 -14.5t10.5 -24.5q12 -82 -7.5 -168t-47.5 -172 q2 -68 11 -133.5t13 -132.5q-2 4 -5 21.5t-3 9.5q8 -45 19.5 -87.5t25.5 -82.5q92 39 182 80.5t185 82.5q41 10 69.5 -5t37.5 -42.5t-3 -57.5t-51 -48q-98 -23 -193.5 -48.5t-191.5 -54.5q51 -121 125 -245q23 -37 56.5 -95.5t73.5 -117t83 -104.5t86 -60q39 -16 52 -46 t5 -58.5t-35.5 -46t-70.5 -7.5q-53 20 -95.5 57t-76 83t-62.5 97.5t-55 98.5q-59 102 -108.5 204.5t-86.5 207.5q-41 -12 -82 -25.5t-82 -28.5q-6 -2 -11 -4t-9 -4q-31 -86 -63.5 -168t-67.5 -166q-23 -55 -49.5 -108t-61.5 -101q-14 -20 -28.5 -38.5t-32.5 -34.5 q-16 -18 -24.5 -22.5t-4.5 -0.5v2q-29 -20 -58.5 -16t-48 23.5t-21.5 50t22 61.5q10 10 18 16q4 4 8 6.5t9 6.5q4 4 12 15t13 17.5t3 4t-16 -26.5q-2 -4 4 5l10 15q25 31 41 56q29 45 53.5 92t46.5 94q18 41 37 81t37 81q-49 -16 -96 -36.5t-94 -45.5q-4 -4 5 0t19 8 q-12 -8 -30 -16q-23 -4 -38.5 1t-35.5 17l-8 4q-18 23 -21.5 46.5zM39 555q-2 -2 1 0t5 4q-2 -2 -4 -2t-2 -2zM141 432l4 4q2 0 5.5 2t1.5 0t-11 -6zM240 1513q8 41 35.5 60.5t56.5 15.5q90 66 188 125.5t205 77.5q33 6 73 -13.5t76.5 -43t62.5 -44t32 -16.5q20 12 32.5 38 t20.5 56.5t13 60.5t12 50q23 37 54.5 45t57 -4t37.5 -42t-2 -71q-14 -29 -28.5 -60.5t-30.5 -59.5q-20 -37 -48 -67t-61 -44t-69.5 -10t-75.5 32q-10 8 -27.5 28t-37 39.5t-39 32.5t-34.5 9q-43 -12 -87 -40t-83 -56q10 6 18.5 12t4.5 2q-55 -51 -112.5 -98t-110.5 -105 q-45 -29 -84 -9t-47 73q0 8 -1 14t-1 12zM508 674q57 14 119 37q-29 98 -43 194q-18 -59 -37 -116.5t-39 -114.5z" />
<glyph unicode="&#xe4;" horiz-adv-x="1232" d="M7.5 484.5q-3.5 23.5 3.5 43t23.5 32.5t37.5 18q31 8 63.5 17t61.5 15q41 10 84 19.5t86 17.5q45 106 86 212t79 214q8 25 18.5 50.5t20.5 54.5q0 43 3.5 95t9.5 100t18 88t33 61q12 12 24.5 12t28.5 -2q16 -6 22.5 -14.5t10.5 -24.5q12 -82 -7.5 -168t-47.5 -172 q2 -68 11 -133.5t13 -132.5q-2 4 -5 21.5t-3 9.5q8 -45 19.5 -87.5t25.5 -82.5q92 39 182 80.5t185 82.5q41 10 69.5 -5t37.5 -42.5t-3 -57.5t-51 -48q-98 -23 -193.5 -48.5t-191.5 -54.5q51 -121 125 -245q23 -37 56.5 -95.5t73.5 -117t83 -104.5t86 -60q39 -16 52 -46 t5 -58.5t-35.5 -46t-70.5 -7.5q-53 20 -95.5 57t-76 83t-62.5 97.5t-55 98.5q-59 102 -108.5 204.5t-86.5 207.5q-41 -12 -82 -25.5t-82 -28.5q-6 -2 -11 -4t-9 -4q-31 -86 -63.5 -168t-67.5 -166q-23 -55 -49.5 -108t-61.5 -101q-14 -20 -28.5 -38.5t-32.5 -34.5 q-16 -18 -24.5 -22.5t-4.5 -0.5v2q-29 -20 -58.5 -16t-48 23.5t-21.5 50t22 61.5q4 6 20 18q6 2 15 11q4 4 12 15t13 17.5t3 4t-16 -26.5q-2 -4 4 5l10 15q25 31 41 56q29 45 53.5 92t46.5 94q18 41 37 81t37 81q-49 -16 -96 -36.5t-94 -45.5q-4 -4 5 0t19 8q-12 -8 -30 -16 q-23 -4 -38.5 1t-35.5 17l-8 4q-18 23 -21.5 46.5zM39 555q-2 -2 1 0t5 4q-2 -2 -4 -2t-2 -2zM141 432l4 4q2 0 5.5 2t1.5 0t-11 -6zM409 1601.5q1 28.5 23.5 52t65.5 25.5h4q37 -10 53 -33.5t15 -50t-20.5 -49t-55.5 -28.5h-5q-43 4 -62 29.5t-18 54zM508 674q57 14 119 37 q-29 98 -43 194q-18 -59 -37 -116.5t-39 -114.5zM678 1675v4q6 37 28.5 56.5t49 20.5t50 -15.5t34.5 -52.5v-5q-2 -43 -25.5 -65.5t-52.5 -23.5t-54.5 18.5t-29.5 62.5z" />
<glyph unicode="&#xe5;" horiz-adv-x="1243" d="M7.5 484.5q-3.5 23.5 3.5 43t23.5 32.5t37.5 18q31 8 63.5 17t61.5 15q41 10 84 19.5t86 17.5q45 106 86 212t79 214q8 25 18.5 50.5t20.5 54.5q0 43 3.5 95t9.5 100t18 88t33 61q12 12 24.5 12t28.5 -2q16 -6 22.5 -14.5t10.5 -24.5q12 -82 -7.5 -168t-47.5 -172 q2 -66 11 -132.5t13 -131.5q-2 8 -5 22.5t-3 6.5q8 -45 19.5 -87.5t25.5 -82.5q92 39 182 80.5t185 82.5q41 10 69.5 -5t37.5 -42.5t-3 -57.5t-51 -48q-98 -23 -193.5 -48.5t-191.5 -54.5q51 -121 125 -245q23 -37 56.5 -95.5t73.5 -117t83 -104.5t86 -60q39 -16 52 -46 t5 -58.5t-35.5 -46t-70.5 -7.5q-53 20 -95.5 57t-76 83t-62.5 97.5t-55 98.5q-59 102 -108.5 204.5t-86.5 207.5q-41 -12 -82 -25.5t-82 -28.5q-6 -2 -11 -4t-9 -4q-31 -86 -63.5 -168t-67.5 -166q-23 -55 -49.5 -108t-61.5 -101q-14 -20 -28.5 -38.5t-32.5 -34.5 q-16 -18 -24.5 -22.5t-4.5 -0.5v2q-29 -20 -58.5 -16t-48 23.5t-21.5 50t22 61.5q10 10 18 16q4 4 8 6.5t9 6.5q4 4 12 15t13 17.5t3 4t-16 -26.5q-2 -4 4 5l10 15q25 31 41 56q29 45 53.5 92t46.5 94q18 41 37 81t37 81q-49 -16 -96 -36.5t-94 -45.5q-4 -4 5 0t19 8 q-12 -8 -30 -16q-23 -4 -38.5 1t-35.5 17l-8 4q-18 23 -21.5 46.5zM39 555q-2 -2 1 0t5 4q-2 -2 -4 -2t-2 -2zM141 432l4 4q2 0 5.5 2t1.5 0t-11 -6zM494.5 1709q5.5 50 45.5 94t107 63h17q14 16 37.5 22t54.5 -2q84 -37 121.5 -80t41 -86t-22.5 -82t-67 -64.5t-93 -35.5 t-103 6q-78 23 -111 69t-27.5 96zM508 674q57 14 119 37q-29 98 -43 194q-18 -59 -37 -116.5t-39 -114.5zM616.5 1673.5q-0.5 -14.5 12 -26t35 -18.5t47.5 -5q18 2 38.5 13.5t32.5 25.5q16 16 17.5 27.5t-7 19.5t-22.5 12t-31 7q-16 -25 -43.5 -34t-58.5 7 q-20 -14 -20.5 -28.5z" />
<glyph unicode="&#xe6;" horiz-adv-x="1898" d="M-23.5 484.5q-3.5 23.5 4 43t23.5 32.5t37 18q31 8 63.5 17t61.5 15q41 10 84 19.5t86 17.5q45 106 86 212t80 214q8 25 18 50.5t21 54.5q0 43 3 95t9 100t18.5 88t32.5 61q12 12 24.5 12t28.5 -2q16 -6 22.5 -14.5t10.5 -24.5q12 -82 -7 -168t-48 -172q2 -68 11 -133.5 t13 -132.5q-2 4 -5 21.5t-3 9.5q10 -47 20.5 -91.5t26.5 -85.5q43 14 87 29.5t89 32.5q-12 55 -25 110.5t-24 110.5q-4 20 -17 66.5t-25.5 99.5t-18.5 102t4 74t33.5 36t48.5 7q12 0 33 -8q4 0 8 -1t8 -1l49 6q49 6 96.5 16.5t94.5 22.5q123 31 241.5 69t231.5 91 q41 14 70.5 1.5t42 -38t4 -57t-45.5 -54.5q-137 -53 -280 -88t-291 -63q-53 -10 -106.5 -15.5t-106.5 -7.5q-10 0 -16 2q10 -104 30.5 -206.5t38.5 -205.5l6 -36q98 37 184.5 71.5t151.5 63.5q41 10 70 -5.5t38 -43t-3.5 -57t-50.5 -48.5q-72 -16 -167.5 -40.5t-201.5 -53.5 q25 -129 52.5 -255t62.5 -251q2 -4 0 3t-7 18q14 -37 27.5 -70t36.5 -68q59 72 115.5 139.5t119.5 137.5q98 106 203 200.5t213 186.5q35 12 63.5 4t44 -28.5t14.5 -50.5t-26 -58q-109 -82 -215 -166t-204 -180q-72 -72 -137.5 -148t-135.5 -147q12 -20 10 -44t-16 -42.5 t-37.5 -27.5t-56.5 -1q-53 20 -95 57t-76 83t-62.5 97.5t-55.5 98.5q-57 102 -106 203.5t-86 208.5q-47 -14 -89 -28.5t-77 -25.5q-6 -2 -11.5 -4t-9.5 -4q-31 -86 -63.5 -168t-67.5 -166q-23 -55 -49.5 -108t-60.5 -101q-14 -20 -28.5 -38.5t-33.5 -34.5 q-16 -18 -24.5 -22.5t-4.5 -0.5v2q-29 -20 -58.5 -16t-47.5 23.5t-21.5 50t21.5 61.5q10 10 18 16q4 4 8.5 6.5t8.5 6.5t12 15t13.5 17.5t3 4t-16.5 -26.5q-2 -4 4 5l10 15q25 31 41 56q29 45 53.5 92t47.5 94q18 41 36.5 81t36.5 81q-49 -16 -96 -36.5t-94 -45.5q-4 -4 5 0 t20 8q-12 -8 -31 -16q-23 -4 -38 1t-36 17l-8 4q-18 23 -21.5 46.5zM10 557q2 0 4 2q-2 -2 -4 -2zM111 432l4 4q2 0 5 2t1 0t-10 -6zM477 674q29 6 57.5 15t61.5 20q-29 94 -43 196q-18 -59 -36.5 -116.5t-39.5 -114.5zM731 653q51 -120 125 -243q27 -43 66 -112t86 -132 q-23 63 -38.5 135t-27.5 140.5t-22.5 130t-18.5 106.5q-4 12 -4 22q-41 -12 -83 -23t-83 -24zM1085 244l2 -2zM1085 246q-4 8 0 4v-4zM1087 238v4v-4z" />
<glyph unicode="&#xe7;" d="M-25 287q4 39 10.5 77.5t10.5 77.5q8 53 34.5 100.5t49.5 94.5q12 27 33.5 70t46 88t49 86t43.5 65q61 82 131 160t148.5 146.5t166.5 121.5t187 86q20 6 46.5 2t51.5 -16t45.5 -30.5t30.5 -37.5q8 -16 10 -37.5t6 -44.5q0 -4 2 -6q2 -8 3 -15t3 -9q10 -35 -14 -70 q-25 -29 -53.5 -34t-51 5.5t-36 34t-6.5 53.5q-2 12 -3 25.5t-1 17.5q-29 12 -67 1t-76 -31.5t-70.5 -43t-47.5 -34.5q-51 -39 -117.5 -100.5t-134 -137t-131 -161.5t-112.5 -174.5t-76 -172.5t-20 -155q4 -53 31.5 -89t68.5 -56.5t88 -30t92 -9.5h51.5t48.5 5q25 14 58 10 q168 33 312.5 121t277.5 198q35 12 63.5 4t44 -28.5t14 -50t-25.5 -58.5q-150 -106 -300.5 -184t-328.5 -109q-2 -4 -2 -6t-2 -6q-10 -16 -29.5 -46t-42.5 -60q66 18 132.5 39.5t140.5 13.5q66 -8 89 -45t21 -86t-21.5 -99.5t-39.5 -85.5q-37 -63 -90 -102t-114.5 -54.5 t-128 -10t-130.5 29.5q-37 20 -48 51t-1 57.5t38.5 42t69.5 3.5q6 -4 21.5 -11.5t31 -13.5t28.5 -12l12 -6q53 -8 108 8t97 49t66 80t11 102q-18 8 -28.5 14.5t-21.5 6.5t-26.5 -4t-46.5 -13q-35 -10 -81 -34.5t-93 -42t-89 -18.5t-68 34q-16 23 -10.5 53.5t16.5 53.5 q8 16 17 31.5t18 31.5l-5 -4q-8 -4 1.5 9t13.5 22q0 4 4 12q-53 -2 -98 4t-87 21.5t-81 44t-82 71.5q-27 29 -43.5 71t-12.5 79z" />
<glyph unicode="&#xe8;" horiz-adv-x="1220" d="M-43 591.5q-6 26.5 8 57.5l21 -2l-17 12q29 29 82 39.5t123 24.5q-12 51 -23.5 100t-21.5 101q-4 20 -17.5 66t-25.5 99.5t-18.5 102.5t4.5 74q10 25 33.5 36t48.5 7q12 0 32 -9q4 0 8.5 -1t8.5 -1l49 7q49 6 96 16t94 22q35 10 72 19.5t72 19.5q-8 2 -16.5 4.5 t-16.5 6.5q-49 47 -104.5 96t-105.5 102.5t-92 112.5t-67 125q-10 25 -13 51t-9 51q6 37 28.5 56.5t49 20.5t50 -15.5t34.5 -53.5q0 -25 1 -49t-6 -47q-2 -4 -2 -2q10 -59 32 -102t55.5 -76t78.5 -59.5t103 -53.5q6 -2 -2.5 2t-19.5 10.5t-19 11.5t-2 3q25 -10 47 -21.5 t45 -21.5q41 -29 43 -68t-25 -63q68 23 133.5 47.5t128.5 52.5q41 14 71 2t42 -37.5t4 -57.5t-45 -54q-137 -53 -280.5 -88t-290.5 -64q-53 -10 -106.5 -15t-106.5 -7q-10 0 -17 2q10 -104 31 -207t39 -205q2 -8 2 -15t2 -16q27 6 47 15q125 39 245 88t247 82 q43 2 67.5 -20.5t27.5 -51.5t-15.5 -55.5t-61.5 -34.5q-37 0 -94 -8t-124 -20.5t-136.5 -31t-128.5 -40.5q-14 -6 -27.5 -11.5t-25.5 -11.5q25 -133 52 -264t64 -260q2 -4 0 5t-6 19q14 -39 27.5 -72.5t36.5 -68.5q59 72 115.5 139.5t119.5 136.5q98 106 202.5 200.5 t213.5 187.5q35 12 63.5 3.5t44 -29t14.5 -50t-26 -58.5q-109 -82 -215 -165.5t-205 -180.5q-78 -76 -147.5 -157.5t-147.5 -159.5q-43 -27 -79 10q-49 55 -82 147.5t-55.5 193.5t-37 197.5t-28.5 162.5q-2 8 -6 28q-20 -10 -40 -18t-38 -19q-33 -16 -43 -20 q-25 -18 -51.5 -16t-45 17t-24.5 41.5zM-41 649q2 12 10 21.5t0 -11.5q-2 -4 -2 -6t-2 -4h-6zM311 1888q0 -8 2 -20q-2 8 -2 22q0 6 0 -2zM389 150q0 -4 1 -5.5t1 -3.5q-4 13 -2 9z" />
<glyph unicode="&#xe9;" horiz-adv-x="1220" d="M-43 591.5q-6 26.5 8 57.5l21 -2l-17 12q29 29 82 39.5t123 24.5q-12 51 -23.5 100t-21.5 101q-4 20 -17.5 66t-25.5 99.5t-18.5 102.5t4.5 74q10 25 33.5 36t48.5 7q12 0 32 -9q4 0 8.5 -1t8.5 -1l49 7q49 6 96 16t94 22q123 31 241.5 69t231.5 91q41 14 71 2t42 -37.5 t4 -57.5t-45 -54q-137 -53 -280.5 -88t-290.5 -64q-53 -10 -106.5 -15t-106.5 -7q-10 0 -17 2q10 -104 31 -207t39 -205q2 -8 2 -15t2 -16q27 6 47 15q125 39 245 88t247 82q43 2 67.5 -20.5t27.5 -51.5t-15.5 -55.5t-61.5 -34.5q-37 0 -94 -8t-124 -20.5t-136.5 -31 t-128.5 -40.5q-14 -6 -27.5 -11.5t-25.5 -11.5q25 -133 52 -264t64 -260q2 -4 0 5t-6 19q14 -39 27.5 -72.5t36.5 -68.5q59 72 115.5 139.5t119.5 136.5q98 106 202.5 200.5t213.5 187.5q35 12 63.5 3.5t44 -29t14.5 -50t-26 -58.5q-109 -82 -215 -165.5t-205 -180.5 q-78 -76 -147.5 -157.5t-147.5 -159.5q-43 -27 -79 10q-49 55 -82 147.5t-55.5 193.5t-37 197.5t-28.5 162.5q-2 8 -6 28q-20 -10 -40 -18t-38 -19q-33 -16 -43 -20q-25 -18 -51.5 -16t-45 17t-24.5 41.5zM-41 649q2 12 10 21.5t0 -11.5q-2 -4 -2 -6t-2 -4h-6zM270.5 1479.5 q8.5 27.5 38.5 48.5q25 8 47.5 16t46.5 10q2 0 3 -2q53 29 85.5 63t53 76t32 94t19.5 116q0 6 -2 -3.5t-4 -21.5t-4 -21.5t-2 -3.5q2 27 5 51.5t7 49.5q12 41 41 56t57.5 10t48 -30.5t13.5 -68.5q-29 -61 -57.5 -129t-63.5 -133.5t-78 -123.5t-98 -101q-20 -16 -43.5 -29 t-46.5 -25q-37 -6 -62.5 9.5t-35 40t-1 52zM360 1532q8 4 15.5 7t15.5 7q-12 -6 -25.5 -11t-5.5 -3zM389 150q0 -4 1 -5.5t1 -3.5q-4 13 -2 9z" />
<glyph unicode="&#xea;" horiz-adv-x="1220" d="M-43 591.5q6 -26.5 24.5 -41.5t45 -17.5t51.5 16.5q10 4 43 20q18 10 37.5 18.5t40.5 18.5q4 -20 6 -28q14 -66 28.5 -162.5t37 -197.5t55 -193.5t82.5 -147.5q37 -37 79 -10q78 78 148 160t147 157q98 96 205 180.5t215 165.5q25 29 26 58.5t-14.5 50t-44 29t-63.5 -3.5 q-109 -92 -213.5 -186.5t-202.5 -201.5q-63 -70 -119.5 -137t-115.5 -139q-23 35 -36 68.5t-28 72.5q4 -10 6 -19t0 -5q-37 129 -64.5 260t-51.5 264q12 6 25 11t28 12q59 23 128.5 41t136.5 30.5t124 20.5t94 8q43 8 61.5 34.5t15.5 55.5t-27.5 51.5t-67.5 20.5 q-127 -33 -247 -82t-245 -88q-20 -8 -47 -15q-2 8 -2 15.5t-2 15.5q-18 102 -38.5 204.5t-31.5 207.5q6 -2 17 -2q53 2 106 7t107 15q147 29 290.5 64t280.5 88q37 23 45 54.5t-4 57t-42 37.5t-71 -2q-113 -53 -231.5 -91t-241.5 -69q-47 -12 -94 -22t-96 -16l-49 -7 q-4 0 -8.5 1t-8.5 1q-20 8 -32 9q-25 4 -48.5 -7.5t-33.5 -35.5q-10 -25 -4 -74t18 -102.5t25.5 -99.5t17.5 -66q10 -51 21.5 -100.5t23.5 -100.5q-70 -14 -123 -24.5t-82 -39.5l17 -12l-21 2q-14 -31 -8 -57.5zM-41 649q2 12 10 21.5t0 -11.5q-2 -4 -2 -6t-2 -4h-6z M90 1628q51 82 74.5 131t15.5 92q-18 29 -4 58q23 29 52.5 26.5t50.5 -30.5q14 -25 18 -41q12 -18 29 -35q23 -20 48 -40t52 -38q16 -12 35.5 -23.5t38.5 -25.5q6 -6 10 -8q6 -2 16.5 -7.5t30.5 -15.5q27 -14 54.5 -27.5t56.5 -23.5q4 -2 10 -4t10 -4l2 -2q35 -18 44 -45 t-3 -51.5t-41 -39t-72 -6.5q-39 12 -80.5 42t-82.5 68t-80 78t-72 75q-6 -41 -17.5 -82t-21.5 -76q-23 -37 -57.5 -47t-65 0t-47 36.5t-4.5 65.5zM389 150q-2 4 2 -9q0 2 -1 3.5t-1 5.5z" />
<glyph unicode="&#xeb;" horiz-adv-x="1220" d="M-43 591.5q-6 26.5 8 57.5l21 -2l-17 12q29 29 82 39.5t123 24.5q-12 51 -23.5 100t-21.5 101q-4 20 -17.5 66t-25.5 99.5t-18.5 102.5t4.5 74q10 25 33.5 36t48.5 7q12 0 32 -9q4 0 8.5 -1t8.5 -1l49 7q49 6 96 16t94 22q123 31 241.5 69t231.5 91q41 14 71 2t42 -37.5 t4 -57.5t-45 -54q-137 -53 -280.5 -88t-290.5 -64q-53 -10 -106.5 -15t-106.5 -7q-10 0 -17 2q10 -104 31 -207t39 -205q2 -8 2 -15t2 -16q27 6 47 15q125 39 245 88t247 82q43 2 67.5 -20.5t27.5 -51.5t-15.5 -55.5t-61.5 -34.5q-37 0 -94 -8t-124 -20.5t-136.5 -31 t-128.5 -40.5q-14 -6 -27.5 -11.5t-25.5 -11.5q25 -133 52 -264t64 -260q2 -4 0 5t-6 19q14 -39 27.5 -72.5t36.5 -68.5q59 72 115.5 139.5t119.5 136.5q98 106 202.5 200.5t213.5 187.5q35 12 63.5 3.5t44 -29t14.5 -50t-26 -58.5q-109 -82 -215 -165.5t-205 -180.5 q-78 -76 -147.5 -157.5t-147.5 -159.5q-43 -27 -79 10q-49 55 -82 147.5t-55.5 193.5t-37 197.5t-28.5 162.5q-2 8 -6 28q-20 -10 -40 -18t-38 -19q-33 -16 -43 -20q-25 -18 -51.5 -16t-45 17t-24.5 41.5zM-41 649q2 12 10 21.5t0 -11.5q-2 -4 -2 -6t-2 -4h-6zM265 1540 q1 29 23.5 52.5t65.5 25.5h4q37 -10 53.5 -33.5t15.5 -50.5t-20.5 -49.5t-56.5 -28.5h-4q-43 4 -62.5 29.5t-18.5 54.5zM389 150q0 -4 1 -5.5t1 -3.5q-4 13 -2 9zM535 1614v4q6 37 28.5 56.5t49 20.5t50 -15.5t33.5 -53.5v-4q-2 -43 -25.5 -65.5t-52 -23.5t-54 18.5 t-29.5 62.5z" />
<glyph unicode="&#xec;" horiz-adv-x="921" d="M-68.5 1320q5.5 26 28 44t58.5 18q57 -16 129 -16t150 12q6 33 25.5 51.5t43 22.5t46 -7t37.5 -38q113 25 218 57.5t185 55.5q43 2 67.5 -20.5t27.5 -51.5t-15.5 -55.5t-61.5 -34.5q-59 -4 -118.5 -9.5t-118.5 -7.5h-4q-45 -6 -87 -11t-87 -13q-10 -152 -15.5 -302.5 t4.5 -301.5q12 -166 50 -327t79 -320l126 20t128 20q37 -10 53.5 -33.5t15.5 -50t-20.5 -49t-56.5 -28.5q-78 12 -151.5 18t-147.5 -2q-16 -4 -26 -2q-25 -4 -49.5 -9t-49.5 -13q4 2 11 2q-8 0 -13 -5q-12 -4 -25.5 -9t-27.5 -11q-31 -10 -65.5 -23.5t-69.5 -19.5 q-43 4 -62.5 29.5t-18.5 54.5t23.5 52.5t65.5 25.5h2h25q35 2 69.5 4t69.5 4q10 0 18.5 1t18.5 1q-18 168 -28.5 334t-25.5 334q-12 145 -27.5 287.5t-29.5 285.5q-80 -23 -158.5 -44t-162.5 -17q-33 18 -45.5 44.5t-7 52.5zM143 1905q6 31 26.5 46t43.5 16t44.5 -12 t31.5 -44q0 -20 1 -40t-5 -38l-2 -2q8 -49 27.5 -84t50 -61.5t70.5 -48t93 -44.5q6 -2 -2 2l-17 8.5t-17.5 8.5t-2.5 2q23 -8 42.5 -16.5t41.5 -18.5q31 -18 37 -45t-7 -48.5t-41 -30.5t-62 7q-45 39 -94.5 79t-95.5 85t-84 93t-58 102q-10 20 -13.5 42t-7.5 42zM188 31 q4 0 10.5 1t10.5 1q-6 0 -11.5 -1t-9.5 -1zM276 1872q0 -12 3 -17q-2 8 -2.5 14.5t-0.5 2.5zM406 -61q8 4 4 0h-4z" />
<glyph unicode="&#xed;" horiz-adv-x="921" d="M-68.5 1320q5.5 26 28 44t58.5 18q57 -16 129 -16t150 12q6 33 25.5 51.5t43 22.5t46 -7t37.5 -38q113 25 218 57.5t185 55.5q43 2 67.5 -20.5t27.5 -51.5t-15.5 -55.5t-61.5 -34.5q-59 -4 -118.5 -9.5t-118.5 -7.5h-4q-45 -6 -87 -11t-87 -13q-10 -152 -15.5 -302.5 t4.5 -301.5q12 -166 50 -327t79 -320l126 20t128 20q37 -10 53.5 -33.5t15.5 -50t-20.5 -49t-56.5 -28.5q-78 12 -151.5 18t-147.5 -2q-16 -4 -26 -2q-25 -4 -49.5 -9t-49.5 -13q4 2 11 2q-8 0 -13 -5q-12 -4 -25.5 -9t-27.5 -11q-31 -10 -65.5 -23.5t-69.5 -19.5 q-43 4 -62.5 29.5t-18.5 54.5t23.5 52.5t65.5 25.5h2h25q35 2 69.5 4t69.5 4q10 0 18.5 1t18.5 1q-18 168 -28.5 334t-25.5 334q-12 145 -27.5 287.5t-29.5 285.5q-80 -23 -158.5 -44t-162.5 -17q-33 18 -45.5 44.5t-7 52.5zM100.5 1533.5q8.5 22.5 40.5 39.5q25 6 48.5 13 t50.5 9q6 0 -3.5 -3t-20.5 -7t-19.5 -7t-1.5 -1q72 25 114.5 52.5t69.5 63.5t39 81t22 102q0 4 -2 -3l-5 -17.5l-5 -17.5t-2 -1q2 20 6 39.5t8 40.5q12 33 42 46t59.5 8t50 -25.5t14.5 -55.5q-31 -49 -60.5 -104t-66.5 -107.5t-81 -100.5t-101 -83q-23 -14 -47 -23.5 t-47 -19.5q-39 -4 -65.5 7t-36 31.5t-1 43zM188 31q4 0 10.5 1t10.5 1q-6 0 -11.5 -1t-9.5 -1zM406 -61q8 4 4 0h-4z" />
<glyph unicode="&#xee;" horiz-adv-x="921" d="M-68.5 1320q-5.5 -26 7 -52.5t45.5 -44.5q84 -4 162.5 17.5t158.5 43.5q14 -143 29.5 -285.5t27.5 -287.5q14 -168 24.5 -334t29.5 -334q-10 0 -18.5 -1t-18.5 -1l-70 -4t-69 -4h-25h-2h-4q-41 -2 -62.5 -25.5t-22.5 -52.5t18.5 -54.5t62.5 -29.5q35 6 69.5 19.5 t65.5 23.5q14 6 27.5 11t25.5 9q4 4 13 5q-6 0 -11 -2q25 8 49.5 13t49.5 9q10 -2 26 2q74 8 147.5 2t151.5 -18q37 6 56.5 28.5t20.5 49t-15.5 50t-53.5 33.5q-66 -10 -128 -20t-126 -20q-41 160 -78.5 320.5t-50.5 326.5q-10 152 -5 302t16 302q45 8 87 13t87 11h4 q59 2 118.5 7.5t118.5 9.5q43 8 61.5 34.5t15.5 55.5t-27.5 51.5t-67.5 20.5q-80 -23 -185.5 -55.5t-217.5 -57.5q-14 27 -37 38t-46.5 7t-43 -22.5t-25.5 -51.5q-78 -12 -149.5 -12t-129.5 16q-37 0 -59 -18t-27.5 -44zM63 1593q33 88 47.5 139.5t0.5 92.5q-25 25 -17 59 q16 33 46 37t55 -23q12 -14 22 -32q10 -8 19.5 -15.5t19.5 -15.5q27 -16 55.5 -30.5t57.5 -26.5q20 -10 40.5 -17.5t41.5 -17.5q8 -4 10 -4t53 -15q27 -8 55.5 -16t59.5 -14h2q8 0 18 -2t6 -2h-2q39 -10 53.5 -35t8.5 -50.5t-33 -46t-70 -20.5q-41 4 -88 24.5t-95 49 t-94 61.5t-83 60q2 -41 0 -83t-6 -79q-16 -41 -48 -57.5t-65 -12.5t-54.5 27.5t-15.5 64.5zM188 31q4 0 10.5 1t10.5 1q-6 0 -11.5 -1t-9.5 -1zM406 -61q8 4 4 0h-4z" />
<glyph unicode="&#xef;" horiz-adv-x="921" d="M-68.5 1320q5.5 26 28 44t58.5 18q57 -16 129 -16t150 12q6 33 25.5 51.5t43 22.5t46 -7t37.5 -38q113 25 218 57.5t185 55.5q43 2 67.5 -20.5t27.5 -51.5t-15.5 -55.5t-61.5 -34.5q-59 -4 -118.5 -9.5t-118.5 -7.5h-4q-45 -6 -87 -11t-87 -13q-10 -152 -15.5 -302.5 t4.5 -301.5q12 -166 50 -327t79 -320l126 20t128 20q37 -10 53.5 -33.5t15.5 -50t-20.5 -49t-56.5 -28.5q-78 12 -151.5 18t-147.5 -2q-16 -4 -26 -2q-25 -4 -49.5 -9t-49.5 -13q4 2 11 2q-8 0 -13 -5q-12 -4 -25.5 -9t-27.5 -11q-31 -10 -65.5 -23.5t-69.5 -19.5 q-43 4 -62.5 29.5t-18.5 54.5t23.5 52.5t65.5 25.5h2h25q35 2 69.5 4t69.5 4q10 0 18.5 1t18.5 1q-18 168 -28.5 334t-25.5 334q-12 145 -27.5 287.5t-29.5 285.5q-80 -23 -158.5 -44t-162.5 -17q-33 18 -45.5 44.5t-7 52.5zM142 1663q1 29 23.5 52.5t65.5 25.5h5 q37 -10 53 -34t15 -50.5t-20.5 -49t-56.5 -28.5h-4q-43 4 -62.5 29.5t-18.5 54.5zM188 31q4 0 10.5 1t10.5 1q-6 0 -11.5 -1t-9.5 -1zM406 -61q8 4 4 0h-4zM412 1737v4q6 37 28.5 56.5t49 20.5t50 -15.5t33.5 -53.5v-4q-2 -43 -25.5 -65.5t-52 -23.5t-54 18.5t-29.5 62.5z " />
<glyph unicode="&#xf0;" horiz-adv-x="1003" d="M94 1016q8 39 28.5 72.5t48.5 63.5t59.5 57.5t62.5 54.5q-16 20 -35 38.5t-37 38.5q-10 12 -29.5 26.5t-36 28t-24.5 22.5t4 7q-16 23 -15 47.5t14 44t39 28.5t60 1q29 -10 74 -59t96 -115q37 41 77 78t87 68q41 14 71 1.5t42 -38t4 -57t-45 -54.5q-18 -4 -36.5 -12 t-37.5 -15q10 6 8 11q0 2 -9 -2t-20.5 -10.5t-20.5 -12.5t-11 -6q-12 -8 -24.5 -14t-22.5 -15q29 -39 55.5 -75.5t48.5 -71.5q29 14 55.5 6t43 -29.5t16.5 -51.5t-25 -60q59 -92 110.5 -189.5t92.5 -199.5q45 -117 63.5 -224.5t4.5 -232.5q-6 -43 -35 -81t-70 -65.5t-87 -42 t-87 -8.5q-23 4 -46 5t-46 6q-57 14 -117.5 51t-108.5 87t-79 110.5t-29 125.5q4 129 35 244t88 229q20 43 34.5 74t28 57.5t27 48t33.5 46.5l-80 98q-10 10 -17 20.5t-18 20.5q-29 -31 -55 -72q4 4 4 2q-4 -20 -19.5 -40.5t-23.5 -43.5q-2 -4 -3 -10t-5 -14q0 -10 -2 -17.5 t-6 -15.5v-2q-12 -27 -37 -38t-48.5 -6t-43 24.5t-23.5 56.5zM246 979v2q2 14 3 27.5t5 25.5q2 4 2 -1v-9t-1 -5t-1 -5q-2 -4 -3 -9.5t-3 -9.5q0 -10 -2 -14v-2zM287 1098q4 8 8 12q-4 -6 -7 -11t-1 -1zM336 356q2 -63 41 -125.5t97 -106.5t127 -62.5t132 4.5q57 20 83 63 t32 96.5t-3.5 108.5t-21.5 100q-39 131 -104.5 253t-147.5 237q-57 -59 -102 -121t-76 -129.5t-46 -145t-11 -172.5zM541 1337q4 0 6 1t6 1q-4 -2 -12 -2zM553 1339q4 2 5 2t5 2q-4 -2 -5 -2t-5 -2z" />
<glyph unicode="&#xf1;" horiz-adv-x="970" d="M6 1116q31 49 74 17q29 -35 49.5 -89.5t36.5 -117.5q51 -111 120.5 -231t149.5 -232.5t168 -208.5t178 -160q-6 55 -15 110.5t-15 110.5q-27 242 -40.5 482.5t-9.5 482.5q2 53 -2 106.5t9 104.5q49 78 127 27q18 -16 27 -35t18 -41q10 -41 -4.5 -70t-40.5 -39 q-27 -186 -34 -370.5t21 -370.5q10 -63 21.5 -126t25.5 -126q10 -43 24.5 -85t27 -85t19.5 -87t3 -89q-6 -20 -14 -31q-4 -59 -74 -78q-35 0 -67.5 17.5t-63.5 44t-58.5 54.5t-48.5 50q-102 102 -184 218t-153 241q18 -59 32.5 -119.5t22.5 -120.5q6 -41 7 -102.5 t-13.5 -114.5t-50 -84t-103.5 -8q-31 16 -43 40t-10 47.5t17.5 43t41.5 25.5q12 90 3 177t-27.5 173t-42 171t-39.5 173q-4 29 -8.5 63.5t-8.5 69.5q-27 53 -44 103.5t-9 68.5zM15.5 1378q0.5 21 2.5 39q10 66 41 119t82 86q25 14 67 16t89 -1t95 -5t86 7.5t58.5 34 t14.5 75.5q-4 37 -16.5 74t-22.5 71q-2 37 16.5 51.5t44 8.5t50 -29.5t34.5 -62.5q2 -29 8.5 -68t8.5 -77t-6.5 -71.5t-32.5 -50.5q-16 -12 -32.5 -26.5t-39.5 -16.5q-43 -4 -90 0t-95 7.5t-92 -2t-77 -25.5q-25 -16 -42 -56t-22 -81h5q8 -4 4 -11.5t-2 -17.5 q-2 -8 -1 -16.5t3 -18.5q10 -8 15 -19.5t9 -21.5q4 -31 0 -46t-22 -30l-4 -2q-43 -4 -76 23t-39 61q-12 16 -14 41q-8 20 -7.5 41zM35 1305v2v-2zM43 1286q0 -2 1 -2t1 -2q0 -4 0 -1t-2 5zM170 93.5q2 -9.5 6 -3.5q2 4 3 11.5t3 7.5q-14 -6 -12 -15.5zM852 1446h2v8 q0 -2 -1 -4t-1 -4z" />
<glyph unicode="&#xf2;" horiz-adv-x="1191" d="M-31 569q8 84 37 162t64 152q39 78 88 160t112 139q14 12 29.5 23.5t32.5 21.5q4 25 23.5 43t54.5 22q31 16 59.5 9t44.5 -29q82 -20 156.5 -50t146.5 -77q43 -29 97.5 -72t106.5 -97t99 -115.5t76 -127t34 -132t-26 -128.5q-53 -106 -134 -189t-182.5 -137.5t-219 -79 t-244.5 -14.5q-123 8 -212 52.5t-146.5 113t-81 158.5t-15.5 192zM82 502q-6 -129 45 -208t136 -117t191.5 -39t213 27t200 80t152.5 120q74 84 83 171t-25 167.5t-103.5 152.5t-156.5 129t-180 94t-175 49q-25 -16 -49.5 -30.5t-46.5 -36.5q-53 -53 -102.5 -118.5 t-89.5 -138.5t-65.5 -149.5t-27.5 -152.5zM285 1829q6 37 28.5 56.5t49 20.5t50 -15.5t33.5 -53.5q0 -25 1.5 -49.5t-5.5 -46.5q-2 -4 -2 -2q10 -59 32 -102.5t55.5 -76t78.5 -59t103 -53.5q6 -2 -2.5 2t-19.5 10t-19.5 11.5t-1.5 3.5q25 -10 47 -21.5t45 -21.5 q35 -25 41 -57t-8.5 -57.5t-45 -35.5t-69.5 8q-49 47 -104.5 96.5t-105.5 102.5t-92 112.5t-67 124.5q-10 25 -13 51.5t-9 51.5zM434 1786q0 -8 2 -21q-2 9 -2 23q0 6 0 -2z" />
<glyph unicode="&#xf3;" horiz-adv-x="1191" d="M-31 569q8 84 37 162t64 152q39 78 88 160t112 139q14 12 29.5 23.5t32.5 21.5q4 25 23.5 43t54.5 22q31 16 59.5 9t44.5 -29q82 -20 156.5 -50t146.5 -77q43 -29 97.5 -72t106.5 -97t99 -115.5t76 -127t34 -132t-26 -128.5q-53 -106 -134 -189t-182.5 -137.5t-219 -79 t-244.5 -14.5q-123 8 -212 52.5t-146.5 113t-81 158.5t-15.5 192zM82 502q-6 -129 45 -208t136 -117t191.5 -39t213 27t200 80t152.5 120q74 84 83 171t-25 167.5t-103.5 152.5t-156.5 129t-180 94t-175 49q-25 -16 -49.5 -30.5t-46.5 -36.5q-53 -53 -102.5 -118.5 t-89.5 -138.5t-65.5 -149.5t-27.5 -152.5zM168 1397.5q8 27.5 39 48.5q25 8 47 16t47 11q2 0 2 -3q53 29 86 63t53.5 76t31.5 94t20 116q0 6 -2.5 -3.5t-4.5 -21.5t-4 -21.5t-2 -3.5q2 27 5 51.5t8 49.5q12 41 40.5 56.5t57.5 10t48 -31t13 -68.5q-29 -61 -57.5 -129 t-63 -133.5t-77.5 -123.5t-99 -101q-20 -16 -43.5 -29t-46.5 -25q-37 -6 -62.5 9.5t-34.5 40t-1 52zM258 1450q8 4 15.5 7t15.5 7q-12 -6 -25.5 -11t-5.5 -3z" />
<glyph unicode="&#xf4;" horiz-adv-x="1191" d="M-31 569q8 84 37 162t64 152q39 78 88 160t112 139q14 12 29.5 23.5t32.5 21.5q4 25 23.5 43t54.5 22q31 16 59.5 9t44.5 -29q82 -20 156.5 -50t146.5 -77q43 -29 97.5 -72t106.5 -97t99 -115.5t76 -127t34 -132t-26 -128.5q-53 -106 -134 -189t-182.5 -137.5t-219 -79 t-244.5 -14.5q-123 8 -212 52.5t-146.5 113t-81 158.5t-15.5 192zM82 502q-6 -129 45 -208t136 -117t191.5 -39t213 27t200 80t152.5 120q74 84 83 171t-25 167.5t-103.5 152.5t-156.5 129t-180 94t-175 49q-25 -16 -49.5 -30.5t-46.5 -36.5q-53 -53 -102.5 -118.5 t-89.5 -138.5t-65.5 -149.5t-27.5 -152.5zM147.5 1432.5q8.5 27.5 38.5 46.5l2 2q4 2 9.5 4t9.5 4q27 12 51.5 25.5t46.5 27.5q35 20 39 23q6 6 12 10q16 14 33 26.5t33 24.5q23 20 46.5 40t41.5 42q6 8 13 16.5t14 16.5q4 12 7 23.5t9 21.5q16 31 44 32t46 -28 q12 -33 -4 -59q-8 -45 12.5 -95.5t67.5 -136.5q12 -41 -3.5 -69.5t-42 -39t-57 1t-51.5 48.5q-10 37 -19 79t-16 85q-29 -35 -62.5 -77t-70.5 -81t-74.5 -71t-70.5 -44q-39 -8 -65.5 7.5t-37 41t-2 53z" />
<glyph unicode="&#xf5;" horiz-adv-x="1191" d="M-31 569q8 84 37 162t64 152q39 78 88 160t112 139q14 12 29.5 23.5t32.5 21.5q4 25 23.5 43t54.5 22q31 16 59.5 9t44.5 -29q82 -20 156.5 -50t146.5 -77q43 -29 97.5 -72t106.5 -97t99 -115.5t76 -127t34 -132t-26 -128.5q-53 -106 -134 -189t-182.5 -137.5t-219 -79 t-244.5 -14.5q-123 8 -212 52.5t-146.5 113t-81 158.5t-15.5 192zM82 502q-6 -129 45 -208t136 -117t191.5 -39t213 27t200 80t152.5 120q74 84 83 171t-25 167.5t-103.5 152.5t-156.5 129t-180 94t-175 49q-25 -16 -49.5 -30.5t-46.5 -36.5q-53 -53 -102.5 -118.5 t-89.5 -138.5t-65.5 -149.5t-27.5 -152.5zM144 1473.5q-3 39.5 16 68.5q4 12 9 21.5t13 21.5q10 18 25.5 32.5t30.5 24.5q55 39 115.5 52.5t117.5 -2.5q29 -8 58.5 -38t59 -67t61.5 -73.5t63.5 -57t64.5 -19.5t66 42q25 29 42 62.5t38 64.5q27 27 49 22.5t35.5 -27 t12.5 -57.5t-22 -67q-18 -23 -42.5 -53.5t-52 -57.5t-57.5 -43t-59 -10q-20 4 -41.5 5t-37.5 17q-33 27 -63 66t-59.5 75.5t-62 65.5t-71.5 39q-29 8 -70 -6t-74 -41l2 -2q2 -10 -6 -12t-14 -11q-10 -6 -23 -24q0 -12 -5 -23.5t-9 -21.5q-18 -25 -32.5 -33t-37.5 -4l-6 2 q-31 29 -34 68.5zM168 1552v2v-2zM288 1511q1 0 3 5l-2 -3q-2 -2 -1 -2zM291 1516l6 6z" />
<glyph unicode="&#xf6;" horiz-adv-x="1191" d="M-31 569q8 84 37 162t64 152q39 78 88 160t112 139q14 12 29.5 23.5t32.5 21.5q4 25 23.5 43t54.5 22q31 16 59.5 9t44.5 -29q82 -20 156.5 -50t146.5 -77q43 -29 97.5 -72t106.5 -97t99 -115.5t76 -127t34 -132t-26 -128.5q-53 -106 -134 -189t-182.5 -137.5t-219 -79 t-244.5 -14.5q-123 8 -212 52.5t-146.5 113t-81 158.5t-15.5 192zM82 502q-6 -129 45 -208t136 -117t191.5 -39t213 27t200 80t152.5 120q74 84 83 171t-25 167.5t-103.5 152.5t-156.5 129t-180 94t-175 49q-25 -16 -49.5 -30.5t-46.5 -36.5q-53 -53 -102.5 -118.5 t-89.5 -138.5t-65.5 -149.5t-27.5 -152.5zM142 1458.5q1 28.5 23.5 52t65.5 25.5h5q37 -10 53 -33.5t15 -50.5t-20.5 -49.5t-56.5 -28.5h-4q-43 4 -62.5 30t-18.5 54.5zM412 1532v4q6 37 28.5 56.5t49 20.5t50 -15.5t33.5 -53.5v-4q-2 -43 -25.5 -65.5t-52 -23.5t-54 18.5 t-29.5 62.5z" />
<glyph unicode="&#xf7;" horiz-adv-x="1183" d="M46 740.5q5 25.5 27.5 44t59.5 18.5q4 0 9 -1t3 -3q16 2 33 2h25q66 -8 109.5 -12.5t109.5 -14.5q166 -20 331 -19t330 9q37 -10 53.5 -33.5t15.5 -50.5t-20.5 -49.5t-56.5 -28.5q-137 20 -272 38.5t-277 29.5q-76 6 -169 3t-167 -22q-27 -4 -45 -8t-47 0q-33 18 -45 45 t-7 52.5zM110 796q9 1 25 3h-20q-14 -4 -5 -3zM405.5 320.5q-26.5 50.5 2.5 128.5q4 8 15 21t23.5 25.5l22.5 22.5l12 12q25 29 60.5 34t68.5 9q35 -10 51.5 -32.5t16.5 -48.5q33 4 67 -19q43 -80 27 -134t-62 -82t-109.5 -31t-116 20.5t-79 74zM479 983q-2 20 0 30.5 t13 26.5q18 35 42.5 44.5t59.5 23.5q43 0 70 -23q41 10 81 -16q10 -20 20.5 -37.5t14.5 -42.5q12 -61 -23.5 -90t-89 -28t-108.5 30t-80 82zM498 354q6 -16 17 -23t28 -12q29 -8 50 8.5t36 32.5l-8 9q-12 20 -13 43h-6q-8 2 -16 1t-12.5 -1t0 2t22.5 6q-2 0 -6 -1t-6 -1 q-14 0 -33 -6q-16 -4 -40 -19.5t-13 -38.5zM586 995q2 -2 4 -2z" />
<glyph unicode="&#xf8;" horiz-adv-x="1191" d="M-31 569q8 84 37 162t64 152q39 78 88 159.5t112 139.5q14 12 29.5 23.5t32.5 21.5q4 25 23.5 43t54.5 22q31 16 59.5 9t44.5 -29q82 -20 156.5 -50t146.5 -77q4 -2 5 -4t5 -4q27 39 52.5 77.5t52.5 77.5q29 25 58.5 26t50 -14.5t28.5 -44t-4 -63.5q-33 -35 -64.5 -70.5 t-62.5 -72.5q63 -55 125.5 -125t105.5 -146.5t57.5 -155.5t-22.5 -153q-53 -106 -134 -189t-182.5 -137.5t-219 -79t-244.5 -14.5q-29 2 -54.5 6t-50.5 11q-29 -53 -55 -97t-55 -75q-33 -18 -62.5 -15.5t-48 21t-21.5 48.5t15 62q14 10 22.5 25.5t24.5 26.5q2 2 2 -3 q10 14 19.5 28.5t19.5 31.5q-117 68 -169 184.5t-42 261.5zM82 502q-6 -117 34 -190.5t111 -114.5q41 66 79 130t79 130q90 143 181.5 284.5t185.5 282.5q-152 82 -289 104q-25 -16 -49.5 -30.5t-46.5 -36.5q-53 -53 -102.5 -118.5t-89.5 -138.5t-65.5 -149.5t-27.5 -152.5z M358 147q84 -16 179.5 -5.5t185.5 40t168 77t129 106.5q70 80 82 161.5t-16.5 158.5t-90 146.5t-141.5 126.5q-86 -102 -167 -206.5t-146 -216.5q-41 -72 -87 -177.5t-96 -210.5z" />
<glyph unicode="&#xf9;" horiz-adv-x="1079" d="M-28 33.5q-3 36.5 5.5 75t21.5 75.5t21 60q53 168 124 325.5t149 315.5q20 41 52 100t42 117q-23 16 -29 48t17 67q29 25 58.5 31.5t55 -2.5t42 -33.5t20.5 -65.5q4 -35 -8.5 -71t-26.5 -68q-39 -92 -86 -181.5t-96 -178.5t-96.5 -179t-85.5 -184q-8 -20 -21.5 -49 t-26 -61t-21.5 -63.5t-9 -56.5h31.5t37.5 2q66 4 129.5 13.5t128.5 17.5q102 14 200.5 19.5t203.5 9.5q4 0 -1 0h-13.5h-15.5h-7q27 2 60.5 3t67.5 2t65.5 7t54.5 23q-31 80 -72 156.5t-67 156.5q-78 238 -77 470t60 474q20 33 48 44t52.5 4t42 -31.5t15.5 -61.5 q-68 -217 -82 -427t47 -431q12 -47 34.5 -92t44 -91.5t39 -92.5t23.5 -95q0 -16 -3 -24.5t-13 -20.5q-53 -31 -112.5 -44t-121 -16t-123 -1t-120.5 0q-78 0 -155 -14.5t-154 -26.5q-27 -4 -71 -13.5t-91 -15.5t-90 -3t-68 21q-27 20 -30 56.5zM223 1808q6 37 28.5 56.5 t49.5 20.5t50.5 -15.5t33.5 -52.5q0 -25 1 -49.5t-5 -47.5q-2 -4 -2 -2q10 -59 31.5 -102t55.5 -76t79 -59.5t102 -53.5q6 -2 -2 2.5t-19.5 10.5t-19.5 11t-2 3q25 -10 47.5 -21.5t44.5 -21.5q35 -25 41 -56.5t-8 -57t-45 -36t-70 8.5q-49 47 -104 96t-105.5 102.5 t-92.5 112.5t-66 125q-10 25 -13.5 51t-9.5 51zM373 1765q0 -8 2 -20q-2 8 -2 22q0 6 0 -2zM459 1085q2 0 10 5l-5 -2.5z" />
<glyph unicode="&#xfa;" horiz-adv-x="1079" d="M-28 33.5q-3 36.5 5.5 75t21.5 75.5t21 60q53 168 124 325.5t149 315.5q20 41 52 100t42 117q-23 16 -29 48t17 67q29 25 58.5 31.5t55 -2.5t42 -33.5t20.5 -65.5q4 -35 -8.5 -71t-26.5 -68q-39 -92 -86 -181.5t-96 -178.5t-96.5 -179t-85.5 -184q-8 -20 -21.5 -49 t-26 -61t-21.5 -63.5t-9 -56.5h31.5t37.5 2q66 4 129.5 13.5t128.5 17.5q102 14 200.5 19.5t203.5 9.5q4 0 -1 0h-13.5h-15.5h-7q27 2 60.5 3t67.5 2t65.5 7t54.5 23q-31 80 -72 156.5t-67 156.5q-78 238 -77 470t60 474q20 33 48 44t52.5 4t42 -31.5t15.5 -61.5 q-68 -217 -82 -427t47 -431q12 -47 34.5 -92t44 -91.5t39 -92.5t23.5 -95q0 -16 -3 -24.5t-13 -20.5q-53 -31 -112.5 -44t-121 -16t-123 -1t-120.5 0q-78 0 -155 -14.5t-154 -26.5q-27 -4 -71 -13.5t-91 -15.5t-90 -3t-68 21q-27 20 -30 56.5zM352 1418.5q8 27.5 39 47.5 q25 8 47.5 16.5t46.5 10.5q2 0 2 -2q53 29 86 62.5t53.5 75.5t32 94.5t19.5 115.5q0 6 -2 -3t-4 -21.5t-4 -21.5t-2 -3q2 27 5 51.5t7 48.5q12 41 41 56.5t57.5 10.5t48 -30.5t13.5 -68.5q-29 -61 -57.5 -129t-63.5 -133.5t-78 -124t-98 -101.5q-20 -16 -43.5 -28.5 t-46.5 -24.5q-37 -6 -63 9t-35 40t-1 52.5zM442 1470q8 4 15.5 7.5t15.5 7.5q-12 -6 -25.5 -11.5t-5.5 -3.5zM459 1085q2 0 10 5l-5 -2.5z" />
<glyph unicode="&#xfb;" horiz-adv-x="1079" d="M-28 33.5q-3 36.5 5.5 75t21.5 75.5t21 60q53 168 124 325.5t149 315.5q20 41 52 100t42 117q-23 16 -29 48t17 67q29 25 58.5 31.5t55 -2.5t42 -33.5t20.5 -65.5q4 -35 -8.5 -71t-26.5 -68q-39 -92 -86 -181.5t-96 -178.5t-96.5 -179t-85.5 -184q-8 -20 -21.5 -49 t-26 -61t-21.5 -63.5t-9 -56.5h31.5t37.5 2q66 4 129.5 13.5t128.5 17.5q102 14 200.5 19.5t203.5 9.5q4 0 -1 0h-13.5h-15.5h-7q27 2 60.5 3t67.5 2t65.5 7t54.5 23q-31 80 -72 156.5t-67 156.5q-78 238 -77 470t60 474q20 33 48 44t52.5 4t42 -31.5t15.5 -61.5 q-68 -217 -82 -427t47 -431q12 -47 34.5 -92t44 -91.5t39 -92.5t23.5 -95q0 -16 -3 -24.5t-13 -20.5q-53 -31 -112.5 -44t-121 -16t-123 -1t-120.5 0q-78 0 -155 -14.5t-154 -26.5q-27 -4 -71 -13.5t-91 -15.5t-90 -3t-68 21q-27 20 -30 56.5zM313 1410q0 30 25 56l4 4 q4 2 12 11q23 18 42.5 38.5t37.5 41.5q14 16 19.5 22t9.5 10q6 6 10 13q12 18 24.5 34.5t22.5 32.5q16 27 33.5 52.5t28.5 52.5q8 14 14 39v23t4 24q8 35 33.5 44t52.5 -14q23 -27 12 -63q6 -41 42 -84t102 -109q23 -37 16.5 -68.5t-29 -49t-54.5 -16.5t-62 32 q-20 35 -42 72t-40 78q-18 -41 -39 -91.5t-44.5 -99.5t-50 -90t-55.5 -64q-35 -18 -65.5 -11t-47 28.5t-16.5 51.5zM459 1085q2 0 10 5l-5 -2.5z" />
<glyph unicode="&#xfc;" horiz-adv-x="1079" d="M-28 33.5q-3 36.5 5.5 75t21.5 75.5t21 60q53 168 124 325.5t149 315.5q20 41 52 100t42 117q-23 16 -29 48t17 67q29 25 58.5 31.5t55 -2.5t42 -33.5t20.5 -65.5q4 -35 -8.5 -71t-26.5 -68q-39 -92 -86 -181.5t-96 -178.5t-96.5 -179t-85.5 -184q-8 -20 -21.5 -49 t-26 -61t-21.5 -63.5t-9 -56.5h31.5t37.5 2q66 4 129.5 13.5t128.5 17.5q102 14 200.5 19.5t203.5 9.5q4 0 -1 0h-13.5h-15.5h-7q27 2 60.5 3t67.5 2t65.5 7t54.5 23q-31 80 -72 156.5t-67 156.5q-78 238 -77 470t60 474q20 33 48 44t52.5 4t42 -31.5t15.5 -61.5 q-68 -217 -82 -427t47 -431q12 -47 34.5 -92t44 -91.5t39 -92.5t23.5 -95q0 -16 -3 -24.5t-13 -20.5q-53 -31 -112.5 -44t-121 -16t-123 -1t-120.5 0q-78 0 -155 -14.5t-154 -26.5q-27 -4 -71 -13.5t-91 -15.5t-90 -3t-68 21q-27 20 -30 56.5zM368 1519.5q1 28.5 23.5 52 t65.5 25.5h4q37 -10 53 -33.5t15 -50t-20.5 -49t-55.5 -28.5h-4q-43 4 -62.5 29.5t-18.5 54zM459 1085q2 0 10 5l-5 -2.5zM637 1593v4q6 37 28.5 56.5t49 20.5t50 -15.5t34.5 -52.5v-4q-2 -43 -25.5 -66t-52.5 -24t-54.5 18.5t-29.5 62.5z" />
<glyph unicode="&#xfd;" horiz-adv-x="854" d="M-20.5 1179.5q0.5 32.5 18.5 54t50 27t67 -19.5q23 -23 34 -53.5t21 -61.5q6 -20 13 -39.5t10 -23.5q-2 2 -3.5 4t-3.5 4q51 -96 123 -168t164 -129q23 61 47.5 121.5t46.5 120.5q25 61 43.5 106t36 86t36.5 84t46 103q2 4 8 11t15 17q12 27 34.5 40.5t46 11.5t44 -18.5 t30.5 -49.5q0 -25 -4 -43t-22 -37l-9 -8q-6 -12 -22 -39t-32.5 -53.5t-30 -48t-15.5 -25.5q-31 -53 -55.5 -98t-48 -90t-46 -92.5t-47.5 -104.5q-57 -133 -93 -254t-52 -240.5t-13 -245.5t21 -268q-2 -43 -25.5 -65.5t-52 -23.5t-54 18.5t-30.5 62.5q-2 51 -5 101.5t-1 99.5 q10 166 51 337t101 339q-10 2 -19.5 4t-19.5 8q-98 115 -183 235.5t-184 235.5q-4 4 -6 4q-31 31 -30.5 63.5zM188.5 1418.5q8.5 27.5 38.5 47.5q25 8 47.5 16.5t47.5 10.5q2 0 2 -2q53 29 85.5 62.5t53 75.5t32 94.5t19.5 115.5q0 6 -2 -3t-4 -21.5t-4 -21.5t-2 -3 q2 27 5 51.5t7 48.5q12 41 41 56.5t57.5 10.5t48 -30.5t13.5 -68.5q-29 -61 -57.5 -129t-63.5 -133.5t-78 -124t-98 -101.5q-20 -16 -43.5 -28.5t-46.5 -24.5q-37 -6 -62.5 9t-35 40t-1 52.5zM279 1470l15 7.5l15 7.5q-12 -6 -25 -11.5t-5 -3.5zM762 1434q8 8 10 11t-8 -7 q0 -2 -2 -4z" />
<glyph unicode="&#xfe;" horiz-adv-x="868" d="M86 1487q25 37 80 39h6q29 -10 41 -23v2q0 -2 2 -4q18 -16 23 -39q41 -82 44 -193.5t-8 -221.5q57 41 125 81.5t134.5 64.5t128 19.5t108.5 -53.5q25 -25 37 -83t16 -124.5t3 -128t-1 -92.5q-2 -111 -17 -215t-71 -203q-23 -41 -76 -63.5t-117.5 -32.5t-132 -10t-120.5 6 q16 -86 33.5 -172t35.5 -174q0 -37 -18 -59.5t-44 -27.5t-52.5 7t-44.5 45q-10 104 -17.5 205.5t-11.5 206.5q-12 6 -24.5 12t-24.5 14q-23 23 -29 47.5t0 46t24.5 36t45.5 16.5q-4 86 -6 171t-4 171v61q-2 2 -3 2t-4 2q-4 4 -18 26.5t-12 43.5q4 49 41 74q4 104 -3.5 207.5 t-41.5 195.5q-8 14 -25 29q-27 51 -2 88zM143 827l4 -4zM246 594.5q6 -109.5 22 -219.5q18 -10 39 -13q27 -4 77 -11t102.5 -10t97.5 4t63 32q53 74 71.5 168t22.5 182q2 18 0 77.5t-9 123t-21.5 116t-36.5 58.5q-37 10 -88 -16.5t-106.5 -68.5t-109 -88t-91.5 -75 q-10 -27 -33 -39q-6 -111 0 -220.5zM262 936q2 -4 4 -6t4 -6v2q-2 4 -5 9t-3 3v-2z" />
<glyph unicode="&#xff;" horiz-adv-x="854" d="M-20.5 1179.5q0.5 32.5 18.5 54t50 27t67 -19.5q23 -23 34 -53.5t21 -61.5q6 -20 13 -39.5t10 -23.5q-2 2 -3.5 4t-3.5 4q51 -96 123 -168t164 -129q23 61 47.5 121.5t46.5 120.5q25 61 43.5 106t36 86t36.5 84t46 103q2 4 8 11t15 17q12 27 34.5 40.5t46 11.5t44 -18.5 t30.5 -49.5q0 -25 -4 -43t-22 -37l-9 -8q-6 -12 -22 -39t-32.5 -53.5t-30 -48t-15.5 -25.5q-31 -53 -55.5 -98t-48 -90t-46 -92.5t-47.5 -104.5q-57 -133 -93 -254t-52 -240.5t-13 -245.5t21 -268q-2 -43 -25.5 -65.5t-52 -23.5t-54 18.5t-30.5 62.5q-2 51 -5 101.5t-1 99.5 q10 166 51 337t101 339q-10 2 -19.5 4t-19.5 8q-98 115 -183 235.5t-184 235.5q-4 4 -6 4q-31 31 -30.5 63.5zM163 1458.5q1 28.5 23.5 52t65.5 25.5h4q37 -10 53.5 -33.5t15.5 -50.5t-20.5 -49.5t-56.5 -28.5h-4q-43 4 -62.5 30t-18.5 54.5zM432 1532v4q6 37 28.5 56.5 t49.5 20.5t50.5 -15.5t33.5 -53.5v-4q-2 -43 -25.5 -65.5t-52.5 -23.5t-54.5 18.5t-29.5 62.5zM762 1434q8 8 10 11t-8 -7q0 -2 -2 -4z" />
<glyph unicode="&#x152;" horiz-adv-x="2146" d="M-31 569q8 84 37 162t64 152q39 78 88 159.5t112 139.5q14 12 29.5 23.5t32.5 21.5q4 25 23.5 43t54.5 22q31 16 59.5 9t44.5 -29q82 -20 156.5 -50t146.5 -77q47 -31 106.5 -80t118.5 -111q-8 31 -20 75t-21.5 89t-12.5 85t5 63q10 25 34 36t48 7q12 0 33 -9q4 0 8 -1 t8 -1l50 7q49 6 96 16t94 22q123 31 241.5 69t231.5 91q41 14 70.5 2t42 -37.5t4.5 -57.5t-45 -54q-137 -53 -280.5 -88t-291.5 -64q-53 -10 -106 -15t-107 -7q-10 0 -16 2q10 -104 30.5 -207t39.5 -205v-4l12 -25q10 4 19.5 6.5t19.5 6.5q125 39 244.5 88t246.5 82 q43 2 67.5 -20.5t28 -51.5t-15 -55.5t-61.5 -34.5q-37 0 -94.5 -8t-124 -20.5t-136 -31t-129.5 -40.5q-8 -4 -16 -6.5t-16 -6.5q12 -61 0 -123q23 -104 45 -206.5t51 -204.5q2 -4 0 5t-6 19q14 -39 27.5 -72.5t35.5 -68.5q59 72 115.5 139.5t120.5 136.5q98 106 202.5 200.5 t213.5 187.5q35 12 63.5 3.5t43.5 -29t14 -50t-25 -58.5q-109 -82 -215.5 -165.5t-204.5 -180.5q-78 -76 -147.5 -157.5t-147.5 -159.5q-43 -27 -80 10q-35 39 -61.5 99.5t-47 129t-35 143.5t-26.5 142q-117 -176 -311.5 -266t-423.5 -72q-123 8 -212 52.5t-146.5 113 t-81 158.5t-15.5 192zM82 502q-6 -129 45 -208t136 -117t191.5 -39t213 27t200 80t152.5 120q49 59 68.5 117.5t15.5 115.5q-16 -8 -30.5 -15.5t-31.5 -13.5q-33 -16 -43 -20q-25 -18 -51 -16t-45.5 17t-26 41.5t8.5 57.5l20 -2l-14 12q27 27 73 38.5t107 21.5 q-37 78 -107.5 147.5t-154.5 123.5t-175 90t-171 48q-25 -16 -49.5 -30.5t-46.5 -36.5q-53 -53 -102.5 -118.5t-89.5 -138.5t-65.5 -149.5t-27.5 -152.5zM881 649q2 12 10 21.5t0 -11.5q-4 -8 -6 -10h-4zM1311 150q0 -4 1 -5.5t1 -3.5q-4 13 -2 9z" />
<glyph unicode="&#x153;" horiz-adv-x="2146" d="M-31 569q8 84 37 162t64 152q39 78 88 159.5t112 139.5q14 12 29.5 23.5t32.5 21.5q4 25 23.5 43t54.5 22q31 16 59.5 9t44.5 -29q82 -20 156.5 -50t146.5 -77q47 -31 106.5 -80t118.5 -111q-8 31 -20 75t-21.5 89t-12.5 85t5 63q10 25 34 36t48 7q12 0 33 -9q4 0 8 -1 t8 -1l50 7q49 6 96 16t94 22q123 31 241.5 69t231.5 91q41 14 70.5 2t42 -37.5t4.5 -57.5t-45 -54q-137 -53 -280.5 -88t-291.5 -64q-53 -10 -106 -15t-107 -7q-10 0 -16 2q10 -104 30.5 -207t39.5 -205v-4l12 -25q10 4 19.5 6.5t19.5 6.5q125 39 244.5 88t246.5 82 q43 2 67.5 -20.5t28 -51.5t-15 -55.5t-61.5 -34.5q-37 0 -94.5 -8t-124 -20.5t-136 -31t-129.5 -40.5q-8 -4 -16 -6.5t-16 -6.5q12 -61 0 -123q23 -104 45 -206.5t51 -204.5q2 -4 0 5t-6 19q14 -39 27.5 -72.5t35.5 -68.5q59 72 115.5 139.5t120.5 136.5q98 106 202.5 200.5 t213.5 187.5q35 12 63.5 3.5t43.5 -29t14 -50t-25 -58.5q-109 -82 -215.5 -165.5t-204.5 -180.5q-78 -76 -147.5 -157.5t-147.5 -159.5q-43 -27 -80 10q-35 39 -61.5 99.5t-47 129t-35 143.5t-26.5 142q-117 -176 -311.5 -266t-423.5 -72q-123 8 -212 52.5t-146.5 113 t-81 158.5t-15.5 192zM82 502q-6 -129 45 -208t136 -117t191.5 -39t213 27t200 80t152.5 120q49 59 68.5 117.5t15.5 115.5q-16 -8 -30.5 -15.5t-31.5 -13.5q-33 -16 -43 -20q-25 -18 -51 -16t-45.5 17t-26 41.5t8.5 57.5l20 -2l-14 12q27 27 73 38.5t107 21.5 q-37 78 -107.5 147.5t-154.5 123.5t-175 90t-171 48q-25 -16 -49.5 -30.5t-46.5 -36.5q-53 -53 -102.5 -118.5t-89.5 -138.5t-65.5 -149.5t-27.5 -152.5zM881 649q2 12 10 21.5t0 -11.5q-4 -8 -6 -10h-4zM1311 150q0 -4 1 -5.5t1 -3.5q-4 13 -2 9z" />
<glyph unicode="&#x178;" horiz-adv-x="854" d="M-20.5 1179.5q0.5 32.5 18.5 54t50 27t67 -19.5q23 -23 34 -53.5t21 -61.5q6 -20 13 -39.5t10 -23.5q-2 2 -3.5 4t-3.5 4q51 -96 123 -168t164 -129q23 61 47.5 121.5t46.5 120.5q25 61 43.5 106t36 86t36.5 84t46 103q2 4 8 11t15 17q12 27 34.5 40.5t46 11.5t44 -18.5 t30.5 -49.5q0 -25 -4 -43t-22 -37l-9 -8q-6 -12 -22 -39t-32.5 -53.5t-30 -48t-15.5 -25.5q-31 -53 -55.5 -98t-48 -90t-46 -92.5t-47.5 -104.5q-57 -133 -93 -254t-52 -240.5t-13 -245.5t21 -268q-2 -43 -25.5 -65.5t-52 -23.5t-54 18.5t-30.5 62.5q-2 51 -5 101.5t-1 99.5 q10 166 51 337t101 339q-10 2 -19.5 4t-19.5 8q-98 115 -183 235.5t-184 235.5q-4 4 -6 4q-31 31 -30.5 63.5zM163 1458.5q1 28.5 23.5 52t65.5 25.5h4q37 -10 53.5 -33.5t15.5 -50.5t-20.5 -49.5t-56.5 -28.5h-4q-43 4 -62.5 30t-18.5 54.5zM432 1532v4q6 37 28.5 56.5 t49.5 20.5t50.5 -15.5t33.5 -53.5v-4q-2 -43 -25.5 -65.5t-52.5 -23.5t-54.5 18.5t-29.5 62.5zM762 1434q8 8 10 11t-8 -7q0 -2 -2 -4z" />
<glyph unicode="&#x2c6;" horiz-adv-x="870" d="M106.5 1596.5q8.5 27.5 38.5 45.5l2 3q4 2 9.5 4t9.5 4q27 12 51.5 25.5t46.5 27.5q35 20 39 23q6 6 12 10q16 14 33 26.5t33 24.5q23 20 46.5 39.5t41.5 42.5q6 8 13 16t14 17q4 12 7 23t9 22q16 31 44 31.5t46 -27.5q12 -33 -4 -60q-8 -45 12.5 -95t67.5 -136 q12 -41 -3.5 -69.5t-42 -39t-57 1t-51.5 48.5q-10 37 -19 78.5t-16 84.5q-29 -35 -62.5 -76.5t-70.5 -80.5t-74.5 -71t-70.5 -44q-39 -8 -65.5 7.5t-37 41t-2 53z" />
<glyph unicode="&#x2dc;" horiz-adv-x="1341" d="M138 1216.5q-7 38.5 16 67.5q10 23 22 41q10 18 32.5 31.5t41.5 23.5q70 41 150.5 57.5t160.5 6.5q39 -4 83 -29.5t89 -58.5t92 -64.5t93.5 -49t91.5 -13.5t86 43q29 29 50 61.5t44 63.5q33 27 65.5 24.5t53 -23t22.5 -53t-24 -65.5q-23 -20 -52.5 -51t-64.5 -57.5 t-74 -45t-78 -14.5q-29 4 -58.5 4t-57.5 12q-47 25 -90.5 58t-88.5 65.5t-93 57t-101 30.5q-39 4 -96.5 -12t-98.5 -45q2 2 6 0q4 -8 -8 -11t-18 -9q-8 -4 -14.5 -11.5t-14.5 -13.5q0 -12 -5 -23.5t-9 -21.5q-23 -25 -42.5 -33t-51.5 -4h-7q-45 23 -52 61.5zM332 1266l10 10 z" />
<glyph unicode="&#x2000;" horiz-adv-x="1009" />
<glyph unicode="&#x2001;" horiz-adv-x="2019" />
<glyph unicode="&#x2002;" horiz-adv-x="1009" />
<glyph unicode="&#x2003;" horiz-adv-x="2019" />
<glyph unicode="&#x2004;" horiz-adv-x="673" />
<glyph unicode="&#x2005;" horiz-adv-x="504" />
<glyph unicode="&#x2006;" horiz-adv-x="336" />
<glyph unicode="&#x2007;" horiz-adv-x="336" />
<glyph unicode="&#x2008;" horiz-adv-x="252" />
<glyph unicode="&#x2009;" horiz-adv-x="403" />
<glyph unicode="&#x200a;" horiz-adv-x="112" />
<glyph unicode="&#x2010;" horiz-adv-x="698" d="M77 494.5q-1 25.5 13 49t49 36.5q8 -2 25 -2v4h8q12 -4 18 -9q53 -6 109.5 -15t99.5 -11q31 -2 79 8t85 18q37 -10 53.5 -33.5t15.5 -50t-20.5 -49t-56.5 -28.5q-94 23 -179 36t-173 -14q-10 -4 -19.5 -8t-19.5 -6h-4q-8 -4 -10 -4v4q-35 6 -53.5 27.5t-19.5 47z" />
<glyph unicode="&#x2011;" horiz-adv-x="698" d="M77 494.5q-1 25.5 13 49t49 36.5q8 -2 25 -2v4h8q12 -4 18 -9q53 -6 109.5 -15t99.5 -11q31 -2 79 8t85 18q37 -10 53.5 -33.5t15.5 -50t-20.5 -49t-56.5 -28.5q-94 23 -179 36t-173 -14q-10 -4 -19.5 -8t-19.5 -6h-4q-8 -4 -10 -4v4q-35 6 -53.5 27.5t-19.5 47z" />
<glyph unicode="&#x2012;" horiz-adv-x="698" d="M77 494.5q-1 25.5 13 49t49 36.5q8 -2 25 -2v4h8q12 -4 18 -9q53 -6 109.5 -15t99.5 -11q31 -2 79 8t85 18q37 -10 53.5 -33.5t15.5 -50t-20.5 -49t-56.5 -28.5q-94 23 -179 36t-173 -14q-10 -4 -19.5 -8t-19.5 -6h-4q-8 -4 -10 -4v4q-35 6 -53.5 27.5t-19.5 47z" />
<glyph unicode="&#x2013;" horiz-adv-x="1164" d="M76 494.5q-2 25.5 24 49t90 36.5q15 -2 47 -2v4h14q22 -4 34 -9q97 -6 201.5 -15t183.5 -11q57 -2 145.5 8t157.5 18q68 -10 98.5 -33.5t28.5 -50t-38 -49t-104 -28.5q-174 23 -330.5 36t-318.5 -14q-19 -4 -36.5 -8t-35.5 -6h-8q-15 -4 -18 -4v4q-65 6 -99 27.5t-36 47z " />
<glyph unicode="&#x2014;" horiz-adv-x="2188" d="M76.5 494.5q-3.5 25.5 48 49t180.5 36.5q29 -2 92 -2v4h30q44 -4 66 -9q196 -6 404.5 -15t366.5 -11q115 -2 292 8t313 18q137 -10 197.5 -33.5t57 -50t-75.5 -49t-208 -28.5q-347 23 -660.5 36t-638.5 -14q-37 -4 -72 -8t-72 -6h-15q-29 -4 -36 -4v4q-130 6 -198 27.5 t-71.5 47z" />
<glyph unicode="&#x2018;" horiz-adv-x="520" d="M92 1585h4q-2 6 -2 19q14 23 38 34t50.5 11t50 -11.5t39.5 -33.5q2 -4 3 -4.5t4 -4.5q4 -27 -11 -43l-4 -16t-10 -16l-2 -2q0 -45 15.5 -83t39 -74t53 -72t58.5 -77q4 -29 -14.5 -48t-47 -26.5t-60.5 0t-54 31.5q-8 53 -20.5 104.5t-35.5 98.5q-23 49 -47 93t-37 94 q-8 8 -8 14q-4 8 -2 12z" />
<glyph unicode="&#x2019;" horiz-adv-x="520" d="M117 1212q25 41 50.5 77t45.5 72t33.5 74t13.5 83l-2 2q-6 8 -8 16l-4 16q-12 16 -8 43q2 4 3 4t3 5q12 23 33.5 34t44 11t43 -11.5t32.5 -33.5q0 -12 -2 -19h4q2 -4 -2 -12q0 -4 -2 -7t-4 -7q-10 -49 -31.5 -93.5t-42.5 -93.5q-20 -47 -30.5 -98t-16.5 -105 q-20 -25 -47.5 -32t-52.5 0.5t-41 27t-12 47.5z" />
<glyph unicode="&#x201a;" horiz-adv-x="520" d="M-6 1212q25 41 50.5 77t46 72t33.5 74t13 83l-2 2q-6 8 -8 16l-4 16q-12 16 -8 43q2 4 3 4t3 5q12 23 33.5 34t44 11t43 -11.5t32.5 -33.5q0 -12 -2 -19h4q2 -4 -2 -12q0 -4 -2 -7t-4 -7q-10 -49 -31.5 -93.5t-41.5 -93.5q-20 -47 -30.5 -98t-17.5 -105 q-20 -25 -47.5 -32t-52 0.5t-41 27t-12.5 47.5z" />
<glyph unicode="&#x201c;" d="M475 1249.5q6 28.5 25.5 45t49.5 17.5t60 -20q14 -27 20.5 -52.5t6.5 -51t-2 -52t-2 -57.5q4 -59 21.5 -115.5t35.5 -111.5q-2 -43 -25.5 -65.5t-52 -23.5t-54.5 18.5t-30 62.5q18 102 12.5 187t-57.5 177q-4 8 4.5 -6t10.5 -22q0 -4 -4.5 1t-8.5 7q-16 33 -10 61.5z M731 1276q-4 43 15.5 68.5t48 31.5t56.5 -9t40 -56q-2 -66 -13.5 -131.5t-9.5 -130.5q4 -70 19.5 -144t32.5 -143q-2 -43 -26 -65.5t-52.5 -23.5t-54 18.5t-29.5 62.5q18 139 20 270t-45 266q0 4 1 1t2 -10t2 -15.5t1 -14.5t-2 6.5t-6 18.5z" />
<glyph unicode="&#x201d;" d="M475 1249.5q6 28.5 25.5 45t49.5 17.5t60 -20q14 -27 20.5 -52.5t6.5 -51t-2 -52t-2 -57.5q4 -59 21.5 -115.5t35.5 -111.5q-2 -43 -25.5 -65.5t-52 -23.5t-54.5 18.5t-30 62.5q18 102 12.5 187t-57.5 177q-4 8 4.5 -6t10.5 -22q0 -4 -4.5 1t-8.5 7q-16 33 -10 61.5z M731 1276q-4 43 15.5 68.5t48 31.5t56.5 -9t40 -56q-2 -66 -13.5 -131.5t-9.5 -130.5q4 -70 19.5 -144t32.5 -143q-2 -43 -26 -65.5t-52.5 -23.5t-54 18.5t-29.5 62.5q18 139 20 270t-45 266q0 4 1 1t2 -10t2 -15.5t1 -14.5t-2 6.5t-6 18.5z" />
<glyph unicode="&#x201e;" d="M475 225.5q6 28.5 25.5 45t49.5 17.5t60 -20q14 -27 20.5 -52.5t6.5 -51t-2 -52t-2 -57.5q4 -59 21.5 -115.5t35.5 -111.5q-2 -43 -25.5 -65.5t-52 -23.5t-54.5 18.5t-30 62.5q18 102 12.5 187t-57.5 177q-4 8 4.5 -6t10.5 -22q0 -4 -4.5 1t-8.5 7q-16 33 -10 61.5z M731 252q-4 43 15.5 68.5t48 31.5t56.5 -9t40 -56q-2 -66 -13.5 -131.5t-9.5 -130.5q4 -70 19.5 -144t32.5 -143q-2 -43 -26 -65.5t-52.5 -23.5t-54 18.5t-29.5 62.5q18 139 20 270t-45 266q0 4 1 1t2 -10t2 -15.5t1 -14.5t-2 6.5t-6 18.5z" />
<glyph unicode="&#x2022;" d="M438 496q-16 57 7.5 116.5t69.5 107.5t105.5 74.5t114.5 20.5q47 -6 90 -39t69 -79t29 -98t-28 -95q-43 -63 -98 -96q-33 -57 -89.5 -77t-119.5 40q-49 0 -91 32.5t-59 92.5zM600 600q35 41 83 55.5t95 -24.5q23 -10 39 -23q-4 47 -51 80q-25 16 -48.5 13t-46 -17 t-41 -37.5t-30.5 -46.5zM711 498l2 4q-2 -2 -2 -4z" />
<glyph unicode="&#x2026;" horiz-adv-x="1130" d="M111 137q4 16 5 44t11 36q14 20 26.5 27.5t34.5 7.5q10 -4 20.5 -6t16.5 -13q4 -6 6 -15t7 -19q4 4 8 -6.5t6 -6.5q2 6 -6 12.5t-4 10.5t10 -2t12 -10q6 -29 4 -47q8 -10 16.5 -19.5t18.5 -19.5q0 -37 -18.5 -59.5t-44 -28t-52 7t-45.5 45.5q2 4 3 8t4 8q-23 12 -39 45z M507 154.5q7 23.5 28.5 41t58.5 17.5q4 -6 13 -9t16 -9q4 -2 2 -6.5t0 -8.5q18 -27 29.5 -50.5t43.5 -41.5q0 -37 -18 -59.5t-44 -27.5t-52.5 7t-44.5 45q4 4 6 8q-27 18 -36 44t-2 49.5zM901 185q21 42 82 44q4 -16 8 -20t9.5 -4t10.5 -2t11 -15q2 -4 -1 -6t-3 -6 q4 -23 17.5 -28t33.5 -11q0 -37 -18.5 -59.5t-44 -27.5t-52 7.5t-45.5 44.5q-29 41 -8 83z" />
<glyph unicode="&#x202f;" horiz-adv-x="403" />
<glyph unicode="&#x2039;" horiz-adv-x="1173" d="M104 475q-4 23 21 43q66 27 145.5 72t175.5 94q133 68 265.5 132t263.5 130q41 14 70.5 2t42 -37.5t4 -57.5t-44.5 -54q-186 -66 -370.5 -133.5t-361.5 -157.5q-12 -6 -24 -12.5t-25 -10.5q76 -33 155 -80t155.5 -99t147.5 -103t130 -94q20 -31 19 -61t-17 -49t-45 -25.5 t-61 10.5q-66 59 -137.5 127.5t-149.5 131t-161 115t-167 78.5q-27 16 -31 39z" />
<glyph unicode="&#x203a;" horiz-adv-x="1060" d="M65.5 83q4.5 32 38.5 60q174 90 349.5 181.5t337.5 201.5q10 8 22 14.5t25 12.5q-80 20 -165 57t-167 79t-159 85t-140 78q-25 27 -28 57.5t10.5 52t41 30.5t62.5 -3q72 -51 152.5 -109.5t166.5 -110.5t174 -93t175 -55q29 -12 36 -35t-16 -45q-59 -35 -134 -90.5 t-163 -116.5q-123 -84 -245.5 -165t-245.5 -163q-39 -18 -70 -10t-46.5 31.5t-11 55.5z" />
<glyph unicode="&#x205f;" horiz-adv-x="504" />
<glyph unicode="&#x20ac;" horiz-adv-x="1374" d="M-65.5 499.5q6.5 28.5 34.5 53.5q61 20 125 30.5t129 20.5q16 29 33.5 59.5t36.5 59.5q-39 -8 -77 -13t-79 -10q-31 4 -47 16.5t-31 39.5q0 2 -1 3t-1 3q-4 31 4.5 50t30.5 40q8 4 15.5 8t13.5 8q35 12 60.5 5t41.5 -25q39 -4 78 -6t78 0q49 63 100 124.5t100.5 115 t92.5 98.5t78 75q20 20 60 56.5t89 75t104.5 72.5t105.5 48.5t92 1t65 -68.5q16 -35 15 -83t-1 -85q-2 -43 -25.5 -65.5t-52 -23.5t-54.5 18.5t-30 62.5q2 25 2 46v44q-72 -31 -150.5 -83t-157.5 -118t-154.5 -141.5t-143.5 -155.5q6 0 18 4q137 33 266.5 77t268.5 67 q43 2 67.5 -20.5t27.5 -51.5t-15.5 -55.5t-61.5 -34.5q-86 2 -168.5 -5.5t-164.5 -21.5t-162 -31.5t-162 -33.5q-25 -33 -46.5 -65t-41.5 -62q16 4 32.5 6t33.5 6q88 20 167.5 40.5t157.5 39t159 33t171 22.5q37 -10 53 -33.5t15 -50.5t-20 -49.5t-56 -28.5q-125 12 -249 9 t-247 -33q-74 -16 -146.5 -43t-144.5 -56q-2 -4 -2 -6t-2 -6q-37 -90 -34 -176t42 -153.5t112 -106.5t177 -35q113 4 215.5 57.5t192.5 112.5q88 59 164.5 127t150.5 139q33 27 65.5 25t53 -22.5t22.5 -53.5t-24 -65q-119 -102 -246 -193.5t-272 -157.5q-84 -37 -171 -58.5 t-172 -17t-164 39t-147 108.5q-27 29 -49 68t-33 77q-8 39 -6 78t0 78q0 43 17 102q-31 -8 -58.5 -16t-56.5 -24q-37 -6 -62.5 7t-38 35.5t-6 51z" />
<glyph unicode="&#x2122;" d="M-311 1083q0 16 10 29.5t20 24.5l5 4v-2q29 31 61.5 33t54.5 -19q35 8 74 18.5t82 20.5q0 2 1 2t1 -2h2q6 41 46 58.5t87 -15.5v-2q111 35 217.5 68.5t222.5 50.5q37 -10 53.5 -34t15.5 -50.5t-20.5 -49t-56.5 -28.5q-123 10 -220 -4.5t-187 -42.5q2 -47 -6.5 -97.5 t-6.5 -97.5q4 -98 33 -191t58 -188q0 -37 -18.5 -59.5t-44.5 -27.5t-52.5 7.5t-44.5 45.5q0 43 1 79.5t0 72.5t-3 75t-6 90q-4 59 -22.5 117.5t-35.5 117.5q-53 -23 -107.5 -48t-115.5 -54q-51 -10 -80 18.5t-18 79.5zM463 529.5q-8 31.5 14 68.5q29 31 47.5 73t30.5 87 t22.5 90t22.5 84q4 25 8 51.5t12.5 51t21.5 42t38 23.5q20 2 37 -10q23 -20 38 -47t29 -56q27 -45 56.5 -103.5t64.5 -115.5q4 12 8 29q0 2 5 10q0 -4 -1.5 -7t-1.5 -7q14 53 31 120.5t30 139t19 141.5t2 129q-8 31 -10 54.5t2 33.5q16 29 41 28t43 -26q18 -51 25 -119 q6 -23 9 -37t15 -49q2 -4 0 1t-4 13.5t-4 13.5t0 1q25 -66 47.5 -141.5t40.5 -139.5q12 -41 19.5 -62.5t12.5 -39.5t12 -39.5t22 -64.5q2 -6 -1 3t-6.5 21t-6.5 21.5t-1 3.5q35 -98 71 -192.5t77 -190.5q12 -41 -3.5 -70t-42 -39t-57 1t-51.5 48q-49 158 -87 315.5 t-75 317.5q-8 -61 -16 -116.5t-14 -102.5q-4 -31 -11.5 -79t-23.5 -89q6 -29 -6.5 -52.5t-34 -34.5t-49 -7t-53.5 31q-10 14 -28 45.5t-34 67.5t-28.5 69t-12.5 49v2q-2 4 -4 7t-2 5q-18 41 -34.5 82t-35.5 82q0 -16 -1 -30.5t-3 -26.5q-6 -45 -10 -96.5t-12 -102.5 t-22.5 -100t-39.5 -90q-29 -33 -60.5 -36t-55 14.5t-31.5 49zM592 895q2 4 3 11t3 14q-4 -10 -6 -20.5t0 -4.5zM776 770q2 -4 4 -12.5t6 -12.5q10 -10 4 1.5t-14 23.5zM918 807v4v-4z" />
<glyph unicode="&#xe000;" horiz-adv-x="1310" d="M0 0v1311h1311v-1311h-1311z" />
</font>
</defs>
</svg>
