<?xml version="1.0" standalone="no"?>
<!DOCTYPE svg PUBLIC "-//W3C//DTD SVG 1.1//EN" "http://www.w3.org/Graphics/SVG/1.1/DTD/svg11.dtd" >
<svg xmlns="http://www.w3.org/2000/svg">
<metadata></metadata>
<defs>
<font id="ToBeContinuedRegular" horiz-adv-x="921" >
<font-face units-per-em="2048" ascent="1638" descent="-410" />
<missing-glyph horiz-adv-x="500" />
<glyph horiz-adv-x="0" />
<glyph horiz-adv-x="2048" />
<glyph unicode="&#xd;" />
<glyph unicode=" " />
<glyph unicode="!" horiz-adv-x="573" d="M0 1372q133 125 227 125q59 0 109 -49q43 -45 59 -107q12 -49 16.5 -159.5t18.5 -165.5q20 -74 59 -223q29 -113 29 -211q0 -57 -10 -105q-8 -37 -100 -61q-123 -33 -162 -58q-125 133 -140 318q-2 115 -10 344q-8 207 -96 352zM262 106q0 76 78 121q63 37 145 37 q47 0 88 -14q-57 -68 -139 -100q-51 -20 -172 -44z" />
<glyph unicode="'" horiz-adv-x="538" d="M2 1520q156 141 250 141q43 0 80 -23q184 -112 188 -407q0 -51 10.5 -159.5t10.5 -164.5q0 -123 -109 -155q-55 -18 -213 -15q0 342 -16 437q-39 219 -201 346z" />
<glyph unicode="*" horiz-adv-x="1302" d="M6 1178q150 117 354 116q10 78 11 140q0 100 -35 239q12 2 117 43q63 25 108 25q47 0 82 -21q57 -33 82 -151q29 -143 53 -180q8 -12 37 -13q45 0 213 54q189 59 275 77q6 -18 6 -34q0 -74 -152 -140q-207 -90 -256 -133q100 -137 139 -182q80 -94 168 -154 q-88 -125 -192 -125q-82 0 -185 88q-43 37 -153 162q-23 -59 -70 -176q-51 -123 -155 -168q-84 -37 -234 -29q-6 106 53 248q74 174 88 242q-80 23 -163 27q51 -2 -166 -3q-8 23 -25 48z" />
<glyph unicode="+" horiz-adv-x="1343" d="M0 817q100 92 371 141q6 18 6 39q0 47 -43 111q-74 109 -74 111q170 98 254 98q31 0 51 -4q94 -18 135 -150q10 -35 60 -233q225 37 383 37q180 -1 200 -56q-401 -94 -565 -94q45 -170 68 -278q31 -156 39 -287q-217 -92 -269 -92q-49 0 -51 45q-20 289 -188 512 q-139 61 -273 61q-43 0 -79 -8q-8 23 -25 47z" />
<glyph unicode="," horiz-adv-x="538" d="M0 0q156 141 250 141q43 0 80 -22q184 -115 188 -408q0 -51 10.5 -159.5t10.5 -163.5q0 -123 -109 -156q-53 -18 -213 -16q0 342 -16 436q-39 219 -201 348z" />
<glyph unicode="." horiz-adv-x="311" d="M0 0q105 104 287 96q10 -23 24 -71q-154 -35 -211 -35q-47 0 -100 10z" />
<glyph unicode="0" horiz-adv-x="1392" d="M0 539q8 324 152 553q162 262 460 319q66 12 133 12q250 0 445 -137q219 -153 201 -395q-27 -332 -158 -553q-160 -268 -455 -320q-106 -18 -213 -18q-264 0 -413 135q-158 143 -152 404zM348 504q0 -324 264 -373q382 227 478 719q8 43 8 72q0 109 -60 229 q-70 145 -166 147q-215 6 -380 -297q-143 -262 -144 -497z" />
<glyph unicode="1" horiz-adv-x="1325" d="M0 915q45 55 141 138q104 88 144 133q74 84 118 198q62 50 271 134q12 -78 12 -154q0 -88 -25.5 -261t-25.5 -261q0 -147 76 -414q72 4 225 51q147 45 223 45q100 0 166 -65q-82 -61 -291 -80q-195 -16 -293 -53q-104 -37 -254 -146q-125 -92 -178 -119 q-104 -53 -237 -61q98 137 362 289q-68 215 -67 504q0 150 18 315q-82 -70 -180 -117q-72 -35 -205 -76z" />
<glyph unicode="2" horiz-adv-x="1536" d="M0 934q176 264 437 411.5t573 147.5q49 0 116 -6q141 -12 142 -213q0 -141 -70 -244q-84 -123 -258 -321q-162 -185 -248 -330q614 74 819 74q10 -29 25 -97q-365 0 -442 -6q-215 -16 -426 -92q-80 -29 -265 -162q-154 -111 -253 -110q-41 0 -84 14q92 119 315 348 q217 221 313 352q162 217 240 451q8 25 8 47q0 66 -45 113t-109 47q-119 0 -317 -168q-94 -80 -211 -174q-125 -82 -260 -82z" />
<glyph unicode="3" horiz-adv-x="1595" d="M0 1096q205 207 440 315q182 84 525 168q236 57 303 57q137 0 153 -106q4 -27 4 -45q0 -98 -94 -217q-124 -158 -151 -219q131 0 266 -93q150 -100 149 -225q0 -51 -28 -92q-115 -166 -271 -287q-37 -29 -331 -219q-227 -145 -267 -168q-152 -82 -272 -82q-90 0 -168 45 q-137 80 -137 238q0 227 338 305q6 -31 6 -68q0 -35 -10.5 -104.5t-10.5 -103.5q0 -145 103 -146q78 0 223 109q219 164 272 213q129 119 211 268q16 31 17 68q0 90 -86 161q-61 49 -125 50q-27 0 -53 -9q-84 -27 -226 -100q-154 -80 -221 -107q-119 -45 -246 -45 q27 74 101 123q47 31 154.5 74t154.5 74q170 113 254 231q96 137 106 324q-53 14 -106 14q-143 0 -295 -108q-90 -68 -270 -203q-154 -111 -291 -111q-59 0 -121 21z" />
<glyph unicode="4" horiz-adv-x="1548" d="M0 473q29 49 178 279q102 158 152 270q57 133 86 299l43 248q196 49 311 49q12 -61 12 -123q0 -170 -96 -367q-55 -113 -186 -366q135 35 295 49q213 18 278 29l60 682q193 25 313 24q20 -84 20 -207q0 -219 -57 -499q12 -20 76 -62q55 -37 63 -69l-151 -7 q0 -176 39 -337q23 -94 100 -326q-172 -88 -260 -88q-49 0 -84 22q-74 47 -96 306q-12 137 -13 471q-190 -8 -563 -154q-346 -135 -520 -123z" />
<glyph unicode="5" horiz-adv-x="1515" d="M0 61q129 147 135 154q88 90 166 111l-12 -164q53 -14 106 -15q203 0 348 181q131 162 148 374q8 96 -53 97q-45 0 -176 -66q-190 -96 -250 -119q-129 -49 -234 -49q-23 0 -43 2q-10 70 -12 176q-2 88 -2 402q0 244 -15 313q23 41 109 41q47 0 117 -12q117 -20 123 -21 q123 0 380 125t377 125q231 0 301 -450q-1 -37 3 -103q-180 0 -536.5 61.5t-537.5 61.5q-4 -41 -4 -80q0 -61 13.5 -181t13.5 -181q80 8 252 43q154 31 244 31q70 0 135 -15q111 -25 110 -153q0 -168 -127 -324q-152 -186 -350 -297q-217 -123 -440 -123q-150 0 -289 55z " />
<glyph unicode="6" horiz-adv-x="1239" d="M0 422q0 135 66 321q109 309 217 459q158 217 364 217q41 0 84 -8q-20 -106 -141 -264q-127 -168 -154 -260q78 0 230.5 12t230.5 12q342 0 342 -260q0 -244 -344 -489q-231 -166 -465 -166q-188 0 -309 118.5t-121 307.5zM338 510q0 -129 49 -231q57 -125 166 -154 q141 98 272 319q53 88 54 199q0 172 -131 172q-29 0 -88.5 4t-88.5 4q-121 0 -170 -73q-66 -98 -63 -240z" />
<glyph unicode="7" horiz-adv-x="1464" d="M0 1161q0 270 561 271q188 0 418 -46q137 -20 276 -38q209 -43 209 -123q0 -137 -223 -422l-47 -111q101 1 195 -24l-13 -82q-63 0 -162 -27q-111 -29 -157 -33q-61 -119 -211 -489q-47 -41 -152 -41q-23 2 -168 12q29 119 88 246q0 2 119 231q-61 2 -172 -18 q-117 -23 -172 -23q-51 0 -98 13q150 106 514 145q127 289 336 590q-137 63 -344 78q-119 6 -359 22q-84 6 -84 -69q0 -53 40 -193.5t34 -214.5q-33 -2 -105.5 -32.5t-103.5 -30.5q-29 0 -51 16q-72 55 -123 178q-45 115 -45 215z" />
<glyph unicode="8" horiz-adv-x="1404" d="M0 328q0 229 309 516q-125 92 -153 121q-63 66 -64 149q0 23 6 55q25 133 139.5 248t249.5 142q51 10 111 10q250 0 436 -142q111 63 213 64q115 0 158 -80q-78 -152 -264 -289q-266 -197 -330 -260q57 -37 221 -117q145 -70 201 -114q88 -72 88 -162q0 -31 -10 -66 q-55 -184 -215 -288q-150 -96 -351 -101q-45 -2 -157 -8q-98 -8 -156 -8q-264 0 -377 158q-55 78 -55 172zM328 356q-8 -111 104 -176q94 -51 213 -51q121 0 229 70q121 78 121 192q0 31 -14 66q-45 111 -164 178q-72 41 -254 98q-74 -88 -147 -174q-82 -113 -88 -203z M438 1217q0 -57 23 -117q41 -109 121 -113q168 49 168 234q0 72 -33 127q-41 65 -123 65q-106 0 -141 -108q-14 -43 -15 -88z" />
<glyph unicode="9" horiz-adv-x="1400" d="M0 1053q0 47 4 80q23 184 199 294q156 98 352 99q154 0 274 -64q8 10 17.5 47t23.5 47q131 10 222 11q90 0 139 -11q-16 -84 -90 -284q-57 -156 -58 -268q0 -41 7 -84q35 -242 143 -484q150 -332 168 -395q-29 -6 -123 -35q-74 -23 -113 -22q-39 0 -63 16 q-55 100 -156 324q-117 262 -170 424q-135 -106 -336 -107q-195 0 -317.5 109.5t-122.5 302.5zM238 1004q0 -209 133 -220q172 -14 293 193q96 165 112 360q-43 4 -155 33q-96 25 -156 21q-109 -6 -174 -150q-53 -115 -53 -237z" />
<glyph unicode="?" horiz-adv-x="1212" d="M0 1278q0 82 193 197q280 167 585 167q244 0 389 -167q45 -51 45 -121q0 -133 -188 -334q-51 -55 -166 -129q-123 -82 -170 -125q-72 -68 -72 -141q0 -82 86 -189q8 -12 9 -28q0 -74 -133 -140q-63 -33 -103 -32q-27 0 -72 73q-31 49 -61 99q-74 92 -74 145q0 10 4 27 q39 147 185 245q90 55 272 170q154 102 199 240q8 25 8 51q0 119 -143 199q-92 51 -181 51q-80 0 -168 -51q-100 -59 -100 -135q0 -80 129 -172q119 -84 145 -109q-53 -55 -142 -100t-169 -56q-72 23 -168 146q-39 49 -131 188q-8 12 -8 31zM469 35q51 152 309 168 q-51 -170 -262 -170q-23 0 -47 2z" />
<glyph unicode="A" horiz-adv-x="1048" d="M-51 -82q0 205 51 418q35 137 102 414q43 186 43 333q0 100 -20 228l184 84q203 90 336 133q0 -246 55 -445q49 -172 174 -411q87 28 111 28h2q33 0 60 -16q-16 -31 -53.5 -51.5t-71.5 -38.5q-10 -6 -17 -10q49 -76 101 -238q53 -170 94 -240q-141 -98 -301 -106 q-14 68 -97 213q-74 131 -81 217q-86 -14 -187 -65l-149 -76q-27 -41 -31 -121q0 -16 1 -36q0 -58 -5 -144q-45 -49 -135 -64q-41 -6 -166 -6zM332 436q75 31 235 119q-92 238 -141 424q0 -98 -43 -272q-45 -186 -51 -271z" />
<glyph unicode="B" horiz-adv-x="1118" d="M-51 1176q0 68 12 118q43 35 132 102.5t134 67.5q14 0 23 -4q115 -55 350 -92q215 -33 328 -108q76 -51 76 -144q0 -100 -86 -229q-72 -106 -166 -189q96 8 145 9q235 -1 262 -138q10 -53 10 -98q0 -121 -141 -289q-111 -131 -244 -225q-176 -125 -313 -125 q-123 0 -190 105q-121 184 -175 372q-18 66 -86 408q-14 74 -45 221q-26 132 -26 231v7zM309 1241q0 -104 36 -307t36 -307q63 66 190 194q102 106 103 207q0 37 -10 72q-27 92 -140 112q-6 2 -215 29zM451 479q8 -43 24 -141q37 29 94 29q23 0 47 -5q0 -174 70 -282 q18 47 94 162q61 92 62 151q-1 35 -13 64q-27 65 -106 65h-2q-41 0 -133 -21.5t-137 -21.5z" />
<glyph unicode="C" horiz-adv-x="1044" d="M-43 442q106 342 315 611q255 327 533 327h2q4 -43 4 -88q0 -49 -18 -266q-5 -62 -5 -117q0 -86 13 -153q-135 -61 -236 -62q-117 0 -116 97q-98 -98 -123 -138q-38 -61 -38 -141q0 -14 1 -29q12 -150 157 -237q123 -74 285 -74q2 129 17 383q192 95 324 95q10 0 20 -1 q-29 -225 -29 -342q0 -147 33 -307q-55 -2 -105 -2q-186 0 -323 43q-92 29 -273 82q-121 33 -295 88q-151 68 -151 175q0 30 8 56z" />
<glyph unicode="D" horiz-adv-x="1056" d="M-51 1178q0 59 37 100q86 98 264 98q78 0 293 -35q223 -37 368 -124q197 -119 197 -310q0 -59 -18 -122t-127 -339q-78 -199 -89 -301q-70 -94 -290 -145l18 162q-29 -16 -57 -17q-117 0 -264 267q-59 106 -226 487q-2 6 -67 141q-39 82 -39 138zM334 1120 q41 -205 137 -370q61 -106 236 -326q31 86 59 172q35 106 35 174q0 106 -63 185t-167 108q-80 18 -237 57z" />
<glyph unicode="E" horiz-adv-x="1083" d="M-51 516q0 317 65 582q78 311 203 362q63 27 154 27q115 0 358 -70q279 -80 406 -96q0 -147 -215 -147q-125 0 -330 53q-78 20 -246 24q-18 -102 -57 -350q104 -4 325 -49q211 -43 326 -43q14 -31 35 -98q-123 -70 -309 -70q-147 0 -383 47q-35 -59 -35 -143 q0 -150 98 -334q150 6 281 72q25 12 209 129q119 76 219 96q25 -41 24 -68q0 -55 -157 -129l-545 -256q-119 -57 -189 -57q-141 0 -200 184q-37 115 -37 334z" />
<glyph unicode="F" horiz-adv-x="1081" d="M-51 1184q295 153 650 153h5q350 0 529 -147q-150 -55 -254 -55q-57 0 -149.5 33.5t-135.5 33.5q-23 0 -59 -8q-100 -23 -101 -160q0 -27 6 -104q3 -44 3 -76q0 -16 -1 -29q-4 -53 -22 -94q91 -26 181 -26h7q86 0 260 30.5t265 30.5v-137q-61 6 -123 6q-100 0 -301 -24.5 t-301 -24.5q0 -117 4 -305l2 -183q0 -70 -105 -78q-164 -12 -186 -20q-43 158 -51 391q-12 352 -17 389q-25 221 -106 404z" />
<glyph unicode="G" horiz-adv-x="1079" d="M-49 672q-2 30 -2 59q0 335 215 461q131 76 330 84q23 0 70.5 -24.5t70.5 -24.5q47 33 235 82q6 -115 39 -314l45 -276q-10 -25 -53 -39q-61 -20 -78 -31q127 -37 283 -37v-15q0 -73 -16 -200q-19 -141 -19 -209q0 -134 59 -247q-147 -127 -256 -127q-119 0 -126 172 q-4 82 -19 120q-55 -10 -217 -63q-131 -43 -201 -43q-104 0 -172 82q-106 129 -147 274q-31 106 -41 316zM287 612q119 47 307 47q-23 319 -254 414q-54 -209 -54 -409q0 -26 1 -52zM311 483q35 -227 217 -336q63 49 80 142q8 47 8 170q-51 0 -152.5 12t-152.5 12z" />
<glyph unicode="H" horiz-adv-x="1253" d="M-51 1169q100 78 110 86q78 53 123 54q109 0 201 -244l121 -324q176 39 389 50q0 322 117 528q47 47 129 59q41 6 166 6q-8 -166 -82 -483q-70 -299 -70 -442q0 -195 90 -346q-43 -55 -129 -82q-16 -6 -153 -35q-92 176 -93 414v104l2 117q-236 0 -344 -45 q-45 -18 -45 -68q0 -43 43 -143q47 -106 51 -150q-12 -6 -151 -65q-88 -37 -158 -51q0 307 -78 553q-70 221 -239 507z" />
<glyph unicode="I" horiz-adv-x="1060" d="M-51 1434q150 39 301 39q164 0 385 -52l403 -94q1 -8 1 -15q0 -102 -156 -102q-106 0 -267 45q-6 1 -11 1q-63 0 -128 -183q-61 -174 -61 -262q0 -117 47 -264q53 -174 131 -225q317 155 510 155q8 -25 8 -45q0 -55 -68 -88q-49 -25 -156.5 -45t-154.5 -43 q-98 -47 -297 -141q-188 -88 -313 -115q4 14 -9.5 36.5t-13.5 29.5q0 37 103 75l125 47q-186 313 -187 590q0 66 9 144q14 139 110 378q-23 39 -88 39q-23 0 -66 -5t-65 -5q-92 0 -92 93v12z" />
<glyph unicode="J" horiz-adv-x="1275" d="M-51 567q80 180 577 244q20 -72 21 -156q0 -35 -5 -101.5t-5 -100.5q0 -125 57 -220q74 141 74 289q0 154 -97 400q-59 152 -75 178q-29 47 -86 47q-41 0 -146 -21q-186 -37 -270 -49q-6 20 -6 39q0 121 225 139q133 6 401 23q121 10 359 22h354l-6 -106q-41 10 -86 10 q-57 0 -171 -19.5t-173 -19.5q-27 0 -53 2q12 -57 75 -329q45 -195 45 -312q0 -199 -141 -358q-147 -168 -344 -168q-100 0 -147 78q-72 117 -72 287q0 37 3 112.5t3 112.5q-33 6 -67 6q-41 0 -122 -14.5t-122 -14.5z" />
<glyph unicode="K" horiz-adv-x="1058" d="M-51 1067q123 104 186 104q29 0 58 -16q80 -45 118 -158q55 -158 82 -196l207 268q86 84 326 92q-29 -125 -123 -229q-63 -66 -189 -199q15 -1 31 -1q85 0 217 34q170 45 248 45q-80 -225 -80 -463q0 -55 4 -162.5t4 -162.5q-141 -24 -277 -24q-28 0 -56 1q6 61 6 133 q0 29 -2 85t-2 85q0 182 63 320q-35 6 -72 6q-43 0 -122.5 -13.5t-116.5 -15.5q4 -86 68.5 -258t64.5 -238q0 -20 -4 -36q-20 -78 -234 -78q-63 0 -116 10q0 309 -68 549q-61 215 -221 518z" />
<glyph unicode="L" horiz-adv-x="1030" d="M-51 297v49q0 544 129 946q47 72 139 90q51 10 197 11q-6 -147 -86 -449q-80 -289 -80 -420q0 -195 119 -356q84 51 225 182t221 182q125 81 268 89q-127 -215 -383 -410q-285 -215 -505 -215q-242 0 -244 301z" />
<glyph unicode="M" horiz-adv-x="1308" d="M-51 94q0 47 90 246q111 242 162 485q8 35 32 207q16 113 43 189l220 104l122 -41l-40 -235q-25 -143 -25 -244q0 -141 47 -262q49 90 143 270q66 133 66 268q0 70 -21 146q47 6 183 41q109 28 179 28h5q0 -94 -16.5 -281.5t-16.5 -281.5q0 -229 92 -426q14 -33 84 -88 q61 -49 62 -84q0 -10 -4 -22q-53 -115 -205 -115q-57 0 -102 27q-78 45 -115 118q-29 55 -53 162q-29 125 -43 166q-55 -88 -158 -154q-107 -69 -202 -69h-3q-121 0 -133 117q-39 -186 -139 -267q-43 -35 -215 -98q-39 45 -39 94z" />
<glyph unicode="N" horiz-adv-x="1216" d="M-51 41q16 47 170 295q147 238 180 399q12 61 45 365q18 168 80 237q80 90 291 111q-8 -57 -66 -416q-39 -242 -39 -379q0 -293 162 -432h2q24 0 98 156q77 160 77 279q0 16 -1 32q-37 412 -37 442q0 121 62 158q30 19 231 66q63 -336 64 -498q0 -246 -111 -483 q-76 -162 -188 -260q-133 -115 -293 -115q-147 0 -234 121q-63 88 -63 194q0 18 2 37q-70 -139 -164 -223q-104 -92 -217 -92q-27 0 -51 6z" />
<glyph unicode="O" horiz-adv-x="1275" d="M-51 623q0 74 20 147q90 326 293 518q221 207 524 207h23q268 -8 408 -272q110 -211 110 -503v-5q0 -56 -4 -107q-23 -289 -285 -452q-215 -133 -532 -156q-233 10 -397 201q-160 184 -160 422zM272 672q-1 -21 -1 -41q0 -366 415 -432q23 -4 43 -4q154 0 229 176 q55 129 56 305q0 215 -80 389q-95 211 -262 211q-16 0 -33 -2q-205 -23 -293 -215q-59 -127 -74 -387zM432 637q0 68 88 131q72 51 137 51q15 0 29 -2q-12 -74 -90 -129q-133 -94 -143 -104q-20 23 -21 53z" />
<glyph unicode="P" horiz-adv-x="948" d="M-51 1378q18 12 80.5 68.5t138.5 56.5q70 0 166 -67q117 -82 182 -107q47 -16 207 -45q133 -25 192 -57q84 -48 84 -142q0 -131 -137 -245l-258 -172q-137 -92 -137 -179q0 -49 36 -95t106.5 -134t70.5 -139q0 -14 -6 -27q-12 -25 -115.5 -62.5t-140.5 -37.5q-14 0 -25 6 q-176 113 -258 444q-51 211 -69 445l-29 414q-10 16 -41 38q-39 29 -47 37zM381 1192q22 -163 22 -421v-23q218 73 275 327q-135 92 -297 117z" />
<glyph unicode="Q" horiz-adv-x="1120" d="M-51 428q0 143 98 363q150 336 180 387q70 119 183 168q84 37 391 104q-1 0 -1 -1q0 -3 89 -22q121 -25 133 -47q63 -119 80 -155q29 -68 49 -163t20 -204q0 -301 -137 -493q-8 -12 -8 -48q4 -43 14 -172q2 -30 2 -54q0 -59 -14 -77q-60 -71 -197 -71h-4q-139 0 -139 69 q0 14 8 31q-14 4 -32 4q-51 0 -151.5 -24.5t-154.5 -24.5q-260 0 -358 209q-51 109 -51 221zM262 485q0 -245 334 -319q119 82 119 211q0 133 -115 266q-104 121 -238 176q-100 -209 -100 -334zM600 1167q0 -80 90 -180q148 -166 158 -180q-12 213 -45 317q-49 153 -149 153 q-8 0 -17 -1q-37 -55 -37 -109z" />
<glyph unicode="R" horiz-adv-x="1034" d="M-51 1348q115 94 207 94q59 0 192 -58q168 -72 295 -100q301 -66 301 -194q0 -119 -145 -187q-111 -53 -217 -102q82 -25 251.5 -42t251.5 -42q-84 -125 -124 -346q-28 -149 -28 -274q0 -23 1 -44q-57 -63 -174 -63q-45 0 -117 10q0 264 86 590q-82 43 -164 55 q-53 8 -174 8q-6 -41 -6 -80q0 -193 197 -426q-96 -63 -142 -86q-74 -35 -153 -41q-23 82 -125 357q-80 209 -96 424q-5 66 -5 175.5t5 260.5q-80 35 -82 37q-31 20 -35 74zM385 868q236 31 236 125q-1 78 -93 101q-47 10 -143 28v-254z" />
<glyph unicode="S" horiz-adv-x="1165" d="M-51 1333q88 66 198 80q42 6 110 6q47 0 107 -3t108 -3q68 0 110 6q223 29 313 39q143 17 317 23q4 -33 5 -66q0 -106 -54.5 -313t-54.5 -316q-74 -6 -231 -43q137 -156 137 -305q0 -164 -152 -288q-127 -106 -303 -144q-29 -6 -65 -6q-117 0 -205 72q-94 76 -109 188 q-6 47 -6 76q0 94 68 131q45 25 233 68q-33 -63 -33 -134q0 -164 160 -288q147 186 148 299q0 53 -21 100q-111 256 -506 256q-49 0 -106 -2q-10 49 -64 293q-35 160 -104 274zM233 1303l5 -58l100 68zM418 1073q0 -33 10 -65q29 -88 162 -131q176 -58 217 -91 q-4 238 -12 293q-33 201 -158 201q-39 0 -78 -8q-63 -14 -102 -72.5t-39 -126.5z" />
<glyph unicode="T" horiz-adv-x="1171" d="M-51 1108q160 160 366 227q127 41 406 74q295 35 455 76l47 -47q-80 -86 -232 -117q-201 -41 -264 -72q-76 -37 -76 -112q0 -66 60 -195q72 -158 86 -211q25 -90 135 -278q96 -162 96 -250q0 -92 -60.5 -152.5t-154.5 -60.5q-31 0 -90 5t-90 5q-16 72 -47 299 q-23 166 -72 291q-10 25 -113 223q-65 125 -65 207q0 72 37 135q-61 0 -177 -26.5t-173 -26.5q-37 0 -74 6z" />
<glyph unicode="U" horiz-adv-x="966" d="M-51 545q0 240 82 581q147 117 354 117q-6 -96 -63 -303q-53 -195 -54 -303q0 -78 23 -154q49 -164 84 -225q60 -105 150 -105q9 0 18 1q80 8 112 180q6 33 29 303q4 49 4 74q0 84 -35 254q-32 151 -32 230v13q117 57 196 58q47 0 74 -23q127 -289 127 -618 q0 -190 -49 -310q-59 -145 -204 -228t-323 -87h-23q-341 0 -423 229q-47 133 -47 316z" />
<glyph unicode="V" horiz-adv-x="1282" d="M-51 1296q115 111 119 115q88 78 131 78q33 0 67 -39q127 -137 223 -358q139 -322 191 -408q18 41 151 264q84 139 107 283q16 98 100 172t185 74q110 0 110 -74q0 -45 -61 -133q-86 -123 -96 -144l-160 -307q-115 -256 -135 -713q-41 -25 -125 -69.5t-135 -44.5 q-20 0 -35 8q-20 86 -94 307q-86 225 -222 531q-109 246 -321 458z" />
<glyph unicode="W" horiz-adv-x="1755" d="M-51 1339q78 86 139 123q80 47 178 47q51 -121 131 -249l158 -256q43 78 45 229q4 160 21 207q41 29 144 65.5t146 36.5q10 0 15 -4q47 -381 153 -610q74 100 185 348q109 240 180 330q114 143 307 180q55 -2 55 -55q0 -78 -211 -437q-229 -391 -280 -573 q-33 -119 -33 -309q0 -303 -8 -357q-109 -35 -139 -43q-80 -23 -144 -26q-4 102 -67 278q-70 186 -78 277q-6 6 -8 12q2 16 -7 49q-36 -59 -36 -141q0 -53 22 -176q15 -84 15 -139q0 -17 -1 -31q-215 -104 -315 -115q0 373 -162 702q-82 168 -405 637z" />
<glyph unicode="X" horiz-adv-x="927" d="M-51 1315q96 88 149 119q82 47 181 47q23 -113 71 -211q27 -51 117 -191q66 100 160 334q237 105 352 105q-29 -135 -174 -369q-168 -270 -209 -367q51 -129 129 -290q47 -94 184 -369q-4 -33 -118 -86q-106 -49 -150 -49q-14 0 -20 6q-66 137 -201 379 q-43 -92 -123 -291q-37 -33 -127 -49q-115 -20 -152 -37l-47 47q133 252 164 324q86 195 109 350q-39 100 -117 301q-74 182 -178 297z" />
<glyph unicode="Y" horiz-adv-x="1177" d="M-373 -184q295 215 520 301q258 98 588 98v19q0 95 -37 102q-41 -14 -125 -45q-96 -33 -155 -33q-150 0 -228 121q-68 102 -67 260q0 326 147 592q135 94 299 115q43 -8 43 -46q0 -35 -102 -229t-104 -291v-24q0 -108 32 -187q48 -118 151 -118h5q68 2 94 141 q68 348 92 448q63 256 131 349q195 98 318 98q-20 -207 -70 -395q-23 -82 -119 -381q-16 -51 -16 -111q0 -98 53 -244q72 -195 78 -221q10 -41 10 -78q0 -139 -194 -209q-74 -27 -114 -27q-13 0 -23 3q-14 88 -168 153q-121 51 -211 51q-14 0 -27 -1q-233 -25 -393 -78 q-176 -57 -361 -180z" />
<glyph unicode="Z" horiz-adv-x="1173" d="M-51 1130q0 23 4 48q39 110 287 110h4q90 0 202 -16q453 80 684 94l48 -47q-96 -158 -265 -358q-193 -229 -247 -312q-127 -182 -195 -391q143 14 377 47q-12 63 -12 127q0 213 190 230h-3q0 -2 155 -3q-20 -113 -21 -180q0 -122 68 -243q-299 -14 -549 -74 q-156 -37 -535 -162q-57 47 -57 106q0 51 53 138q74 117 86 147q84 201 240 406l291 381q-39 4 -76 4q-86 0 -186 -27l-187 -49q47 -176 47 -236q-55 -10 -155.5 -47t-149.5 -47q-8 39 -61 185q-37 102 -37 169z" />
<glyph unicode="[" horiz-adv-x="2865" d="M0 813q231 184 616 334q365 143 680 186q479 66 650 66q466 0 919 -242l-22 -92q-193 0 -564.5 77t-560.5 77q-102 0 -207 -15q152 -242 183 -299q78 -143 78 -217q0 -90 -119 -102q-78 -8 -103 -8q-78 0 -123 84l-155 368q-53 125 -193 125q-137 0 -501.5 -175 t-505.5 -175q-39 0 -72 8zM1419 371q76 117 297 116l53 -120q-43 2 -120 -5q-84 -8 -119 -8q-63 0 -111 17z" />
<glyph unicode="]" horiz-adv-x="2650" d="M-2 1020q45 63 149 94q14 4 191 33q578 94 979 94q276 0 665 -82q426 -90 666 -104q0 -111 -119 -164q-18 -8 -231 -94q-330 -168 -604 -168q-180 0 -353 69q-18 -68 -18 -131q0 -90 51 -223q68 -176 84 -248q8 -25 37 -116q20 -66 21 -113q0 -68 -46.5 -110t-115.5 -42 q-27 0 -77 4.5t-77 4.5q-76 203 -104 540q-31 346 -105 529q-14 33 -43 100q-23 57 -22 98q0 66 65 111q-139 2 -395 -57.5t-377 -59.5q-113 0 -221 35zM1233 -416q2 23 2 45q188 51 283 52q39 -1 86 -5q-23 -78 -127 -106q-25 -6 -217 -33q-25 25 -27 47zM1253 1090 q12 -162 185 -244q133 -63 315 -64q143 0 266 39q160 52 215 152q-166 10 -491 67q-279 49 -490 50z" />
<glyph unicode="_" horiz-adv-x="2050" d="M25 -653q260 293 737 452q406 135 825 135q301 0 463 -69q9 -24 25 -47q-129 -141 -301 -213q-115 -47 -336 -94q-266 -55 -377 -95q-121 -43 -361 -129q-197 -70 -338 -69q-190 0 -337 129zM342 -612q94 -12 188 -13q313 0 660 146q207 90 625 272q-100 47 -246 47 q-92 0 -291 -28q0 -92 -178 -93q-29 0 -83 5.5t-83 5.5q-387 0 -592 -342z" />
<glyph unicode="a" horiz-adv-x="1220" d="M-51 1167q125 100 295 127l309 21q193 14 340 90q0 -238 43 -426q43 -180 145 -401q190 -409 190 -490q0 -7 -1 -12q-12 -39 -96 -86t-130 -47q-61 0 -104 96q-18 41 -47 147q-37 135 -78 150q-31 10 -57 10q-88 0 -158 -84q-61 -72 -80 -168q-61 -72 -311 -94 q0 152 51 291q31 84 121 260q84 168 117 264q35 106 34 189q0 84 -40 106q-68 37 -170 37q-111 0 -326 -55zM621 420q80 6 143 69q-6 29 -24.5 83.5t-24.5 82.5q-23 -74 -94 -235z" />
<glyph unicode="b" horiz-adv-x="1464" d="M-51 1036q229 193 373 273q193 109 430 153q164 31 225 31q143 0 151 -102q2 -24 2 -48q0 -237 -178 -464q172 59 289 59q133 0 229 -72q45 -35 46 -129q0 -117 -58 -219q-176 -317 -338 -471q-223 -213 -493 -219h-8q-85 0 -154 42q-72 44 -92 128q-8 33 -8 76 q0 80 75 256q51 119 52 207q0 31 -7 57q-18 102 -61 303q-39 162 -180 162q-55 0 -129 -39q-94 -49 -138 -59q-8 29 -28 75zM516 1262q127 -72 211 -261q106 150 107 234q0 49 -28 84t-79 35q-94 0 -211 -92zM768 -8q102 98 203 201q86 86 139 200q61 123 61 236 q0 145 -117 145q-12 0 -26 -2q-162 -20 -219 -186q-39 -115 -39 -361q0 -186 -2 -233z" />
<glyph unicode="c" horiz-adv-x="1241" d="M-51 487q0 154 61 379q39 133 115 404q276 49 463 49q438 0 704 -268q-61 -55 -143 -56q-92 0 -268 84q-211 100 -301 125q-31 8 -50 8q-123 0 -188 -176q-51 -139 -51 -331q0 -188 59 -371q68 -207 156 -207q20 0 39 10q98 53 203 207q145 211 167 236q103 112 228 112 h2q1 -13 1 -25q0 -251 -228 -458q-233 -209 -502 -209q-137 0 -244 66q-223 137 -223 421z" />
<glyph unicode="d" horiz-adv-x="1114" d="M-51 788q0 141 112 193q61 -76 160 -270q90 -182 166 -265q-16 350 -209 836q50 39 154 118q99 75 165 75h7q236 -16 452 -222q210 -201 210 -412q0 -17 -1 -34q-25 -319 -305 -559q-268 -229 -596 -248h-9q-108 0 -149 145q-20 94 -67 279q-90 299 -90 364zM647 1057 q94 -265 94 -582q109 106 109 242q0 209 -203 340z" />
<glyph unicode="e" horiz-adv-x="997" d="M-51 956q0 334 303 445q94 35 283 63q27 4 59 4q180 0 289 -137q59 -80 59 -147q0 -51 -35 -97q-152 -193 -551 -411q37 -160 103 -277q94 -168 215 -168q68 0 110 84q20 45 29 105q2 13 2 29q0 52 -20 137q-27 121 -27 168q0 29 6 49q98 90 248 127q27 -111 27 -230 q0 -240 -103 -413q-113 -189 -330 -269q-45 -16 -92 -16q-137 0 -258 131q-100 109 -155 258q-37 96 -109 293q-53 150 -53 272zM315 838q125 35 220 106q120 90 120 199q0 90 -108 145q-63 31 -119 31q-41 0 -78 -16q-112 -51 -112 -210q0 -144 77 -255z" />
<glyph unicode="f" horiz-adv-x="1175" d="M-51 981q0 158 157 174q74 8 406 62q266 43 406 43q196 -1 309 -64q-47 -8 -148 -63q-92 -49 -153 -54q-11 -1 -47 -1q-73 0 -248 3h-23q-144 0 -239 -24q-78 -20 -78 -103q0 -66 45 -168l78 -172q213 51 331 52q111 0 232 -33q-37 -115 -203 -148q-74 -14 -301 -14v-15 q0 -140 105 -329q-39 -72 -142 -94q-63 -10 -190 -33q-20 422 -201 422q-16 0 -31 -4q4 35 4 71q0 84 -34.5 247t-34.5 245z" />
<glyph unicode="g" horiz-adv-x="1196" d="M-51 662q0 125 114 223q51 41 152 125h-7q-50 0 -110 -25l-45 70q74 63 164 96q59 23 184 45.5t185 44.5q86 35 260 100q141 53 246 54q77 0 155 -27q-57 -88 -162 -127q-61 -23 -215 -47q-141 -23 -215 -57q-141 -66 -243 -148q-145 -117 -146 -225q0 -53 35 -102 q608 362 780 362q125 0 125 -162q0 -197 -248 -665q-104 -197 -245 -197q-94 0 -228 88q-43 29 -247 191q-131 104 -193 174q-96 111 -96 209zM436 532q186 -166 324 -208q76 143 104 235q35 113 35 252q-145 0 -260 -80q-76 -51 -203 -199z" />
<glyph unicode="h" horiz-adv-x="1193" d="M-51 1294q0 59 86 107q74 39 139 39q92 0 117 -62q51 -123 71 -284q33 -252 46 -299q135 74 200 133q94 86 131 200q23 115 52 365q29 51 104 70q43 10 149 14q10 -106 11 -234q0 -66 -3 -194.5t-3 -194.5q0 -207 36 -342q45 -170 160 -301q-53 -63 -129 -94 q-45 -18 -160 -39q-98 272 -120 348q-57 199 -58 363q-63 -49 -209 -137q-121 -72 -123 -86q-6 -20 -6 -48q0 -45 33 -212q20 -105 20 -184q0 -36 -4 -66q-12 -84 -102 -121q-61 -25 -186 -35l-43 344q-2 12 -37 39t-37 39q0 12 25.5 53t25.5 53q-39 299 -112 605 q-6 23 -41 81q-33 53 -33 80z" />
<glyph unicode="i" horiz-adv-x="608" d="M-51 1133q35 37 106 108q59 55 117 55q92 0 145 -90q23 -39 49.5 -135t49.5 -137q113 -215 157 -422q29 -147 86 -444q-88 -27 -288 -68q-45 137 -107 414q-55 248 -102 368q-76 195 -213 351z" />
<glyph unicode="j" horiz-adv-x="798" d="M-51 299q0 145 127 272q111 109 264 158q23 -14 45 -22q-16 -70 -98 -203q-70 -115 -70 -187q0 -39 12 -75q39 -117 152 -117q84 0 154 59q55 47 55 99q0 12 -4 24q-51 190 -215 436q-213 322 -275 453q106 23 289 90q66 -72 131 -194q57 -102 113 -207 q221 -385 221 -537q0 -151 -176 -239q-223 -111 -387 -111q-178 0 -279 131q-59 78 -59 170z" />
<glyph unicode="k" horiz-adv-x="1267" d="M-51 1120q96 96 342 176q43 -80 106 -151q14 -16 129 -131q49 55 148 162q82 84 186 84q37 0 78 -11q0 -72 -72 -139q-125 -117 -127 -121q111 -94 269 -125q104 -20 309 -20q2 -13 2 -24q0 -117 -184 -118q-100 0 -240 37q-131 37 -227 86q-57 -242 -93 -379 q-53 -207 -122 -307q-99 -140 -257 -140q-12 0 -24 1l-47 47q70 86 111 178q12 27 77 199q-6 25 -22 47q-109 -84 -283 -141q-10 43 -10 84q0 109 78 225l168 209q-68 86 -295 272z" />
<glyph unicode="l" horiz-adv-x="940" d="M-51 1208q143 123 241 123q92 0 195 -137q31 -41 154 -221q39 -57 39 -146q0 -102 -123 -497q96 0 245.5 94t237.5 100q18 -28 53 -65q-51 -66 -125 -103q-47 -23 -150.5 -52.5t-152.5 -53.5q-57 -29 -211 -146q-111 -84 -221 -104q-14 51 -14 104q0 92 65 267 q70 182 74 272q1 11 1 21q0 97 -50 186q-33 59 -128 174t-130 184z" />
<glyph unicode="m" horiz-adv-x="1327" d="M-51 1124q0 49 22 56q5 2 10 2q97 0 156 -592l47 -47l156 405q80 205 168 402q102 -123 158 -394q63 -309 131 -438q57 121 112 352q59 254 101 357q115 -61 139 -88q37 -43 53 -142q4 -31 49 -338q12 -82 76 -264q51 -145 51 -268q0 -59 -10 -127q-119 74 -162 221 q-16 59 -45 285q-23 186 -82 295q-98 -197 -139 -400q-23 -131 -72 -395q-131 -39 -151 -39h-2q2 4 12 8q-47 139 -119 402q-78 279 -116 401q-86 -158 -140 -381q-78 -324 -102 -397q-125 4 -150 203q-10 121 -34 362q-6 59 -70 307q-47 186 -47 252z" />
<glyph unicode="n" horiz-adv-x="1359" d="M-51 1102q51 18 166 80q104 57 170 73q55 -106 59 -292q4 -209 35 -304q111 168 184 381q57 162 107 203q76 63 299 78q49 -119 49 -283v-73q0 -160 45 -275q111 -279 137 -336q80 -167 211 -329q-39 -27 -156.5 -65t-173.5 -42q-160 213 -233 346q-115 209 -133 395 q-4 4 -6 5q4 0 6 -5q-197 -295 -242 -593q-74 -49 -145 -54q-6 -2 -178 -12q-51 178 -84 557q-29 324 -117 545z" />
<glyph unicode="o" horiz-adv-x="1058" d="M-51 514q0 362 172 625q188 283 528 356q39 8 80 8q197 0 301 -213q80 -168 80 -387q0 -92 -16 -178q-57 -299 -226 -496q-195 -231 -475 -231q-193 0 -323 166q-121 154 -121 350zM270 659q0 -174 56 -301q72 -166 219 -194q104 113 166 317q53 182 53 359 q0 343 -184 503q-184 -115 -205 -374l-64 -11q-41 -150 -41 -299z" />
<glyph unicode="p" horiz-adv-x="948" d="M-51 1284q70 70 188 78q158 12 215 39q231 110 405 110h3q194 0 229 -145q10 -43 10 -86q0 -117 -88 -246q-49 -70 -168 -196q-82 -86 -106 -136q-29 -61 -29 -165q0 -63 18.5 -189.5t18.5 -189.5q0 -33 -8 -54q-27 -66 -125 -88q-45 -10 -190 -16q-39 139 -80 438 q-41 293 -84 439q-66 223 -209 407zM362 1278q106 -176 142 -373l121 178q65 100 65 190v5q-2 78 -98 78q-109 0 -230 -78z" />
<glyph unicode="q" horiz-adv-x="1157" d="M-51 707q0 219 78 393q94 211 276 270q70 23 152 23q141 0 255.5 -74t161.5 -203q41 -113 41 -237q0 -70 -16 -189q-20 -145 -25 -205q195 -238 336 -338q-109 -109 -229 -120q-92 86 -150 135q-47 41 -63 41q-12 0 -41 -33q-143 -168 -319 -168q-233 0 -334 188 q-123 231 -123 517zM244 723q0 -184 45 -324q66 -205 209 -209q37 25 69 82q31 53 31 87q0 8 -2 16q-14 57 -161.5 188t-160.5 228q182 106 238 106q61 0 133 -76q0 193 -14 258q-29 129 -133 185q-23 12 -45 12q-74 0 -131 -121q-37 -82 -56 -186q-22 -112 -22 -235v-11z " />
<glyph unicode="r" horiz-adv-x="1355" d="M-51 1133q115 170 260 170q37 0 78 -7q176 92 426 99h9q91 0 179 -39q113 -51 113 -137q0 -20 -6 -39q-43 -121 -136 -215q-55 -57 -202 -164q123 -106 385 -205q235 -88 352 -217q-98 -35 -190 -35q-133 0 -334 96q-250 119 -361 150q0 -78 21.5 -233.5t21.5 -233.5 q0 -33 -6 -49q-96 -35 -141 -47q-80 -23 -148 -27q0 260 -80 606q-72 311 -151 473q-10 -6 -21 -6q-29 0 -69 60zM348 1190q70 -164 74 -176q39 -102 53 -183q47 49 141 146q72 78 72 160q0 112 -119 112q-100 0 -221 -59z" />
<glyph unicode="s" horiz-adv-x="1021" d="M-51 842q-1 9 -1 18q0 81 68 144q25 23 166 112q-10 2 -21 2q-30 0 -71 -12q-66 -20 -86 -21q-45 0 -55 52q102 76 229 88q61 6 256 18q8 0 275 35q167 22 247 22h7h5q103 0 104 -35q0 -2 -1 -5q2 -6 2 -12q0 -39 -98 -52q-16 -2 -254 -25q-176 -16 -266 -55 q-207 -88 -207 -211q0 -82 102 -168q84 55 256 162q133 80 262 80q41 0 93 -10q98 -18 98 -219q0 -217 -98 -392q-203 -358 -627 -358q-66 0 -114 57.5t-48 124.5q0 23 10 49q49 125 273 185q0 -35 -15.5 -103.5t-15.5 -101.5q0 -61 53 -84q18 -8 31 -8q45 0 90 61 q129 176 160 357q14 82 14 264h-4q-91 0 -147 -90q-33 -61 -103 -185q-49 -82 -168 -82q-88 0 -147 56l-164 153q-80 90 -90 189z" />
<glyph unicode="t" horiz-adv-x="1093" d="M-51 1149q61 4 170 31q133 33 162 37q0 29 17 74.5t19 68.5q141 31 322 31q-4 -39 -57 -222q72 -16 149 -16q37 0 197 16q60 6 114.5 6t102.5 -6q-29 -92 -43 -108q-20 -25 -74 -25q-39 0 -128 3t-136 3q-123 -2 -252 -14q-72 -170 -211 -569q-6 -25 -6 -51 q-1 -90 67 -176q61 -78 140 -79q8 0 16 1q104 10 105 217q0 84 -13.5 126t-64.5 105q-70 82 -70 121q0 27 17 51q199 65 311 65q12 0 24 -1q0 -86 51.5 -249t51.5 -237q0 -94 -60 -168q-147 -184 -419 -184q-119 0 -234 43q-164 61 -211 311q-8 43 -8 86q0 104 74 238 q94 172 118 266q12 43 12 69.5t-12 35.5q-37 0 -110.5 8t-110.5 8q-16 43 -20 84z" />
<glyph unicode="u" horiz-adv-x="1271" d="M-55 662q1 -70 2 -70q2 0 2 471q0 39 141 76q117 32 176 32h4q20 0 39 -2v-837l47 12q201 274 201 555q0 127 -37 270q90 41 201 41q76 0 141 -18q37 -63 37 -143q0 -27 -4 -78t-4 -78q0 -70 18 -125q144 -432 414 -702q-51 -74 -188 -74q-55 0 -166 16 q-104 137 -277 389q-70 -47 -125 -141q-61 -106 -96 -139q-76 -70 -227 -99q-66 -12 -107 -12q-80 0 -108 57q-76 158 -84 599z" />
<glyph unicode="v" horiz-adv-x="1136" d="M-51 741q0 84 86 242q92 170 104 279q59 72 144 100q61 20 176 29q-20 -174 -21 -289q0 -262 115 -512q59 100 152 346q82 217 151 305q106 133 274 133l58 -78q-432 -627 -447 -825q-4 -92 -18 -276q-8 -82 -70 -115q-37 -20 -241 -80q-49 121 -119 408 q-57 233 -141 393q-68 -31 -201 -94q-2 18 -2 34z" />
<glyph unicode="w" horiz-adv-x="1476" d="M-51 1108q68 96 295 188q45 -45 223 -430q25 184 68 348q70 41 292 136q39 -248 158 -478l115 258q63 141 137 213q88 92 221 119q8 -14 35 -33.5t35 -31.5q-215 -184 -311 -615q-43 -193 -79 -612q-84 -115 -294 -170q-47 94 -61.5 297t-55.5 293q-12 -41 -12 -96 t17.5 -164t17.5 -164q-96 -109 -306 -166q-61 348 -161 584q-117 272 -334 524z" />
<glyph unicode="x" horiz-adv-x="892" d="M-51 1186q33 47 114 98q90 57 121 90q84 -57 162 -172q4 -6 121 -205q53 63 94 174q51 139 66 164q51 41 137 78q76 27 149 55q0 -2 19 -43q12 -29 12 -43q-78 -201 -336 -620q145 -305 305 -400q-59 -115 -286 -208q-51 27 -99 106q-59 100 -86 125q-57 -125 -145 -403 q-76 -111 -279 -138v24q0 296 279 767q-154 406 -348 551z" />
<glyph unicode="y" horiz-adv-x="1056" d="M-51 606q0 166 78 361q47 109 139 325q63 37 166 62q137 33 168 45v-14q0 -105 -58 -201q-39 -61 -116 -187q-63 -109 -64 -239q0 -84 33 -197q43 -143 104 -143q23 0 43 26q131 174 176 428q23 154 70 461q199 33 330 33q-8 -74 -8 -147q0 -123 67 -471q31 -156 31 -293 q0 -453 -346 -674q-246 -158 -592 -158q-2 10 -51 176q-31 102 -31 172q0 92 53 166l62 66q34 36 34 53q0 3 -1 6h-9q-81 0 -165 71q-87 75 -103 161q-10 53 -10 112zM348 63q0 -96 29 -172q41 -104 121 -104q43 0 92 31q186 119 186 463q0 57 -4 176q-109 -205 -395 -215 q-29 -80 -29 -179z" />
<glyph unicode="z" horiz-adv-x="1093" d="M-51 958q88 88 213 146q80 35 239 110q92 47 519 289q27 -23 77 -82q-244 -193 -409 -610q-145 -369 -146 -653q0 -113 47 -193q57 -96 164 -96q72 0 135 63q53 55 78 131q20 61 21 117q0 92 -70 246q-80 174 -96 264q78 37 223 94q201 -115 201 -407q-1 -86 -19 -172 q-37 -172 -278 -373q-225 -188 -359 -190h-12q-152 0 -246 98q-98 102 -98 264q0 82 27 174l137 473q70 229 188 453q-78 -12 -237 -100q-147 -82 -246 -89q-18 18 -53 43z" />
<glyph unicode="{" horiz-adv-x="2854" d="M0 713q383 242 915 241q279 0 603 -71q76 -14 223 -43q92 -18 127 -62l186 58l-444 86q-227 45 -353 108q-190 96 -229 266q72 14 131 15q84 0 144 -25q16 -160 565 -305q111 -29 337 -66.5t337 -66.5q172 -45 313 -129q-84 -43 -178 -43q-37 0 -219 33q-139 25 -246 4 q-551 -109 -596 -297q-18 -74 -129 -74q-55 0 -111 31q-63 37 -63 88q0 53 82 108q20 12 145 80l117 64q-51 8 -193 41q-377 94 -624 100q-147 4 -405.5 -81t-360.5 -85q-49 0 -74 25z" />
<glyph unicode="}" horiz-adv-x="1456" d="M0 1159q131 121 193 234q70 129 69 290h72q0 -82 -19 -178q-25 -131 -28 -180q205 147 452 148q146 -1 359 -52q-49 0 -149.5 3t-149.5 3q-276 0 -465 -127q10 0 174 -34q90 -18 160 -60q-86 12 -170 13q-104 0 -250 -21q-123 -20 -248 -39zM926 1743q29 2 84 -6 q59 -127 145 -181q39 -25 156 -57q94 -27 145 -78q-109 -20 -213 -106q-182 -150 -192 -156q61 162 239 262q-186 121 -207 138q-113 88 -157 184z" />
<glyph unicode="&#xa0;" />
<glyph unicode="&#xa5;" horiz-adv-x="10377" d="M0 1036q16 80 207 150q53 18 424 127q283 82 446 162q129 63 248 129q248 -6 444 -74q256 -90 345 -266q12 49 18 139q8 98 16 139q63 35 109 55q80 35 135 41q61 -225 137 -372q59 -115 176 -262q100 -123 203 -246q6 162 -33 321q-31 111 -90 332q12 4 133 68 q74 39 136 39q4 -16 47 -142q135 129 321 129q74 0 250 -28q203 -33 328 -45l-2 -2q0 -12 178 -13q186 0 543 15q41 -18 41 -66q0 -49 -2 -96q59 -537 59 -819q0 -131 -2 -138q-14 -66 -101 -65q-96 0 -118 61q-43 113 -51 301q-10 238 -25 316q-168 -123 -520 -172 q-2 -18 -2 -43q2 -135 -8 -357q-78 -25 -242 -71q-61 221 -82 385q-12 92 -41 227q-51 -12 -201 -55q-90 -27 -223 -33q-4 -59 16 -174q25 -127 25 -178q0 -57 -16 -101q-84 -29 -258 -96l3010 -147q-27 88 -76 266q-20 78 -20 285q0 96 -31 301q-29 197 -26 301 q-162 -25 -510 -86q47 -115 137 -349q78 -221 65 -505q-37 -88 -217 -111q-27 92 -39 254q-10 152 -47 252q-12 35 -106 199q-70 121 -70 184q0 39 25 65q-31 4 -90.5 -10t-83.5 -14q-37 0 -35 31q-8 72 178 98q109 16 334 41q254 29 706 100q20 -123 41 -485 q14 -262 82 -465q80 473 80 862q31 16 92 51q-12 29 -37 105q80 31 254 71q106 -268 187 -426q94 -186 237 -403q8 47 8 94q0 96 -41 238l-73 258q55 31 119 55l124 45q70 -102 84 -283q18 -207 54 -296q143 244 176 561q57 25 192 80q57 -578 303 -1194l-110 -70 q-70 -39 -123 -29q-197 442 -191 664q-145 -307 -229 -623q-94 -51 -217 -76q-12 12 -39 29q12 55 12 80q0 37 -26 37q-16 0 -43 -14q-96 170 -107 186q-68 111 -121 172q-102 -68 -317 -131l-57 -262q-14 -61 -43 -78l-103 -29q-6 -59 27 -76q16 -6 90 -6q190 0 559 -20 q377 -23 559 -23q356 -2 600 -35q322 -43 934 -55q543 -10 928 -86l-119 334q-47 162 -53 367q-172 -102 -309 -103q-205 0 -232 244q-4 37 -4 70q0 113 59 276q72 199 91 289q-27 2 -56 2q-201 0 -510 -84q-8 -76 60 -197q106 -190 133 -256q74 -186 74 -399q0 -49 -5 -98 q-47 0 -133 -23q-92 -23 -135 -25q0 231 -4 287q-10 145 -65 275q-16 39 -117 194q-76 117 -76 172q0 45 45 70q-25 4 -49 4q-61 0 -168 -29q-117 -29 -168 -32q27 -287 125 -607q78 -254 170 -436l-184 -25q-39 0 -74 11q-70 98 -133 272q-57 156 -84 293q-29 176 -60 350 q-39 223 -83 338q55 25 122 55q59 20 131 21q12 -78 66 -197q160 37 469 74q322 39 471 72q96 20 238 26q8 33 30 76q47 29 283 55q-4 -135 -70 -323q-100 -287 -100 -518q0 -47 4 -84l35 -45q176 176 252 389q63 184 71 461q72 29 199 28q47 0 100 -4q-10 -117 -73 -375 q-61 -240 -64 -376q-6 -317 80 -588q74 -230 260 -541q-49 -33 -155 -47q-80 -10 -148 -4q-14 66 -61 104q-33 27 -111 52q-215 70 -444 100q-152 20 -457 37l-635 35q-385 16 -645 20q-162 0 -621 21q-520 45 -1933 157q-686 53 -1300 74q-479 16 -1303 16 q-651 0 -1442 -151q-299 -57 -469 -154q-84 -47 -84 -108q0 -98 203 -222q180 -109 350 -153q109 -29 260 -29q129 0 246 29q137 35 602 198q10 4 582 199q301 102 571 227l-569 -262q-276 -121 -584 -223q-18 -6 -454 -174q-254 -98 -465 -133q-25 -4 -178 -4 q-256 0 -492 108q-276 127 -276 295q0 74 65 150q150 174 551 305q283 92 471 113q240 25 496 67q8 96 45 342q-145 33 -482 92q-10 -45 -10 -92t19 -160q16 -98 8 -153q-76 -12 -234 -45q-51 215 -65 313q-20 137 -21 318q-8 8 -6 68.5t-4 66.5q-47 -168 -59 -228 q-20 -109 -21 -237q-100 -117 -164 -164q-96 -72 -198 -72q-143 0 -316 142l-98 -119q-35 -43 -63 -43q-27 0 -72 33l127 211q-51 41 -150 129q-78 74 -78 163q0 78 68 144q45 43 151.5 108.5t149.5 106.5q-74 -10 -250 -66q-152 -47 -225 -41zM365 877l141 -162 q88 88 268 260q145 135 291 135q43 0 88 -10q0 -6 -20 223q-248 -29 -431 -141q-158 -98 -337 -305zM633 618q70 -39 221 -141q6 47 39 221q22 124 22 226q-49 -100 -122 -168q-53 -45 -160 -138zM1415 1409q47 -231 62 -567q78 37 229 110q137 70 137 205q0 106 -147 168 q-33 14 -281 84zM1720 817q41 -10 148 -47q80 -29 149 -33q3 56 66 363q-57 -63 -178 -146q-137 -94 -185 -137zM2193 385q2 20 2 -149q129 0 386.5 11t386.5 11q-12 37 -22.5 110.5t-23.5 108.5q-92 -6 -153 35q-35 23 -87 91.5t-83 88.5q-27 -14 -100 -53 q-207 -102 -240 -127q-57 -41 -66 -127zM2271 625q29 18 135 75q78 41 127 86q-55 82 -182 263q-6 -100 -35 -213q-39 -154 -45 -211zM3242 928q146 18 379 63q0 258 -17 342q-53 0 -141 8q-106 8 -141 11q-29 -129 -80 -424zM4010 877q168 30 506 81q-10 166 -55 367 q-80 0 -195 -10q-133 -12 -195 -15q-49 -240 -61 -423zM6478 590l110 47q56 23 113 33q-20 57 -82 172q-59 109 -80 172q-10 -150 -61 -424z" />
<glyph unicode="&#xf8;" horiz-adv-x="7383" d="M0 1524q4 4 121 108q78 70 119 72q100 -90 325 -170q195 -66 363 -88q158 -20 334 -21q184 0 360 27q8 8 8 21q0 18 -32.5 76.5t-34.5 82.5q23 8 94 47q61 33 98 37q57 -143 131 -205q242 10 1108 152q614 100 1272 100q213 0 638 34t638 34q340 0 526 -129 q131 -90 246 -318q158 -309 227 -407q16 115 19 321q2 242 6 291q41 45 326 115q-2 -20 -39 -330q-20 -172 -21 -289q0 -158 35 -337q74 -379 170 -613q104 -251 346 -618q-74 -63 -178 -64q-49 0 -86 17q-96 188 -211 358q-176 258 -342 379q-190 139 -539 264 q-365 131 -549 254q27 59 31 96q348 -92 563 -176q258 -100 525 -258q-188 291 -332 547q-66 133 -201 393q-104 188 -256 272q-143 78 -489 78q-254 0 -676 -37q-518 -43 -676 -51q-492 -23 -702 -43q-391 -37 -785 -125q41 -10 127 -24q0 -29 -12 -84q201 10 319 -131 q2 39 -12 180q47 66 215 65q0 -133 27 -393q23 -223 16 -393q68 94 199 287q109 164 125 295q41 43 92 51q18 2 125 8q-23 -168 -23 -281q0 -100 17 -247q96 233 190 331q119 127 336 168q43 8 72 9q113 0 233 -64q115 -59 191 -149q25 27 65 26q10 -2 88 -12 q-8 -74 -43 -614q-20 -332 -80 -543q-78 -283 -262 -527q-74 -96 -190 -159q-123 -66 -240 -66q-61 0 -109 21q-147 -76 -249 -76q-72 0 -105 39q-74 -6 -143 -6q-401 0 -643 241q55 -190 47 -534q-29 -43 -105 -72q-66 -25 -127 -24q-68 0 -67 28q-2 246 -23 338 q-47 209 -194 197q-168 47 -162 96q25 178 143 326q45 55 265 258q-37 4 -76 4q-236 0 -505 -105.5t-452 -265.5q-33 -29 -147 -156q-123 -137 -158 -137q-18 0 -55 47q57 123 192 242q14 12 246 190q-12 2 -72 35q-82 -104 -200 -104q-145 0 -267 101.5t-151 244.5 q-14 70 -14 121q0 100 98 311q-84 82 -277 289q100 145 164 145q70 0 199 -125q156 -152 213 -176q8 47 8 113q0 -14 -2 47v45q0 137 57 203q80 92 322 143q-12 12 -23.5 51t-23.5 45q-51 -4 -367 -49q-219 -31 -366 -31q-225 0 -422 68q68 -211 166 -508q94 -287 123 -393 q61 -231 61 -408q0 -88 -12 -120q-20 -57 -90 -76q-6 0 -152 -21q-57 197 -166 633q-84 344 -158 551q-104 299 -276 584zM1133 389q-23 -342 217 -457q10 231 -217 457zM1571 774q0 -209 53 -409q68 -249 191 -355q39 201 38 439q0 203 -32 358q-51 252 -174 285 q-76 -55 -76 -318zM1923 1319q78 -150 141 -350q90 -279 123 -359q-10 137 49 365l76 297q33 41 211 137q-199 0 -600 -90zM2001 -2q35 18 98 43q-33 37 -47 72q-4 -20 -25.5 -57.5t-25.5 -57.5zM2464 596q0 -303 137 -412q84 82 129 244q39 137 39 279q0 387 -242 499 q-63 -498 -63 -610zM2490 -446q43 -29 139.5 -62.5t139.5 -64.5q-57 156 -66 178q-47 111 -96 157q-10 -35 -62.5 -99t-54.5 -109zM2707 -1413q88 165 287 192q-6 -174 -287 -192zM2793 166l66 -12l37 180zM2882 -98q33 -88 100 -264q53 -129 151 -207q115 -93 328 -142 q-324 541 -579 613zM3097 113q197 -76 284 -193q0 485 53 866q-35 -68 -129 -213q-88 -135 -127 -215q-57 -117 -81 -245zM3541 -254q36 -67 145 -192q6 27 7 51q0 47 -29 106q-45 94 -49 107zM3895 535q0 -96 11 -261q180 109 426 439q90 121 90 184q0 86 -81 161t-167 75 q-45 0 -82 -25q-197 -127 -197 -573zM3914 -8q0 -195 73 -398q96 -258 254 -276q115 102 246 602q107 406 191 926q-197 -330 -760 -770q-4 -39 -4 -84z" />
<glyph unicode="&#x2000;" horiz-adv-x="960" />
<glyph unicode="&#x2001;" horiz-adv-x="1921" />
<glyph unicode="&#x2002;" horiz-adv-x="960" />
<glyph unicode="&#x2003;" horiz-adv-x="1921" />
<glyph unicode="&#x2004;" horiz-adv-x="640" />
<glyph unicode="&#x2005;" horiz-adv-x="480" />
<glyph unicode="&#x2006;" horiz-adv-x="320" />
<glyph unicode="&#x2007;" horiz-adv-x="320" />
<glyph unicode="&#x2008;" horiz-adv-x="240" />
<glyph unicode="&#x2009;" horiz-adv-x="384" />
<glyph unicode="&#x200a;" horiz-adv-x="106" />
<glyph unicode="&#x2018;" horiz-adv-x="626" d="M0 1139q184 96 268 96q51 0 86 -25q-8 -68 -141 -98q-86 -20 -188 -20q-8 23 -25 47zM119 973q72 96 235 96q43 0 58 -6q90 -37 147 -154q68 -135 68 -334q0 -149 -37 -327q-180 -78 -260 -78q-31 0 -41 14q-4 143 -17 428q-14 219 -153 361z" />
<glyph unicode="&#x2019;" horiz-adv-x="626" d="M0 1139q184 96 268 96q51 0 86 -25q-8 -68 -141 -98q-86 -20 -188 -20q-8 23 -25 47zM119 973q72 96 235 96q43 0 58 -6q90 -37 147 -154q68 -135 68 -334q0 -149 -37 -327q-180 -78 -260 -78q-31 0 -41 14q-4 143 -17 428q-14 219 -153 361z" />
<glyph unicode="&#x201c;" horiz-adv-x="1026" d="M0 1638q117 98 195 99q37 0 79 -15q78 -27 111 -106q14 -55 45 -168q57 -205 70 -260q26 -127 26 -266q-70 -16 -125 -17q-154 0 -217 137q-27 57 -71 297q-39 207 -113 299zM455 1829q39 8 131 53q80 39 116 39q43 0 62 -43q164 -377 205 -522q57 -203 57 -482 q-63 -12 -106 -12q-139 0 -201 189q-27 80 -51 301q-10 94 -101 239q-96 156 -112 238z" />
<glyph unicode="&#x201d;" horiz-adv-x="940" d="M0 983q0 55 10 129q2 109 15 326q14 171 151 200q47 10 107 7q94 -6 108 -7l-57 -225q-33 -129 -39 -229q-2 -66 -10 -197q-16 -233 -131 -233q-154 0 -154 229zM406 887q0 283 104 510q119 256 324 256q51 -1 106 -15q-6 -154 -127 -417q-125 -272 -135 -418h-262 q-10 12 -10 84z" />
<glyph unicode="&#x202f;" horiz-adv-x="384" />
<glyph unicode="&#x205f;" horiz-adv-x="480" />
<glyph unicode="&#x2122;" horiz-adv-x="3506" d="M0 801q168 252 512 397q276 117 543 123q-27 37 -101 57l-12 60q150 57 356 57q57 0 173 -4t174 -4q39 0 116.5 7t116.5 7q66 0 121 -14q88 -23 129 -137q209 150 440 149q211 0 586 -131q96 -25 192 -47q111 -37 160 -107q-72 -41 -172 -40q-111 0 -301 61 q-211 68 -270 76q-18 2 -35 2q-137 0 -137 -172q0 -127 80 -398q86 -293 243 -292q16 0 33 4q98 14 164 116q10 14 104 179q63 86 150 75q88 -12 88 -86q0 -68 -62 -157q-57 -80 -120 -123q-211 -143 -435 -144q-274 0 -426 228q-211 -244 -376 -361q-219 -154 -443 -153 q-90 0 -182 24q4 20 4 43q0 86 -104 244q-117 176 -135 256q-72 -25 -154 -25q-27 0 -102 4q-125 6 -218 -32q-184 -100 -202 -109q-133 -63 -213 -63q-31 0 -62 6q10 45 158 151q180 129 260 230q137 172 131 379q-20 2 -41 2q-113 0 -211 -66q-31 -20 -190 -168 q-119 -111 -242 -149q-51 33 -88 45zM891 707q66 20 211 47q-2 39 -28.5 109.5t-31.5 103.5q-14 -80 -55 -144q-29 -43 -96 -116zM1331 1241q0 -59 37 -154q51 -129 57 -167q37 70 203 188q137 98 137 195q0 14 -4 28l-399 19q-31 -49 -31 -109zM1442 725q51 -51 69 -119 q97 51 199 254q-215 -70 -268 -135zM1733 354q111 0 165 -94l173 266q111 172 110 260q0 101 -141 109q-170 -201 -213 -266q-94 -143 -94 -275zM2175 1083q-6 -4 12 -4q14 0 37 2q9 2 21 2l-4 50q-18 -12 -66 -50z" />
<glyph unicode="&#xe000;" horiz-adv-x="1464" d="M0 0v1464h1464v-1464h-1464z" />
</font>
</defs>
</svg>
